<svg xmlns="http://www.w3.org/2000/svg" xmlns:xlink="http://www.w3.org/1999/xlink" width="1024" zoomAndPan="magnify" viewBox="0 0 768 767.999994" height="1024" preserveAspectRatio="xMidYMid meet" version="1.0"><defs><clipPath id="5ae8d01c84"><path d="M 76.800781 76.800781 L 691.050781 76.800781 L 691.050781 691.050781 L 76.800781 691.050781 Z M 76.800781 76.800781 " clip-rule="nonzero"/></clipPath><clipPath id="b041ac974b"><path d="M 159.320312 268.800781 L 617 268.800781 L 617 499.199219 L 159.320312 499.199219 Z M 159.320312 268.800781 " clip-rule="nonzero"/></clipPath><clipPath id="81a9cab9c4"><path d="M 195.320312 268.800781 L 580.972656 268.800781 C 590.523438 268.800781 599.679688 272.59375 606.429688 279.34375 C 613.183594 286.09375 616.972656 295.253906 616.972656 304.800781 L 616.972656 463.199219 C 616.972656 483.082031 600.855469 499.199219 580.972656 499.199219 L 195.320312 499.199219 C 185.773438 499.199219 176.613281 495.40625 169.863281 488.65625 C 163.113281 481.90625 159.320312 472.746094 159.320312 463.199219 L 159.320312 304.800781 C 159.320312 284.917969 175.4375 268.800781 195.320312 268.800781 Z M 195.320312 268.800781 " clip-rule="nonzero"/></clipPath><clipPath id="10baac4b19"><path d="M 169.675781 208.644531 L 598.675781 208.644531 L 598.675781 404 L 169.675781 404 Z M 169.675781 208.644531 " clip-rule="nonzero"/></clipPath><clipPath id="e5e109afa4"><path d="M 169.675781 364 L 598.675781 364 L 598.675781 559.644531 L 169.675781 559.644531 Z M 169.675781 364 " clip-rule="nonzero"/></clipPath></defs><g clip-path="url(#5ae8d01c84)"><path fill="#374151" d="M 575.992188 76.800781 L 192 76.800781 C 128.363281 76.800781 76.800781 128.363281 76.800781 192 L 76.800781 575.992188 C 76.800781 639.628906 128.363281 691.191406 192 691.191406 L 575.992188 691.191406 C 639.628906 691.191406 691.191406 639.628906 691.191406 575.992188 L 691.191406 192 C 691.191406 128.363281 639.628906 76.800781 575.992188 76.800781 Z M 276.902344 436.476562 C 287.132812 436.476562 297.71875 434.421875 304.527344 431.136719 C 305.992188 430.40625 307.976562 430.359375 309.582031 431.066406 C 311.144531 431.777344 312.324219 433.195312 312.796875 434.894531 L 316.648438 449.617188 C 317.359375 452.335938 316.035156 455.171875 313.53125 456.375 C 306.417969 459.96875 292.003906 463.820312 273.050781 463.820312 C 226.425781 463.820312 196.300781 433.003906 196.300781 385.367188 C 196.300781 337.539062 229.523438 304.125 277.089844 304.125 C 298.570312 304.125 310.671875 309.535156 313.859375 311.191406 C 316.363281 312.511719 317.59375 315.417969 316.789062 318.136719 L 312.324219 333.214844 C 311.828125 334.890625 310.597656 336.308594 308.992188 336.945312 C 307.644531 337.5625 305.566406 337.585938 304.007812 336.78125 C 296.964844 333.378906 287.605469 331.488281 277.730469 331.488281 C 246.394531 331.488281 227.679688 351.386719 227.679688 384.703125 C 227.703125 417.125 246.113281 436.476562 276.902344 436.476562 Z M 387.066406 463.84375 C 372.558594 463.84375 356.160156 459.660156 347.179688 453.703125 C 344.980469 452.214844 344.035156 449.523438 344.792969 447.066406 L 349.472656 431.5625 C 349.992188 429.792969 351.339844 428.347656 353.015625 427.710938 C 355.070312 427.027344 356.75 427.285156 358.261719 428.253906 C 366.839844 433.546875 378.085938 436.691406 388.296875 436.691406 C 403.371094 436.691406 412.375 429.742188 412.375 418.140625 C 412.375 409.042969 408.6875 402.6875 389.148438 395.125 C 360.742188 385.082031 347.484375 370.40625 347.484375 349 C 347.484375 322.578125 368.988281 304.148438 399.78125 304.148438 C 417.859375 304.148438 429.222656 309.039062 434.375 311.96875 C 436.832031 313.339844 437.96875 316.292969 437.070312 318.988281 L 431.964844 334.089844 C 431.398438 335.742188 430.121094 337.042969 428.515625 337.679688 C 426.90625 338.292969 425.019531 338.175781 423.527344 337.371094 C 418.449219 334.609375 410.128906 331.277344 399.140625 331.277344 C 383.546875 331.277344 378.015625 339.664062 378.015625 346.871094 C 378.015625 355.355469 381.726562 360.859375 402.734375 369.011719 C 431.042969 379.953125 443.09375 394.179688 443.09375 416.675781 C 443.191406 438.441406 428.492188 463.84375 387.066406 463.84375 Z M 515.546875 463.84375 C 501.035156 463.84375 484.636719 459.660156 475.65625 453.703125 C 473.460938 452.214844 472.515625 449.523438 473.269531 447.066406 L 477.949219 431.5625 C 478.46875 429.792969 479.816406 428.347656 481.496094 427.710938 C 483.597656 427.003906 485.273438 427.308594 486.742188 428.277344 C 495.316406 433.546875 506.542969 436.691406 516.773438 436.691406 C 531.875 436.691406 540.878906 429.742188 540.878906 418.140625 C 540.878906 409.042969 537.191406 402.6875 517.648438 395.125 C 489.269531 385.082031 475.988281 370.40625 475.988281 349 C 475.988281 322.578125 497.492188 304.148438 528.28125 304.148438 C 546.359375 304.148438 557.726562 309.039062 562.902344 311.96875 C 565.359375 313.339844 566.492188 316.292969 565.570312 318.988281 L 560.492188 334.089844 C 559.898438 335.742188 558.648438 337.042969 557.039062 337.679688 C 555.457031 338.316406 553.566406 338.222656 552.054688 337.371094 C 546.972656 334.609375 538.632812 331.277344 527.644531 331.277344 C 512.070312 331.277344 506.542969 339.664062 506.542969 346.871094 C 506.542969 355.355469 510.230469 360.859375 531.261719 369.011719 C 559.570312 379.953125 571.621094 394.179688 571.621094 416.675781 C 571.644531 438.441406 556.96875 463.84375 515.546875 463.84375 Z M 515.546875 463.84375 " fill-opacity="1" fill-rule="nonzero"/></g><g clip-path="url(#b041ac974b)"><g clip-path="url(#81a9cab9c4)"><path fill="#374151" d="M 159.320312 268.800781 L 617.417969 268.800781 L 617.417969 499.199219 L 159.320312 499.199219 Z M 159.320312 268.800781 " fill-opacity="1" fill-rule="nonzero"/></g></g><g clip-path="url(#10baac4b19)"><path fill="#f9fbf2" d="M 578.832031 403.480469 C 576.917969 403.480469 575.007812 403.386719 573.105469 403.195312 C 571.199219 403.007812 569.308594 402.722656 567.433594 402.347656 C 565.554688 401.976562 563.699219 401.507812 561.871094 400.953125 C 560.039062 400.394531 558.238281 399.75 556.472656 399.015625 C 554.703125 398.285156 552.976562 397.464844 551.289062 396.5625 C 549.601562 395.660156 547.960938 394.675781 546.371094 393.613281 C 544.78125 392.550781 543.246094 391.410156 541.765625 390.195312 C 540.285156 388.984375 538.871094 387.699219 537.515625 386.34375 C 536.164062 384.992188 534.878906 383.574219 533.664062 382.097656 C 532.453125 380.617188 531.3125 379.082031 530.25 377.492188 C 529.183594 375.902344 528.203125 374.261719 527.300781 372.574219 C 526.398438 370.886719 525.578125 369.160156 524.84375 367.390625 C 524.113281 365.625 523.46875 363.824219 522.910156 361.992188 C 522.355469 360.160156 521.886719 358.308594 521.511719 356.429688 C 521.136719 354.554688 520.855469 352.664062 520.667969 350.757812 C 520.476562 348.855469 520.382812 346.945312 520.378906 345.03125 L 520.378906 267.097656 C 520.378906 266.460938 520.347656 265.824219 520.285156 265.1875 C 520.222656 264.554688 520.128906 263.921875 520.007812 263.296875 C 519.882812 262.671875 519.726562 262.054688 519.542969 261.441406 C 519.355469 260.832031 519.140625 260.230469 518.898438 259.640625 C 518.652344 259.050781 518.378906 258.476562 518.078125 257.914062 C 517.777344 257.351562 517.453125 256.804688 517.097656 256.273438 C 516.742188 255.742188 516.363281 255.230469 515.957031 254.738281 C 515.554688 254.246094 515.125 253.773438 514.671875 253.320312 C 514.222656 252.871094 513.75 252.441406 513.257812 252.035156 C 512.765625 251.632812 512.25 251.253906 511.722656 250.898438 C 511.191406 250.542969 510.644531 250.214844 510.082031 249.914062 C 509.519531 249.613281 508.941406 249.339844 508.351562 249.097656 C 507.761719 248.851562 507.164062 248.636719 506.550781 248.453125 C 505.941406 248.269531 505.324219 248.113281 504.699219 247.988281 C 504.070312 247.863281 503.441406 247.769531 502.808594 247.707031 C 502.171875 247.644531 501.535156 247.613281 500.898438 247.613281 L 267.09375 247.613281 C 266.457031 247.613281 265.820312 247.644531 265.183594 247.707031 C 264.550781 247.769531 263.917969 247.863281 263.292969 247.988281 C 262.667969 248.113281 262.050781 248.269531 261.4375 248.453125 C 260.828125 248.636719 260.230469 248.851562 259.640625 249.097656 C 259.050781 249.339844 258.472656 249.613281 257.910156 249.914062 C 257.347656 250.214844 256.800781 250.542969 256.269531 250.898438 C 255.738281 251.253906 255.226562 251.632812 254.734375 252.035156 C 254.242188 252.441406 253.769531 252.871094 253.316406 253.320312 C 252.867188 253.773438 252.4375 254.246094 252.035156 254.738281 C 251.628906 255.230469 251.25 255.742188 250.894531 256.273438 C 250.539062 256.804688 250.214844 257.351562 249.914062 257.914062 C 249.613281 258.476562 249.339844 259.050781 249.09375 259.640625 C 248.851562 260.230469 248.636719 260.832031 248.449219 261.441406 C 248.265625 262.054688 248.109375 262.671875 247.984375 263.296875 C 247.863281 263.921875 247.769531 264.554688 247.707031 265.1875 C 247.644531 265.824219 247.613281 266.460938 247.613281 267.097656 L 247.613281 345.03125 C 247.609375 346.945312 247.515625 348.855469 247.324219 350.757812 C 247.136719 352.664062 246.855469 354.554688 246.480469 356.429688 C 246.105469 358.308594 245.636719 360.160156 245.082031 361.992188 C 244.523438 363.824219 243.878906 365.621094 243.148438 367.390625 C 242.414062 369.160156 241.59375 370.886719 240.691406 372.574219 C 239.789062 374.261719 238.804688 375.898438 237.742188 377.492188 C 236.679688 379.082031 235.539062 380.617188 234.324219 382.097656 C 233.113281 383.574219 231.828125 384.992188 230.476562 386.34375 C 229.121094 387.699219 227.707031 388.984375 226.226562 390.195312 C 224.746094 391.410156 223.210938 392.550781 221.621094 393.613281 C 220.03125 394.675781 218.390625 395.660156 216.703125 396.5625 C 215.015625 397.464844 213.289062 398.285156 211.519531 399.015625 C 209.753906 399.75 207.953125 400.394531 206.121094 400.953125 C 204.289062 401.507812 202.4375 401.976562 200.558594 402.347656 C 198.683594 402.722656 196.792969 403.007812 194.886719 403.195312 C 192.984375 403.386719 191.074219 403.480469 189.160156 403.480469 C 188.523438 403.480469 187.886719 403.449219 187.25 403.386719 C 186.617188 403.324219 185.984375 403.230469 185.359375 403.109375 C 184.734375 402.984375 184.117188 402.828125 183.503906 402.644531 C 182.894531 402.457031 182.292969 402.242188 181.707031 402 C 181.117188 401.753906 180.539062 401.484375 179.976562 401.183594 C 179.414062 400.882812 178.867188 400.554688 178.335938 400.199219 C 177.804688 399.84375 177.292969 399.464844 176.800781 399.058594 C 176.308594 398.65625 175.835938 398.226562 175.382812 397.777344 C 174.933594 397.324219 174.503906 396.851562 174.101562 396.359375 C 173.695312 395.867188 173.316406 395.355469 172.960938 394.824219 C 172.605469 394.292969 172.277344 393.746094 171.976562 393.183594 C 171.675781 392.621094 171.40625 392.042969 171.160156 391.453125 C 170.917969 390.867188 170.703125 390.265625 170.515625 389.65625 C 170.332031 389.042969 170.175781 388.425781 170.050781 387.800781 C 169.925781 387.175781 169.835938 386.542969 169.769531 385.910156 C 169.707031 385.273438 169.675781 384.636719 169.675781 384 C 169.675781 383.359375 169.707031 382.722656 169.769531 382.089844 C 169.835938 381.453125 169.925781 380.824219 170.050781 380.199219 C 170.175781 379.570312 170.332031 378.953125 170.515625 378.34375 C 170.703125 377.734375 170.917969 377.132812 171.160156 376.542969 C 171.40625 375.953125 171.675781 375.378906 171.976562 374.8125 C 172.277344 374.25 172.605469 373.703125 172.960938 373.175781 C 173.316406 372.644531 173.695312 372.132812 174.101562 371.636719 C 174.503906 371.144531 174.933594 370.671875 175.382812 370.222656 C 175.835938 369.769531 176.308594 369.34375 176.800781 368.9375 C 177.292969 368.53125 177.804688 368.152344 178.335938 367.800781 C 178.867188 367.445312 179.414062 367.117188 179.976562 366.816406 C 180.539062 366.515625 181.117188 366.242188 181.707031 366 C 182.292969 365.753906 182.894531 365.539062 183.503906 365.355469 C 184.117188 365.167969 184.734375 365.015625 185.359375 364.890625 C 185.984375 364.765625 186.617188 364.671875 187.25 364.609375 C 187.886719 364.546875 188.523438 364.515625 189.160156 364.515625 C 189.800781 364.515625 190.4375 364.484375 191.070312 364.421875 C 191.707031 364.359375 192.335938 364.265625 192.960938 364.140625 C 193.589844 364.015625 194.207031 363.863281 194.816406 363.675781 C 195.425781 363.492188 196.027344 363.277344 196.617188 363.03125 C 197.207031 362.789062 197.78125 362.515625 198.34375 362.214844 C 198.910156 361.914062 199.453125 361.585938 199.984375 361.230469 C 200.515625 360.878906 201.027344 360.496094 201.519531 360.09375 C 202.015625 359.6875 202.488281 359.261719 202.9375 358.808594 C 203.390625 358.359375 203.816406 357.886719 204.222656 357.390625 C 204.625 356.898438 205.007812 356.386719 205.359375 355.855469 C 205.714844 355.324219 206.042969 354.777344 206.34375 354.214844 C 206.644531 353.652344 206.917969 353.078125 207.160156 352.488281 C 207.40625 351.898438 207.621094 351.296875 207.804688 350.6875 C 207.992188 350.078125 208.144531 349.457031 208.269531 348.832031 C 208.394531 348.207031 208.488281 347.578125 208.550781 346.941406 C 208.613281 346.304688 208.644531 345.671875 208.644531 345.03125 L 208.644531 267.097656 C 208.648438 265.183594 208.742188 263.273438 208.929688 261.371094 C 209.121094 259.464844 209.402344 257.574219 209.777344 255.699219 C 210.152344 253.820312 210.617188 251.96875 211.175781 250.136719 C 211.730469 248.304688 212.375 246.507812 213.109375 244.738281 C 213.84375 242.972656 214.660156 241.242188 215.5625 239.554688 C 216.464844 237.867188 217.449219 236.230469 218.511719 234.636719 C 219.578125 233.046875 220.714844 231.511719 221.929688 230.03125 C 223.144531 228.554688 224.429688 227.136719 225.78125 225.785156 C 227.132812 224.429688 228.550781 223.148438 230.03125 221.933594 C 231.507812 220.71875 233.042969 219.578125 234.636719 218.515625 C 236.226562 217.453125 237.867188 216.46875 239.554688 215.566406 C 241.242188 214.664062 242.96875 213.84375 244.734375 213.113281 C 246.503906 212.378906 248.304688 211.734375 250.132812 211.175781 C 251.964844 210.621094 253.820312 210.15625 255.695312 209.78125 C 257.574219 209.40625 259.464844 209.125 261.367188 208.933594 C 263.273438 208.746094 265.179688 208.648438 267.09375 208.648438 L 500.898438 208.648438 C 502.8125 208.648438 504.71875 208.746094 506.625 208.933594 C 508.527344 209.125 510.417969 209.40625 512.296875 209.78125 C 514.171875 210.15625 516.027344 210.621094 517.859375 211.175781 C 519.6875 211.734375 521.488281 212.378906 523.253906 213.113281 C 525.023438 213.84375 526.75 214.664062 528.4375 215.566406 C 530.125 216.46875 531.765625 217.453125 533.355469 218.515625 C 534.949219 219.578125 536.484375 220.71875 537.960938 221.933594 C 539.441406 223.148438 540.855469 224.429688 542.210938 225.785156 C 543.5625 227.136719 544.847656 228.554688 546.0625 230.03125 C 547.277344 231.511719 548.414062 233.046875 549.480469 234.636719 C 550.542969 236.230469 551.527344 237.867188 552.429688 239.554688 C 553.332031 241.242188 554.148438 242.972656 554.882812 244.738281 C 555.617188 246.507812 556.261719 248.304688 556.816406 250.136719 C 557.375 251.96875 557.839844 253.820312 558.214844 255.699219 C 558.589844 257.574219 558.871094 259.464844 559.0625 261.371094 C 559.25 263.273438 559.34375 265.183594 559.347656 267.097656 L 559.347656 345.03125 C 559.347656 345.671875 559.378906 346.304688 559.441406 346.941406 C 559.503906 347.578125 559.597656 348.207031 559.722656 348.832031 C 559.847656 349.457031 560 350.078125 560.1875 350.6875 C 560.371094 351.296875 560.585938 351.898438 560.832031 352.488281 C 561.074219 353.078125 561.347656 353.652344 561.648438 354.214844 C 561.949219 354.777344 562.277344 355.324219 562.632812 355.855469 C 562.984375 356.386719 563.363281 356.898438 563.769531 357.390625 C 564.175781 357.886719 564.601562 358.359375 565.054688 358.808594 C 565.503906 359.261719 565.976562 359.6875 566.46875 360.09375 C 566.964844 360.496094 567.476562 360.878906 568.007812 361.230469 C 568.535156 361.585938 569.082031 361.914062 569.644531 362.214844 C 570.210938 362.515625 570.785156 362.789062 571.375 363.03125 C 571.964844 363.277344 572.5625 363.492188 573.175781 363.675781 C 573.785156 363.863281 574.402344 364.015625 575.03125 364.140625 C 575.65625 364.265625 576.285156 364.359375 576.921875 364.421875 C 577.554688 364.484375 578.191406 364.515625 578.832031 364.515625 C 579.46875 364.515625 580.105469 364.546875 580.742188 364.609375 C 581.375 364.671875 582.007812 364.765625 582.632812 364.890625 C 583.257812 365.015625 583.875 365.167969 584.488281 365.355469 C 585.097656 365.539062 585.699219 365.753906 586.285156 366 C 586.875 366.242188 587.453125 366.515625 588.015625 366.816406 C 588.578125 367.117188 589.125 367.445312 589.65625 367.800781 C 590.1875 368.152344 590.699219 368.53125 591.191406 368.9375 C 591.683594 369.34375 592.15625 369.769531 592.609375 370.222656 C 593.058594 370.671875 593.488281 371.144531 593.890625 371.636719 C 594.296875 372.132812 594.675781 372.644531 595.03125 373.175781 C 595.386719 373.703125 595.714844 374.25 596.015625 374.8125 C 596.316406 375.378906 596.585938 375.953125 596.832031 376.542969 C 597.074219 377.132812 597.289062 377.734375 597.476562 378.34375 C 597.660156 378.953125 597.816406 379.570312 597.941406 380.199219 C 598.0625 380.824219 598.15625 381.453125 598.21875 382.089844 C 598.28125 382.722656 598.3125 383.359375 598.3125 384 C 598.3125 384.636719 598.28125 385.273438 598.21875 385.910156 C 598.15625 386.542969 598.0625 387.175781 597.941406 387.800781 C 597.816406 388.425781 597.660156 389.042969 597.476562 389.65625 C 597.289062 390.265625 597.074219 390.867188 596.832031 391.453125 C 596.585938 392.042969 596.316406 392.621094 596.015625 393.183594 C 595.714844 393.746094 595.386719 394.292969 595.03125 394.824219 C 594.675781 395.355469 594.296875 395.867188 593.890625 396.359375 C 593.488281 396.851562 593.058594 397.324219 592.609375 397.777344 C 592.15625 398.226562 591.683594 398.65625 591.191406 399.058594 C 590.699219 399.464844 590.1875 399.84375 589.65625 400.199219 C 589.125 400.554688 588.578125 400.882812 588.015625 401.183594 C 587.453125 401.484375 586.875 401.753906 586.285156 402 C 585.699219 402.242188 585.097656 402.457031 584.488281 402.644531 C 583.875 402.828125 583.257812 402.984375 582.632812 403.109375 C 582.007812 403.230469 581.375 403.324219 580.742188 403.386719 C 580.105469 403.449219 579.46875 403.480469 578.832031 403.480469 Z M 578.832031 403.480469 " fill-opacity="1" fill-rule="nonzero"/></g><g clip-path="url(#e5e109afa4)"><path fill="#f9fbf2" d="M 500.898438 559.351562 L 267.09375 559.351562 C 265.179688 559.347656 263.273438 559.253906 261.367188 559.0625 C 259.464844 558.875 257.574219 558.59375 255.695312 558.21875 C 253.820312 557.84375 251.964844 557.375 250.132812 556.820312 C 248.304688 556.261719 246.503906 555.617188 244.734375 554.886719 C 242.96875 554.152344 241.242188 553.335938 239.554688 552.429688 C 237.867188 551.527344 236.226562 550.546875 234.636719 549.480469 C 233.042969 548.417969 231.507812 547.277344 230.03125 546.066406 C 228.550781 544.851562 227.132812 543.566406 225.78125 542.214844 C 224.429688 540.859375 223.144531 539.445312 221.929688 537.964844 C 220.714844 536.484375 219.578125 534.949219 218.511719 533.359375 C 217.449219 531.769531 216.464844 530.128906 215.5625 528.441406 C 214.660156 526.753906 213.84375 525.027344 213.109375 523.257812 C 212.375 521.492188 211.730469 519.691406 211.175781 517.859375 C 210.617188 516.03125 210.152344 514.175781 209.777344 512.296875 C 209.402344 510.421875 209.121094 508.53125 208.929688 506.628906 C 208.742188 504.722656 208.648438 502.8125 208.644531 500.898438 L 208.644531 422.964844 C 208.644531 422.328125 208.613281 421.691406 208.550781 421.054688 C 208.488281 420.421875 208.394531 419.789062 208.269531 419.164062 C 208.144531 418.539062 207.992188 417.921875 207.804688 417.308594 C 207.621094 416.699219 207.40625 416.097656 207.160156 415.507812 C 206.917969 414.921875 206.644531 414.34375 206.34375 413.78125 C 206.042969 413.21875 205.714844 412.671875 205.359375 412.140625 C 205.007812 411.609375 204.625 411.097656 204.222656 410.605469 C 203.816406 410.113281 203.390625 409.640625 202.9375 409.1875 C 202.488281 408.738281 202.015625 408.308594 201.519531 407.90625 C 201.027344 407.5 200.515625 407.121094 199.984375 406.765625 C 199.453125 406.410156 198.910156 406.082031 198.34375 405.78125 C 197.78125 405.480469 197.207031 405.210938 196.617188 404.964844 C 196.027344 404.722656 195.425781 404.507812 194.816406 404.320312 C 194.207031 404.136719 193.589844 403.980469 192.960938 403.855469 C 192.335938 403.730469 191.707031 403.640625 191.070312 403.574219 C 190.4375 403.511719 189.800781 403.480469 189.160156 403.480469 C 188.523438 403.480469 187.886719 403.449219 187.25 403.386719 C 186.617188 403.324219 185.984375 403.230469 185.359375 403.109375 C 184.734375 402.984375 184.117188 402.828125 183.503906 402.644531 C 182.894531 402.457031 182.292969 402.242188 181.707031 402 C 181.117188 401.753906 180.539062 401.484375 179.976562 401.183594 C 179.414062 400.882812 178.867188 400.554688 178.335938 400.199219 C 177.804688 399.84375 177.292969 399.464844 176.800781 399.058594 C 176.308594 398.65625 175.835938 398.226562 175.382812 397.777344 C 174.933594 397.324219 174.503906 396.851562 174.101562 396.359375 C 173.695312 395.867188 173.316406 395.355469 172.960938 394.824219 C 172.605469 394.292969 172.277344 393.746094 171.976562 393.183594 C 171.675781 392.621094 171.40625 392.042969 171.160156 391.453125 C 170.917969 390.867188 170.703125 390.265625 170.515625 389.65625 C 170.332031 389.042969 170.175781 388.425781 170.050781 387.800781 C 169.925781 387.175781 169.835938 386.542969 169.769531 385.910156 C 169.707031 385.273438 169.675781 384.636719 169.675781 384 C 169.675781 383.359375 169.707031 382.722656 169.769531 382.089844 C 169.835938 381.453125 169.925781 380.824219 170.050781 380.199219 C 170.175781 379.570312 170.332031 378.953125 170.515625 378.34375 C 170.703125 377.734375 170.917969 377.132812 171.160156 376.542969 C 171.40625 375.953125 171.675781 375.378906 171.976562 374.8125 C 172.277344 374.25 172.605469 373.703125 172.960938 373.175781 C 173.316406 372.644531 173.695312 372.132812 174.101562 371.636719 C 174.503906 371.144531 174.933594 370.671875 175.382812 370.222656 C 175.835938 369.769531 176.308594 369.34375 176.800781 368.9375 C 177.292969 368.53125 177.804688 368.152344 178.335938 367.800781 C 178.867188 367.445312 179.414062 367.117188 179.976562 366.816406 C 180.539062 366.515625 181.117188 366.242188 181.707031 366 C 182.292969 365.753906 182.894531 365.539062 183.503906 365.355469 C 184.117188 365.167969 184.734375 365.015625 185.359375 364.890625 C 185.984375 364.765625 186.617188 364.671875 187.25 364.609375 C 187.886719 364.546875 188.523438 364.515625 189.160156 364.515625 C 191.074219 364.515625 192.984375 364.613281 194.886719 364.800781 C 196.792969 364.992188 198.683594 365.273438 200.558594 365.648438 C 202.4375 366.023438 204.289062 366.488281 206.121094 367.046875 C 207.953125 367.601562 209.753906 368.246094 211.519531 368.980469 C 213.289062 369.714844 215.015625 370.53125 216.703125 371.433594 C 218.390625 372.335938 220.03125 373.320312 221.621094 374.382812 C 223.210938 375.449219 224.746094 376.585938 226.226562 377.800781 C 227.707031 379.015625 229.121094 380.300781 230.476562 381.652344 C 231.828125 383.003906 233.113281 384.421875 234.324219 385.902344 C 235.539062 387.378906 236.679688 388.914062 237.742188 390.507812 C 238.804688 392.097656 239.789062 393.738281 240.691406 395.425781 C 241.59375 397.113281 242.414062 398.839844 243.148438 400.605469 C 243.878906 402.375 244.523438 404.175781 245.082031 406.003906 C 245.636719 407.835938 246.105469 409.691406 246.480469 411.566406 C 246.855469 413.445312 247.136719 415.335938 247.324219 417.238281 C 247.515625 419.144531 247.609375 421.050781 247.613281 422.964844 L 247.613281 500.898438 C 247.613281 501.539062 247.644531 502.175781 247.707031 502.808594 C 247.769531 503.445312 247.863281 504.074219 247.984375 504.699219 C 248.109375 505.328125 248.265625 505.945312 248.449219 506.554688 C 248.636719 507.167969 248.851562 507.765625 249.09375 508.355469 C 249.339844 508.945312 249.613281 509.519531 249.914062 510.085938 C 250.214844 510.648438 250.539062 511.195312 250.894531 511.722656 C 251.25 512.253906 251.628906 512.765625 252.035156 513.261719 C 252.4375 513.753906 252.867188 514.226562 253.316406 514.675781 C 253.769531 515.128906 254.242188 515.554688 254.734375 515.960938 C 255.226562 516.367188 255.738281 516.746094 256.269531 517.097656 C 256.800781 517.453125 257.347656 517.78125 257.910156 518.082031 C 258.472656 518.382812 259.050781 518.65625 259.640625 518.898438 C 260.230469 519.144531 260.828125 519.359375 261.4375 519.542969 C 262.050781 519.730469 262.667969 519.882812 263.292969 520.007812 C 263.917969 520.132812 264.550781 520.226562 265.183594 520.289062 C 265.820312 520.351562 266.457031 520.382812 267.09375 520.382812 L 500.898438 520.382812 C 501.535156 520.382812 502.171875 520.351562 502.808594 520.289062 C 503.441406 520.226562 504.070312 520.132812 504.699219 520.007812 C 505.324219 519.882812 505.941406 519.730469 506.550781 519.542969 C 507.164062 519.359375 507.761719 519.144531 508.351562 518.898438 C 508.941406 518.65625 509.519531 518.382812 510.082031 518.082031 C 510.644531 517.78125 511.191406 517.453125 511.722656 517.101562 C 512.25 516.746094 512.765625 516.367188 513.257812 515.960938 C 513.75 515.554688 514.222656 515.128906 514.671875 514.675781 C 515.125 514.226562 515.554688 513.753906 515.957031 513.261719 C 516.363281 512.765625 516.742188 512.253906 517.097656 511.722656 C 517.453125 511.195312 517.777344 510.648438 518.078125 510.085938 C 518.378906 509.519531 518.652344 508.945312 518.898438 508.355469 C 519.140625 507.765625 519.355469 507.167969 519.542969 506.554688 C 519.726562 505.945312 519.882812 505.328125 520.007812 504.699219 C 520.128906 504.074219 520.222656 503.445312 520.285156 502.808594 C 520.347656 502.175781 520.378906 501.539062 520.378906 500.898438 L 520.378906 422.964844 C 520.382812 421.050781 520.476562 419.144531 520.667969 417.238281 C 520.855469 415.335938 521.136719 413.445312 521.511719 411.566406 C 521.886719 409.691406 522.355469 407.835938 522.910156 406.003906 C 523.46875 404.175781 524.113281 402.375 524.84375 400.605469 C 525.578125 398.839844 526.398438 397.113281 527.300781 395.425781 C 528.203125 393.738281 529.183594 392.097656 530.25 390.507812 C 531.3125 388.914062 532.453125 387.378906 533.664062 385.902344 C 534.878906 384.421875 536.164062 383.003906 537.515625 381.652344 C 538.871094 380.300781 540.285156 379.015625 541.765625 377.800781 C 543.246094 376.585938 544.78125 375.449219 546.371094 374.382812 C 547.960938 373.320312 549.601562 372.335938 551.289062 371.433594 C 552.976562 370.53125 554.703125 369.714844 556.472656 368.980469 C 558.238281 368.246094 560.039062 367.601562 561.871094 367.046875 C 563.699219 366.488281 565.554688 366.023438 567.433594 365.648438 C 569.308594 365.273438 571.199219 364.992188 573.105469 364.800781 C 575.007812 364.613281 576.917969 364.515625 578.832031 364.515625 C 579.46875 364.515625 580.105469 364.546875 580.742188 364.609375 C 581.375 364.671875 582.007812 364.765625 582.632812 364.890625 C 583.257812 365.015625 583.875 365.167969 584.488281 365.355469 C 585.097656 365.539062 585.699219 365.753906 586.285156 366 C 586.875 366.242188 587.453125 366.515625 588.015625 366.816406 C 588.578125 367.117188 589.125 367.445312 589.65625 367.800781 C 590.1875 368.152344 590.699219 368.53125 591.191406 368.9375 C 591.683594 369.34375 592.15625 369.769531 592.609375 370.222656 C 593.058594 370.671875 593.488281 371.144531 593.890625 371.636719 C 594.296875 372.132812 594.675781 372.644531 595.03125 373.175781 C 595.386719 373.703125 595.714844 374.25 596.015625 374.8125 C 596.316406 375.378906 596.585938 375.953125 596.832031 376.542969 C 597.074219 377.132812 597.289062 377.734375 597.476562 378.34375 C 597.660156 378.953125 597.816406 379.570312 597.941406 380.199219 C 598.0625 380.824219 598.15625 381.453125 598.21875 382.089844 C 598.28125 382.722656 598.3125 383.359375 598.3125 384 C 598.3125 384.636719 598.28125 385.273438 598.21875 385.910156 C 598.15625 386.542969 598.0625 387.175781 597.941406 387.800781 C 597.816406 388.425781 597.660156 389.042969 597.476562 389.65625 C 597.289062 390.265625 597.074219 390.867188 596.832031 391.453125 C 596.585938 392.042969 596.316406 392.621094 596.015625 393.183594 C 595.714844 393.746094 595.386719 394.292969 595.03125 394.824219 C 594.675781 395.355469 594.296875 395.867188 593.890625 396.359375 C 593.488281 396.851562 593.058594 397.324219 592.609375 397.777344 C 592.15625 398.226562 591.683594 398.65625 591.191406 399.058594 C 590.699219 399.464844 590.1875 399.84375 589.65625 400.199219 C 589.125 400.554688 588.578125 400.882812 588.015625 401.183594 C 587.453125 401.484375 586.875 401.753906 586.285156 402 C 585.699219 402.242188 585.097656 402.457031 584.488281 402.644531 C 583.875 402.828125 583.257812 402.984375 582.632812 403.109375 C 582.007812 403.230469 581.375 403.324219 580.742188 403.386719 C 580.105469 403.449219 579.46875 403.480469 578.832031 403.480469 C 578.191406 403.480469 577.554688 403.511719 576.921875 403.574219 C 576.285156 403.640625 575.65625 403.730469 575.03125 403.855469 C 574.402344 403.980469 573.785156 404.136719 573.175781 404.320312 C 572.566406 404.507812 571.964844 404.722656 571.375 404.964844 C 570.785156 405.210938 570.210938 405.480469 569.644531 405.78125 C 569.082031 406.082031 568.535156 406.410156 568.007812 406.765625 C 567.476562 407.121094 566.964844 407.5 566.46875 407.90625 C 565.976562 408.308594 565.503906 408.738281 565.054688 409.1875 C 564.601562 409.640625 564.175781 410.113281 563.769531 410.605469 C 563.363281 411.097656 562.984375 411.609375 562.632812 412.140625 C 562.277344 412.671875 561.949219 413.21875 561.648438 413.78125 C 561.347656 414.34375 561.074219 414.921875 560.832031 415.511719 C 560.585938 416.097656 560.371094 416.699219 560.1875 417.308594 C 560 417.921875 559.847656 418.539062 559.722656 419.164062 C 559.597656 419.789062 559.503906 420.421875 559.441406 421.054688 C 559.378906 421.691406 559.347656 422.328125 559.347656 422.964844 L 559.347656 500.898438 C 559.34375 502.8125 559.25 504.722656 559.0625 506.628906 C 558.871094 508.53125 558.589844 510.421875 558.214844 512.296875 C 557.839844 514.175781 557.375 516.03125 556.816406 517.859375 C 556.261719 519.691406 555.617188 521.492188 554.882812 523.257812 C 554.148438 525.027344 553.332031 526.753906 552.429688 528.441406 C 551.527344 530.128906 550.542969 531.769531 549.480469 533.359375 C 548.414062 534.949219 547.277344 536.484375 546.0625 537.964844 C 544.847656 539.445312 543.5625 540.859375 542.210938 542.214844 C 540.855469 543.566406 539.441406 544.851562 537.960938 546.066406 C 536.484375 547.277344 534.949219 548.417969 533.355469 549.480469 C 531.765625 550.546875 530.125 551.527344 528.4375 552.429688 C 526.75 553.335938 525.023438 554.152344 523.253906 554.886719 C 521.488281 555.617188 519.6875 556.261719 517.859375 556.820312 C 516.027344 557.375 514.171875 557.84375 512.296875 558.21875 C 510.417969 558.59375 508.527344 558.875 506.625 559.0625 C 504.71875 559.253906 502.8125 559.347656 500.898438 559.351562 Z M 500.898438 559.351562 " fill-opacity="1" fill-rule="nonzero"/></g><path fill="#f9fbf2" d="M 403.480469 481.417969 L 325.546875 481.417969 C 324.90625 481.417969 324.269531 481.386719 323.636719 481.324219 C 323 481.261719 322.371094 481.167969 321.746094 481.042969 C 321.117188 480.917969 320.5 480.761719 319.890625 480.578125 C 319.277344 480.390625 318.679688 480.175781 318.089844 479.933594 C 317.5 479.6875 316.925781 479.417969 316.359375 479.117188 C 315.796875 478.816406 315.25 478.488281 314.722656 478.132812 C 314.191406 477.777344 313.679688 477.398438 313.183594 476.992188 C 312.691406 476.589844 312.21875 476.160156 311.769531 475.710938 C 311.316406 475.257812 310.890625 474.785156 310.484375 474.292969 C 310.078125 473.800781 309.699219 473.289062 309.34375 472.757812 C 308.992188 472.226562 308.664062 471.679688 308.363281 471.117188 C 308.0625 470.554688 307.789062 469.976562 307.546875 469.390625 C 307.300781 468.800781 307.085938 468.199219 306.902344 467.589844 C 306.714844 466.976562 306.5625 466.359375 306.4375 465.734375 C 306.3125 465.109375 306.21875 464.476562 306.15625 463.84375 C 306.09375 463.207031 306.0625 462.570312 306.0625 461.933594 L 306.0625 306.066406 C 306.0625 305.425781 306.09375 304.789062 306.15625 304.15625 C 306.21875 303.519531 306.3125 302.890625 306.4375 302.265625 C 306.5625 301.636719 306.714844 301.019531 306.902344 300.410156 C 307.085938 299.796875 307.300781 299.199219 307.546875 298.609375 C 307.789062 298.019531 308.0625 297.441406 308.363281 296.878906 C 308.664062 296.316406 308.992188 295.769531 309.34375 295.242188 C 309.699219 294.710938 310.078125 294.199219 310.484375 293.703125 C 310.890625 293.210938 311.316406 292.738281 311.769531 292.289062 C 312.21875 291.835938 312.691406 291.410156 313.183594 291.003906 C 313.679688 290.597656 314.191406 290.21875 314.722656 289.863281 C 315.25 289.511719 315.796875 289.183594 316.359375 288.882812 C 316.925781 288.582031 317.5 288.308594 318.089844 288.066406 C 318.679688 287.820312 319.277344 287.605469 319.890625 287.421875 C 320.5 287.234375 321.117188 287.082031 321.746094 286.957031 C 322.371094 286.832031 323 286.738281 323.636719 286.675781 C 324.269531 286.613281 324.90625 286.582031 325.546875 286.582031 L 393.738281 286.582031 C 396.398438 286.582031 399.050781 286.765625 401.6875 287.128906 C 404.324219 287.488281 406.925781 288.03125 409.488281 288.75 C 412.054688 289.46875 414.558594 290.355469 417 291.417969 C 419.441406 292.476562 421.800781 293.699219 424.074219 295.082031 C 426.351562 296.464844 428.519531 297.996094 430.585938 299.675781 C 432.652344 301.355469 434.59375 303.167969 436.414062 305.113281 C 438.230469 307.058594 439.910156 309.117188 441.445312 311.289062 C 442.984375 313.464844 444.367188 315.734375 445.59375 318.097656 C 446.820312 320.457031 447.878906 322.894531 448.773438 325.402344 C 449.667969 327.910156 450.386719 330.46875 450.933594 333.074219 C 451.476562 335.679688 451.84375 338.308594 452.027344 340.964844 C 452.214844 343.621094 452.21875 346.277344 452.039062 348.933594 C 451.859375 351.59375 451.503906 354.222656 450.964844 356.832031 C 450.429688 359.441406 449.714844 362 448.828125 364.507812 C 447.941406 367.019531 446.886719 369.457031 445.667969 371.824219 C 444.445312 374.191406 443.070312 376.460938 441.539062 378.640625 C 442.664062 379.605469 443.746094 380.613281 444.792969 381.660156 C 445.839844 382.707031 446.847656 383.792969 447.808594 384.917969 C 448.773438 386.042969 449.695312 387.199219 450.570312 388.394531 C 451.445312 389.589844 452.273438 390.816406 453.058594 392.070312 C 453.839844 393.328125 454.574219 394.613281 455.257812 395.925781 C 455.945312 397.238281 456.578125 398.574219 457.160156 399.9375 C 457.746094 401.296875 458.277344 402.679688 458.753906 404.082031 C 459.230469 405.480469 459.65625 406.898438 460.027344 408.332031 C 460.398438 409.765625 460.714844 411.210938 460.976562 412.667969 C 461.234375 414.128906 461.441406 415.59375 461.589844 417.066406 C 461.738281 418.539062 461.832031 420.015625 461.871094 421.496094 C 461.90625 422.976562 461.890625 424.457031 461.8125 425.933594 C 461.738281 427.414062 461.605469 428.886719 461.417969 430.355469 C 461.234375 431.824219 460.988281 433.285156 460.691406 434.734375 C 460.394531 436.1875 460.039062 437.621094 459.632812 439.046875 C 459.226562 440.46875 458.765625 441.875 458.25 443.265625 C 457.738281 444.652344 457.171875 446.019531 456.550781 447.367188 C 455.933594 448.710938 455.265625 450.03125 454.546875 451.328125 C 453.828125 452.621094 453.0625 453.886719 452.246094 455.125 C 451.433594 456.359375 450.574219 457.5625 449.667969 458.734375 C 448.761719 459.90625 447.8125 461.039062 446.820312 462.140625 C 445.828125 463.238281 444.792969 464.296875 443.722656 465.320312 C 442.648438 466.339844 441.539062 467.316406 440.390625 468.253906 C 439.242188 469.191406 438.0625 470.082031 436.847656 470.929688 C 435.632812 471.773438 434.386719 472.574219 433.109375 473.324219 C 431.835938 474.078125 430.53125 474.777344 429.203125 475.429688 C 427.875 476.085938 426.523438 476.683594 425.148438 477.234375 C 423.773438 477.785156 422.378906 478.28125 420.964844 478.726562 C 419.554688 479.171875 418.125 479.558594 416.683594 479.894531 C 415.242188 480.230469 413.789062 480.511719 412.324219 480.738281 C 410.863281 480.960938 409.390625 481.132812 407.914062 481.246094 C 406.4375 481.359375 404.960938 481.414062 403.480469 481.417969 Z M 345.027344 442.449219 L 403.480469 442.449219 C 404.117188 442.449219 404.753906 442.417969 405.390625 442.355469 C 406.023438 442.292969 406.65625 442.199219 407.28125 442.074219 C 407.90625 441.949219 408.523438 441.796875 409.136719 441.609375 C 409.746094 441.425781 410.347656 441.210938 410.933594 440.964844 C 411.523438 440.722656 412.101562 440.449219 412.664062 440.148438 C 413.226562 439.847656 413.773438 439.519531 414.304688 439.164062 C 414.835938 438.8125 415.347656 438.429688 415.839844 438.027344 C 416.332031 437.621094 416.804688 437.195312 417.257812 436.742188 C 417.707031 436.292969 418.136719 435.820312 418.539062 435.324219 C 418.945312 434.832031 419.324219 434.320312 419.679688 433.789062 C 420.035156 433.257812 420.363281 432.714844 420.664062 432.148438 C 420.964844 431.585938 421.234375 431.011719 421.480469 430.421875 C 421.722656 429.832031 421.9375 429.230469 422.125 428.621094 C 422.308594 428.011719 422.464844 427.394531 422.589844 426.765625 C 422.714844 426.140625 422.804688 425.511719 422.867188 424.875 C 422.933594 424.242188 422.964844 423.605469 422.964844 422.964844 C 422.964844 422.328125 422.933594 421.691406 422.867188 421.054688 C 422.804688 420.421875 422.714844 419.789062 422.589844 419.164062 C 422.464844 418.539062 422.308594 417.921875 422.125 417.308594 C 421.9375 416.699219 421.722656 416.097656 421.480469 415.507812 C 421.234375 414.921875 420.964844 414.34375 420.664062 413.78125 C 420.363281 413.21875 420.035156 412.671875 419.679688 412.140625 C 419.324219 411.609375 418.945312 411.097656 418.539062 410.605469 C 418.136719 410.113281 417.707031 409.640625 417.257812 409.1875 C 416.804688 408.738281 416.332031 408.308594 415.839844 407.90625 C 415.347656 407.5 414.835938 407.121094 414.304688 406.765625 C 413.773438 406.410156 413.226562 406.082031 412.664062 405.78125 C 412.101562 405.480469 411.523438 405.210938 410.933594 404.964844 C 410.347656 404.722656 409.746094 404.507812 409.136719 404.320312 C 408.523438 404.136719 407.90625 403.980469 407.28125 403.855469 C 406.65625 403.730469 406.023438 403.640625 405.390625 403.574219 C 404.753906 403.511719 404.117188 403.480469 403.480469 403.480469 L 345.027344 403.480469 Z M 345.027344 364.515625 L 393.738281 364.515625 C 394.375 364.515625 395.011719 364.484375 395.648438 364.421875 C 396.28125 364.359375 396.914062 364.265625 397.539062 364.140625 C 398.164062 364.015625 398.78125 363.863281 399.394531 363.675781 C 400.003906 363.492188 400.605469 363.277344 401.195312 363.03125 C 401.785156 362.789062 402.359375 362.515625 402.921875 362.214844 C 403.484375 361.914062 404.03125 361.585938 404.5625 361.230469 C 405.09375 360.878906 405.605469 360.496094 406.097656 360.09375 C 406.589844 359.6875 407.0625 359.261719 407.515625 358.808594 C 407.964844 358.359375 408.394531 357.886719 408.796875 357.390625 C 409.203125 356.898438 409.582031 356.386719 409.9375 355.855469 C 410.292969 355.324219 410.621094 354.777344 410.921875 354.214844 C 411.222656 353.652344 411.492188 353.078125 411.738281 352.488281 C 411.980469 351.898438 412.195312 351.296875 412.382812 350.6875 C 412.566406 350.078125 412.722656 349.457031 412.847656 348.832031 C 412.972656 348.207031 413.066406 347.578125 413.128906 346.941406 C 413.191406 346.304688 413.222656 345.671875 413.222656 345.03125 C 413.222656 344.394531 413.191406 343.757812 413.128906 343.121094 C 413.066406 342.488281 412.972656 341.855469 412.847656 341.230469 C 412.722656 340.605469 412.566406 339.988281 412.382812 339.375 C 412.195312 338.765625 411.980469 338.164062 411.738281 337.574219 C 411.492188 336.984375 411.222656 336.410156 410.921875 335.847656 C 410.621094 335.285156 410.292969 334.738281 409.9375 334.207031 C 409.582031 333.675781 409.203125 333.164062 408.796875 332.671875 C 408.394531 332.179688 407.964844 331.707031 407.515625 331.253906 C 407.0625 330.804688 406.589844 330.375 406.097656 329.972656 C 405.605469 329.566406 405.09375 329.1875 404.5625 328.832031 C 404.03125 328.476562 403.484375 328.148438 402.921875 327.847656 C 402.359375 327.546875 401.785156 327.277344 401.195312 327.03125 C 400.605469 326.789062 400.003906 326.574219 399.394531 326.386719 C 398.78125 326.203125 398.164062 326.046875 397.539062 325.921875 C 396.914062 325.796875 396.28125 325.703125 395.648438 325.640625 C 395.011719 325.578125 394.375 325.546875 393.738281 325.546875 L 345.027344 325.546875 Z M 345.027344 364.515625 " fill-opacity="1" fill-rule="nonzero"/></svg>