<svg xmlns="http://www.w3.org/2000/svg" xmlns:xlink="http://www.w3.org/1999/xlink" width="1024" zoomAndPan="magnify" viewBox="0 0 768 767.999994" height="1024" preserveAspectRatio="xMidYMid meet" version="1.0"><defs><clipPath id="3c758da794"><path d="M 76.800781 76.320312 L 691.050781 76.320312 L 691.050781 690.570312 L 76.800781 690.570312 Z M 76.800781 76.320312 " clip-rule="nonzero"/></clipPath></defs><path fill="#f9fbf2" d="M 555.640625 547.296875 L 555.730469 547.296875 Z M 250.425781 208.46875 C 246.5625 208.46875 242.914062 210.21875 238.945312 213.691406 C 238.511719 214.105469 232.835938 219.488281 229.144531 223 L 225.921875 226.046875 C 207.09375 243.652344 198.558594 275.335938 204.175781 306.785156 C 205.980469 316.9375 208.898438 327.464844 212.847656 338.054688 C 232.75 391.5 270.523438 437.964844 298.71875 467.542969 C 326.78125 497.316406 371.167969 537.527344 423.460938 560.257812 C 433.832031 564.761719 444.183594 568.242188 454.222656 570.597656 C 485.328125 577.882812 517.429688 571.054688 536 553.203125 L 539.09375 550.261719 C 542.6875 546.867188 548.296875 541.558594 549.113281 540.777344 C 560.679688 528.878906 554.898438 518.988281 531.703125 495.398438 L 525.898438 489.441406 C 511.207031 474.195312 486.550781 448.660156 465.710938 451.152344 C 460.042969 451.820312 454.128906 455.953125 447.863281 460.324219 C 441.652344 464.660156 435.226562 469.140625 427.523438 471.582031 C 406.832031 478.144531 385.851562 473.832031 368.417969 459.46875 C 358 450.875 347.390625 440.824219 337.761719 430.429688 C 328.015625 420.386719 318.554688 409.265625 310.542969 398.40625 C 297.136719 380.242188 293.964844 359.058594 301.613281 338.75 C 304.464844 331.179688 309.285156 325.007812 313.953125 319.035156 C 318.648438 313.011719 323.089844 307.332031 324.058594 301.707031 C 327.644531 280.976562 303.480469 255.046875 289.039062 239.546875 L 283.414062 233.4375 C 268.105469 216.699219 258.796875 208.46875 250.425781 208.46875 Z M 479.324219 591.90625 C 468.925781 591.90625 458.929688 590.640625 450.015625 588.554688 C 438.902344 585.960938 427.488281 582.121094 416.101562 577.175781 C 360.941406 553.203125 314.539062 511.230469 285.332031 480.238281 C 255.976562 449.449219 216.546875 400.867188 195.5625 344.496094 C 191.226562 332.863281 188.015625 321.265625 186.011719 310.023438 C 180.691406 280.226562 185.066406 238.976562 213.324219 212.582031 L 216.445312 209.613281 C 220.378906 205.882812 226.496094 200.070312 226.746094 199.855469 C 255.011719 175.039062 280.300781 202.691406 297.027344 220.996094 L 302.539062 226.976562 C 319.3125 244.972656 347.382812 275.101562 342.242188 304.847656 C 340.476562 315.027344 334.109375 323.191406 328.492188 330.390625 C 324.5 335.492188 320.730469 340.320312 318.875 345.253906 C 313.425781 359.710938 315.683594 374.308594 325.386719 387.453125 C 332.917969 397.648438 341.824219 408.121094 351.148438 417.734375 C 360.375 427.695312 370.363281 437.152344 380.15625 445.234375 C 392.769531 455.632812 407.21875 458.65625 421.953125 454.003906 C 426.972656 452.398438 431.988281 448.902344 437.296875 445.195312 C 444.792969 439.972656 453.273438 434.039062 463.542969 432.832031 C 493.613281 429.285156 522.113281 458.929688 539.183594 476.644531 L 544.863281 482.464844 C 562.242188 500.144531 588.507812 526.871094 562.242188 553.742188 C 561.832031 554.140625 555.664062 559.992188 551.773438 563.664062 L 548.773438 566.511719 C 529.34375 585.195312 503.300781 591.90625 479.324219 591.90625 " fill-opacity="1" fill-rule="nonzero"/><g clip-path="url(#3c758da794)"><path fill="#374151" d="M 575.992188 76.320312 L 192 76.320312 C 128.363281 76.320312 76.800781 127.882812 76.800781 191.519531 L 76.800781 575.511719 C 76.800781 639.148438 128.363281 690.710938 192 690.710938 L 575.992188 690.710938 C 639.628906 690.710938 691.191406 639.148438 691.191406 575.511719 L 691.191406 191.519531 C 691.191406 127.882812 639.628906 76.320312 575.992188 76.320312 Z M 276.902344 436 C 287.132812 436 297.71875 433.941406 304.527344 430.65625 C 305.992188 429.925781 307.976562 429.878906 309.582031 430.585938 C 311.144531 431.296875 312.324219 432.714844 312.796875 434.414062 L 316.648438 449.136719 C 317.359375 451.855469 316.035156 454.691406 313.53125 455.894531 C 306.417969 459.488281 292.003906 463.339844 273.050781 463.339844 C 226.425781 463.339844 196.300781 432.523438 196.300781 384.886719 C 196.300781 337.058594 229.523438 303.644531 277.089844 303.644531 C 298.570312 303.644531 310.671875 309.054688 313.859375 310.710938 C 316.363281 312.035156 317.59375 314.941406 316.789062 317.65625 L 312.324219 332.734375 C 311.828125 334.410156 310.597656 335.828125 308.992188 336.46875 C 307.644531 337.082031 305.566406 337.105469 304.007812 336.300781 C 296.964844 332.898438 287.605469 331.007812 277.730469 331.007812 C 246.394531 331.007812 227.679688 350.90625 227.679688 384.222656 C 227.703125 416.644531 246.113281 436 276.902344 436 Z M 387.066406 463.363281 C 372.558594 463.363281 356.160156 459.179688 347.179688 453.226562 C 344.980469 451.734375 344.035156 449.042969 344.792969 446.585938 L 349.472656 431.082031 C 349.992188 429.3125 351.339844 427.871094 353.015625 427.230469 C 355.070312 426.546875 356.75 426.804688 358.261719 427.773438 C 366.839844 433.066406 378.085938 436.210938 388.296875 436.210938 C 403.371094 436.210938 412.375 429.265625 412.375 417.660156 C 412.375 408.5625 408.6875 402.207031 389.148438 394.644531 C 360.742188 384.601562 347.484375 369.929688 347.484375 348.519531 C 347.484375 322.101562 368.988281 303.667969 399.78125 303.667969 C 417.859375 303.667969 429.222656 308.558594 434.375 311.488281 C 436.832031 312.859375 437.96875 315.8125 437.070312 318.507812 L 431.964844 333.609375 C 431.398438 335.261719 430.121094 336.5625 428.515625 337.199219 C 426.90625 337.8125 425.019531 337.695312 423.527344 336.890625 C 418.449219 334.128906 410.128906 330.796875 399.140625 330.796875 C 383.546875 330.796875 378.015625 339.183594 378.015625 346.390625 C 378.015625 354.875 381.726562 360.382812 402.734375 368.535156 C 431.042969 379.472656 443.09375 393.699219 443.09375 416.195312 C 443.191406 437.960938 428.492188 463.363281 387.066406 463.363281 Z M 515.546875 463.363281 C 501.035156 463.363281 484.636719 459.179688 475.65625 453.226562 C 473.460938 451.734375 472.515625 449.042969 473.269531 446.585938 L 477.949219 431.082031 C 478.46875 429.3125 479.816406 427.871094 481.496094 427.230469 C 483.597656 426.523438 485.273438 426.828125 486.742188 427.796875 C 495.316406 433.066406 506.542969 436.210938 516.773438 436.210938 C 531.875 436.210938 540.878906 429.265625 540.878906 417.660156 C 540.878906 408.5625 537.191406 402.207031 517.648438 394.644531 C 489.269531 384.601562 475.988281 369.929688 475.988281 348.519531 C 475.988281 322.101562 497.492188 303.667969 528.28125 303.667969 C 546.359375 303.667969 557.726562 308.558594 562.902344 311.488281 C 565.359375 312.859375 566.492188 315.8125 565.570312 318.507812 L 560.492188 333.609375 C 559.898438 335.261719 558.648438 336.5625 557.039062 337.199219 C 555.457031 337.835938 553.566406 337.742188 552.054688 336.890625 C 546.972656 334.128906 538.632812 330.796875 527.644531 330.796875 C 512.070312 330.796875 506.542969 339.183594 506.542969 346.390625 C 506.542969 354.875 510.230469 360.382812 531.261719 368.535156 C 559.570312 379.472656 571.621094 393.699219 571.621094 416.195312 C 571.644531 437.960938 556.96875 463.363281 515.546875 463.363281 Z M 515.546875 463.363281 " fill-opacity="1" fill-rule="nonzero"/></g></svg>