<svg xmlns="http://www.w3.org/2000/svg" xmlns:xlink="http://www.w3.org/1999/xlink" width="1024" zoomAndPan="magnify" viewBox="0 0 768 767.999994" height="1024" preserveAspectRatio="xMidYMid meet" version="1.0"><defs><g/><clipPath id="fb55197613"><path d="M 76.800781 76.800781 L 691.050781 76.800781 L 691.050781 691.050781 L 76.800781 691.050781 Z M 76.800781 76.800781 " clip-rule="nonzero"/></clipPath><clipPath id="21181a92ec"><path d="M 159.320312 268.800781 L 617 268.800781 L 617 499.199219 L 159.320312 499.199219 Z M 159.320312 268.800781 " clip-rule="nonzero"/></clipPath><clipPath id="5eb1c94b7a"><path d="M 195.320312 268.800781 L 580.972656 268.800781 C 590.523438 268.800781 599.679688 272.59375 606.429688 279.34375 C 613.183594 286.09375 616.972656 295.253906 616.972656 304.800781 L 616.972656 463.199219 C 616.972656 483.082031 600.855469 499.199219 580.972656 499.199219 L 195.320312 499.199219 C 185.773438 499.199219 176.613281 495.40625 169.863281 488.65625 C 163.113281 481.90625 159.320312 472.746094 159.320312 463.199219 L 159.320312 304.800781 C 159.320312 284.917969 175.4375 268.800781 195.320312 268.800781 Z M 195.320312 268.800781 " clip-rule="nonzero"/></clipPath><clipPath id="283f3ecbc6"><path d="M 197.429688 164.515625 L 570.929688 164.515625 L 570.929688 538 L 197.429688 538 Z M 197.429688 164.515625 " clip-rule="nonzero"/></clipPath></defs><g clip-path="url(#fb55197613)"><path fill="#374151" d="M 575.992188 76.800781 L 192 76.800781 C 128.363281 76.800781 76.800781 128.363281 76.800781 192 L 76.800781 575.992188 C 76.800781 639.628906 128.363281 691.191406 192 691.191406 L 575.992188 691.191406 C 639.628906 691.191406 691.191406 639.628906 691.191406 575.992188 L 691.191406 192 C 691.191406 128.363281 639.628906 76.800781 575.992188 76.800781 Z M 276.902344 436.476562 C 287.132812 436.476562 297.71875 434.421875 304.527344 431.136719 C 305.992188 430.40625 307.976562 430.359375 309.582031 431.066406 C 311.144531 431.777344 312.324219 433.195312 312.796875 434.894531 L 316.648438 449.617188 C 317.359375 452.335938 316.035156 455.171875 313.53125 456.375 C 306.417969 459.96875 292.003906 463.820312 273.050781 463.820312 C 226.425781 463.820312 196.300781 433.003906 196.300781 385.367188 C 196.300781 337.539062 229.523438 304.125 277.089844 304.125 C 298.570312 304.125 310.671875 309.535156 313.859375 311.191406 C 316.363281 312.511719 317.59375 315.417969 316.789062 318.136719 L 312.324219 333.214844 C 311.828125 334.890625 310.597656 336.308594 308.992188 336.945312 C 307.644531 337.5625 305.566406 337.585938 304.007812 336.78125 C 296.964844 333.378906 287.605469 331.488281 277.730469 331.488281 C 246.394531 331.488281 227.679688 351.386719 227.679688 384.703125 C 227.703125 417.125 246.113281 436.476562 276.902344 436.476562 Z M 387.066406 463.84375 C 372.558594 463.84375 356.160156 459.660156 347.179688 453.703125 C 344.980469 452.214844 344.035156 449.523438 344.792969 447.066406 L 349.472656 431.5625 C 349.992188 429.792969 351.339844 428.347656 353.015625 427.710938 C 355.070312 427.027344 356.75 427.285156 358.261719 428.253906 C 366.839844 433.546875 378.085938 436.691406 388.296875 436.691406 C 403.371094 436.691406 412.375 429.742188 412.375 418.140625 C 412.375 409.042969 408.6875 402.6875 389.148438 395.125 C 360.742188 385.082031 347.484375 370.40625 347.484375 349 C 347.484375 322.578125 368.988281 304.148438 399.78125 304.148438 C 417.859375 304.148438 429.222656 309.039062 434.375 311.96875 C 436.832031 313.339844 437.96875 316.292969 437.070312 318.988281 L 431.964844 334.089844 C 431.398438 335.742188 430.121094 337.042969 428.515625 337.679688 C 426.90625 338.292969 425.019531 338.175781 423.527344 337.371094 C 418.449219 334.609375 410.128906 331.277344 399.140625 331.277344 C 383.546875 331.277344 378.015625 339.664062 378.015625 346.871094 C 378.015625 355.355469 381.726562 360.859375 402.734375 369.011719 C 431.042969 379.953125 443.09375 394.179688 443.09375 416.675781 C 443.191406 438.441406 428.492188 463.84375 387.066406 463.84375 Z M 515.546875 463.84375 C 501.035156 463.84375 484.636719 459.660156 475.65625 453.703125 C 473.460938 452.214844 472.515625 449.523438 473.269531 447.066406 L 477.949219 431.5625 C 478.46875 429.792969 479.816406 428.347656 481.496094 427.710938 C 483.597656 427.003906 485.273438 427.308594 486.742188 428.277344 C 495.316406 433.546875 506.542969 436.691406 516.773438 436.691406 C 531.875 436.691406 540.878906 429.742188 540.878906 418.140625 C 540.878906 409.042969 537.191406 402.6875 517.648438 395.125 C 489.269531 385.082031 475.988281 370.40625 475.988281 349 C 475.988281 322.578125 497.492188 304.148438 528.28125 304.148438 C 546.359375 304.148438 557.726562 309.039062 562.902344 311.96875 C 565.359375 313.339844 566.492188 316.292969 565.570312 318.988281 L 560.492188 334.089844 C 559.898438 335.742188 558.648438 337.042969 557.039062 337.679688 C 555.457031 338.316406 553.566406 338.222656 552.054688 337.371094 C 546.972656 334.609375 538.632812 331.277344 527.644531 331.277344 C 512.070312 331.277344 506.542969 339.664062 506.542969 346.871094 C 506.542969 355.355469 510.230469 360.859375 531.261719 369.011719 C 559.570312 379.953125 571.621094 394.179688 571.621094 416.675781 C 571.644531 438.441406 556.96875 463.84375 515.546875 463.84375 Z M 515.546875 463.84375 " fill-opacity="1" fill-rule="nonzero"/></g><g clip-path="url(#21181a92ec)"><g clip-path="url(#5eb1c94b7a)"><path fill="#374151" d="M 159.320312 268.800781 L 617.417969 268.800781 L 617.417969 499.199219 L 159.320312 499.199219 Z M 159.320312 268.800781 " fill-opacity="1" fill-rule="nonzero"/></g></g><g clip-path="url(#283f3ecbc6)"><path fill="#f9fbf2" d="M 294.363281 265.332031 C 306.328125 253.371094 325.707031 253.371094 337.660156 265.320312 L 340.515625 268.191406 L 377.351562 231.332031 L 374.484375 228.460938 C 353.484375 207.4375 324.003906 200.082031 297.082031 206.414062 C 293.222656 182.660156 272.640625 164.539062 247.828125 164.527344 C 220.261719 164.527344 197.917969 186.914062 197.917969 214.503906 C 197.917969 238.316406 214.535156 258.230469 236.785156 263.269531 C 228.355469 291.488281 235.234375 323.332031 257.492188 345.617188 L 340.515625 428.660156 L 377.316406 391.78125 L 294.304688 308.746094 C 282.398438 296.816406 282.378906 277.367188 294.375 265.34375 Z M 570.101562 214.492188 C 570.101562 186.878906 547.757812 164.515625 520.183594 164.515625 C 494.949219 164.515625 474.097656 183.265625 470.742188 207.601562 C 442.652344 199.347656 411.0625 206.332031 388.882812 228.519531 L 305.863281 311.566406 L 342.695312 348.4375 L 425.695312 265.414062 C 437.695312 253.402344 457.027344 253.425781 468.945312 265.34375 C 480.898438 277.308594 480.898438 296.722656 468.933594 308.6875 L 466.089844 311.542969 L 502.902344 348.4375 L 505.769531 345.546875 C 527.796875 323.472656 534.804688 292.070312 526.757812 264.050781 C 551.222656 260.832031 570.101562 239.867188 570.101562 214.492188 Z M 527.667969 438.199219 C 534.269531 411.066406 526.945312 381.238281 505.769531 360.039062 L 422.875 276.957031 L 386.039062 313.804688 L 468.945312 396.886719 C 480.945312 408.910156 480.921875 428.265625 469.015625 440.195312 C 457.0625 452.144531 437.671875 452.144531 425.707031 440.183594 L 422.875 437.347656 L 386.074219 474.242188 L 388.894531 477.054688 C 411.308594 499.5 443.421875 506.367188 471.742188 497.632812 C 476.351562 520.476562 496.5 537.640625 520.671875 537.640625 C 548.226562 537.640625 570.578125 515.289062 570.578125 487.675781 C 570.578125 462.453125 551.933594 441.59375 527.679688 438.1875 Z M 420.566406 357.160156 L 337.648438 440.242188 C 325.730469 452.179688 306.292969 452.203125 294.304688 440.195312 C 282.34375 428.207031 282.34375 408.816406 294.292969 396.839844 L 297.140625 394.007812 L 260.304688 357.160156 L 257.480469 359.96875 C 236.074219 381.402344 228.855469 411.648438 235.816406 439.039062 C 213.8125 444.238281 197.429688 464.050781 197.429688 487.6875 C 197.417969 515.289062 219.785156 537.652344 247.347656 537.652344 C 271.066406 537.640625 290.925781 521.105469 296.007812 498.894531 C 323.222656 505.65625 353.214844 498.414062 374.472656 477.121094 L 457.367188 394.054688 L 420.554688 357.171875 Z M 420.566406 357.160156 " fill-opacity="1" fill-rule="nonzero"/></g><g fill="#f9fbf2" fill-opacity="1"><g transform="translate(205.998707, 616.675645)"><g><path d="M 0.523438 -4.625 C 4.714844 -0.523438 10.214844 1.046875 16.152344 1.046875 C 28.109375 1.046875 36.664062 -5.324219 36.664062 -19.117188 L 36.664062 -58.230469 L 24.269531 -58.230469 L 24.269531 -19.292969 C 24.269531 -13.617188 20.691406 -9.953125 15.191406 -9.953125 C 11.175781 -9.953125 8.207031 -11.960938 5.9375 -14.144531 Z M 0.523438 -4.625 "/></g></g></g><g fill="#f9fbf2" fill-opacity="1"><g transform="translate(248.42312, 616.675645)"><g><path d="M 2.96875 -29.070312 C 2.96875 -11.523438 15.800781 1.046875 33.347656 1.046875 C 50.984375 1.046875 63.816406 -11.523438 63.816406 -29.070312 C 63.816406 -46.617188 50.984375 -59.1875 33.347656 -59.1875 C 15.800781 -59.1875 2.96875 -46.617188 2.96875 -29.070312 Z M 51.070312 -29.070312 C 51.070312 -18.246094 44.085938 -9.953125 33.347656 -9.953125 C 22.609375 -9.953125 15.714844 -18.246094 15.714844 -29.070312 C 15.714844 -39.984375 22.609375 -48.191406 33.347656 -48.191406 C 44.085938 -48.191406 51.070312 -39.984375 51.070312 -29.070312 Z M 51.070312 -29.070312 "/></g></g></g><g fill="#f9fbf2" fill-opacity="1"><g transform="translate(315.202288, 616.675645)"><g><path d="M 2.96875 -29.070312 C 2.96875 -11.523438 15.800781 1.046875 33.347656 1.046875 C 50.984375 1.046875 63.816406 -11.523438 63.816406 -29.070312 C 63.816406 -46.617188 50.984375 -59.1875 33.347656 -59.1875 C 15.800781 -59.1875 2.96875 -46.617188 2.96875 -29.070312 Z M 51.070312 -29.070312 C 51.070312 -18.246094 44.085938 -9.953125 33.347656 -9.953125 C 22.609375 -9.953125 15.714844 -18.246094 15.714844 -29.070312 C 15.714844 -39.984375 22.609375 -48.191406 33.347656 -48.191406 C 44.085938 -48.191406 51.070312 -39.984375 51.070312 -29.070312 Z M 51.070312 -29.070312 "/></g></g></g><g fill="#f9fbf2" fill-opacity="1"><g transform="translate(381.981456, 616.675645)"><g><path d="M 68.878906 0 L 68.878906 -58.230469 L 51.417969 -58.230469 L 37.277344 -21.914062 L 23.132812 -58.230469 L 5.761719 -58.230469 L 5.761719 0 L 18.160156 0 L 18.160156 -41.902344 L 34.570312 0 L 39.984375 0 L 56.394531 -41.902344 L 56.394531 0 Z M 68.878906 0 "/></g></g></g><g fill="#f9fbf2" fill-opacity="1"><g transform="translate(456.616981, 616.675645)"><g><path d="M 42.777344 0 L 42.777344 -10.914062 L 18.160156 -10.914062 L 18.160156 -58.230469 L 5.761719 -58.230469 L 5.761719 0 Z M 42.777344 0 "/></g></g></g><g fill="#f9fbf2" fill-opacity="1"><g transform="translate(502.271237, 616.675645)"><g><path d="M 60.0625 0 L 37.625 -58.230469 L 22.085938 -58.230469 L -0.4375 0 L 13.183594 0 L 16.847656 -10.039062 L 42.863281 -10.039062 L 46.53125 0 Z M 39.460938 -20.777344 L 20.167969 -20.777344 L 29.855469 -47.492188 Z M 39.460938 -20.777344 "/></g></g></g></svg>