<svg xmlns="http://www.w3.org/2000/svg" xmlns:xlink="http://www.w3.org/1999/xlink" width="1024" zoomAndPan="magnify" viewBox="0 0 768 767.999994" height="1024" preserveAspectRatio="xMidYMid meet" version="1.0"><defs><g/><clipPath id="c546c7f72c"><path d="M 76.800781 76.800781 L 691.050781 76.800781 L 691.050781 691.050781 L 76.800781 691.050781 Z M 76.800781 76.800781 " clip-rule="nonzero"/></clipPath><clipPath id="eb91f0716f"><path d="M 159.320312 268.800781 L 617 268.800781 L 617 499.199219 L 159.320312 499.199219 Z M 159.320312 268.800781 " clip-rule="nonzero"/></clipPath><clipPath id="396381ce7e"><path d="M 195.320312 268.800781 L 580.972656 268.800781 C 590.523438 268.800781 599.679688 272.59375 606.429688 279.34375 C 613.183594 286.09375 616.972656 295.253906 616.972656 304.800781 L 616.972656 463.199219 C 616.972656 483.082031 600.855469 499.199219 580.972656 499.199219 L 195.320312 499.199219 C 185.773438 499.199219 176.613281 495.40625 169.863281 488.65625 C 163.113281 481.90625 159.320312 472.746094 159.320312 463.199219 L 159.320312 304.800781 C 159.320312 284.917969 175.4375 268.800781 195.320312 268.800781 Z M 195.320312 268.800781 " clip-rule="nonzero"/></clipPath></defs><g clip-path="url(#c546c7f72c)"><path fill="#374151" d="M 575.992188 76.800781 L 192 76.800781 C 128.363281 76.800781 76.800781 128.363281 76.800781 192 L 76.800781 575.992188 C 76.800781 639.628906 128.363281 691.191406 192 691.191406 L 575.992188 691.191406 C 639.628906 691.191406 691.191406 639.628906 691.191406 575.992188 L 691.191406 192 C 691.191406 128.363281 639.628906 76.800781 575.992188 76.800781 Z M 276.902344 436.476562 C 287.132812 436.476562 297.71875 434.421875 304.527344 431.136719 C 305.992188 430.40625 307.976562 430.359375 309.582031 431.066406 C 311.144531 431.777344 312.324219 433.195312 312.796875 434.894531 L 316.648438 449.617188 C 317.359375 452.335938 316.035156 455.171875 313.53125 456.375 C 306.417969 459.96875 292.003906 463.820312 273.050781 463.820312 C 226.425781 463.820312 196.300781 433.003906 196.300781 385.367188 C 196.300781 337.539062 229.523438 304.125 277.089844 304.125 C 298.570312 304.125 310.671875 309.535156 313.859375 311.191406 C 316.363281 312.511719 317.59375 315.417969 316.789062 318.136719 L 312.324219 333.214844 C 311.828125 334.890625 310.597656 336.308594 308.992188 336.945312 C 307.644531 337.5625 305.566406 337.585938 304.007812 336.78125 C 296.964844 333.378906 287.605469 331.488281 277.730469 331.488281 C 246.394531 331.488281 227.679688 351.386719 227.679688 384.703125 C 227.703125 417.125 246.113281 436.476562 276.902344 436.476562 Z M 387.066406 463.84375 C 372.558594 463.84375 356.160156 459.660156 347.179688 453.703125 C 344.980469 452.214844 344.035156 449.523438 344.792969 447.066406 L 349.472656 431.5625 C 349.992188 429.792969 351.339844 428.347656 353.015625 427.710938 C 355.070312 427.027344 356.75 427.285156 358.261719 428.253906 C 366.839844 433.546875 378.085938 436.691406 388.296875 436.691406 C 403.371094 436.691406 412.375 429.742188 412.375 418.140625 C 412.375 409.042969 408.6875 402.6875 389.148438 395.125 C 360.742188 385.082031 347.484375 370.40625 347.484375 349 C 347.484375 322.578125 368.988281 304.148438 399.78125 304.148438 C 417.859375 304.148438 429.222656 309.039062 434.375 311.96875 C 436.832031 313.339844 437.96875 316.292969 437.070312 318.988281 L 431.964844 334.089844 C 431.398438 335.742188 430.121094 337.042969 428.515625 337.679688 C 426.90625 338.292969 425.019531 338.175781 423.527344 337.371094 C 418.449219 334.609375 410.128906 331.277344 399.140625 331.277344 C 383.546875 331.277344 378.015625 339.664062 378.015625 346.871094 C 378.015625 355.355469 381.726562 360.859375 402.734375 369.011719 C 431.042969 379.953125 443.09375 394.179688 443.09375 416.675781 C 443.191406 438.441406 428.492188 463.84375 387.066406 463.84375 Z M 515.546875 463.84375 C 501.035156 463.84375 484.636719 459.660156 475.65625 453.703125 C 473.460938 452.214844 472.515625 449.523438 473.269531 447.066406 L 477.949219 431.5625 C 478.46875 429.792969 479.816406 428.347656 481.496094 427.710938 C 483.597656 427.003906 485.273438 427.308594 486.742188 428.277344 C 495.316406 433.546875 506.542969 436.691406 516.773438 436.691406 C 531.875 436.691406 540.878906 429.742188 540.878906 418.140625 C 540.878906 409.042969 537.191406 402.6875 517.648438 395.125 C 489.269531 385.082031 475.988281 370.40625 475.988281 349 C 475.988281 322.578125 497.492188 304.148438 528.28125 304.148438 C 546.359375 304.148438 557.726562 309.039062 562.902344 311.96875 C 565.359375 313.339844 566.492188 316.292969 565.570312 318.988281 L 560.492188 334.089844 C 559.898438 335.742188 558.648438 337.042969 557.039062 337.679688 C 555.457031 338.316406 553.566406 338.222656 552.054688 337.371094 C 546.972656 334.609375 538.632812 331.277344 527.644531 331.277344 C 512.070312 331.277344 506.542969 339.664062 506.542969 346.871094 C 506.542969 355.355469 510.230469 360.859375 531.261719 369.011719 C 559.570312 379.953125 571.621094 394.179688 571.621094 416.675781 C 571.644531 438.441406 556.96875 463.84375 515.546875 463.84375 Z M 515.546875 463.84375 " fill-opacity="1" fill-rule="nonzero"/></g><g clip-path="url(#eb91f0716f)"><g clip-path="url(#396381ce7e)"><path fill="#374151" d="M 159.320312 268.800781 L 617.417969 268.800781 L 617.417969 499.199219 L 159.320312 499.199219 Z M 159.320312 268.800781 " fill-opacity="1" fill-rule="nonzero"/></g></g><path fill="#f9fbf2" d="M 432.308594 615.878906 C 426.527344 615.878906 421.078125 612.402344 418.839844 606.699219 C 415.902344 599.261719 419.535156 590.855469 426.992188 587.898438 L 596.070312 521.039062 C 603.453125 518.082031 611.9375 521.734375 614.875 529.195312 C 617.8125 536.632812 614.179688 545.039062 606.71875 547.996094 L 437.640625 614.855469 C 435.902344 615.550781 434.085938 615.878906 432.308594 615.878906 Z M 432.308594 615.878906 " fill-opacity="1" fill-rule="nonzero"/><path fill="#f9fbf2" d="M 601.40625 426.703125 C 596.882812 426.703125 592.421875 424.597656 589.597656 420.636719 L 453.136719 228.117188 C 450.277344 224.078125 449.679688 218.859375 451.554688 214.261719 C 453.425781 209.664062 457.523438 206.378906 462.394531 205.488281 L 595.53125 181.335938 C 601.484375 180.3125 607.261719 182.902344 610.410156 187.90625 L 613.308594 192.542969 C 617.558594 199.34375 615.492188 208.273438 608.730469 212.523438 C 603.316406 215.925781 596.535156 215.304688 591.859375 211.460938 L 489.949219 229.953125 L 613.210938 403.785156 C 617.847656 410.296875 616.363281 419.339844 609.832031 423.996094 C 607.261719 425.832031 604.304688 426.703125 601.40625 426.703125 Z M 601.40625 426.703125 " fill-opacity="1" fill-rule="nonzero"/><path fill="#f9fbf2" d="M 166.589844 468.25 C 160.117188 468.25 154.207031 463.863281 152.542969 457.292969 C 150.589844 449.542969 155.324219 441.640625 163.074219 439.707031 L 261.625 414.972656 L 597.871094 328.019531 C 605.558594 326.066406 613.519531 330.800781 615.433594 338.570312 C 617.386719 346.316406 612.652344 354.203125 604.882812 356.132812 L 562.371094 366.761719 L 170.128906 467.824219 C 168.949219 468.132812 167.769531 468.25 166.589844 468.25 Z M 166.589844 468.25 " fill-opacity="1" fill-rule="nonzero"/><path fill="#f9fbf2" d="M 364.5 615.878906 C 359.476562 615.878906 354.609375 613.269531 351.941406 608.613281 L 154.070312 265.238281 C 150.070312 258.320312 152.445312 249.449219 159.382812 245.46875 C 166.261719 241.429688 175.171875 243.867188 179.152344 250.785156 L 377.023438 594.160156 C 381.023438 601.078125 378.644531 609.945312 371.707031 613.925781 C 369.449219 615.261719 366.957031 615.878906 364.5 615.878906 Z M 364.5 615.878906 " fill-opacity="1" fill-rule="nonzero"/><path fill="#f9fbf2" d="M 562.738281 615.878906 L 205.257812 615.878906 C 175.945312 615.878906 152.117188 592.054688 152.117188 562.738281 L 152.117188 205.257812 C 152.117188 175.945312 175.945312 152.117188 205.257812 152.117188 L 562.738281 152.117188 C 589.230469 152.117188 611.859375 171.984375 615.375 198.320312 C 615.648438 200.582031 615.878906 202.917969 615.878906 205.257812 L 615.878906 562.738281 C 615.878906 592.054688 592.054688 615.878906 562.738281 615.878906 Z M 205.257812 181.101562 C 191.945312 181.101562 181.101562 191.945312 181.101562 205.257812 L 181.101562 562.738281 C 181.101562 576.054688 191.945312 586.894531 205.257812 586.894531 L 562.738281 586.894531 C 576.054688 586.894531 586.894531 576.054688 586.894531 562.738281 L 586.894531 205.257812 C 586.894531 204.117188 586.738281 202.996094 586.621094 201.992188 C 585.039062 190.167969 574.757812 181.101562 562.738281 181.101562 Z M 205.257812 181.101562 " fill-opacity="1" fill-rule="nonzero"/><path stroke-linecap="butt" transform="matrix(0.75, 0, 0, 0.75, 75.029274, 323.250004)" fill="none" stroke-linejoin="miter" d="M 217.346395 117 L 217.346395 102.447916 L 184.523476 102.447916 L 184.523476 39.36458 L 167.987017 39.36458 L 167.987017 117 Z M 301.268274 117 L 271.341189 39.36458 L 250.627646 39.36458 L 220.617228 117 L 238.747437 117 L 243.664104 103.614583 L 278.330773 103.614583 L 283.221398 117 Z M 273.783898 89.291666 L 248.070355 89.291666 L 260.997439 53.682289 Z M 371.330777 117 L 353.88286 87.447916 C 362.263069 85.458332 370.872444 78.124999 370.872444 64.395831 C 370.872444 49.963539 360.987027 39.36458 344.789109 39.36458 L 308.471399 39.36458 L 308.471399 117 L 325.007858 117 L 325.007858 89.177082 L 337.112026 89.177082 L 352.372443 117 Z M 353.992235 64.286456 C 353.992235 70.791665 348.992235 74.968748 342.341193 74.968748 L 325.007858 74.968748 L 325.007858 53.572914 L 342.341193 53.572914 C 348.992235 53.572914 353.992235 57.749998 353.992235 64.286456 Z M 455.716198 117 L 425.794322 39.36458 L 405.075571 39.36458 L 375.065153 117 L 393.195362 117 L 398.112029 103.614583 L 432.783905 103.614583 L 437.669322 117 Z M 428.23703 89.291666 L 402.518279 89.291666 L 415.450571 53.682289 Z M 505.403701 117 L 535.330786 39.36458 L 516.460993 39.36458 L 495.05995 99.067708 L 473.518282 39.36458 L 454.67974 39.36458 L 484.68495 117 Z M 597.492247 117 L 597.492247 102.677083 L 559.07037 102.677083 L 559.07037 84.630207 L 596.66933 84.630207 L 596.66933 70.453123 L 559.07037 70.453123 L 559.07037 53.572914 L 597.492247 53.572914 L 597.492247 39.36458 L 542.528703 39.36458 L 542.528703 117 Z M 659.747458 117 L 659.747458 102.447916 L 626.92454 102.447916 L 626.92454 39.36458 L 610.388081 39.36458 L 610.388081 117 Z M 659.747458 117 " stroke="#374151" stroke-width="30.555" stroke-opacity="1" stroke-miterlimit="4"/><g fill="#f9fbf2" fill-opacity="1"><g transform="translate(195.263644, 411)"><g><path d="M 42.777344 0 L 42.777344 -10.914062 L 18.160156 -10.914062 L 18.160156 -58.230469 L 5.761719 -58.230469 L 5.761719 0 Z M 42.777344 0 "/></g></g></g><g fill="#f9fbf2" fill-opacity="1"><g transform="translate(240.9179, 411)"><g><path d="M 60.0625 0 L 37.625 -58.230469 L 22.085938 -58.230469 L -0.4375 0 L 13.183594 0 L 16.847656 -10.039062 L 42.863281 -10.039062 L 46.53125 0 Z M 39.460938 -20.777344 L 20.167969 -20.777344 L 29.855469 -47.492188 Z M 39.460938 -20.777344 "/></g></g></g><g fill="#f9fbf2" fill-opacity="1"><g transform="translate(300.626325, 411)"><g><path d="M 52.902344 0 L 39.808594 -22.175781 C 46.09375 -23.660156 52.554688 -29.15625 52.554688 -39.460938 C 52.554688 -50.285156 45.132812 -58.230469 33 -58.230469 L 5.761719 -58.230469 L 5.761719 0 L 18.160156 0 L 18.160156 -20.863281 L 27.238281 -20.863281 L 38.675781 0 Z M 39.894531 -39.546875 C 39.894531 -34.65625 36.140625 -31.515625 31.167969 -31.515625 L 18.160156 -31.515625 L 18.160156 -47.578125 L 31.167969 -47.578125 C 36.140625 -47.578125 39.894531 -44.4375 39.894531 -39.546875 Z M 39.894531 -39.546875 "/></g></g></g><g fill="#f9fbf2" fill-opacity="1"><g transform="translate(356.755736, 411)"><g><path d="M 60.0625 0 L 37.625 -58.230469 L 22.085938 -58.230469 L -0.4375 0 L 13.183594 0 L 16.847656 -10.039062 L 42.863281 -10.039062 L 46.53125 0 Z M 39.460938 -20.777344 L 20.167969 -20.777344 L 29.855469 -47.492188 Z M 39.460938 -20.777344 "/></g></g></g><g fill="#f9fbf2" fill-opacity="1"><g transform="translate(416.464148, 411)"><g><path d="M 37.625 0 L 60.0625 -58.230469 L 45.917969 -58.230469 L 29.855469 -13.445312 L 13.707031 -58.230469 L -0.4375 -58.230469 L 22.085938 0 Z M 37.625 0 "/></g></g></g><g fill="#f9fbf2" fill-opacity="1"><g transform="translate(476.172573, 411)"><g><path d="M 46.96875 0 L 46.96875 -10.738281 L 18.160156 -10.738281 L 18.160156 -24.269531 L 46.355469 -24.269531 L 46.355469 -34.921875 L 18.160156 -34.921875 L 18.160156 -47.578125 L 46.96875 -47.578125 L 46.96875 -58.230469 L 5.761719 -58.230469 L 5.761719 0 Z M 46.96875 0 "/></g></g></g><g fill="#f9fbf2" fill-opacity="1"><g transform="translate(527.064401, 411)"><g><path d="M 42.777344 0 L 42.777344 -10.914062 L 18.160156 -10.914062 L 18.160156 -58.230469 L 5.761719 -58.230469 L 5.761719 0 Z M 42.777344 0 "/></g></g></g></svg>