<svg xmlns="http://www.w3.org/2000/svg" xmlns:xlink="http://www.w3.org/1999/xlink" width="1024" zoomAndPan="magnify" viewBox="0 0 768 767.999994" height="1024" preserveAspectRatio="xMidYMid meet" version="1.0"><defs><g/><clipPath id="6cbb84882e"><path d="M 76.800781 76.800781 L 691.050781 76.800781 L 691.050781 691.050781 L 76.800781 691.050781 Z M 76.800781 76.800781 " clip-rule="nonzero"/></clipPath><clipPath id="348d70b515"><path d="M 157.660156 209.082031 L 613 209.082031 L 613 565.550781 L 157.660156 565.550781 Z M 157.660156 209.082031 " clip-rule="nonzero"/></clipPath><clipPath id="cafe4383fd"><path d="M 193.660156 209.082031 L 577.65625 209.082031 C 597.539062 209.082031 613.65625 225.199219 613.65625 245.082031 L 613.65625 529.550781 C 613.65625 549.433594 597.539062 565.550781 577.65625 565.550781 L 193.660156 565.550781 C 173.777344 565.550781 157.660156 549.433594 157.660156 529.550781 L 157.660156 245.082031 C 157.660156 225.199219 173.777344 209.082031 193.660156 209.082031 Z M 193.660156 209.082031 " clip-rule="nonzero"/></clipPath><clipPath id="7737cf59e8"><path d="M 109.003906 142 L 658.753906 142 L 658.753906 624 L 109.003906 624 Z M 109.003906 142 " clip-rule="nonzero"/></clipPath><clipPath id="a27054313e"><path d="M 135.742188 294.945312 L 630.988281 294.945312 L 630.988281 472.261719 L 135.742188 472.261719 Z M 135.742188 294.945312 " clip-rule="nonzero"/></clipPath><clipPath id="92e9e58fcb"><path d="M 383.171875 294.945312 C 246.519531 294.945312 135.742188 334.636719 135.742188 383.601562 C 135.742188 432.566406 246.519531 472.261719 383.171875 472.261719 C 519.820312 472.261719 630.597656 432.566406 630.597656 383.601562 C 630.597656 334.636719 519.820312 294.945312 383.171875 294.945312 Z M 383.171875 294.945312 " clip-rule="nonzero"/></clipPath></defs><g clip-path="url(#6cbb84882e)"><path fill="#374151" d="M 575.992188 76.800781 L 192 76.800781 C 128.363281 76.800781 76.800781 128.363281 76.800781 192 L 76.800781 575.992188 C 76.800781 639.628906 128.363281 691.191406 192 691.191406 L 575.992188 691.191406 C 639.628906 691.191406 691.191406 639.628906 691.191406 575.992188 L 691.191406 192 C 691.191406 128.363281 639.628906 76.800781 575.992188 76.800781 Z M 276.902344 436.476562 C 287.132812 436.476562 297.71875 434.421875 304.527344 431.136719 C 305.992188 430.40625 307.976562 430.359375 309.582031 431.066406 C 311.144531 431.777344 312.324219 433.195312 312.796875 434.894531 L 316.648438 449.617188 C 317.359375 452.335938 316.035156 455.171875 313.53125 456.375 C 306.417969 459.96875 292.003906 463.820312 273.050781 463.820312 C 226.425781 463.820312 196.300781 433.003906 196.300781 385.367188 C 196.300781 337.539062 229.523438 304.125 277.089844 304.125 C 298.570312 304.125 310.671875 309.535156 313.859375 311.191406 C 316.363281 312.511719 317.59375 315.417969 316.789062 318.136719 L 312.324219 333.214844 C 311.828125 334.890625 310.597656 336.308594 308.992188 336.945312 C 307.644531 337.5625 305.566406 337.585938 304.007812 336.78125 C 296.964844 333.378906 287.605469 331.488281 277.730469 331.488281 C 246.394531 331.488281 227.679688 351.386719 227.679688 384.703125 C 227.703125 417.125 246.113281 436.476562 276.902344 436.476562 Z M 387.066406 463.84375 C 372.558594 463.84375 356.160156 459.660156 347.179688 453.703125 C 344.980469 452.214844 344.035156 449.523438 344.792969 447.066406 L 349.472656 431.5625 C 349.992188 429.789062 351.339844 428.347656 353.015625 427.710938 C 355.070312 427.027344 356.75 427.285156 358.261719 428.253906 C 366.839844 433.546875 378.085938 436.691406 388.296875 436.691406 C 403.371094 436.691406 412.375 429.742188 412.375 418.140625 C 412.375 409.042969 408.6875 402.6875 389.148438 395.125 C 360.742188 385.082031 347.484375 370.40625 347.484375 349 C 347.484375 322.578125 368.988281 304.148438 399.78125 304.148438 C 417.859375 304.148438 429.222656 309.039062 434.375 311.96875 C 436.832031 313.339844 437.96875 316.292969 437.070312 318.988281 L 431.964844 334.085938 C 431.398438 335.742188 430.121094 337.042969 428.515625 337.679688 C 426.90625 338.292969 425.019531 338.175781 423.527344 337.371094 C 418.449219 334.609375 410.128906 331.277344 399.140625 331.277344 C 383.546875 331.277344 378.015625 339.664062 378.015625 346.871094 C 378.015625 355.355469 381.726562 360.859375 402.734375 369.011719 C 431.042969 379.953125 443.09375 394.179688 443.09375 416.675781 C 443.191406 438.441406 428.492188 463.84375 387.066406 463.84375 Z M 515.546875 463.84375 C 501.035156 463.84375 484.636719 459.660156 475.65625 453.703125 C 473.460938 452.214844 472.515625 449.523438 473.269531 447.066406 L 477.949219 431.5625 C 478.46875 429.789062 479.816406 428.347656 481.496094 427.710938 C 483.597656 427.003906 485.273438 427.308594 486.742188 428.277344 C 495.316406 433.546875 506.542969 436.691406 516.773438 436.691406 C 531.875 436.691406 540.878906 429.742188 540.878906 418.140625 C 540.878906 409.042969 537.191406 402.6875 517.648438 395.125 C 489.269531 385.082031 475.988281 370.40625 475.988281 349 C 475.988281 322.578125 497.492188 304.148438 528.28125 304.148438 C 546.359375 304.148438 557.726562 309.039062 562.902344 311.96875 C 565.359375 313.339844 566.492188 316.292969 565.570312 318.988281 L 560.492188 334.085938 C 559.898438 335.742188 558.648438 337.042969 557.039062 337.679688 C 555.457031 338.316406 553.566406 338.222656 552.054688 337.371094 C 546.972656 334.609375 538.632812 331.277344 527.644531 331.277344 C 512.070312 331.277344 506.542969 339.664062 506.542969 346.871094 C 506.542969 355.355469 510.230469 360.859375 531.261719 369.011719 C 559.570312 379.953125 571.621094 394.179688 571.621094 416.675781 C 571.644531 438.441406 556.96875 463.84375 515.546875 463.84375 Z M 515.546875 463.84375 " fill-opacity="1" fill-rule="nonzero"/></g><g clip-path="url(#348d70b515)"><g clip-path="url(#cafe4383fd)"><path fill="#374151" d="M 157.660156 209.082031 L 612.992188 209.082031 L 612.992188 565.550781 L 157.660156 565.550781 Z M 157.660156 209.082031 " fill-opacity="1" fill-rule="nonzero"/></g></g><path fill="#f9fbf2" d="M 433.199219 382.824219 C 433.199219 384.4375 433.117188 386.042969 432.960938 387.648438 C 432.800781 389.25 432.566406 390.84375 432.25 392.425781 C 431.9375 394.003906 431.546875 395.566406 431.078125 397.109375 C 430.609375 398.648438 430.070312 400.164062 429.453125 401.652344 C 428.835938 403.144531 428.148438 404.597656 427.386719 406.019531 C 426.628906 407.441406 425.800781 408.820312 424.90625 410.160156 C 424.011719 411.5 423.050781 412.792969 422.027344 414.039062 C 421.007812 415.285156 419.925781 416.476562 418.785156 417.617188 C 417.648438 418.753906 416.453125 419.835938 415.210938 420.859375 C 413.964844 421.878906 412.671875 422.839844 411.332031 423.734375 C 409.992188 424.628906 408.609375 425.457031 407.191406 426.214844 C 405.769531 426.976562 404.3125 427.664062 402.824219 428.28125 C 401.335938 428.898438 399.820312 429.441406 398.277344 429.90625 C 396.738281 430.375 395.175781 430.765625 393.59375 431.082031 C 392.015625 431.394531 390.421875 431.632812 388.820312 431.789062 C 387.214844 431.949219 385.609375 432.027344 383.996094 432.027344 C 382.386719 432.027344 380.777344 431.949219 379.175781 431.789062 C 377.570312 431.632812 375.976562 431.394531 374.398438 431.082031 C 372.816406 430.765625 371.257812 430.375 369.714844 429.90625 C 368.171875 429.441406 366.65625 428.898438 365.167969 428.28125 C 363.679688 427.664062 362.226562 426.976562 360.804688 426.214844 C 359.382812 425.457031 358.003906 424.628906 356.664062 423.734375 C 355.324219 422.839844 354.03125 421.878906 352.785156 420.859375 C 351.539062 419.835938 350.347656 418.753906 349.207031 417.617188 C 348.066406 416.476562 346.984375 415.285156 345.964844 414.039062 C 344.941406 412.792969 343.984375 411.5 343.085938 410.160156 C 342.191406 408.820312 341.363281 407.441406 340.605469 406.019531 C 339.847656 404.597656 339.15625 403.144531 338.542969 401.652344 C 337.925781 400.164062 337.382812 398.648438 336.914062 397.109375 C 336.445312 395.566406 336.054688 394.003906 335.742188 392.425781 C 335.425781 390.84375 335.191406 389.25 335.03125 387.648438 C 334.875 386.042969 334.796875 384.4375 334.796875 382.824219 C 334.796875 381.214844 334.875 379.605469 335.03125 378.003906 C 335.191406 376.398438 335.425781 374.808594 335.742188 373.226562 C 336.054688 371.648438 336.445312 370.085938 336.914062 368.542969 C 337.382812 367 337.925781 365.484375 338.542969 363.996094 C 339.15625 362.507812 339.847656 361.054688 340.605469 359.632812 C 341.363281 358.210938 342.191406 356.832031 343.085938 355.492188 C 343.984375 354.152344 344.941406 352.859375 345.964844 351.613281 C 346.984375 350.367188 348.066406 349.175781 349.207031 348.035156 C 350.347656 346.894531 351.539062 345.816406 352.785156 344.792969 C 354.03125 343.769531 355.324219 342.8125 356.664062 341.917969 C 358.003906 341.023438 359.382812 340.195312 360.804688 339.433594 C 362.226562 338.675781 363.679688 337.988281 365.167969 337.371094 C 366.65625 336.753906 368.171875 336.210938 369.714844 335.742188 C 371.257812 335.277344 372.816406 334.882812 374.398438 334.570312 C 375.976562 334.257812 377.570312 334.019531 379.175781 333.863281 C 380.777344 333.703125 382.386719 333.625 383.996094 333.625 C 385.609375 333.625 387.214844 333.703125 388.820312 333.863281 C 390.421875 334.019531 392.015625 334.257812 393.59375 334.570312 C 395.175781 334.882812 396.738281 335.277344 398.277344 335.742188 C 399.820312 336.210938 401.335938 336.753906 402.824219 337.371094 C 404.3125 337.988281 405.769531 338.675781 407.191406 339.433594 C 408.609375 340.195312 409.992188 341.023438 411.332031 341.917969 C 412.671875 342.8125 413.964844 343.769531 415.210938 344.792969 C 416.453125 345.816406 417.648438 346.894531 418.785156 348.035156 C 419.925781 349.175781 421.007812 350.367188 422.027344 351.613281 C 423.050781 352.859375 424.011719 354.152344 424.90625 355.492188 C 425.800781 356.832031 426.628906 358.210938 427.386719 359.632812 C 428.148438 361.054688 428.835938 362.507812 429.453125 363.996094 C 430.070312 365.484375 430.609375 367 431.078125 368.542969 C 431.546875 370.085938 431.9375 371.648438 432.25 373.226562 C 432.566406 374.808594 432.800781 376.398438 432.960938 378.003906 C 433.117188 379.605469 433.199219 381.214844 433.199219 382.824219 Z M 433.199219 382.824219 " fill-opacity="1" fill-rule="nonzero"/><g clip-path="url(#7737cf59e8)"><path fill="#f9fbf2" d="M 212.449219 469.953125 C 217.28125 471.554688 222.117188 473.183594 227.066406 474.582031 C 225.464844 481.019531 224.066406 487.367188 222.757812 493.921875 C 211.484375 553.550781 220.285156 600.804688 248.425781 617.027344 C 277.4375 633.777344 326.203125 616.59375 373.683594 575.023438 C 377.441406 571.699219 381.199219 568.261719 384.960938 564.59375 C 389.679688 569.222656 394.628906 573.625 399.554688 577.910156 C 445.527344 617.441406 490.96875 633.433594 519.019531 617.234375 C 548.03125 600.480469 557.472656 549.675781 545.234375 487.804688 C 544.269531 483.082031 543.195312 478.246094 542.003906 473.296875 C 545.441406 472.335938 548.761719 471.257812 552.109375 470.179688 C 614.097656 449.671875 658.988281 416.464844 658.988281 382.414062 C 658.988281 349.871094 616.664062 318.292969 558.226562 298.195312 L 558.226562 298.175781 C 552.429688 296.25 546.632812 294.414062 540.832031 292.695312 C 541.796875 288.734375 542.667969 284.746094 543.515625 280.78125 C 556.738281 216.753906 548.03125 165.328125 518.695312 148.347656 C 490.441406 132.125 444.359375 148.992188 397.746094 189.597656 C 393.117188 193.5625 388.625 197.757812 384.316406 201.949219 C 381.40625 199.152344 378.40625 196.359375 375.402344 193.675781 C 326.523438 150.273438 277.550781 132.011719 248.21875 149.105469 C 220.078125 165.445312 211.691406 213.890625 223.515625 274.433594 C 224.707031 280.460938 225.992188 286.347656 227.480469 292.375 C 220.605469 294.300781 213.84375 296.457031 207.496094 298.722656 C 150.140625 318.59375 109.003906 349.964844 109.003906 382.414062 C 109.003906 415.9375 152.820312 449.535156 212.449219 469.953125 Z M 358.535156 557.46875 C 340.824219 573.691406 320.289062 586.570312 297.945312 595.394531 C 286.03125 601.078125 272.28125 601.628906 260.019531 596.792969 C 242.949219 586.914062 235.84375 548.988281 245.515625 497.957031 C 246.707031 491.953125 247.988281 485.925781 249.480469 480.011719 C 273.542969 485.167969 297.808594 488.71875 322.421875 490.53125 C 336.605469 510.628906 352.167969 529.855469 368.828125 547.890625 C 365.390625 551.210938 361.953125 554.445312 358.515625 557.445312 Z M 494.957031 355.761719 C 489.914062 346.296875 484.757812 336.855469 479.375 327.621094 C 474.101562 318.5 468.625 309.472656 462.941406 300.558594 C 480.242188 302.710938 496.789062 305.597656 512.257812 309.152344 C 507.308594 325.054688 501.511719 340.523438 494.957031 355.761719 Z M 495.164062 409.246094 C 502.035156 424.832031 508.0625 440.621094 513.3125 456.84375 C 496.652344 460.601562 479.808594 463.511719 462.828125 465.4375 C 468.625 456.410156 474.101562 447.175781 479.488281 437.9375 C 484.964844 428.472656 490.121094 418.917969 495.164062 409.246094 Z M 482.742188 382.527344 C 475.546875 397.355469 467.800781 411.953125 459.550781 426.34375 C 451.394531 440.621094 442.683594 454.484375 433.5625 468.234375 C 417.570312 469.425781 400.910156 469.953125 384.042969 469.953125 C 367.175781 469.953125 350.859375 469.425781 335.070312 468.441406 C 325.722656 454.804688 316.921875 440.824219 308.648438 426.550781 C 300.375 412.273438 292.746094 397.765625 285.550781 382.941406 L 285.503906 382.941406 C 292.585938 368.113281 300.332031 353.609375 308.488281 339.332031 C 316.644531 325.054688 325.46875 311.191406 334.703125 297.554688 C 350.8125 296.363281 367.246094 295.722656 384.019531 295.722656 C 400.792969 295.722656 417.316406 296.363281 433.335938 297.554688 C 442.457031 311.097656 451.164062 324.941406 459.4375 339.125 C 467.707031 353.308594 475.429688 367.816406 482.742188 382.527344 Z M 288.484375 327.828125 C 283.210938 336.949219 278.054688 346.273438 273.21875 355.738281 C 266.460938 339.742188 260.753906 324.070312 256.035156 308.921875 C 271.5 305.484375 287.933594 302.6875 305.003906 300.535156 C 299.34375 309.449219 293.753906 318.570312 288.484375 327.828125 Z M 273.242188 410.097656 C 278.195312 419.558594 283.234375 428.910156 288.597656 438.144531 C 294.074219 447.496094 299.664062 456.84375 305.578125 465.964844 C 288.828125 464.132812 272.167969 461.449219 255.734375 457.898438 C 260.457031 442.429688 266.367188 426.433594 273.242188 410.097656 Z M 384.867188 531.34375 C 373.914062 519.542969 362.960938 506.457031 352.328125 492.363281 C 362.640625 492.800781 373.273438 493.003906 384.019531 493.003906 C 395.089844 493.003906 405.925781 492.800781 416.675781 492.25 C 406.796875 505.882812 396.164062 518.902344 384.867188 531.34375 Z M 525.273438 563.609375 C 524.289062 576.695312 517.847656 588.933594 507.535156 597.203125 C 490.464844 607.082031 454.050781 594.203125 414.726562 560.46875 C 410.210938 556.597656 405.699219 552.402344 401.09375 548.117188 C 417.523438 529.96875 432.671875 510.742188 446.417969 490.554688 C 471.007812 488.515625 495.507812 484.757812 519.683594 479.277344 C 520.757812 483.679688 521.722656 488.078125 522.59375 492.386719 C 527.863281 515.601562 528.710938 539.753906 525.273438 563.609375 Z M 534.601562 314.832031 C 540.191406 316.4375 545.554688 318.15625 550.710938 319.875 C 600.757812 337.0625 635.890625 362.636719 635.890625 382.183594 C 635.890625 403.242188 598.398438 430.421875 544.796875 448.136719 C 541.796875 449.097656 538.792969 450.0625 535.675781 450.933594 C 528.160156 427.511719 518.925781 404.640625 508.292969 382.390625 C 518.605469 360.484375 527.3125 337.910156 534.601562 314.832031 Z M 412.871094 206.992188 C 452.859375 172.203125 490.121094 158.570312 507.101562 168.332031 C 525.25 178.757812 532.242188 220.855469 520.851562 276.175781 C 520.09375 279.816406 519.339844 283.371094 518.375 286.921875 C 494.519531 281.558594 470.367188 277.6875 446.074219 275.53125 C 432.121094 255.527344 416.859375 236.414062 400.3125 218.472656 C 404.507812 214.507812 408.585938 210.75 412.871094 206.992188 Z M 384.226562 234.925781 C 395.5 247.164062 406.132812 260.042969 416.011719 273.355469 C 394.746094 272.394531 373.363281 272.394531 352.097656 273.355469 C 362.617188 259.515625 373.476562 246.636719 384.226562 234.925781 Z M 259.609375 169.089844 C 277.667969 158.570312 317.722656 173.601562 359.933594 210.976562 C 362.617188 213.339844 365.296875 215.929688 368.09375 218.496094 C 351.433594 236.414062 336.078125 255.527344 322.007812 275.511719 C 297.742188 277.664062 273.679688 281.421875 249.824219 286.691406 C 248.425781 281.214844 247.257812 275.625 246.066406 270.03125 C 235.960938 218.035156 242.628906 178.851562 259.609375 169.089844 Z M 215.035156 320.515625 C 221.15625 318.363281 227.386719 316.4375 233.621094 314.605469 C 240.933594 337.910156 249.730469 360.804688 259.929688 382.917969 C 249.617188 405.375 240.703125 428.566406 233.300781 452.191406 L 233.277344 452.214844 C 228.761719 450.933594 224.363281 449.535156 219.964844 448.023438 C 197.09375 440.824219 171.082031 429.4375 152.292969 414.519531 C 141.453125 407.003906 134.144531 395.40625 132.105469 382.390625 C 132.105469 362.726562 166.042969 337.589844 215.035156 320.515625 Z M 215.035156 320.515625 " fill-opacity="1" fill-rule="nonzero"/></g><g clip-path="url(#a27054313e)"><g clip-path="url(#92e9e58fcb)"><path fill="#374151" d="M 135.742188 294.945312 L 630.292969 294.945312 L 630.292969 472.261719 L 135.742188 472.261719 Z M 135.742188 294.945312 " fill-opacity="1" fill-rule="nonzero"/></g></g><g fill="#f9fbf2" fill-opacity="1"><g transform="translate(229.342861, 413.232772)"><g><path d="M 59.59375 0 L 44.84375 -24.976562 C 51.921875 -26.648438 59.199219 -32.84375 59.199219 -44.449219 C 59.199219 -56.644531 50.839844 -65.59375 37.171875 -65.59375 L 6.492188 -65.59375 L 6.492188 0 L 20.453125 0 L 20.453125 -23.503906 L 30.683594 -23.503906 L 43.566406 0 Z M 44.941406 -44.546875 C 44.941406 -39.039062 40.710938 -35.5 35.105469 -35.5 L 20.453125 -35.5 L 20.453125 -53.59375 L 35.105469 -53.59375 C 40.710938 -53.59375 44.941406 -50.054688 44.941406 -44.546875 Z M 44.941406 -44.546875 "/></g></g></g><g fill="#f9fbf2" fill-opacity="1"><g transform="translate(292.570401, 413.232772)"><g><path d="M 52.90625 0 L 52.90625 -12.097656 L 20.453125 -12.097656 L 20.453125 -27.339844 L 52.21875 -27.339844 L 52.21875 -39.335938 L 20.453125 -39.335938 L 20.453125 -53.59375 L 52.90625 -53.59375 L 52.90625 -65.59375 L 6.492188 -65.59375 L 6.492188 0 Z M 52.90625 0 "/></g></g></g><g fill="#f9fbf2" fill-opacity="1"><g transform="translate(349.89802, 413.232772)"><g><path d="M 67.65625 0 L 42.382812 -65.59375 L 24.878906 -65.59375 L -0.492188 0 L 14.847656 0 L 18.980469 -11.308594 L 48.285156 -11.308594 L 52.414062 0 Z M 44.449219 -23.40625 L 22.714844 -23.40625 L 33.632812 -53.496094 Z M 44.449219 -23.40625 "/></g></g></g><g fill="#f9fbf2" fill-opacity="1"><g transform="translate(417.157176, 413.232772)"><g><path d="M 37.761719 1.179688 C 52.710938 1.179688 60.972656 -6.785156 65.691406 -14.949219 L 53.695312 -20.75 C 50.941406 -15.339844 45.039062 -11.210938 37.761719 -11.210938 C 26.355469 -11.210938 17.703125 -20.355469 17.703125 -32.746094 C 17.703125 -45.136719 26.355469 -54.285156 37.761719 -54.285156 C 45.039062 -54.285156 50.941406 -50.054688 53.695312 -44.746094 L 65.691406 -50.644531 C 61.070312 -58.808594 52.710938 -66.675781 37.761719 -66.675781 C 18.585938 -66.675781 3.34375 -52.90625 3.34375 -32.746094 C 3.34375 -12.585938 18.585938 1.179688 37.761719 1.179688 Z M 37.761719 1.179688 "/></g></g></g><g fill="#f9fbf2" fill-opacity="1"><g transform="translate(484.711326, 413.232772)"><g><path d="M 35.699219 0 L 35.699219 -53.300781 L 54.773438 -53.300781 L 54.773438 -65.59375 L 2.457031 -65.59375 L 2.457031 -53.300781 L 21.636719 -53.300781 L 21.636719 0 Z M 35.699219 0 "/></g></g></g></svg>