<svg xmlns="http://www.w3.org/2000/svg" xmlns:xlink="http://www.w3.org/1999/xlink" width="1024" zoomAndPan="magnify" viewBox="0 0 768 767.999994" height="1024" preserveAspectRatio="xMidYMid meet" version="1.0"><defs><g/><clipPath id="8bd7277259"><path d="M 76.800781 76.800781 L 691.050781 76.800781 L 691.050781 691.050781 L 76.800781 691.050781 Z M 76.800781 76.800781 " clip-rule="nonzero"/></clipPath><clipPath id="5ed8aaf831"><path d="M 159.320312 268.800781 L 617 268.800781 L 617 499.199219 L 159.320312 499.199219 Z M 159.320312 268.800781 " clip-rule="nonzero"/></clipPath><clipPath id="b05f2582b9"><path d="M 195.320312 268.800781 L 580.972656 268.800781 C 590.523438 268.800781 599.679688 272.59375 606.429688 279.34375 C 613.183594 286.09375 616.972656 295.253906 616.972656 304.800781 L 616.972656 463.199219 C 616.972656 483.082031 600.855469 499.199219 580.972656 499.199219 L 195.320312 499.199219 C 185.773438 499.199219 176.613281 495.40625 169.863281 488.65625 C 163.113281 481.90625 159.320312 472.746094 159.320312 463.199219 L 159.320312 304.800781 C 159.320312 284.917969 175.4375 268.800781 195.320312 268.800781 Z M 195.320312 268.800781 " clip-rule="nonzero"/></clipPath><clipPath id="96fa826675"><path d="M 123.46875 121.695312 L 647.71875 121.695312 L 647.71875 645.945312 L 123.46875 645.945312 Z M 123.46875 121.695312 " clip-rule="nonzero"/></clipPath><clipPath id="401b1a23f4"><path d="M 101.921875 331.980469 L 668 331.980469 L 668 436.019531 L 101.921875 436.019531 Z M 101.921875 331.980469 " clip-rule="nonzero"/></clipPath><clipPath id="e0eb36d492"><path d="M 137.921875 331.980469 L 631.953125 331.980469 C 651.835938 331.980469 667.953125 348.097656 667.953125 367.980469 L 667.953125 400.019531 C 667.953125 419.902344 651.835938 436.019531 631.953125 436.019531 L 137.921875 436.019531 C 118.039062 436.019531 101.921875 419.902344 101.921875 400.019531 L 101.921875 367.980469 C 101.921875 348.097656 118.039062 331.980469 137.921875 331.980469 Z M 137.921875 331.980469 " clip-rule="nonzero"/></clipPath></defs><g clip-path="url(#8bd7277259)"><path fill="#374151" d="M 575.992188 76.800781 L 192 76.800781 C 128.363281 76.800781 76.800781 128.363281 76.800781 192 L 76.800781 575.992188 C 76.800781 639.628906 128.363281 691.191406 192 691.191406 L 575.992188 691.191406 C 639.628906 691.191406 691.191406 639.628906 691.191406 575.992188 L 691.191406 192 C 691.191406 128.363281 639.628906 76.800781 575.992188 76.800781 Z M 276.902344 436.476562 C 287.132812 436.476562 297.71875 434.421875 304.527344 431.136719 C 305.992188 430.40625 307.976562 430.359375 309.582031 431.066406 C 311.144531 431.777344 312.324219 433.195312 312.796875 434.894531 L 316.648438 449.617188 C 317.359375 452.335938 316.035156 455.171875 313.53125 456.375 C 306.417969 459.96875 292.003906 463.820312 273.050781 463.820312 C 226.425781 463.820312 196.300781 433.003906 196.300781 385.367188 C 196.300781 337.539062 229.523438 304.125 277.089844 304.125 C 298.570312 304.125 310.671875 309.535156 313.859375 311.191406 C 316.363281 312.511719 317.59375 315.417969 316.789062 318.136719 L 312.324219 333.214844 C 311.828125 334.890625 310.597656 336.308594 308.992188 336.945312 C 307.644531 337.5625 305.566406 337.585938 304.007812 336.78125 C 296.964844 333.378906 287.605469 331.488281 277.730469 331.488281 C 246.394531 331.488281 227.679688 351.386719 227.679688 384.703125 C 227.703125 417.125 246.113281 436.476562 276.902344 436.476562 Z M 387.066406 463.84375 C 372.558594 463.84375 356.160156 459.660156 347.179688 453.703125 C 344.980469 452.214844 344.035156 449.523438 344.792969 447.066406 L 349.472656 431.5625 C 349.992188 429.789062 351.339844 428.347656 353.015625 427.710938 C 355.070312 427.027344 356.75 427.285156 358.261719 428.253906 C 366.839844 433.546875 378.085938 436.691406 388.296875 436.691406 C 403.371094 436.691406 412.375 429.742188 412.375 418.140625 C 412.375 409.042969 408.6875 402.6875 389.148438 395.125 C 360.742188 385.082031 347.484375 370.40625 347.484375 349 C 347.484375 322.578125 368.988281 304.148438 399.78125 304.148438 C 417.859375 304.148438 429.222656 309.039062 434.375 311.96875 C 436.832031 313.339844 437.96875 316.292969 437.070312 318.988281 L 431.964844 334.085938 C 431.398438 335.742188 430.121094 337.042969 428.515625 337.679688 C 426.90625 338.292969 425.019531 338.175781 423.527344 337.371094 C 418.449219 334.609375 410.128906 331.277344 399.140625 331.277344 C 383.546875 331.277344 378.015625 339.664062 378.015625 346.871094 C 378.015625 355.355469 381.726562 360.859375 402.734375 369.011719 C 431.042969 379.953125 443.09375 394.179688 443.09375 416.675781 C 443.191406 438.441406 428.492188 463.84375 387.066406 463.84375 Z M 515.546875 463.84375 C 501.035156 463.84375 484.636719 459.660156 475.65625 453.703125 C 473.460938 452.214844 472.515625 449.523438 473.269531 447.066406 L 477.949219 431.5625 C 478.46875 429.789062 479.816406 428.347656 481.496094 427.710938 C 483.597656 427.003906 485.273438 427.308594 486.742188 428.277344 C 495.316406 433.546875 506.542969 436.691406 516.773438 436.691406 C 531.875 436.691406 540.878906 429.742188 540.878906 418.140625 C 540.878906 409.042969 537.191406 402.6875 517.648438 395.125 C 489.269531 385.082031 475.988281 370.40625 475.988281 349 C 475.988281 322.578125 497.492188 304.148438 528.28125 304.148438 C 546.359375 304.148438 557.726562 309.039062 562.902344 311.96875 C 565.359375 313.339844 566.492188 316.292969 565.570312 318.988281 L 560.492188 334.085938 C 559.898438 335.742188 558.648438 337.042969 557.039062 337.679688 C 555.457031 338.316406 553.566406 338.222656 552.054688 337.371094 C 546.972656 334.609375 538.632812 331.277344 527.644531 331.277344 C 512.070312 331.277344 506.542969 339.664062 506.542969 346.871094 C 506.542969 355.355469 510.230469 360.859375 531.261719 369.011719 C 559.570312 379.953125 571.621094 394.179688 571.621094 416.675781 C 571.644531 438.441406 556.96875 463.84375 515.546875 463.84375 Z M 515.546875 463.84375 " fill-opacity="1" fill-rule="nonzero"/></g><g clip-path="url(#5ed8aaf831)"><g clip-path="url(#b05f2582b9)"><path fill="#374151" d="M 159.320312 268.800781 L 617.417969 268.800781 L 617.417969 499.199219 L 159.320312 499.199219 Z M 159.320312 268.800781 " fill-opacity="1" fill-rule="nonzero"/></g></g><g clip-path="url(#96fa826675)"><path fill="#f9fbf2" d="M 437.566406 182.472656 C 447.171875 184.929688 456.539062 188.054688 465.605469 191.820312 C 474.742188 195.601562 483.582031 200.050781 492.066406 205.082031 L 528.191406 183.054688 C 532.867188 180.210938 538.09375 178.335938 543.195312 178.335938 C 548.101562 178.335938 552.773438 179.96875 556.699219 183.878906 L 586.269531 213.464844 C 586.382812 213.578125 586.496094 213.707031 586.613281 213.820312 C 590.277344 217.671875 591.8125 222.203125 591.8125 226.953125 C 591.8125 232.054688 589.949219 237.28125 587.09375 241.957031 L 565.082031 278.082031 C 570.113281 286.566406 574.5625 295.390625 578.339844 304.527344 C 582.105469 313.609375 585.234375 322.976562 587.691406 332.597656 L 628.746094 342.542969 C 634.078125 343.835938 639.105469 346.210938 642.703125 349.820312 C 646.167969 353.285156 648.328125 357.734375 648.328125 363.277344 L 648.328125 405.101562 C 648.328125 410.640625 646.167969 415.105469 642.703125 418.558594 C 639.105469 422.167969 634.078125 424.539062 628.746094 425.835938 L 587.675781 435.796875 C 585.234375 445.402344 582.09375 454.769531 578.339844 463.835938 C 574.546875 472.972656 570.113281 481.8125 565.066406 490.296875 L 587.09375 526.417969 C 589.949219 531.09375 591.8125 536.324219 591.8125 541.425781 C 591.8125 546.316406 590.191406 550.976562 586.269531 554.898438 L 586.257812 554.914062 L 586.269531 554.925781 L 556.699219 584.5 C 552.773438 588.40625 548.101562 590.042969 543.195312 590.042969 C 538.09375 590.042969 532.867188 588.179688 528.191406 585.324219 L 492.078125 563.296875 C 483.597656 568.34375 474.757812 572.789062 465.621094 576.570312 C 456.550781 580.335938 447.171875 583.460938 437.566406 585.921875 L 427.605469 626.976562 C 426.324219 632.304688 423.9375 637.335938 420.34375 640.929688 C 416.875 644.398438 412.414062 646.558594 406.871094 646.558594 L 365.046875 646.558594 C 359.503906 646.558594 355.058594 644.398438 351.589844 640.929688 C 347.980469 637.335938 345.605469 632.304688 344.3125 626.976562 L 334.367188 585.90625 C 324.746094 583.460938 315.378906 580.320312 306.3125 576.570312 C 297.191406 572.777344 288.351562 568.34375 279.867188 563.296875 L 243.742188 585.324219 C 239.066406 588.179688 233.824219 590.042969 228.722656 590.042969 C 223.832031 590.042969 219.144531 588.40625 215.234375 584.5 L 185.664062 554.925781 C 181.742188 551.003906 180.105469 546.328125 180.105469 541.425781 C 180.105469 536.324219 181.980469 531.09375 184.839844 526.417969 L 206.851562 490.308594 C 201.804688 481.824219 197.371094 472.984375 193.59375 463.847656 C 189.828125 454.78125 186.6875 445.402344 184.242188 435.796875 L 143.171875 425.835938 C 137.84375 424.554688 132.828125 422.167969 129.214844 418.558594 C 125.761719 415.105469 123.601562 410.640625 123.601562 405.101562 L 123.601562 363.277344 C 123.601562 357.734375 125.761719 353.285156 129.214844 349.820312 C 132.828125 346.210938 137.84375 343.835938 143.171875 342.542969 L 184.242188 332.582031 C 186.699219 322.976562 189.828125 313.609375 193.59375 304.542969 C 197.371094 295.40625 201.820312 286.566406 206.851562 278.082031 L 184.839844 241.957031 C 181.980469 237.28125 180.105469 232.054688 180.105469 226.953125 C 180.105469 222.046875 181.742188 217.371094 185.664062 213.464844 L 215.234375 183.878906 C 219.144531 179.96875 223.832031 178.335938 228.722656 178.335938 C 233.824219 178.335938 239.066406 180.210938 243.742188 183.054688 L 279.867188 205.082031 C 288.351562 200.050781 297.191406 195.601562 306.3125 191.820312 C 315.378906 188.054688 324.746094 184.929688 334.351562 182.472656 L 344.3125 141.402344 C 345.605469 136.070312 347.980469 131.054688 351.589844 127.445312 C 355.058594 123.976562 359.503906 121.832031 365.046875 121.832031 L 406.871094 121.832031 C 412.414062 121.832031 416.875 123.976562 420.34375 127.445312 C 423.9375 131.054688 426.324219 136.070312 427.605469 141.402344 Z M 437.566406 182.472656 " fill-opacity="1" fill-rule="nonzero"/></g><path fill="#f9fbf2" d="M 385.964844 207.011719 C 434.878906 207.011719 479.175781 226.851562 511.25 258.910156 C 543.3125 290.972656 563.136719 335.265625 563.136719 384.195312 C 563.136719 433.109375 543.3125 477.40625 511.25 509.464844 C 479.175781 541.539062 434.878906 561.363281 385.964844 561.363281 C 337.039062 561.363281 292.742188 541.539062 260.683594 509.464844 C 228.621094 477.40625 208.785156 433.109375 208.785156 384.195312 C 208.785156 335.265625 228.621094 290.972656 260.683594 258.910156 C 292.742188 226.851562 337.039062 207.011719 385.964844 207.011719 Z M 385.964844 207.011719 " fill-opacity="1" fill-rule="nonzero"/><path fill="#374151" d="M 385.964844 231.839844 C 428.03125 231.839844 466.117188 248.894531 493.6875 276.460938 C 521.253906 304.03125 538.308594 342.117188 538.308594 384.195312 C 538.308594 426.261719 521.253906 464.347656 493.6875 491.914062 C 466.117188 519.484375 428.03125 536.539062 385.964844 536.539062 C 343.886719 536.539062 305.800781 519.484375 278.234375 491.914062 C 250.664062 464.347656 233.609375 426.261719 233.609375 384.195312 C 233.609375 342.117188 250.664062 304.03125 278.234375 276.460938 C 305.800781 248.894531 343.886719 231.839844 385.964844 231.839844 Z M 385.964844 231.839844 " fill-opacity="1" fill-rule="nonzero"/><path fill="#374151" d="M 328.484375 400 C 328.484375 396.84375 331.042969 394.285156 334.183594 394.285156 C 337.335938 394.285156 339.894531 396.84375 339.894531 400 C 339.894531 406.90625 337.066406 413.171875 332.535156 417.71875 C 327.984375 422.253906 321.71875 425.082031 314.8125 425.082031 L 303.640625 425.082031 C 293.667969 425.082031 284.613281 421.003906 278.046875 414.4375 C 271.484375 407.871094 267.402344 398.804688 267.402344 388.828125 L 267.402344 379.5625 C 267.402344 369.585938 271.484375 360.535156 278.046875 353.96875 C 284.613281 347.402344 293.667969 343.324219 303.640625 343.324219 L 314.8125 343.324219 C 321.71875 343.324219 327.984375 346.140625 332.535156 350.6875 C 337.066406 355.234375 339.894531 361.5 339.894531 368.40625 C 339.894531 371.546875 337.335938 374.105469 334.183594 374.105469 C 331.042969 374.105469 328.484375 371.546875 328.484375 368.40625 C 328.484375 364.640625 326.949219 361.230469 324.460938 358.742188 C 321.972656 356.269531 318.5625 354.722656 314.8125 354.722656 L 303.640625 354.722656 C 296.820312 354.722656 290.609375 357.523438 286.105469 362.027344 C 281.601562 366.53125 278.816406 372.742188 278.816406 379.5625 L 278.816406 388.828125 C 278.816406 395.664062 281.601562 401.859375 286.105469 406.363281 C 290.609375 410.871094 296.820312 413.667969 303.640625 413.667969 L 314.8125 413.667969 C 318.5625 413.667969 321.972656 412.132812 324.460938 409.648438 C 326.949219 407.175781 328.484375 403.75 328.484375 400 Z M 328.484375 400 " fill-opacity="1" fill-rule="nonzero"/><path fill="#374151" d="M 372.183594 419.367188 C 372.183594 422.523438 369.625 425.082031 366.484375 425.082031 C 363.328125 425.082031 360.769531 422.523438 360.769531 419.367188 L 360.769531 349.007812 C 360.769531 345.855469 363.328125 343.3125 366.484375 343.3125 C 368.914062 343.3125 370.988281 344.832031 371.796875 346.964844 L 398.914062 405.78125 L 426.183594 346.621094 C 427.492188 343.765625 430.875 342.527344 433.730469 343.835938 C 435.804688 344.804688 437.039062 346.863281 437.039062 349.007812 L 437.054688 349.007812 L 437.054688 419.367188 C 437.054688 422.523438 434.496094 425.082031 431.34375 425.082031 C 428.203125 425.082031 425.644531 422.523438 425.644531 419.367188 L 425.644531 374.988281 L 404.101562 421.726562 L 404.085938 421.753906 C 403.53125 422.949219 402.578125 423.957031 401.300781 424.539062 C 398.445312 425.863281 395.0625 424.613281 393.738281 421.753906 L 372.183594 374.988281 Z M 372.183594 419.367188 " fill-opacity="1" fill-rule="nonzero"/><path fill="#374151" d="M 501.941406 356 C 503.378906 358.785156 502.269531 362.210938 499.46875 363.648438 C 496.683594 365.066406 493.257812 363.960938 491.839844 361.175781 C 490.828125 359.226562 489.308594 357.578125 487.433594 356.441406 C 485.640625 355.347656 483.511719 354.707031 481.222656 354.707031 C 477.941406 354.707031 474.96875 356.042969 472.824219 358.191406 C 470.664062 360.351562 469.34375 363.320312 469.34375 366.601562 C 469.34375 369.886719 470.664062 372.855469 472.824219 375 C 474.96875 377.160156 477.941406 378.484375 481.222656 378.484375 C 487.660156 378.484375 493.488281 381.097656 497.695312 385.304688 C 501.914062 389.523438 504.515625 395.351562 504.515625 401.789062 C 504.515625 408.210938 501.914062 414.039062 497.695312 418.257812 C 493.488281 422.464844 487.660156 425.082031 481.222656 425.082031 C 476.476562 425.082031 472.027344 423.632812 468.320312 421.144531 C 464.511719 418.613281 461.496094 414.992188 459.722656 410.714844 C 458.515625 407.816406 459.890625 404.476562 462.792969 403.28125 C 465.703125 402.074219 469.03125 403.453125 470.238281 406.351562 C 471.148438 408.539062 472.695312 410.402344 474.644531 411.707031 C 476.503906 412.945312 478.765625 413.667969 481.222656 413.667969 C 484.503906 413.667969 487.476562 412.332031 489.636719 410.1875 C 491.78125 408.042969 493.117188 405.070312 493.117188 401.789062 C 493.117188 398.507812 491.78125 395.523438 489.636719 393.375 C 487.476562 391.230469 484.503906 389.894531 481.222656 389.894531 C 474.800781 389.894531 468.972656 387.28125 464.753906 383.074219 C 460.546875 378.851562 457.929688 373.027344 457.929688 366.601562 C 457.929688 360.164062 460.546875 354.339844 464.753906 350.132812 C 468.972656 345.910156 474.800781 343.3125 481.222656 343.3125 C 485.65625 343.3125 489.804688 344.546875 493.359375 346.722656 C 496.996094 348.953125 499.980469 352.164062 501.941406 356 Z M 501.941406 356 " fill-opacity="1" fill-rule="nonzero"/><path fill="#374151" d="M 318.238281 309.6875 C 315.082031 309.6875 312.523438 307.128906 312.523438 303.988281 C 312.523438 300.835938 315.082031 298.277344 318.238281 298.277344 L 453.695312 298.277344 C 456.835938 298.277344 459.394531 300.835938 459.394531 303.988281 C 459.394531 307.128906 456.835938 309.6875 453.695312 309.6875 Z M 318.238281 309.6875 " fill-opacity="1" fill-rule="evenodd"/><path fill="#374151" d="M 318.238281 470.101562 C 315.082031 470.101562 312.523438 467.542969 312.523438 464.402344 C 312.523438 461.246094 315.082031 458.691406 318.238281 458.691406 L 453.695312 458.691406 C 456.835938 458.691406 459.394531 461.246094 459.394531 464.402344 C 459.394531 467.542969 456.835938 470.101562 453.695312 470.101562 Z M 318.238281 470.101562 " fill-opacity="1" fill-rule="evenodd"/><g clip-path="url(#401b1a23f4)"><g clip-path="url(#e0eb36d492)"><path fill="#374151" d="M 101.921875 331.980469 L 668.046875 331.980469 L 668.046875 436.019531 L 101.921875 436.019531 Z M 101.921875 331.980469 " fill-opacity="1" fill-rule="nonzero"/></g></g><path stroke-linecap="butt" transform="matrix(0.75, 0, 0, 0.75, 73.25855, 323.250239)" fill="none" stroke-linejoin="miter" d="M 141.941732 116.999687 L 164.051108 39.364266 L 145.436524 39.364266 L 131.936523 95.458019 L 117.243814 39.364266 L 104.342772 39.364266 L 89.56673 95.458019 L 75.926104 39.364266 L 57.426103 39.364266 L 79.650063 116.999687 L 97.238605 116.999687 L 110.738606 63.687184 L 124.347981 116.999687 Z M 168.1084 78.239268 C 168.1084 101.624686 185.217776 118.390312 208.634444 118.390312 C 232.134445 118.390312 249.243821 101.624686 249.243821 78.239268 C 249.243821 54.848642 232.134445 38.083016 208.634444 38.083016 C 185.217776 38.083016 168.1084 54.848642 168.1084 78.239268 Z M 232.249028 78.239268 C 232.249028 92.676769 222.926111 103.728853 208.634444 103.728853 C 194.311527 103.728853 185.103193 92.676769 185.103193 78.239268 C 185.103193 63.687184 194.311527 52.744475 208.634444 52.744475 C 222.926111 52.744475 232.249028 63.687184 232.249028 78.239268 Z M 323.733408 116.999687 L 306.280282 87.447602 C 314.665699 85.458019 323.275075 78.124685 323.275075 64.400726 C 323.275075 49.963225 313.389657 39.364266 297.186532 39.364266 L 260.868822 39.364266 L 260.868822 116.999687 L 277.410489 116.999687 L 277.410489 89.176769 L 289.514656 89.176769 L 304.775074 116.999687 Z M 306.394865 64.286143 C 306.394865 70.791351 301.394865 74.968435 294.743823 74.968435 L 277.410489 74.968435 L 277.410489 53.5726 L 294.743823 53.5726 C 301.394865 53.5726 306.394865 57.749684 306.394865 64.286143 Z M 366.342785 116.999687 C 390.670911 116.999687 407.55112 101.624686 407.55112 78.239268 C 407.55112 54.848642 390.670911 39.364266 366.342785 39.364266 L 335.712575 39.364266 L 335.712575 116.999687 Z M 352.249034 53.911142 L 366.342785 53.911142 C 382.285494 53.911142 390.670911 64.510101 390.670911 78.239268 C 390.670911 91.395519 381.691744 102.447603 366.342785 102.447603 L 352.249034 102.447603 Z M 435.816747 116.999687 L 435.816747 89.176769 L 455.597998 89.176769 C 472.363624 89.176769 481.686541 77.895518 481.686541 64.400726 C 481.686541 50.7601 472.478207 39.364266 455.597998 39.364266 L 419.280288 39.364266 L 419.280288 116.999687 Z M 464.806332 64.286143 C 464.806332 70.791351 459.915706 74.968435 453.379248 74.968435 L 435.816747 74.968435 L 435.816747 53.5726 L 453.379248 53.5726 C 459.915706 53.5726 464.806332 57.864267 464.806332 64.286143 Z M 554.764669 116.999687 L 537.316752 87.447602 C 545.702169 85.458019 554.311544 78.124685 554.311544 64.400726 C 554.311544 49.963225 544.420919 39.364266 528.223001 39.364266 L 491.905291 39.364266 L 491.905291 116.999687 L 508.446959 116.999687 L 508.446959 89.176769 L 520.551126 89.176769 L 535.811543 116.999687 Z M 537.431335 64.286143 C 537.431335 70.791351 532.431335 74.968435 525.780293 74.968435 L 508.446959 74.968435 L 508.446959 53.5726 L 525.780293 53.5726 C 532.431335 53.5726 537.431335 57.749684 537.431335 64.286143 Z M 621.707381 116.999687 L 621.707381 102.676769 L 583.285504 102.676769 L 583.285504 84.629894 L 620.884464 84.629894 L 620.884464 70.45281 L 583.285504 70.45281 L 583.285504 53.5726 L 621.707381 53.5726 L 621.707381 39.364266 L 566.743837 39.364266 L 566.743837 116.999687 Z M 629.259465 106.056978 C 636.592798 113.390312 647.306341 118.390312 662.196966 118.390312 C 683.139676 118.390312 693.28551 107.67677 693.28551 93.499686 C 693.28551 76.249685 676.973009 72.411143 664.18655 69.515309 C 655.202174 67.411143 648.696966 65.791351 648.696966 60.530934 C 648.696966 55.900725 652.644883 52.6351 660.0928 52.6351 C 667.681342 52.6351 676.06155 55.306975 682.342801 61.129892 L 691.525093 49.025725 C 683.848009 41.921558 673.5928 38.1976 661.259466 38.1976 C 642.983424 38.1976 631.816757 48.681975 631.816757 61.583017 C 631.816757 78.947602 648.098007 82.416352 660.801133 85.343435 C 669.754258 87.447602 676.519884 89.405935 676.519884 95.234061 C 676.519884 99.666353 672.082384 103.95802 663.019883 103.95802 C 652.306341 103.95802 643.80634 99.181978 638.321965 93.499686 Z M 699.092802 106.056978 C 706.426135 113.390312 717.139677 118.390312 732.030303 118.390312 C 752.973013 118.390312 763.118846 107.67677 763.118846 93.499686 C 763.118846 76.249685 746.806346 72.411143 734.019887 69.515309 C 725.04072 67.411143 718.530303 65.791351 718.530303 60.530934 C 718.530303 55.900725 722.483428 52.6351 729.926136 52.6351 C 737.514678 52.6351 745.900096 55.306975 752.176138 61.129892 L 761.35843 49.025725 C 753.686554 41.921558 743.426137 38.1976 731.092803 38.1976 C 712.816761 38.1976 701.650093 48.681975 701.650093 61.583017 C 701.650093 78.947602 717.936552 82.416352 730.639678 85.343435 C 739.587595 87.447602 746.353221 89.405935 746.353221 95.234061 C 746.353221 99.666353 741.920929 103.95802 732.85322 103.95802 C 722.139678 103.95802 713.644886 99.181978 708.16051 93.499686 Z M 699.092802 106.056978 " stroke="#374151" stroke-width="30.555" stroke-opacity="1" stroke-miterlimit="4"/><g fill="#f9fbf2" fill-opacity="1"><g transform="translate(116.242923, 411.000235)"><g><path d="M 63.46875 0 L 80.054688 -58.230469 L 66.085938 -58.230469 L 55.960938 -16.152344 L 44.960938 -58.230469 L 35.269531 -58.230469 L 24.183594 -16.152344 L 13.96875 -58.230469 L 0.0859375 -58.230469 L 16.761719 0 L 29.945312 0 L 40.070312 -39.984375 L 50.285156 0 Z M 63.46875 0 "/></g></g></g><g fill="#f9fbf2" fill-opacity="1"><g transform="translate(196.377917, 411.000235)"><g><path d="M 2.96875 -29.070312 C 2.96875 -11.523438 15.800781 1.046875 33.347656 1.046875 C 50.984375 1.046875 63.816406 -11.523438 63.816406 -29.070312 C 63.816406 -46.617188 50.984375 -59.1875 33.347656 -59.1875 C 15.800781 -59.1875 2.96875 -46.617188 2.96875 -29.070312 Z M 51.070312 -29.070312 C 51.070312 -18.246094 44.085938 -9.953125 33.347656 -9.953125 C 22.609375 -9.953125 15.714844 -18.246094 15.714844 -29.070312 C 15.714844 -39.984375 22.609375 -48.191406 33.347656 -48.191406 C 44.085938 -48.191406 51.070312 -39.984375 51.070312 -29.070312 Z M 51.070312 -29.070312 "/></g></g></g><g fill="#f9fbf2" fill-opacity="1"><g transform="translate(263.157085, 411.000235)"><g><path d="M 52.902344 0 L 39.808594 -22.175781 C 46.09375 -23.660156 52.554688 -29.15625 52.554688 -39.460938 C 52.554688 -50.285156 45.132812 -58.230469 33 -58.230469 L 5.761719 -58.230469 L 5.761719 0 L 18.160156 0 L 18.160156 -20.863281 L 27.238281 -20.863281 L 38.675781 0 Z M 39.894531 -39.546875 C 39.894531 -34.65625 36.140625 -31.515625 31.167969 -31.515625 L 18.160156 -31.515625 L 18.160156 -47.578125 L 31.167969 -47.578125 C 36.140625 -47.578125 39.894531 -44.4375 39.894531 -39.546875 Z M 39.894531 -39.546875 "/></g></g></g><g fill="#f9fbf2" fill-opacity="1"><g transform="translate(319.286507, 411.000235)"><g><path d="M 28.722656 0 C 46.96875 0 59.625 -11.523438 59.625 -29.070312 C 59.625 -46.617188 46.96875 -58.230469 28.722656 -58.230469 L 5.761719 -58.230469 L 5.761719 0 Z M 18.160156 -47.316406 L 28.722656 -47.316406 C 40.683594 -47.316406 46.96875 -39.371094 46.96875 -29.070312 C 46.96875 -19.207031 40.246094 -10.914062 28.722656 -10.914062 L 18.160156 -10.914062 Z M 18.160156 -47.316406 "/></g></g></g><g fill="#f9fbf2" fill-opacity="1"><g transform="translate(381.96291, 411.000235)"><g><path d="M 18.160156 0 L 18.160156 -20.863281 L 33 -20.863281 C 45.570312 -20.863281 52.554688 -29.332031 52.554688 -39.460938 C 52.554688 -49.671875 45.65625 -58.230469 33 -58.230469 L 5.761719 -58.230469 L 5.761719 0 Z M 39.894531 -39.546875 C 39.894531 -34.65625 36.230469 -31.515625 31.339844 -31.515625 L 18.160156 -31.515625 L 18.160156 -47.578125 L 31.339844 -47.578125 C 36.230469 -47.578125 39.894531 -44.347656 39.894531 -39.546875 Z M 39.894531 -39.546875 "/></g></g></g><g fill="#f9fbf2" fill-opacity="1"><g transform="translate(436.433763, 411.000235)"><g><path d="M 52.902344 0 L 39.808594 -22.175781 C 46.09375 -23.660156 52.554688 -29.15625 52.554688 -39.460938 C 52.554688 -50.285156 45.132812 -58.230469 33 -58.230469 L 5.761719 -58.230469 L 5.761719 0 L 18.160156 0 L 18.160156 -20.863281 L 27.238281 -20.863281 L 38.675781 0 Z M 39.894531 -39.546875 C 39.894531 -34.65625 36.140625 -31.515625 31.167969 -31.515625 L 18.160156 -31.515625 L 18.160156 -47.578125 L 31.167969 -47.578125 C 36.140625 -47.578125 39.894531 -44.4375 39.894531 -39.546875 Z M 39.894531 -39.546875 "/></g></g></g><g fill="#f9fbf2" fill-opacity="1"><g transform="translate(492.563185, 411.000235)"><g><path d="M 46.96875 0 L 46.96875 -10.738281 L 18.160156 -10.738281 L 18.160156 -24.269531 L 46.355469 -24.269531 L 46.355469 -34.921875 L 18.160156 -34.921875 L 18.160156 -47.578125 L 46.96875 -47.578125 L 46.96875 -58.230469 L 5.761719 -58.230469 L 5.761719 0 Z M 46.96875 0 "/></g></g></g><g fill="#f9fbf2" fill-opacity="1"><g transform="translate(543.455013, 411.000235)"><g><path d="M 1.746094 -8.207031 C 7.246094 -2.707031 15.277344 1.046875 26.453125 1.046875 C 42.164062 1.046875 49.761719 -6.984375 49.761719 -17.632812 C 49.761719 -30.554688 37.539062 -33.4375 27.9375 -35.617188 C 21.214844 -37.191406 16.324219 -38.410156 16.324219 -42.339844 C 16.324219 -45.832031 19.292969 -48.277344 24.878906 -48.277344 C 30.554688 -48.277344 36.839844 -46.269531 41.554688 -41.902344 L 48.453125 -50.984375 C 42.691406 -56.308594 35.007812 -59.101562 25.753906 -59.101562 C 12.046875 -59.101562 3.667969 -51.246094 3.667969 -41.554688 C 3.667969 -28.546875 15.886719 -25.929688 25.40625 -23.746094 C 32.125 -22.175781 37.191406 -20.691406 37.191406 -16.324219 C 37.191406 -13.007812 33.871094 -9.777344 27.0625 -9.777344 C 19.03125 -9.777344 12.660156 -13.355469 8.554688 -17.632812 Z M 1.746094 -8.207031 "/></g></g></g><g fill="#f9fbf2" fill-opacity="1"><g transform="translate(595.83082, 411.000235)"><g><path d="M 1.746094 -8.207031 C 7.246094 -2.707031 15.277344 1.046875 26.453125 1.046875 C 42.164062 1.046875 49.761719 -6.984375 49.761719 -17.632812 C 49.761719 -30.554688 37.539062 -33.4375 27.9375 -35.617188 C 21.214844 -37.191406 16.324219 -38.410156 16.324219 -42.339844 C 16.324219 -45.832031 19.292969 -48.277344 24.878906 -48.277344 C 30.554688 -48.277344 36.839844 -46.269531 41.554688 -41.902344 L 48.453125 -50.984375 C 42.691406 -56.308594 35.007812 -59.101562 25.753906 -59.101562 C 12.046875 -59.101562 3.667969 -51.246094 3.667969 -41.554688 C 3.667969 -28.546875 15.886719 -25.929688 25.40625 -23.746094 C 32.125 -22.175781 37.191406 -20.691406 37.191406 -16.324219 C 37.191406 -13.007812 33.871094 -9.777344 27.0625 -9.777344 C 19.03125 -9.777344 12.660156 -13.355469 8.554688 -17.632812 Z M 1.746094 -8.207031 "/></g></g></g></svg>