<svg xmlns="http://www.w3.org/2000/svg" xmlns:xlink="http://www.w3.org/1999/xlink" width="1024" zoomAndPan="magnify" viewBox="0 0 768 767.999994" height="1024" preserveAspectRatio="xMidYMid meet" version="1.0"><defs><g/><clipPath id="41710155b9"><path d="M 76.800781 76.800781 L 691.050781 76.800781 L 691.050781 691.050781 L 76.800781 691.050781 Z M 76.800781 76.800781 " clip-rule="nonzero"/></clipPath><clipPath id="82a87ffff3"><path d="M 159.320312 268.800781 L 617 268.800781 L 617 499.199219 L 159.320312 499.199219 Z M 159.320312 268.800781 " clip-rule="nonzero"/></clipPath><clipPath id="f3f8ea07d6"><path d="M 195.320312 268.800781 L 580.972656 268.800781 C 590.523438 268.800781 599.679688 272.59375 606.429688 279.34375 C 613.183594 286.09375 616.972656 295.253906 616.972656 304.800781 L 616.972656 463.199219 C 616.972656 483.082031 600.855469 499.199219 580.972656 499.199219 L 195.320312 499.199219 C 185.773438 499.199219 176.613281 495.40625 169.863281 488.65625 C 163.113281 481.90625 159.320312 472.746094 159.320312 463.199219 L 159.320312 304.800781 C 159.320312 284.917969 175.4375 268.800781 195.320312 268.800781 Z M 195.320312 268.800781 " clip-rule="nonzero"/></clipPath><clipPath id="e690277bb2"><path d="M 250.207031 163.902344 L 517.957031 163.902344 L 517.957031 551.652344 L 250.207031 551.652344 Z M 250.207031 163.902344 " clip-rule="nonzero"/></clipPath></defs><g clip-path="url(#41710155b9)"><path fill="#374151" d="M 575.992188 76.800781 L 192 76.800781 C 128.363281 76.800781 76.800781 128.363281 76.800781 192 L 76.800781 575.992188 C 76.800781 639.628906 128.363281 691.191406 192 691.191406 L 575.992188 691.191406 C 639.628906 691.191406 691.191406 639.628906 691.191406 575.992188 L 691.191406 192 C 691.191406 128.363281 639.628906 76.800781 575.992188 76.800781 Z M 276.902344 436.476562 C 287.132812 436.476562 297.71875 434.421875 304.527344 431.136719 C 305.992188 430.40625 307.976562 430.359375 309.582031 431.066406 C 311.144531 431.777344 312.324219 433.195312 312.796875 434.894531 L 316.648438 449.617188 C 317.359375 452.335938 316.035156 455.171875 313.53125 456.375 C 306.417969 459.96875 292.003906 463.820312 273.050781 463.820312 C 226.425781 463.820312 196.300781 433.003906 196.300781 385.367188 C 196.300781 337.539062 229.523438 304.125 277.089844 304.125 C 298.570312 304.125 310.671875 309.535156 313.859375 311.191406 C 316.363281 312.511719 317.59375 315.417969 316.789062 318.136719 L 312.324219 333.214844 C 311.828125 334.890625 310.597656 336.308594 308.992188 336.945312 C 307.644531 337.5625 305.566406 337.585938 304.007812 336.78125 C 296.964844 333.378906 287.605469 331.488281 277.730469 331.488281 C 246.394531 331.488281 227.679688 351.386719 227.679688 384.703125 C 227.703125 417.125 246.113281 436.476562 276.902344 436.476562 Z M 387.066406 463.84375 C 372.558594 463.84375 356.160156 459.660156 347.179688 453.703125 C 344.980469 452.214844 344.035156 449.523438 344.792969 447.066406 L 349.472656 431.5625 C 349.992188 429.792969 351.339844 428.347656 353.015625 427.710938 C 355.070312 427.027344 356.75 427.285156 358.261719 428.253906 C 366.839844 433.546875 378.085938 436.691406 388.296875 436.691406 C 403.371094 436.691406 412.375 429.742188 412.375 418.140625 C 412.375 409.042969 408.6875 402.6875 389.148438 395.125 C 360.742188 385.082031 347.484375 370.40625 347.484375 349 C 347.484375 322.578125 368.988281 304.148438 399.78125 304.148438 C 417.859375 304.148438 429.222656 309.039062 434.375 311.96875 C 436.832031 313.339844 437.96875 316.292969 437.070312 318.988281 L 431.964844 334.089844 C 431.398438 335.742188 430.121094 337.042969 428.515625 337.679688 C 426.90625 338.292969 425.019531 338.175781 423.527344 337.371094 C 418.449219 334.609375 410.128906 331.277344 399.140625 331.277344 C 383.546875 331.277344 378.015625 339.664062 378.015625 346.871094 C 378.015625 355.355469 381.726562 360.859375 402.734375 369.011719 C 431.042969 379.953125 443.09375 394.179688 443.09375 416.675781 C 443.191406 438.441406 428.492188 463.84375 387.066406 463.84375 Z M 515.546875 463.84375 C 501.035156 463.84375 484.636719 459.660156 475.65625 453.703125 C 473.460938 452.214844 472.515625 449.523438 473.269531 447.066406 L 477.949219 431.5625 C 478.46875 429.792969 479.816406 428.347656 481.496094 427.710938 C 483.597656 427.003906 485.273438 427.308594 486.742188 428.277344 C 495.316406 433.546875 506.542969 436.691406 516.773438 436.691406 C 531.875 436.691406 540.878906 429.742188 540.878906 418.140625 C 540.878906 409.042969 537.191406 402.6875 517.648438 395.125 C 489.269531 385.082031 475.988281 370.40625 475.988281 349 C 475.988281 322.578125 497.492188 304.148438 528.28125 304.148438 C 546.359375 304.148438 557.726562 309.039062 562.902344 311.96875 C 565.359375 313.339844 566.492188 316.292969 565.570312 318.988281 L 560.492188 334.089844 C 559.898438 335.742188 558.648438 337.042969 557.039062 337.679688 C 555.457031 338.316406 553.566406 338.222656 552.054688 337.371094 C 546.972656 334.609375 538.632812 331.277344 527.644531 331.277344 C 512.070312 331.277344 506.542969 339.664062 506.542969 346.871094 C 506.542969 355.355469 510.230469 360.859375 531.261719 369.011719 C 559.570312 379.953125 571.621094 394.179688 571.621094 416.675781 C 571.644531 438.441406 556.96875 463.84375 515.546875 463.84375 Z M 515.546875 463.84375 " fill-opacity="1" fill-rule="nonzero"/></g><g clip-path="url(#82a87ffff3)"><g clip-path="url(#f3f8ea07d6)"><path fill="#374151" d="M 159.320312 268.800781 L 617.417969 268.800781 L 617.417969 499.199219 L 159.320312 499.199219 Z M 159.320312 268.800781 " fill-opacity="1" fill-rule="nonzero"/></g></g><g clip-path="url(#e690277bb2)"><path fill="#f9fbf2" d="M 323.886719 163.882812 C 283.207031 163.882812 250.230469 196.859375 250.230469 237.535156 C 250.230469 262.359375 262.515625 284.316406 281.332031 297.664062 C 262.515625 311.003906 250.230469 332.960938 250.230469 357.789062 C 250.230469 382.613281 262.515625 404.570312 281.335938 417.914062 C 262.515625 431.257812 250.230469 453.214844 250.230469 478.039062 C 250.230469 518.71875 283.207031 551.691406 323.886719 551.691406 C 364.5625 551.691406 397.539062 518.71875 397.539062 478.039062 L 397.539062 414.832031 C 410.234375 425.214844 426.457031 431.441406 444.136719 431.441406 C 484.816406 431.441406 517.792969 398.464844 517.792969 357.789062 C 517.792969 332.960938 505.507812 311.003906 486.691406 297.664062 C 505.507812 284.316406 517.792969 262.359375 517.792969 237.535156 C 517.792969 196.859375 484.816406 163.882812 444.136719 163.882812 Z M 370.484375 404.382812 L 323.886719 404.382812 C 298.152344 404.382812 277.289062 383.523438 277.289062 357.789062 C 277.289062 332.050781 298.152344 311.191406 323.886719 311.191406 L 370.484375 311.191406 Z M 323.886719 284.132812 L 370.484375 284.132812 L 370.484375 190.9375 L 323.886719 190.9375 C 298.152344 190.9375 277.289062 211.800781 277.289062 237.535156 C 277.289062 263.269531 298.152344 284.132812 323.886719 284.132812 Z M 490.734375 237.535156 C 490.734375 263.253906 469.898438 284.105469 444.1875 284.132812 L 397.539062 284.132812 L 397.539062 190.9375 L 444.136719 190.9375 C 469.871094 190.9375 490.734375 211.800781 490.734375 237.535156 Z M 397.539062 357.730469 C 397.570312 332.039062 418.390625 311.222656 444.078125 311.191406 L 444.183594 311.191406 C 469.898438 311.214844 490.734375 332.066406 490.734375 357.789062 C 490.734375 383.523438 469.871094 404.382812 444.136719 404.382812 C 418.421875 404.382812 397.570312 383.554688 397.539062 357.84375 Z M 323.886719 431.441406 C 298.152344 431.441406 277.289062 452.304688 277.289062 478.039062 C 277.289062 503.773438 298.152344 524.636719 323.886719 524.636719 C 349.621094 524.636719 370.484375 503.773438 370.484375 478.039062 L 370.484375 431.441406 Z M 323.886719 431.441406 " fill-opacity="1" fill-rule="evenodd"/></g><g fill="#f9fbf2" fill-opacity="1"><g transform="translate(248.435953, 630.721861)"><g><path d="M 18.167969 0 L 18.167969 -24.28125 L 46.378906 -24.28125 L 46.378906 -34.9375 L 18.167969 -34.9375 L 18.167969 -47.601562 L 46.992188 -47.601562 L 46.992188 -58.257812 L 5.765625 -58.257812 L 5.765625 0 Z M 18.167969 0 "/></g></g></g><g fill="#f9fbf2" fill-opacity="1"><g transform="translate(298.307025, 630.721861)"><g><path d="M 18.167969 0 L 18.167969 -58.257812 L 5.765625 -58.257812 L 5.765625 0 Z M 18.167969 0 "/></g></g></g><g fill="#f9fbf2" fill-opacity="1"><g transform="translate(322.238153, 630.721861)"><g><path d="M 2.96875 -29.085938 C 2.96875 -10.742188 16.945312 1.136719 33.976562 1.136719 C 44.546875 1.136719 52.84375 -3.230469 58.78125 -9.871094 L 58.78125 -32.144531 L 31.007812 -32.144531 L 31.007812 -21.488281 L 46.554688 -21.488281 L 46.554688 -14.410156 C 44.023438 -12.140625 39.304688 -9.957031 33.976562 -9.957031 C 23.410156 -9.957031 15.722656 -18.082031 15.722656 -29.085938 C 15.722656 -40.089844 23.410156 -48.214844 33.976562 -48.214844 C 40.089844 -48.214844 45.070312 -44.984375 47.777344 -40.878906 L 58.085938 -46.46875 C 53.628906 -53.367188 46.03125 -59.21875 33.976562 -59.21875 C 16.945312 -59.21875 2.96875 -47.515625 2.96875 -29.085938 Z M 2.96875 -29.085938 "/></g></g></g><g fill="#f9fbf2" fill-opacity="1"><g transform="translate(385.122862, 630.721861)"><g><path d="M 68.914062 0 L 68.914062 -58.257812 L 51.445312 -58.257812 L 37.296875 -21.921875 L 23.144531 -58.257812 L 5.765625 -58.257812 L 5.765625 0 L 18.167969 0 L 18.167969 -41.925781 L 34.589844 0 L 40.003906 0 L 56.425781 -41.925781 L 56.425781 0 Z M 68.914062 0 "/></g></g></g><g fill="#f9fbf2" fill-opacity="1"><g transform="translate(459.798453, 630.721861)"><g><path d="M 60.09375 0 L 37.644531 -58.257812 L 22.097656 -58.257812 L -0.4375 0 L 13.1875 0 L 16.859375 -10.042969 L 42.886719 -10.042969 L 46.554688 0 Z M 39.480469 -20.789062 L 20.175781 -20.789062 L 29.871094 -47.515625 Z M 39.480469 -20.789062 "/></g></g></g></svg>