<svg xmlns="http://www.w3.org/2000/svg" xmlns:xlink="http://www.w3.org/1999/xlink" width="1024" zoomAndPan="magnify" viewBox="0 0 768 767.999994" height="1024" preserveAspectRatio="xMidYMid meet" version="1.0"><defs><clipPath id="a7479679ba"><path d="M 76.0625 216.667969 L 691.8125 216.667969 L 691.8125 575.167969 L 76.0625 575.167969 Z M 76.0625 216.667969 " clip-rule="nonzero"/></clipPath><clipPath id="eacaf984ca"><path d="M 76.0625 485.714844 L 690.3125 485.714844 L 690.3125 691.050781 L 76.0625 691.050781 Z M 76.0625 485.714844 " clip-rule="nonzero"/></clipPath><clipPath id="8ff3afa2e5"><path d="M 76.203125 114.070312 L 690.453125 114.070312 L 690.453125 319.402344 L 76.203125 319.402344 Z M 76.203125 114.070312 " clip-rule="nonzero"/></clipPath><clipPath id="3dc051aa83"><path d="M 76.800781 76.320312 L 691.050781 76.320312 L 691.050781 284.820312 L 76.800781 284.820312 Z M 76.800781 76.320312 " clip-rule="nonzero"/></clipPath></defs><g clip-path="url(#a7479679ba)"><path fill="#374151" d="M 640.238281 216.667969 L 127.757812 216.667969 C 99.574219 216.667969 76.511719 239.730469 76.511719 267.914062 L 76.511719 524.152344 C 76.511719 552.339844 99.574219 575.402344 127.757812 575.402344 L 640.238281 575.402344 C 668.421875 575.402344 691.484375 552.339844 691.484375 524.152344 L 691.484375 267.914062 C 691.484375 239.730469 668.421875 216.667969 640.238281 216.667969 Z M 266.128906 460.09375 L 240.503906 460.09375 L 240.503906 406.285156 L 202.070312 406.285156 L 202.070312 460.09375 L 176.445312 460.09375 L 176.445312 331.976562 L 202.070312 331.976562 L 202.070312 383.222656 L 240.503906 383.222656 L 240.503906 331.976562 L 266.128906 331.976562 Z M 376.3125 352.472656 L 345.5625 352.472656 L 345.5625 457.53125 L 319.9375 457.53125 L 319.9375 352.472656 L 289.191406 352.472656 L 289.191406 331.976562 L 376.3125 331.976562 Z M 514.679688 460.09375 L 489.054688 460.09375 L 489.054688 426.785156 L 491.617188 372.972656 L 465.996094 460.09375 L 448.058594 460.09375 L 422.433594 372.972656 L 424.996094 426.785156 L 424.996094 460.09375 L 399.371094 460.09375 L 399.371094 331.976562 L 435.246094 331.976562 L 458.308594 424.222656 L 481.367188 331.976562 L 514.679688 331.976562 Z M 617.175781 460.09375 L 545.429688 460.09375 L 545.429688 331.976562 L 571.050781 331.976562 L 571.050781 437.03125 L 617.175781 437.03125 Z M 617.175781 460.09375 " fill-opacity="1" fill-rule="nonzero"/></g><g clip-path="url(#eacaf984ca)"><path fill="#374151" d="M 575.257812 76.800781 L 191.261719 76.800781 C 127.625 76.800781 76.0625 128.363281 76.0625 192 L 76.0625 575.992188 C 76.0625 639.628906 127.625 691.191406 191.261719 691.191406 L 575.257812 691.191406 C 638.894531 691.191406 690.453125 639.628906 690.453125 575.992188 L 690.453125 192 C 690.453125 128.363281 638.894531 76.800781 575.257812 76.800781 Z M 276.167969 436.476562 C 286.398438 436.476562 296.984375 434.421875 303.789062 431.136719 C 305.253906 430.40625 307.242188 430.359375 308.847656 431.066406 C 310.40625 431.777344 311.589844 433.195312 312.0625 434.894531 L 315.914062 449.617188 C 316.621094 452.335938 315.296875 455.171875 312.792969 456.375 C 305.679688 459.96875 291.265625 463.820312 272.316406 463.820312 C 225.691406 463.820312 195.5625 433.003906 195.5625 385.367188 C 195.5625 337.539062 228.789062 304.125 276.355469 304.125 C 297.835938 304.125 309.933594 309.535156 313.125 311.191406 C 315.628906 312.511719 316.859375 315.417969 316.054688 318.136719 L 311.589844 333.214844 C 311.09375 334.890625 309.863281 336.308594 308.257812 336.945312 C 306.910156 337.5625 304.832031 337.585938 303.269531 336.78125 C 296.230469 333.378906 286.871094 331.488281 276.992188 331.488281 C 245.660156 331.488281 226.945312 351.386719 226.945312 384.703125 C 226.96875 417.125 245.375 436.476562 276.167969 436.476562 Z M 386.332031 463.84375 C 371.824219 463.84375 355.421875 459.660156 346.445312 453.703125 C 344.246094 452.214844 343.300781 449.523438 344.058594 447.066406 L 348.734375 431.5625 C 349.253906 429.789062 350.601562 428.347656 352.28125 427.710938 C 354.335938 427.027344 356.015625 427.285156 357.527344 428.253906 C 366.105469 433.546875 377.351562 436.691406 387.558594 436.691406 C 402.636719 436.691406 411.640625 429.742188 411.640625 418.140625 C 411.640625 409.042969 407.953125 402.6875 388.410156 395.125 C 360.007812 385.082031 346.75 370.40625 346.75 349 C 346.75 322.578125 368.253906 304.148438 399.042969 304.148438 C 417.121094 304.148438 428.488281 309.039062 433.640625 311.96875 C 436.097656 313.339844 437.230469 316.292969 436.332031 318.988281 L 431.230469 334.085938 C 430.664062 335.742188 429.386719 337.042969 427.78125 337.679688 C 426.171875 338.292969 424.28125 338.175781 422.792969 337.371094 C 417.710938 334.609375 409.394531 331.277344 398.40625 331.277344 C 382.8125 331.277344 377.28125 339.664062 377.28125 346.871094 C 377.28125 355.355469 380.992188 360.859375 402 369.011719 C 430.308594 379.953125 442.359375 394.179688 442.359375 416.675781 C 442.453125 438.441406 427.753906 463.84375 386.332031 463.84375 Z M 514.808594 463.84375 C 500.300781 463.84375 483.902344 459.660156 474.921875 453.703125 C 472.722656 452.214844 471.777344 449.523438 472.535156 447.066406 L 477.214844 431.5625 C 477.734375 429.789062 479.082031 428.347656 480.757812 427.710938 C 482.863281 427.003906 484.539062 427.308594 486.003906 428.277344 C 494.582031 433.546875 505.808594 436.691406 516.039062 436.691406 C 531.140625 436.691406 540.140625 429.742188 540.140625 418.140625 C 540.140625 409.042969 536.457031 402.6875 516.914062 395.125 C 488.53125 385.082031 475.253906 370.40625 475.253906 349 C 475.253906 322.578125 496.757812 304.148438 527.546875 304.148438 C 545.625 304.148438 556.992188 309.039062 562.164062 311.96875 C 564.621094 313.339844 565.757812 316.292969 564.835938 318.988281 L 559.753906 334.085938 C 559.164062 335.742188 557.910156 337.042969 556.304688 337.679688 C 554.722656 338.316406 552.832031 338.222656 551.320312 337.371094 C 546.238281 334.609375 537.898438 331.277344 526.910156 331.277344 C 511.335938 331.277344 505.808594 339.664062 505.808594 346.871094 C 505.808594 355.355469 509.492188 360.859375 530.523438 369.011719 C 558.832031 379.953125 570.886719 394.179688 570.886719 416.675781 C 570.910156 438.441406 556.234375 463.84375 514.808594 463.84375 Z M 514.808594 463.84375 " fill-opacity="1" fill-rule="nonzero"/></g><g clip-path="url(#8ff3afa2e5)"><path fill="#374151" d="M 191.261719 728.320312 L 575.257812 728.320312 C 638.894531 728.320312 690.453125 676.757812 690.453125 613.121094 L 690.453125 229.125 C 690.453125 165.488281 638.894531 113.929688 575.257812 113.929688 L 191.261719 113.929688 C 127.625 113.929688 76.0625 165.488281 76.0625 229.125 L 76.0625 613.121094 C 76.0625 676.757812 127.625 728.320312 191.261719 728.320312 Z M 490.351562 368.640625 C 480.121094 368.640625 469.535156 370.695312 462.730469 373.980469 C 461.261719 374.714844 459.277344 374.761719 457.671875 374.050781 C 456.113281 373.34375 454.929688 371.925781 454.457031 370.222656 L 450.605469 355.503906 C 449.898438 352.785156 451.222656 349.949219 453.726562 348.742188 C 460.839844 345.152344 475.253906 341.300781 494.203125 341.300781 C 540.828125 341.300781 570.957031 372.113281 570.957031 419.753906 C 570.957031 467.582031 537.730469 500.996094 490.164062 500.996094 C 468.683594 500.996094 456.585938 495.582031 453.394531 493.929688 C 450.890625 492.605469 449.660156 489.699219 450.464844 486.980469 L 454.929688 471.90625 C 455.425781 470.226562 456.65625 468.808594 458.261719 468.171875 C 459.609375 467.558594 461.6875 467.535156 463.25 468.335938 C 470.289062 471.738281 479.648438 473.628906 489.527344 473.628906 C 520.859375 473.628906 539.574219 453.734375 539.574219 420.414062 C 539.550781 387.992188 521.144531 368.640625 490.351562 368.640625 Z M 380.1875 341.277344 C 394.695312 341.277344 411.097656 345.460938 420.074219 351.414062 C 422.273438 352.902344 423.21875 355.597656 422.460938 358.054688 L 417.785156 373.554688 C 417.265625 375.328125 415.917969 376.769531 414.238281 377.40625 C 412.183594 378.09375 410.503906 377.832031 408.992188 376.863281 C 400.414062 371.570312 389.167969 368.429688 378.957031 368.429688 C 363.882812 368.429688 354.878906 375.375 354.878906 386.976562 C 354.878906 396.074219 358.566406 402.433594 378.109375 409.992188 C 406.511719 420.035156 419.769531 434.710938 419.769531 456.121094 C 419.769531 482.539062 398.265625 500.972656 367.472656 500.972656 C 349.398438 500.972656 338.03125 496.078125 332.878906 493.148438 C 330.421875 491.777344 329.289062 488.824219 330.1875 486.128906 L 335.289062 471.03125 C 335.855469 469.375 337.132812 468.078125 338.738281 467.4375 C 340.347656 466.824219 342.238281 466.941406 343.726562 467.746094 C 348.804688 470.511719 357.125 473.84375 368.113281 473.84375 C 383.707031 473.84375 389.238281 465.453125 389.238281 458.246094 C 389.238281 449.761719 385.527344 444.257812 364.519531 436.105469 C 336.210938 425.164062 324.160156 410.9375 324.160156 388.441406 C 324.066406 366.679688 338.761719 341.277344 380.1875 341.277344 Z M 251.710938 341.277344 C 266.21875 341.277344 282.617188 345.460938 291.597656 351.414062 C 293.796875 352.902344 294.738281 355.597656 293.984375 358.054688 L 289.304688 373.554688 C 288.785156 375.328125 287.4375 376.769531 285.761719 377.40625 C 283.65625 378.117188 281.980469 377.808594 280.515625 376.839844 C 271.9375 371.570312 260.710938 368.429688 250.480469 368.429688 C 235.378906 368.429688 226.378906 375.375 226.378906 386.976562 C 226.378906 396.074219 230.0625 402.433594 249.605469 409.992188 C 277.984375 420.035156 291.265625 434.710938 291.265625 456.121094 C 291.265625 482.539062 269.761719 500.972656 238.972656 500.972656 C 220.894531 500.972656 209.527344 496.078125 204.355469 493.148438 C 201.894531 491.777344 200.761719 488.824219 201.683594 486.128906 L 206.765625 471.03125 C 207.355469 469.375 208.605469 468.078125 210.214844 467.4375 C 211.796875 466.800781 213.6875 466.894531 215.199219 467.746094 C 220.28125 470.511719 228.621094 473.84375 239.609375 473.84375 C 255.183594 473.84375 260.710938 465.453125 260.710938 458.246094 C 260.710938 449.761719 257.027344 444.257812 235.996094 436.105469 C 207.6875 425.164062 195.632812 410.9375 195.632812 388.441406 C 195.609375 366.679688 210.285156 341.277344 251.710938 341.277344 Z M 251.710938 341.277344 " fill-opacity="1" fill-rule="nonzero"/></g><g clip-path="url(#3dc051aa83)"><path fill="#374151" d="M 575.992188 76.320312 L 192 76.320312 C 128.363281 76.320312 76.800781 127.882812 76.800781 191.519531 L 76.800781 575.511719 C 76.800781 639.148438 128.363281 690.710938 192 690.710938 L 575.992188 690.710938 C 639.628906 690.710938 691.191406 639.148438 691.191406 575.511719 L 691.191406 191.519531 C 691.191406 127.882812 639.628906 76.320312 575.992188 76.320312 Z M 276.902344 436 C 287.132812 436 297.71875 433.941406 304.527344 430.65625 C 305.992188 429.925781 307.976562 429.878906 309.582031 430.585938 C 311.144531 431.296875 312.324219 432.714844 312.796875 434.414062 L 316.648438 449.136719 C 317.359375 451.855469 316.035156 454.691406 313.53125 455.894531 C 306.417969 459.488281 292.003906 463.339844 273.050781 463.339844 C 226.425781 463.339844 196.300781 432.523438 196.300781 384.886719 C 196.300781 337.058594 229.523438 303.644531 277.089844 303.644531 C 298.570312 303.644531 310.671875 309.054688 313.859375 310.710938 C 316.363281 312.035156 317.59375 314.941406 316.789062 317.65625 L 312.324219 332.734375 C 311.828125 334.410156 310.597656 335.828125 308.992188 336.46875 C 307.644531 337.082031 305.566406 337.105469 304.007812 336.300781 C 296.964844 332.898438 287.605469 331.007812 277.730469 331.007812 C 246.394531 331.007812 227.679688 350.90625 227.679688 384.222656 C 227.703125 416.644531 246.113281 436 276.902344 436 Z M 387.066406 463.363281 C 372.558594 463.363281 356.160156 459.179688 347.179688 453.226562 C 344.980469 451.734375 344.035156 449.042969 344.792969 446.585938 L 349.472656 431.082031 C 349.992188 429.3125 351.339844 427.871094 353.015625 427.230469 C 355.070312 426.546875 356.75 426.804688 358.261719 427.773438 C 366.839844 433.066406 378.085938 436.210938 388.296875 436.210938 C 403.371094 436.210938 412.375 429.265625 412.375 417.660156 C 412.375 408.5625 408.6875 402.207031 389.148438 394.644531 C 360.742188 384.601562 347.484375 369.929688 347.484375 348.519531 C 347.484375 322.101562 368.988281 303.667969 399.78125 303.667969 C 417.859375 303.667969 429.222656 308.558594 434.375 311.488281 C 436.832031 312.859375 437.96875 315.8125 437.070312 318.507812 L 431.964844 333.609375 C 431.398438 335.261719 430.121094 336.5625 428.515625 337.199219 C 426.90625 337.8125 425.019531 337.695312 423.527344 336.890625 C 418.449219 334.128906 410.128906 330.796875 399.140625 330.796875 C 383.546875 330.796875 378.015625 339.183594 378.015625 346.390625 C 378.015625 354.875 381.726562 360.382812 402.734375 368.535156 C 431.042969 379.472656 443.09375 393.699219 443.09375 416.195312 C 443.191406 437.960938 428.492188 463.363281 387.066406 463.363281 Z M 515.546875 463.363281 C 501.035156 463.363281 484.636719 459.179688 475.65625 453.226562 C 473.460938 451.734375 472.515625 449.042969 473.269531 446.585938 L 477.949219 431.082031 C 478.46875 429.3125 479.816406 427.871094 481.496094 427.230469 C 483.597656 426.523438 485.273438 426.828125 486.742188 427.796875 C 495.316406 433.066406 506.542969 436.210938 516.773438 436.210938 C 531.875 436.210938 540.878906 429.265625 540.878906 417.660156 C 540.878906 408.5625 537.191406 402.207031 517.648438 394.644531 C 489.269531 384.601562 475.988281 369.929688 475.988281 348.519531 C 475.988281 322.101562 497.492188 303.667969 528.28125 303.667969 C 546.359375 303.667969 557.726562 308.558594 562.902344 311.488281 C 565.359375 312.859375 566.492188 315.8125 565.570312 318.507812 L 560.492188 333.609375 C 559.898438 335.261719 558.648438 336.5625 557.039062 337.199219 C 555.457031 337.835938 553.566406 337.742188 552.054688 336.890625 C 546.972656 334.128906 538.632812 330.796875 527.644531 330.796875 C 512.070312 330.796875 506.542969 339.183594 506.542969 346.390625 C 506.542969 354.875 510.230469 360.382812 531.261719 368.535156 C 559.570312 379.472656 571.621094 393.699219 571.621094 416.195312 C 571.644531 437.960938 556.96875 463.363281 515.546875 463.363281 Z M 515.546875 463.363281 " fill-opacity="1" fill-rule="nonzero"/></g></svg>