<svg xmlns="http://www.w3.org/2000/svg" xmlns:xlink="http://www.w3.org/1999/xlink" width="1024" zoomAndPan="magnify" viewBox="0 0 768 767.999994" height="1024" preserveAspectRatio="xMidYMid meet" version="1.0"><defs><clipPath id="b06c8dfdc8"><path d="M 76.800781 76.800781 L 691.050781 76.800781 L 691.050781 691.050781 L 76.800781 691.050781 Z M 76.800781 76.800781 " clip-rule="nonzero"/></clipPath><clipPath id="19a8c448bc"><path d="M 159.320312 268.800781 L 617 268.800781 L 617 499.199219 L 159.320312 499.199219 Z M 159.320312 268.800781 " clip-rule="nonzero"/></clipPath><clipPath id="d5bebe061f"><path d="M 195.320312 268.800781 L 580.972656 268.800781 C 590.523438 268.800781 599.679688 272.59375 606.429688 279.34375 C 613.183594 286.09375 616.972656 295.253906 616.972656 304.800781 L 616.972656 463.199219 C 616.972656 483.082031 600.855469 499.199219 580.972656 499.199219 L 195.320312 499.199219 C 185.773438 499.199219 176.613281 495.40625 169.863281 488.65625 C 163.113281 481.90625 159.320312 472.746094 159.320312 463.199219 L 159.320312 304.800781 C 159.320312 284.917969 175.4375 268.800781 195.320312 268.800781 Z M 195.320312 268.800781 " clip-rule="nonzero"/></clipPath><clipPath id="095ce47df6"><path d="M 105.863281 105.863281 L 662.363281 105.863281 L 662.363281 662.363281 L 105.863281 662.363281 Z M 105.863281 105.863281 " clip-rule="nonzero"/></clipPath></defs><g clip-path="url(#b06c8dfdc8)"><path fill="#374151" d="M 575.992188 76.800781 L 192 76.800781 C 128.363281 76.800781 76.800781 128.363281 76.800781 192 L 76.800781 575.992188 C 76.800781 639.628906 128.363281 691.191406 192 691.191406 L 575.992188 691.191406 C 639.628906 691.191406 691.191406 639.628906 691.191406 575.992188 L 691.191406 192 C 691.191406 128.363281 639.628906 76.800781 575.992188 76.800781 Z M 276.902344 436.476562 C 287.132812 436.476562 297.71875 434.421875 304.527344 431.136719 C 305.992188 430.40625 307.976562 430.359375 309.582031 431.066406 C 311.144531 431.777344 312.324219 433.195312 312.796875 434.894531 L 316.648438 449.617188 C 317.359375 452.335938 316.035156 455.171875 313.53125 456.375 C 306.417969 459.96875 292.003906 463.820312 273.050781 463.820312 C 226.425781 463.820312 196.300781 433.003906 196.300781 385.367188 C 196.300781 337.539062 229.523438 304.125 277.089844 304.125 C 298.570312 304.125 310.671875 309.535156 313.859375 311.191406 C 316.363281 312.511719 317.59375 315.417969 316.789062 318.136719 L 312.324219 333.214844 C 311.828125 334.890625 310.597656 336.308594 308.992188 336.945312 C 307.644531 337.5625 305.566406 337.585938 304.007812 336.78125 C 296.964844 333.378906 287.605469 331.488281 277.730469 331.488281 C 246.394531 331.488281 227.679688 351.386719 227.679688 384.703125 C 227.703125 417.125 246.113281 436.476562 276.902344 436.476562 Z M 387.066406 463.84375 C 372.558594 463.84375 356.160156 459.660156 347.179688 453.703125 C 344.980469 452.214844 344.035156 449.523438 344.792969 447.066406 L 349.472656 431.5625 C 349.992188 429.792969 351.339844 428.347656 353.015625 427.710938 C 355.070312 427.027344 356.75 427.285156 358.261719 428.253906 C 366.839844 433.546875 378.085938 436.691406 388.296875 436.691406 C 403.371094 436.691406 412.375 429.742188 412.375 418.140625 C 412.375 409.042969 408.6875 402.6875 389.148438 395.125 C 360.742188 385.082031 347.484375 370.40625 347.484375 349 C 347.484375 322.578125 368.988281 304.148438 399.78125 304.148438 C 417.859375 304.148438 429.222656 309.039062 434.375 311.96875 C 436.832031 313.339844 437.96875 316.292969 437.070312 318.988281 L 431.964844 334.089844 C 431.398438 335.742188 430.121094 337.042969 428.515625 337.679688 C 426.90625 338.292969 425.019531 338.175781 423.527344 337.371094 C 418.449219 334.609375 410.128906 331.277344 399.140625 331.277344 C 383.546875 331.277344 378.015625 339.664062 378.015625 346.871094 C 378.015625 355.355469 381.726562 360.859375 402.734375 369.011719 C 431.042969 379.953125 443.09375 394.179688 443.09375 416.675781 C 443.191406 438.441406 428.492188 463.84375 387.066406 463.84375 Z M 515.546875 463.84375 C 501.035156 463.84375 484.636719 459.660156 475.65625 453.703125 C 473.460938 452.214844 472.515625 449.523438 473.269531 447.066406 L 477.949219 431.5625 C 478.46875 429.792969 479.816406 428.347656 481.496094 427.710938 C 483.597656 427.003906 485.273438 427.308594 486.742188 428.277344 C 495.316406 433.546875 506.542969 436.691406 516.773438 436.691406 C 531.875 436.691406 540.878906 429.742188 540.878906 418.140625 C 540.878906 409.042969 537.191406 402.6875 517.648438 395.125 C 489.269531 385.082031 475.988281 370.40625 475.988281 349 C 475.988281 322.578125 497.492188 304.148438 528.28125 304.148438 C 546.359375 304.148438 557.726562 309.039062 562.902344 311.96875 C 565.359375 313.339844 566.492188 316.292969 565.570312 318.988281 L 560.492188 334.089844 C 559.898438 335.742188 558.648438 337.042969 557.039062 337.679688 C 555.457031 338.316406 553.566406 338.222656 552.054688 337.371094 C 546.972656 334.609375 538.632812 331.277344 527.644531 331.277344 C 512.070312 331.277344 506.542969 339.664062 506.542969 346.871094 C 506.542969 355.355469 510.230469 360.859375 531.261719 369.011719 C 559.570312 379.953125 571.621094 394.179688 571.621094 416.675781 C 571.644531 438.441406 556.96875 463.84375 515.546875 463.84375 Z M 515.546875 463.84375 " fill-opacity="1" fill-rule="nonzero"/></g><g clip-path="url(#19a8c448bc)"><g clip-path="url(#d5bebe061f)"><path fill="#374151" d="M 159.320312 268.800781 L 617.417969 268.800781 L 617.417969 499.199219 L 159.320312 499.199219 Z M 159.320312 268.800781 " fill-opacity="1" fill-rule="nonzero"/></g></g><g clip-path="url(#095ce47df6)"><path fill="#374151" d="M 662.128906 584.871094 C 662.128906 627.546875 627.546875 662.128906 584.871094 662.128906 L 183.121094 662.128906 C 140.445312 662.128906 105.863281 627.546875 105.863281 584.871094 L 105.863281 183.121094 C 105.863281 140.445312 140.445312 105.863281 183.121094 105.863281 L 584.871094 105.863281 C 627.546875 105.863281 662.128906 140.445312 662.128906 183.121094 Z M 662.128906 584.871094 " fill-opacity="1" fill-rule="nonzero"/></g><path fill="#f9fbf2" d="M 229.476562 406.910156 L 229.476562 461.253906 L 198.683594 461.253906 L 198.683594 306.738281 L 256.78125 306.738281 C 271.984375 306.738281 284.128906 311.480469 293.167969 320.953125 C 302.210938 330.425781 306.738281 342.738281 306.738281 357.898438 C 306.738281 373.054688 302.269531 384.984375 293.324219 393.761719 C 284.378906 402.539062 271.984375 406.925781 256.148438 406.925781 L 229.476562 406.925781 Z M 229.738281 380.921875 L 256.78125 380.921875 C 262.699219 380.921875 267.273438 378.988281 270.515625 375.078125 C 273.761719 371.1875 275.371094 365.53125 275.371094 358.097656 C 275.371094 350.386719 273.714844 344.253906 270.410156 339.679688 C 267.101562 335.136719 262.667969 332.820312 257.105469 332.742188 L 229.738281 332.742188 Z M 229.738281 380.921875 " fill-opacity="1" fill-rule="nonzero"/><path fill="#f9fbf2" d="M 492.160156 406.910156 L 492.160156 461.253906 L 461.363281 461.253906 L 461.363281 306.738281 L 519.460938 306.738281 C 534.667969 306.738281 546.8125 311.480469 555.851562 320.953125 C 564.890625 330.425781 569.417969 342.738281 569.417969 357.898438 C 569.417969 373.054688 564.953125 384.984375 556.003906 393.761719 C 547.058594 402.539062 534.667969 406.925781 518.828125 406.925781 L 492.160156 406.925781 Z M 492.421875 380.921875 L 519.460938 380.921875 C 525.378906 380.921875 529.953125 378.988281 533.199219 375.078125 C 536.441406 371.1875 538.050781 365.53125 538.050781 358.097656 C 538.050781 350.386719 536.398438 344.253906 533.089844 339.679688 C 529.785156 335.136719 525.347656 332.820312 519.785156 332.742188 L 492.421875 332.742188 Z M 492.421875 380.921875 " fill-opacity="1" fill-rule="nonzero"/><path fill="#f9fbf2" d="M 430.351562 461.253906 L 399.449219 461.253906 L 399.449219 395.136719 L 352.78125 395.136719 L 352.78125 461.253906 L 322.1875 461.253906 L 322.1875 306.738281 L 352.78125 306.738281 L 352.78125 368.542969 L 399.449219 368.542969 L 399.449219 306.738281 L 430.351562 306.738281 Z M 430.351562 461.253906 " fill-opacity="1" fill-rule="nonzero"/></svg>