<svg xmlns="http://www.w3.org/2000/svg" xmlns:xlink="http://www.w3.org/1999/xlink" width="1024" zoomAndPan="magnify" viewBox="0 0 768 767.999994" height="1024" preserveAspectRatio="xMidYMid meet" version="1.0"><defs><clipPath id="2e445bf907"><path d="M 35.734375 78 L 732 78 L 732 717.300781 L 35.734375 717.300781 Z M 35.734375 78 " clip-rule="nonzero"/></clipPath></defs><g clip-path="url(#2e445bf907)"><path fill="#afcbff" d="M 197.832031 408.757812 C 197.832031 408.765625 197.828125 408.769531 197.828125 408.773438 L 197.425781 408.515625 C 197.5625 408.597656 197.699219 408.675781 197.832031 408.757812 Z M 242.214844 573.953125 C 242.421875 574.0625 242.632812 574.167969 242.839844 574.277344 C 242.839844 574.109375 242.84375 573.945312 242.84375 573.777344 C 242.714844 573.804688 242.582031 573.832031 242.453125 573.863281 C 242.375 573.890625 242.296875 573.921875 242.214844 573.953125 Z M 327.144531 102.085938 C 327 102.0625 326.855469 102.042969 326.710938 102.023438 C 326.710938 102.191406 326.714844 102.359375 326.714844 102.527344 C 326.855469 102.46875 326.957031 102.40625 327.109375 102.347656 C 327.117188 102.253906 327.132812 102.175781 327.144531 102.085938 Z M 288.0625 195.4375 C 287.914062 195.355469 287.769531 195.273438 287.621094 195.191406 L 288.007812 195.546875 C 288.027344 195.507812 288.042969 195.472656 288.0625 195.4375 Z M 77.089844 706.1875 C 77.21875 706.316406 77.347656 706.445312 77.472656 706.574219 L 77.09375 706.183594 C 77.09375 706.1875 77.09375 706.1875 77.089844 706.1875 Z M 179.519531 447.75 C 179.472656 447.726562 179.421875 447.707031 179.375 447.683594 C 179.375 447.855469 179.375 448.027344 179.375 448.199219 C 179.507812 448.167969 179.644531 448.136719 179.78125 448.105469 C 179.691406 447.988281 179.609375 447.867188 179.519531 447.75 Z M 113.359375 577.09375 L 113.539062 577.300781 C 113.679688 577.160156 113.816406 577.023438 113.957031 576.882812 C 113.6875 576.875 113.417969 576.867188 113.152344 576.863281 C 113.246094 577.058594 113.339844 577.253906 113.429688 577.453125 C 113.46875 577.402344 113.503906 577.351562 113.539062 577.300781 C 113.539062 577.300781 113.449219 577.199219 113.359375 577.09375 Z M 347.800781 522.773438 L 348.167969 522.996094 C 348.09375 522.925781 348.019531 522.855469 347.945312 522.785156 C 347.898438 522.78125 347.847656 522.777344 347.800781 522.773438 Z M 522.261719 453.871094 C 522.328125 453.9375 522.398438 454.007812 522.464844 454.074219 C 522.46875 454.082031 522.492188 454.101562 522.492188 454.101562 C 522.496094 453.996094 522.496094 453.890625 522.5 453.78125 C 522.414062 453.8125 522.355469 453.839844 522.261719 453.871094 Z M 728.75 267.078125 C 726.648438 270.34375 724.683594 270.402344 723.027344 266.046875 C 722.445312 264.503906 719.070312 264.015625 716.96875 263.046875 C 716.800781 265.242188 716.441406 267.441406 716.511719 269.628906 C 716.589844 271.929688 717.023438 274.21875 717.328125 276.515625 C 716.503906 276.636719 715.679688 276.757812 714.855469 276.878906 C 713.90625 286.667969 709.210938 293.75 699.804688 297.425781 L 700.125 297.78125 C 699.957031 297.78125 699.792969 297.78125 699.625 297.78125 C 699.671875 297.683594 699.71875 297.609375 699.765625 297.503906 C 697.761719 295.882812 695.757812 293.328125 693.746094 297.449219 C 689.894531 299.152344 685.53125 300.214844 682.363281 302.765625 C 676.066406 307.828125 668.847656 311.769531 661.609375 313.792969 C 658.183594 314.75 653.320312 316.695312 652.386719 319.351562 C 648.792969 329.542969 647.972656 318.125 645.902344 318.6875 C 642.242188 326.691406 634.582031 325.53125 627.738281 326.585938 C 626.488281 326.777344 625.5625 329.082031 624.511719 330.5625 C 623.015625 331.617188 621.53125 332.6875 620.019531 333.714844 C 618.214844 334.945312 621.886719 341.472656 614.746094 338.257812 C 611.667969 336.871094 609.808594 337.335938 609.488281 333.148438 C 609.15625 328.8125 608.425781 328.777344 603.746094 333.421875 C 603.820312 333.628906 603.894531 333.839844 603.964844 334.046875 C 603.753906 333.976562 603.542969 333.902344 603.328125 333.832031 L 603.742188 333.414062 C 597.332031 335.847656 588.597656 335.375 588.261719 345.410156 C 584.378906 345.089844 583.898438 346.179688 580.402344 350.3125 C 578.597656 352.445312 573.007812 351.59375 571.527344 353.742188 C 567.417969 359.71875 562.753906 363.734375 555.28125 364 C 554.695312 364.019531 554.097656 365.152344 553.601562 365.835938 C 550.558594 370.050781 550.511719 370.097656 546.722656 366.847656 C 545.726562 368.707031 544.730469 370.570312 543.734375 372.429688 C 543.78125 372.441406 543.832031 372.449219 543.878906 372.460938 C 543.8125 372.480469 543.75 372.503906 543.683594 372.523438 C 543.636719 372.613281 543.589844 372.703125 543.539062 372.796875 C 543.46875 372.742188 543.394531 372.691406 543.324219 372.640625 C 536.933594 374.699219 530.566406 376.796875 525.554688 381.589844 C 520.160156 385.332031 517.011719 391.339844 509.515625 393.445312 C 505.367188 394.613281 501.277344 412.5625 506.160156 419.558594 C 510.585938 425.902344 514.820312 432.375 519.140625 438.789062 C 518.539062 439.019531 517.9375 439.253906 517.335938 439.484375 C 517.945312 440.222656 518.554688 440.960938 519.164062 441.699219 C 519.167969 440.746094 519.167969 439.792969 519.171875 438.839844 C 519.160156 438.824219 519.148438 438.804688 519.140625 438.789062 C 519.28125 438.734375 519.421875 438.679688 519.5625 438.625 C 519.550781 439.796875 519.542969 440.96875 519.53125 442.140625 C 519.53125 442.140625 519.457031 442.097656 519.390625 442.054688 L 519.164062 441.914062 C 519.164062 443.894531 519.164062 445.871094 519.164062 447.847656 C 518.582031 448.128906 518.003906 448.410156 517.421875 448.695312 C 518.035156 449.378906 518.648438 450.066406 519.261719 450.753906 C 519.339844 450.75 519.417969 450.75 519.496094 450.746094 C 519.496094 450.832031 519.492188 450.921875 519.488281 451.007812 L 519.152344 450.757812 C 520.1875 451.792969 521.226562 452.832031 522.261719 453.871094 C 523.667969 459.242188 530.371094 463.148438 526.621094 470.046875 C 526.207031 470.808594 527.253906 472.792969 528.128906 473.75 C 531.09375 477.015625 535.121094 479.621094 537.140625 483.347656 C 538.90625 486.605469 535.0625 491.75 540.445312 494.726562 C 541.761719 495.457031 541.988281 498.742188 542.121094 500.890625 C 542.402344 505.472656 541.328125 510.15625 547.839844 512.03125 C 549.84375 512.605469 551.832031 516.726562 552.066406 519.378906 C 553.445312 534.878906 564.199219 545.921875 570.34375 559.125 C 570.34375 559.125 570.726562 558.78125 570.726562 558.78125 C 570.71875 559.007812 570.714844 559.234375 570.707031 559.460938 C 571.316406 560.023438 571.925781 560.585938 572.535156 561.148438 C 571.898438 561.417969 571.265625 561.683594 570.632812 561.949219 C 570.628906 562.0625 570.625 562.171875 570.621094 562.28125 C 576.964844 569.390625 582.136719 576.589844 583.007812 587.050781 C 583.542969 593.507812 588.613281 599.652344 591.898438 605.800781 C 595.023438 611.65625 597.992188 617.703125 601.96875 622.953125 C 604.234375 625.945312 592.445312 630.320312 603.265625 631.496094 C 604.257812 631.605469 605.535156 634.863281 605.582031 636.6875 C 605.683594 640.792969 603.886719 645.21875 608.550781 648.097656 C 603.84375 652.554688 599.140625 657.007812 594.4375 661.464844 C 594.4375 661.464844 594.4375 661.464844 594.4375 661.46875 C 594.433594 661.46875 594.429688 661.472656 594.425781 661.472656 C 594.300781 661.59375 594.171875 661.714844 594.046875 661.832031 C 594.007812 661.785156 593.972656 661.734375 593.9375 661.683594 C 591.113281 662.847656 588.328125 664.535156 585.433594 664.757812 C 581.117188 665.085938 578.371094 665.164062 580.945312 670.652344 C 581.296875 671.40625 578.308594 674.300781 576.402344 675.398438 C 573.660156 676.976562 570.507812 677.839844 567.523438 678.996094 C 567.300781 678.421875 567.078125 677.851562 566.855469 677.28125 C 566.097656 677.910156 565.34375 678.539062 564.585938 679.167969 C 564.628906 679.28125 564.675781 679.375 564.71875 679.476562 C 564.554688 679.472656 564.386719 679.472656 564.222656 679.46875 L 564.535156 679.050781 C 561.828125 680.175781 559.066406 683.398438 556.898438 678.0625 C 556.15625 676.238281 554.214844 674.898438 552.652344 673.40625 C 552.328125 672.675781 552.003906 671.945312 551.675781 671.21875 C 550.988281 671.84375 550.296875 672.464844 549.609375 673.089844 C 549.675781 673.222656 549.742188 673.351562 549.8125 673.480469 C 549.601562 673.480469 549.390625 673.480469 549.179688 673.480469 L 549.449219 673.160156 C 549.515625 673.082031 549.570312 673.015625 549.570312 673.015625 C 543.972656 671.835938 537.238281 672.484375 536.84375 663.75 C 536.753906 661.765625 532.734375 660.167969 525.75 656.796875 C 524.269531 656.085938 523.523438 653.855469 522.441406 652.324219 C 522.457031 652.316406 522.46875 652.308594 522.480469 652.296875 C 520.597656 650.425781 518.710938 648.554688 516.824219 646.683594 C 504.945312 645.453125 499.082031 636.328125 492.515625 628.128906 C 492.492188 628.105469 492.46875 628.085938 492.449219 628.0625 C 491.042969 629.261719 489.0625 631.101562 488.871094 630.933594 C 485.839844 628.238281 483.105469 625.207031 480.300781 622.261719 C 480.3125 622.253906 480.328125 622.246094 480.339844 622.238281 C 475.839844 617.554688 469.953125 613.449219 467.625 607.863281 C 465.609375 603.023438 464.511719 604.902344 461.757812 605.515625 C 461.203125 605.636719 460.007812 602.890625 459.042969 601.160156 C 456.871094 601.476562 453.042969 602.117188 453.023438 602.011719 C 451.496094 594.21875 444.816406 593.878906 439.140625 591.792969 C 436.589844 590.851562 432.796875 588.582031 432.636719 586.660156 C 431.921875 578.105469 426.863281 575.046875 419.441406 573.707031 C 419.210938 573.664062 419.5625 570.402344 419.710938 568.273438 C 412.097656 570.421875 411.628906 562.902344 408.203125 559.386719 C 407.054688 561.175781 405.378906 564.066406 405.140625 563.953125 C 400.828125 561.898438 395.507812 560.429688 396.902344 553.625 C 397.082031 552.746094 395.707031 550.652344 394.988281 550.621094 C 384.636719 550.195312 376.457031 547.117188 368.511719 540.332031 L 368.753906 540.695312 L 368.566406 541.292969 L 368.519531 540.503906 C 363.730469 536.644531 358.945312 532.785156 354.15625 528.921875 L 353.769531 529.300781 C 353.773438 529.113281 353.777344 528.929688 353.785156 528.742188 C 352.078125 527.90625 350.371094 527.070312 348.667969 526.234375 C 350.390625 526.207031 352.117188 526.183594 353.84375 526.15625 C 353.847656 526.039062 353.847656 525.917969 353.851562 525.796875 C 353.851562 525.796875 353.949219 525.921875 354.03125 526.027344 L 354.132812 526.152344 C 354.085938 525.242188 354.042969 524.328125 353.996094 523.417969 C 351.976562 523.207031 349.960938 522.996094 347.945312 522.785156 C 344.910156 519.902344 341.878906 517.015625 338.84375 514.128906 C 335.140625 514.554688 331.382812 515.582031 327.746094 515.261719 C 321.917969 514.742188 323.507812 520.535156 322.132812 521.476562 C 314.167969 526.941406 305.210938 530.980469 296.472656 535.265625 C 295.085938 535.949219 292.097656 536.121094 291.566406 535.351562 C 287.945312 530.089844 284.09375 531.105469 280.550781 534.839844 C 276.367188 539.253906 283.011719 539.480469 283.417969 541.296875 C 285.234375 549.464844 277.890625 550.527344 272.753906 553.152344 C 271.996094 554.277344 270.769531 555.40625 270.773438 556.53125 C 270.804688 564.953125 267.636719 563.054688 263.773438 559.304688 C 259.984375 561.429688 256.410156 564.308594 252.34375 565.453125 C 248.355469 566.574219 243.875 565.929688 242.460938 571.191406 L 242.878906 570.851562 C 242.875 571.109375 242.871094 571.367188 242.871094 571.625 C 242.75 571.496094 242.628906 571.367188 242.507812 571.238281 C 241.894531 571.878906 241.285156 572.515625 240.675781 573.15625 C 241.1875 573.421875 241.703125 573.6875 242.214844 573.953125 C 239.367188 575.074219 236.515625 576.191406 233.667969 577.308594 C 231.601562 580.222656 229.53125 583.136719 227.464844 586.046875 C 227.464844 586.046875 227.542969 585.988281 227.621094 585.929688 C 227.703125 585.871094 227.78125 585.8125 227.78125 585.8125 C 227.785156 586.132812 227.789062 586.449219 227.789062 586.765625 C 228 587.21875 228.203125 587.671875 228.273438 588.144531 C 228.304688 588.359375 228.0625 588.613281 227.8125 588.871094 C 227.816406 589.074219 227.820312 589.273438 227.820312 589.476562 L 227.476562 589.246094 C 225.515625 590.15625 223.550781 591.066406 221.589844 591.976562 L 221.902344 592.296875 C 221.71875 592.296875 221.53125 592.292969 221.34375 592.292969 C 220.789062 593.007812 220.234375 593.726562 219.675781 594.441406 C 219.378906 593.714844 219.078125 592.992188 218.78125 592.265625 C 218.660156 592.261719 218.535156 592.261719 218.414062 592.261719 L 218.675781 592.011719 C 216.21875 593.78125 212 595.242188 211.621094 597.378906 C 210.335938 604.679688 207.507812 607.621094 200.109375 604.648438 C 199.679688 604.472656 198.566406 605.988281 197.664062 606.988281 C 192.789062 610.625 185.257812 613.40625 183.726562 618.128906 C 181.363281 625.421875 176.945312 621.320312 173.667969 622.355469 C 171.945312 626.464844 170.476562 630.714844 168.285156 634.558594 C 167.546875 635.859375 164.585938 636.976562 163.085938 636.5625 C 158.460938 635.292969 158.542969 634.992188 158.246094 640.375 C 155.191406 643.359375 152.140625 646.347656 149.089844 649.332031 L 149.410156 649.03125 C 149.582031 649.324219 149.753906 649.621094 149.925781 649.914062 C 149.722656 649.773438 149.519531 649.632812 149.320312 649.492188 C 148.363281 653.128906 136.460938 646.800781 142.40625 656.714844 C 137.800781 662.226562 133.957031 668.769531 128.339844 672.910156 C 124.183594 675.972656 123.726562 679.613281 121.75 683.324219 C 118.636719 689.164062 117.886719 698.429688 107.671875 697.425781 C 103.550781 707.640625 103.359375 707.839844 95.398438 703.332031 C 95.351562 703.363281 95.304688 703.390625 95.257812 703.421875 L 93.828125 703.210938 L 92.703125 703.386719 C 92.515625 705.191406 92.328125 706.996094 92.136719 708.800781 C 89.230469 706.960938 86.324219 705.121094 83.417969 703.28125 C 81.417969 698.558594 79.363281 701.214844 77.3125 703.25 C 76.652344 703.636719 75.988281 704.019531 75.328125 704.40625 C 75.914062 705 76.503906 705.59375 77.089844 706.1875 C 73.800781 714.175781 68.261719 717.597656 62.347656 715.164062 C 62.199219 715.101562 62.578125 713.039062 63.113281 712.152344 C 66.847656 705.964844 64.957031 704.429688 58.242188 705.425781 C 51.082031 706.484375 44.585938 705.160156 41.496094 697.351562 C 42.066406 697.070312 42.632812 696.792969 43.203125 696.511719 C 42.585938 695.8125 41.96875 695.113281 41.351562 694.414062 C 41.234375 694.460938 41.136719 694.507812 41.03125 694.554688 C 41.035156 694.390625 41.035156 694.226562 41.035156 694.058594 L 41.039062 694.0625 C 41.039062 694.058594 41.039062 694.058594 41.035156 694.058594 L 41.457031 694.367188 C 41.675781 688.183594 36.074219 681.078125 44.289062 676.152344 C 46.15625 674.09375 48.261719 672.183594 49.714844 669.863281 C 51.847656 666.46875 57.632812 665.304688 55.113281 658.851562 C 53.441406 654.582031 62.40625 652.171875 59.28125 646.355469 L 58.933594 646.6875 C 64.808594 639.609375 71.242188 632.925781 74.003906 623.75 C 74.371094 622.523438 76.078125 621.15625 77.394531 620.851562 C 83.8125 619.371094 88.117188 617.082031 87.59375 608.953125 C 87.417969 606.222656 91.628906 602.304688 94.742188 600.460938 C 100.589844 597 104.195312 592.027344 107.21875 586.351562 C 107.164062 586.328125 107.109375 586.304688 107.054688 586.28125 C 109.179688 583.335938 111.304688 580.394531 113.433594 577.449219 C 113.671875 577.953125 113.910156 578.453125 114.148438 578.953125 C 114.84375 578.386719 115.542969 577.820312 116.238281 577.253906 C 116.238281 577.148438 116.238281 577.046875 116.234375 576.941406 C 116.363281 576.945312 116.488281 576.945312 116.613281 576.949219 L 116.238281 577.300781 C 116.945312 576.890625 117.65625 576.480469 118.363281 576.070312 C 117.769531 575.464844 117.175781 574.855469 116.578125 574.25 C 116.457031 574.371094 116.339844 574.492188 116.21875 574.613281 C 116.21875 574.367188 116.214844 574.125 116.214844 573.878906 C 116.214844 573.878906 116.21875 573.886719 116.21875 573.886719 C 116.21875 573.882812 116.214844 573.882812 116.214844 573.878906 L 116.589844 574.242188 C 116.175781 573.355469 115.199219 572.261719 115.4375 571.617188 C 119.847656 559.648438 123.820312 547.460938 129.203125 535.933594 C 131.507812 531 136.886719 527.53125 140.71875 523.261719 C 141.769531 522.085938 143.300781 519.875 142.871094 519.074219 C 140.359375 514.394531 144.769531 510.328125 144.519531 507.539062 C 143.476562 496.074219 151.453125 492.300781 158.320312 487.183594 C 158.347656 486.019531 158.371094 484.859375 158.398438 483.699219 L 158.613281 483.933594 C 159.550781 482.003906 160.488281 480.074219 161.421875 478.144531 C 161.363281 478.121094 161.308594 478.09375 161.25 478.070312 C 161.378906 475.136719 161.507812 472.203125 161.636719 469.269531 C 163.546875 469.066406 165.453125 468.863281 167.363281 468.664062 C 167.664062 467.945312 167.988281 467.230469 168.199219 466.488281 C 171.285156 455.722656 171.351562 455.53125 179.367188 450.980469 C 179.367188 450.773438 179.367188 450.570312 179.367188 450.367188 C 179.492188 450.484375 179.617188 450.605469 179.738281 450.722656 C 180.394531 450.054688 181.054688 449.386719 181.710938 448.71875 C 180.980469 448.394531 180.25 448.070312 179.519531 447.746094 C 177.382812 444.910156 175.964844 441.734375 180.324219 439.902344 C 185.125 437.878906 188.621094 435.777344 187.226562 429.777344 C 187.054688 429.046875 188.5625 427.917969 188.382812 427.199219 C 187.167969 422.230469 196.886719 426.585938 193.921875 420.832031 C 191.320312 415.785156 198.007812 415.417969 197.828125 411.808594 C 197.828125 411.808594 197.695312 411.898438 197.578125 411.976562 C 197.507812 412.023438 197.425781 412.078125 197.425781 412.078125 C 197.425781 410.890625 197.425781 409.703125 197.425781 408.515625 C 197.425781 408.515625 197.828125 408.773438 197.828125 408.773438 C 197.828125 409.734375 197.828125 410.695312 197.828125 411.65625 C 198.417969 411.039062 199.007812 410.417969 199.59375 409.800781 C 199.007812 409.453125 198.421875 409.105469 197.832031 408.757812 C 201.367188 401.234375 194.398438 399.152344 191.003906 394.953125 C 187.289062 390.355469 191.851562 391.292969 194.058594 390.695312 C 192.671875 389.71875 190.933594 387.878906 190.074219 388.222656 C 179.289062 392.542969 173.292969 385.996094 167.519531 378.742188 C 168.296875 378.390625 169.070312 378.035156 169.847656 377.683594 C 169.335938 377.3125 168.828125 376.9375 168.320312 376.5625 C 168.046875 377.285156 167.777344 378.003906 167.503906 378.726562 C 156.386719 374.035156 148.042969 365.953125 141.402344 356.234375 C 139.191406 353 138.484375 350.476562 133.957031 353.261719 C 129.589844 355.949219 129.914062 353.964844 130.769531 349.894531 C 131.746094 345.242188 128.765625 348.109375 126.707031 348.554688 C 121.316406 349.730469 121.164062 346.570312 122.496094 342.632812 L 122.316406 342.90625 C 122.316406 342.785156 122.316406 342.660156 122.3125 342.535156 C 120.632812 341.648438 118.953125 340.757812 117.269531 339.871094 C 118.941406 339.820312 120.609375 339.773438 122.28125 339.726562 C 122.28125 339.628906 122.28125 339.527344 122.277344 339.429688 C 120.328125 337.425781 118.136719 333.941406 116.558594 334.199219 C 103.511719 336.355469 95.605469 327.164062 86.15625 321.371094 L 86.550781 321.765625 C 86.058594 322.476562 85.566406 323.1875 85.078125 323.898438 C 85.4375 323.054688 85.792969 322.214844 86.152344 321.375 C 81.65625 316.8125 76.613281 312.640625 72.90625 307.503906 C 65.71875 297.542969 65.867188 296.851562 65.195312 285.957031 C 61.761719 285.585938 58.414062 285.03125 59.539062 280.195312 C 60.292969 276.957031 61.335938 273.785156 62.25 270.582031 C 62.300781 270.464844 62.351562 270.347656 62.40625 270.230469 C 61.777344 268.363281 60.765625 266.40625 61.144531 264.769531 C 62.109375 260.589844 63.921875 256.601562 65.40625 252.539062 C 66.015625 252.1875 66.625 251.832031 67.234375 251.480469 C 66.640625 250.867188 66.042969 250.253906 65.445312 249.640625 C 65.328125 249.6875 65.207031 249.730469 65.089844 249.777344 C 65.089844 249.609375 65.089844 249.441406 65.089844 249.273438 L 65.09375 249.277344 C 65.089844 249.273438 65.089844 249.273438 65.089844 249.273438 L 65.472656 249.628906 C 74.921875 236.460938 86.632812 229.40625 103.910156 231.84375 C 109.6875 232.65625 116.242188 227.960938 122.441406 225.785156 L 122.363281 225.574219 C 122.640625 225.476562 122.917969 225.378906 123.199219 225.28125 C 123.019531 225.402344 122.839844 225.519531 122.660156 225.640625 C 127.082031 226.578125 131.472656 227.929688 135.941406 228.277344 C 142.386719 228.78125 148.886719 228.511719 155.367188 228.570312 C 155.695312 229.210938 156.023438 229.851562 156.355469 230.496094 C 157.078125 229.84375 157.800781 229.195312 158.523438 228.546875 C 157.480469 228.554688 156.4375 228.5625 155.394531 228.570312 C 155.386719 228.570312 155.375 228.570312 155.367188 228.570312 C 155.320312 228.480469 155.273438 228.390625 155.230469 228.304688 C 156.410156 228.308594 157.59375 228.3125 158.777344 228.316406 L 158.617188 228.546875 C 174.203125 231.710938 190.101562 228.328125 205.359375 229.730469 C 222.144531 231.277344 238.273438 227.082031 254.699219 228.699219 C 255.039062 229.277344 255.382812 229.855469 255.722656 230.4375 C 256.339844 229.859375 256.953125 229.28125 257.570312 228.703125 C 256.628906 228.703125 255.691406 228.703125 254.75 228.703125 C 254.734375 228.703125 254.714844 228.703125 254.699219 228.699219 C 254.617188 228.5625 254.535156 228.421875 254.457031 228.285156 C 255.640625 228.285156 256.824219 228.285156 258.011719 228.289062 L 257.726562 228.703125 C 263.4375 228.265625 271.78125 229.964844 274.265625 226.90625 C 278.410156 221.8125 278.636719 213.617188 280.847656 206.839844 C 281.753906 204.054688 283.449219 201.523438 284.828125 198.886719 C 285.167969 199.921875 285.507812 200.957031 285.847656 201.992188 C 286.503906 200.84375 287.15625 199.691406 287.8125 198.542969 C 289.097656 198.167969 290.378906 197.796875 291.664062 197.425781 C 290.460938 196.761719 289.261719 196.097656 288.0625 195.433594 C 290.921875 189.46875 293.78125 183.5 296.640625 177.53125 C 296.59375 177.5 296.546875 177.464844 296.503906 177.429688 C 304.242188 169.472656 303.699219 158.152344 307.859375 148.6875 C 310.824219 141.949219 313.628906 133.25 318.617188 125.71875 C 322.15625 120.382812 324.234375 114.078125 326.964844 108.203125 L 326.800781 108.402344 C 326.800781 108.304688 326.796875 108.210938 326.796875 108.113281 C 326.835938 108.132812 326.867188 108.152344 326.90625 108.171875 C 327.777344 106.253906 328.652344 104.332031 329.523438 102.414062 C 328.730469 102.304688 327.9375 102.195312 327.144531 102.082031 C 328.890625 86.863281 334.941406 81.644531 350.371094 79.652344 C 359.355469 78.492188 367.875 76.730469 374.964844 84.058594 C 374.964844 84.054688 374.96875 84.050781 374.96875 84.046875 C 385.964844 91.945312 392.679688 101.898438 394.457031 115.980469 C 395.179688 121.683594 400.566406 127.105469 401.855469 133.558594 C 402.707031 137.824219 405.089844 142.394531 404.203125 146.238281 C 403.246094 150.394531 403.660156 151.933594 407.128906 154.089844 C 408.851562 155.164062 410.605469 159.015625 409.945312 160.628906 C 405.382812 171.816406 414.425781 179.230469 417.933594 187.695312 C 419.667969 191.882812 422.695312 195.691406 423.351562 200.703125 C 424.1875 207.089844 428.433594 209.964844 432.992188 206.15625 C 437.574219 202.328125 441.097656 202.570312 446.125 203.53125 C 449.085938 204.097656 452.550781 202.347656 455.722656 201.414062 C 461.410156 199.738281 467.132812 193.949219 472.617188 202.4375 C 473.039062 203.09375 479.195312 200.046875 482.957031 198.546875 C 482.933594 198.425781 482.910156 198.300781 482.886719 198.175781 C 483.035156 198.25 483.179688 198.324219 483.328125 198.398438 L 482.988281 198.714844 C 489.976562 202.714844 498.859375 197.101562 505.621094 203.039062 C 505.917969 203.296875 508.4375 200.644531 510.136719 199.761719 C 520.023438 194.617188 530.472656 202.238281 540.453125 198.519531 C 545.53125 203.542969 547.871094 194.003906 552.738281 196.300781 C 557.160156 198.390625 561.855469 200.535156 566.617188 201.117188 C 571.707031 201.738281 577.152344 201.164062 582.199219 200.035156 C 591.757812 197.890625 600.265625 199.867188 609.636719 202.492188 C 622.101562 205.984375 635.554688 206.40625 648.640625 207.117188 C 662.730469 207.882812 675.472656 212.25 688.671875 216.8125 C 695.792969 219.273438 703.425781 219.703125 709.429688 225.21875 C 712.996094 228.492188 716.953125 231.34375 720.753906 234.359375 C 720.765625 234.335938 720.777344 234.316406 720.789062 234.292969 C 728.917969 240.203125 731.105469 249.078125 731.957031 258.230469 C 732.226562 261.085938 730.425781 264.46875 728.75 267.078125 Z M 69.503906 266.976562 C 70.035156 267 70.566406 267.023438 71.101562 267.046875 C 70.753906 266.515625 70.40625 265.984375 70.058594 265.453125 C 69.875 265.960938 69.6875 266.46875 69.503906 266.976562 Z M 78.683594 268.285156 C 77.582031 267.636719 76.519531 266.558594 75.367188 266.453125 C 74.246094 266.347656 73.066406 266.898438 71.898438 267.292969 C 72.851562 268.386719 73.714844 269.9375 74.835938 270.152344 C 75.957031 270.371094 77.390625 268.972656 78.683594 268.285156 Z M 85.097656 241.542969 L 84.105469 241.910156 L 84.996094 242.484375 Z M 151.804688 362.269531 C 151.476562 361.949219 151.160156 361.394531 150.820312 361.382812 C 150.484375 361.371094 150.128906 361.902344 149.78125 362.195312 C 150.101562 362.519531 150.410156 363.082031 150.746094 363.097656 C 151.078125 363.109375 151.4375 362.578125 151.804688 362.269531 Z M 175.949219 344.234375 C 175.667969 343.910156 175.402344 343.351562 175.097656 343.324219 C 174.796875 343.300781 174.214844 343.804688 174.191406 344.109375 C 174.171875 344.414062 174.6875 344.753906 174.96875 345.082031 C 175.296875 344.796875 175.621094 344.515625 175.949219 344.234375 Z M 46.683594 689.871094 C 46.367188 689.539062 46.050781 689.210938 45.734375 688.878906 C 45.375 689.160156 45.015625 689.445312 44.65625 689.730469 C 44.972656 690.058594 45.269531 690.628906 45.609375 690.65625 C 45.945312 690.679688 46.324219 690.15625 46.683594 689.871094 Z M 61.632812 656.886719 C 61.351562 656.550781 61.070312 656.214844 60.789062 655.875 C 60.464844 656.167969 59.898438 656.441406 59.875 656.753906 C 59.851562 657.066406 60.371094 657.421875 60.652344 657.757812 C 60.976562 657.464844 61.304688 657.175781 61.632812 656.886719 Z M 64.609375 662.832031 C 64.636719 662.53125 64.113281 662.1875 63.832031 661.859375 C 63.507812 662.140625 63.179688 662.421875 62.855469 662.703125 C 63.136719 663.03125 63.417969 663.355469 63.699219 663.683594 C 64.023438 663.402344 64.585938 663.136719 64.609375 662.832031 Z M 76.6875 635.65625 C 75.921875 635.65625 75.273438 635.65625 74.621094 635.65625 C 74.933594 635.96875 75.234375 636.519531 75.558594 636.535156 C 75.882812 636.550781 76.234375 636.03125 76.6875 635.65625 Z M 91.066406 695.597656 L 90.203125 696.003906 L 90.988281 696.542969 Z M 95.957031 692.785156 C 96.285156 693.101562 96.613281 693.414062 96.941406 693.730469 C 97.265625 693.46875 97.617188 693.183594 97.972656 692.894531 C 97.652344 692.574219 97.347656 692.015625 97.007812 691.996094 C 96.675781 691.976562 96.308594 692.5 95.957031 692.785156 Z M 99.746094 701.859375 C 99.40625 701.597656 98.898438 701.042969 98.761719 701.121094 C 97.933594 701.605469 97.148438 702.160156 96.355469 702.703125 C 97.484375 702.421875 98.613281 702.140625 99.746094 701.859375 Z M 177.65625 461.515625 L 178.359375 461.625 L 178.117188 460.867188 Z M 158.320312 487.183594 C 159.183594 487.046875 160.046875 486.910156 160.90625 486.773438 C 160.140625 485.839844 159.378906 484.902344 158.613281 483.96875 C 158.617188 484.964844 158.621094 485.960938 158.628906 486.957031 Z M 159.148438 563.523438 C 159.125 563.824219 159.628906 564.40625 159.929688 564.425781 C 160.238281 564.449219 160.578125 563.929688 160.90625 563.648438 C 160.625 563.324219 160.339844 562.996094 160.058594 562.671875 C 159.734375 562.953125 159.175781 563.214844 159.148438 563.523438 Z M 159.9375 531.4375 C 160.261719 531.152344 160.820312 530.890625 160.847656 530.585938 C 160.871094 530.285156 160.351562 529.9375 160.070312 529.613281 C 159.742188 529.894531 159.179688 530.160156 159.160156 530.460938 C 159.136719 530.765625 159.65625 531.109375 159.9375 531.4375 Z M 156.125 497.421875 C 156.105469 497.734375 156.628906 498.078125 156.914062 498.410156 C 157.242188 498.121094 157.566406 497.832031 157.894531 497.542969 C 157.609375 497.214844 157.324219 496.882812 157.039062 496.554688 C 156.714844 496.839844 156.148438 497.113281 156.125 497.421875 Z M 153.695312 599.125 C 154.742188 599.734375 156.3125 601.117188 156.75 600.820312 C 159.304688 599.09375 161.597656 596.976562 164.878906 594.238281 C 162.378906 593.234375 160.65625 592.085938 160.238281 592.449219 C 157.882812 594.472656 155.84375 596.859375 153.695312 599.125 Z M 146.992188 518.421875 C 147.265625 518.71875 147.527344 519.234375 147.820312 519.253906 C 148.109375 519.273438 148.4375 518.796875 148.746094 518.539062 C 148.472656 518.238281 148.214844 517.722656 147.921875 517.703125 C 147.628906 517.683594 147.304688 518.160156 146.992188 518.421875 Z M 145.242188 644.316406 L 144.28125 644.664062 L 145.136719 645.222656 Z M 147.417969 633.609375 C 147.058594 632.03125 146.699219 630.457031 146.339844 628.878906 C 145.84375 630.382812 145.347656 631.886719 144.847656 633.386719 C 145.707031 633.460938 146.5625 633.535156 147.417969 633.609375 Z M 151.425781 626.898438 C 151.109375 626.539062 150.59375 625.820312 150.511719 625.867188 C 149.546875 626.414062 148.621094 627.023438 147.6875 627.625 C 148.933594 627.382812 150.179688 627.140625 151.425781 626.898438 Z M 164.285156 610.25 C 161.488281 608.898438 158.773438 607.234375 155.828125 606.488281 C 154.386719 606.125 152.449219 607.726562 150.738281 608.4375 C 152.445312 610.941406 153.6875 614.898438 155.960938 615.621094 C 159.757812 616.832031 165.097656 617.324219 164.285156 610.25 Z M 178.125 581.648438 C 177.503906 579.527344 176.972656 577.714844 176.441406 575.902344 C 175.445312 577.359375 174.40625 578.785156 173.46875 580.28125 C 172.722656 581.476562 171.820312 582.6875 171.511719 584.015625 C 171.226562 585.238281 171.640625 586.621094 171.746094 587.9375 C 173.425781 587.277344 175.375 586.945312 176.691406 585.851562 C 177.59375 585.101562 177.613281 583.289062 178.125 581.648438 Z M 178.929688 544.636719 C 177.289062 545.410156 175.648438 546.183594 174.007812 546.957031 C 174.90625 547.832031 175.804688 548.710938 176.703125 549.585938 C 177.445312 547.9375 178.1875 546.289062 178.929688 544.636719 Z M 181.507812 542.113281 C 180.933594 541.851562 180.359375 541.585938 179.78125 541.324219 C 179.761719 542.054688 179.746094 542.785156 179.726562 543.519531 C 180.320312 543.050781 180.914062 542.582031 181.507812 542.113281 Z M 589.132812 652.121094 C 589.953125 653.894531 590.773438 655.671875 591.589844 657.449219 C 592.234375 655.152344 592.878906 652.859375 593.519531 650.5625 C 592.058594 651.082031 590.59375 651.601562 589.132812 652.121094 Z M 582.964844 654.671875 C 584.730469 653.832031 586.496094 652.992188 588.261719 652.152344 C 586.890625 651.375 585.519531 650.597656 584.148438 649.824219 C 583.753906 651.4375 583.359375 653.054688 582.964844 654.671875 Z M 574.589844 667.859375 C 573.71875 667.835938 572.839844 668.089844 571.96875 668.234375 C 572.339844 668.789062 572.710938 669.34375 573.085938 669.902344 C 573.929688 669.546875 574.773438 669.191406 575.613281 668.839844 C 575.273438 668.492188 574.9375 667.871094 574.589844 667.859375 Z M 571.101562 662.707031 C 571.382812 663.03125 571.664062 663.359375 571.949219 663.683594 C 572.273438 663.402344 572.832031 663.136719 572.859375 662.832031 C 572.882812 662.53125 572.363281 662.1875 572.082031 661.863281 C 571.753906 662.144531 571.429688 662.425781 571.101562 662.707031 Z M 565.152344 662.703125 C 565.132812 663.007812 565.648438 663.351562 565.929688 663.675781 C 566.253906 663.394531 566.582031 663.113281 566.90625 662.832031 C 566.625 662.507812 566.363281 661.945312 566.054688 661.921875 C 565.753906 661.898438 565.171875 662.402344 565.152344 662.703125 Z M 528.863281 647.628906 C 529.152344 647.953125 529.441406 648.28125 529.730469 648.605469 C 530.070312 648.332031 530.410156 648.054688 530.746094 647.78125 C 530.457031 647.453125 530.1875 646.894531 529.871094 646.871094 C 529.558594 646.84375 529.199219 647.355469 528.863281 647.628906 Z M 522.835938 650.46875 C 522.835938 651 522.832031 651.53125 522.832031 652.0625 C 523.367188 651.703125 523.902344 651.339844 524.4375 650.980469 C 523.902344 650.808594 523.371094 650.640625 522.835938 650.46875 Z M 516.984375 643.253906 C 516.957031 644.230469 516.933594 645.207031 516.910156 646.1875 C 519.296875 645.257812 519.308594 644.28125 516.984375 643.253906 Z M 510.945312 545.488281 C 511.230469 545.816406 511.492188 546.375 511.800781 546.398438 C 512.101562 546.425781 512.445312 545.902344 512.769531 545.621094 C 512.488281 545.296875 512.207031 544.96875 511.925781 544.644531 C 511.601562 544.925781 511.273438 545.207031 510.945312 545.488281 Z M 508.632812 634.746094 C 508.917969 634.378906 509.371094 634.03125 509.433594 633.628906 C 509.492188 633.226562 509.152344 632.769531 508.980469 632.332031 C 508.863281 633.136719 508.75 633.941406 508.632812 634.746094 Z M 574.101562 253.945312 C 574.382812 254.269531 574.648438 254.828125 574.953125 254.855469 C 575.253906 254.878906 575.601562 254.359375 575.925781 254.078125 C 575.644531 253.75 575.363281 253.425781 575.082031 253.097656 C 574.753906 253.378906 574.429688 253.664062 574.101562 253.945312 Z M 566.417969 268.527344 C 565.890625 269.128906 565.367188 269.730469 564.839844 270.332031 C 565.625 270.324219 566.414062 270.3125 567.199219 270.300781 C 566.9375 269.710938 566.679688 269.117188 566.417969 268.527344 Z M 522.886719 250.230469 C 522.933594 250.332031 522.976562 250.441406 523.039062 250.535156 C 523.179688 250.742188 523.546875 250.792969 523.8125 250.914062 C 523.503906 250.6875 523.195312 250.457031 522.886719 250.230469 Z M 519.976562 259.953125 C 520.257812 260.277344 520.542969 260.605469 520.824219 260.929688 C 521.148438 260.648438 521.476562 260.367188 521.804688 260.085938 C 521.519531 259.757812 521.238281 259.433594 520.957031 259.109375 C 520.628906 259.390625 520.304688 259.671875 519.976562 259.953125 Z M 510.945312 250.9375 C 511.230469 251.261719 511.492188 251.824219 511.800781 251.847656 C 512.101562 251.871094 512.445312 251.351562 512.769531 251.070312 C 512.488281 250.746094 512.207031 250.417969 511.925781 250.09375 C 511.601562 250.375 511.273438 250.65625 510.945312 250.9375 Z M 503.527344 262.195312 C 503.238281 262.128906 502.816406 262.683594 502.453125 262.953125 C 502.773438 263.273438 503.128906 263.890625 503.40625 263.855469 C 504.257812 263.753906 505.074219 263.402344 505.90625 263.140625 C 505.117188 262.808594 504.347656 262.375 503.527344 262.195312 Z M 489.894531 256.949219 C 490.179688 257.273438 490.441406 257.835938 490.75 257.859375 C 491.050781 257.882812 491.394531 257.363281 491.71875 257.082031 C 491.4375 256.753906 491.15625 256.429688 490.875 256.101562 C 490.550781 256.382812 490.222656 256.667969 489.894531 256.949219 Z M 441.851562 440.285156 C 441.828125 440.589844 442.347656 440.933594 442.628906 441.261719 C 442.957031 440.976562 443.28125 440.695312 443.609375 440.414062 C 443.324219 440.085938 443.042969 439.761719 442.757812 439.433594 C 442.433594 439.714844 441.871094 439.984375 441.851562 440.285156 Z M 417.792969 359.140625 C 417.769531 359.4375 418.265625 360.011719 418.566406 360.035156 C 418.867188 360.054688 419.207031 359.546875 419.527344 359.269531 C 419.25 358.945312 418.972656 358.621094 418.695312 358.300781 C 418.371094 358.578125 417.820312 358.835938 417.792969 359.140625 Z M 418.210938 448.875 C 417.949219 449.472656 417.691406 450.074219 417.429688 450.675781 C 418.203125 450.679688 418.972656 450.6875 419.746094 450.691406 C 419.234375 450.085938 418.722656 449.480469 418.210938 448.875 Z M 415.128906 452.929688 C 415.742188 453.171875 416.355469 453.410156 416.96875 453.652344 C 416.957031 452.871094 416.945312 452.089844 416.933594 451.308594 C 416.332031 451.847656 415.730469 452.390625 415.128906 452.929688 Z M 411.703125 356.125 C 411.984375 356.449219 412.269531 356.777344 412.550781 357.101562 C 412.878906 356.820312 413.203125 356.539062 413.53125 356.257812 C 413.25 355.929688 412.984375 355.371094 412.675781 355.347656 C 412.375 355.324219 412.03125 355.84375 411.703125 356.125 Z M 408.691406 347.117188 C 408.976562 347.441406 409.238281 348.003906 409.546875 348.027344 C 409.847656 348.050781 410.195312 347.53125 410.519531 347.25 C 410.238281 346.921875 409.972656 346.359375 409.667969 346.339844 C 409.363281 346.316406 409.019531 346.835938 408.691406 347.117188 Z M 393.496094 324.84375 C 393.492188 325.394531 393.488281 325.945312 393.488281 326.496094 C 394.035156 326.316406 394.582031 326.140625 395.128906 325.960938 C 394.585938 325.589844 394.039062 325.21875 393.496094 324.84375 Z M 384.703125 284 C 384.679688 284.300781 385.183594 284.882812 385.484375 284.902344 C 385.789062 284.925781 386.132812 284.40625 386.457031 284.125 C 386.175781 283.800781 385.894531 283.472656 385.613281 283.148438 C 385.289062 283.429688 384.726562 283.695312 384.703125 284 Z M 363.753906 287.320312 C 363.738281 287.652344 364.292969 288.011719 364.601562 288.355469 C 364.9375 288.042969 365.277344 287.726562 365.613281 287.414062 C 365.308594 287.066406 365.003906 286.722656 364.699219 286.375 C 364.359375 286.691406 363.769531 286.992188 363.753906 287.320312 Z M 347.578125 198.921875 C 346.894531 199.589844 346.207031 200.261719 345.523438 200.929688 C 346.539062 200.777344 347.558594 200.625 348.574219 200.476562 C 348.242188 199.957031 347.910156 199.441406 347.578125 198.921875 Z M 336.3125 220.542969 C 339.921875 220.101562 343.53125 219.65625 347.144531 219.21875 C 348.589844 219.046875 350.078125 219.039062 351.464844 218.648438 C 351.96875 218.507812 352.226562 217.484375 352.960938 216.25 C 350.953125 215.070312 347.117188 213.550781 347.261719 212.785156 C 348.414062 206.722656 346.503906 204.972656 342.082031 209.34375 C 339.238281 212.148438 338.171875 216.75 336.3125 220.542969 Z M 270.359375 452.3125 C 270.644531 452.636719 270.925781 452.964844 271.207031 453.289062 C 271.535156 453.007812 272.09375 452.746094 272.117188 452.4375 C 272.144531 452.136719 271.621094 451.792969 271.339844 451.464844 C 271.015625 451.75 270.6875 452.03125 270.359375 452.3125 Z M 245.171875 304.085938 C 242.511719 304.914062 239.847656 305.742188 237.183594 306.570312 C 240.292969 307.058594 243.503906 307.847656 245.171875 304.085938 Z M 241.167969 433.335938 C 240.839844 433.3125 240.480469 433.871094 240.132812 434.175781 C 240.4375 434.519531 240.746094 434.863281 241.050781 435.207031 C 241.398438 434.902344 241.746094 434.597656 242.09375 434.292969 C 241.785156 433.953125 241.496094 433.355469 241.167969 433.335938 Z M 221.53125 329.175781 C 224.820312 334.707031 228.652344 335.761719 232.265625 331.09375 C 234.402344 328.332031 235.285156 324.597656 236.730469 321.304688 C 236.625 321.410156 236.519531 321.519531 236.410156 321.625 C 236.363281 316.636719 244.972656 311.742188 236.863281 306.671875 C 236.828125 306.679688 236.792969 306.691406 236.757812 306.703125 C 235.347656 306.289062 233.929688 305.5 232.523438 305.519531 C 221.8125 305.667969 211.335938 304.972656 202.097656 298.613281 C 202.046875 298.578125 201.191406 299.710938 200.609375 300.453125 C 192.496094 305.769531 192.566406 305.976562 198.609375 310.15625 C 206.800781 315.824219 216.171875 320.171875 221.53125 329.175781 Z M 203.007812 431.402344 C 202.726562 431.074219 202.445312 430.75 202.164062 430.421875 C 201.835938 430.707031 201.277344 430.96875 201.25 431.273438 C 201.226562 431.574219 201.730469 432.160156 202.035156 432.179688 C 202.339844 432.199219 202.683594 431.683594 203.007812 431.402344 Z M 202.027344 448.515625 C 201.710938 448.5 201.367188 449.015625 201.035156 449.296875 C 201.335938 449.613281 201.621094 450.160156 201.9375 450.179688 C 202.253906 450.195312 202.597656 449.679688 202.929688 449.398438 C 202.628906 449.082031 202.34375 448.53125 202.027344 448.515625 Z M 192.242188 434.28125 C 192.21875 434.585938 192.738281 434.929688 193.019531 435.257812 C 193.34375 434.972656 193.90625 434.710938 193.929688 434.402344 C 193.953125 434.101562 193.433594 433.753906 193.152344 433.429688 C 192.824219 433.710938 192.261719 433.976562 192.242188 434.28125 Z M 195.949219 596.523438 C 194.28125 595.535156 192.617188 594.546875 190.804688 593.46875 C 190.25 593.832031 189.628906 594.242188 189.007812 594.648438 C 190.242188 595.765625 191.328125 597.214844 192.777344 597.859375 C 193.492188 598.179688 194.871094 597.015625 195.949219 596.523438 Z M 193.011719 569.78125 C 193.476562 567.613281 194.34375 565.433594 194.273438 563.28125 C 194.222656 561.824219 192.859375 560.410156 191.386719 557.675781 C 189.25 561.632812 187.941406 564.050781 186.636719 566.46875 C 188.761719 567.574219 190.886719 568.679688 193.011719 569.78125 Z M 196.421875 533.929688 C 194.464844 532.082031 192.480469 530.261719 190.558594 528.378906 C 189.695312 527.535156 188.914062 526.609375 188.113281 525.710938 C 185.503906 529.726562 186.394531 532.949219 190.824219 534.597656 C 192.390625 535.179688 194.539062 534.195312 196.421875 533.929688 Z M 202.949219 596.707031 C 202.976562 596.40625 202.453125 596.0625 202.171875 595.738281 C 201.847656 596.019531 201.519531 596.300781 201.195312 596.582031 C 201.476562 596.90625 201.757812 597.234375 202.039062 597.558594 C 202.367188 597.277344 202.925781 597.015625 202.949219 596.707031 Z M 211.964844 579.335938 C 211.429688 577.628906 209.550781 576.347656 208.238281 574.886719 C 206.84375 576.75 205.453125 578.617188 204.0625 580.484375 C 205.453125 581.515625 206.84375 582.546875 209.265625 584.34375 C 210.566406 582.074219 212.292969 580.382812 211.964844 579.335938 Z M 206.585938 552.363281 C 207.605469 549.410156 208.5625 546.898438 209.234375 544.316406 C 209.300781 544.0625 207.644531 543.363281 206.785156 542.871094 C 205.847656 545.40625 204.859375 547.925781 204.058594 550.503906 C 203.988281 550.722656 205.144531 551.324219 206.585938 552.363281 Z M 215.035156 587.699219 C 214.753906 587.371094 214.472656 587.042969 214.191406 586.714844 C 213.863281 587 213.304688 587.265625 213.28125 587.570312 C 213.253906 587.875 213.777344 588.21875 214.058594 588.542969 C 214.382812 588.261719 214.710938 587.980469 215.035156 587.699219 Z M 221.785156 537.40625 C 226.121094 536.585938 227.890625 533.550781 227.449219 529.269531 C 225.636719 529.175781 223.824219 529.082031 222.007812 528.984375 C 220.03125 528.878906 218.050781 528.777344 216.070312 528.671875 C 216.84375 530.359375 217.449219 532.15625 218.441406 533.707031 C 219.355469 535.144531 220.917969 537.570312 221.785156 537.40625 Z M 230.617188 570.722656 C 230.527344 565.082031 227.90625 561.890625 221.882812 562.480469 C 220.898438 562.578125 220.0625 564.152344 219.15625 565.042969 C 222.160156 566.984375 225.109375 569.011719 228.203125 570.792969 C 228.796875 571.136719 229.75 570.855469 230.617188 570.722656 Z M 237.617188 555.457031 C 237.261719 553.882812 236.90625 552.304688 236.554688 550.726562 C 236.054688 552.230469 235.554688 553.734375 235.058594 555.238281 C 235.910156 555.3125 236.765625 555.386719 237.617188 555.457031 Z M 238.128906 516.40625 C 238.453125 516.125 239.015625 515.863281 239.039062 515.554688 C 239.0625 515.253906 238.542969 514.910156 238.261719 514.585938 C 237.933594 514.867188 237.609375 515.148438 237.285156 515.429688 C 237.566406 515.757812 237.847656 516.082031 238.128906 516.40625 Z M 270.773438 472.480469 C 271.585938 472.253906 272.136719 471.09375 272.8125 470.371094 C 275.089844 467.933594 274.734375 466.707031 271.304688 465.886719 C 269.644531 465.488281 268.25 463.992188 266.765625 462.867188 C 266.746094 462.886719 266.730469 462.910156 266.714844 462.933594 C 263.738281 460.214844 262.265625 456.242188 256.320312 456.742188 C 254.011719 456.9375 251.742188 448.730469 248.265625 445.722656 C 241.355469 439.742188 235.191406 441.726562 230.789062 449.957031 C 227.800781 455.546875 224.289062 460.855469 221.011719 466.289062 L 221.359375 466.050781 L 221.953125 466.386719 L 221.019531 466.289062 C 219.550781 467.363281 217.691406 468.25 217.011719 469.695312 C 216.21875 471.386719 221.46875 473.929688 215.320312 475.953125 C 213.027344 476.710938 206.699219 481.375 207.816406 488.621094 C 208.976562 496.152344 204.453125 502.304688 198.539062 507.414062 C 193.121094 512.097656 188.246094 517.523438 188.167969 525.453125 C 193.515625 527.53125 197.246094 524.710938 200.886719 521.167969 C 206.449219 515.742188 211.285156 508.449219 217.992188 505.523438 C 237.339844 497.085938 249.984375 478.304688 270.773438 472.480469 Z M 271.335938 484.53125 C 271.007812 484.8125 270.683594 485.097656 270.355469 485.378906 C 270.640625 485.703125 270.902344 486.261719 271.210938 486.289062 C 271.511719 486.3125 271.855469 485.792969 272.179688 485.511719 C 271.898438 485.183594 271.617188 484.859375 271.335938 484.53125 Z M 255.074219 499.261719 C 253.972656 499.773438 252.910156 500.65625 252.234375 501.65625 C 251.976562 502.039062 252.820312 503.171875 253.164062 503.964844 C 254.292969 503.109375 255.546875 502.375 256.5 501.355469 C 256.996094 500.824219 257.148438 499.972656 257.382812 499.195312 C 256.566406 499.121094 255.714844 498.960938 255.074219 499.261719 Z M 259.503906 545.136719 L 258.53125 545.507812 L 259.40625 546.078125 Z M 263.511719 526.390625 C 260.003906 527.3125 256.472656 528.171875 253.003906 529.226562 C 251.988281 529.53125 251.160156 530.457031 250.246094 531.097656 C 251.203125 532.148438 252.238281 534.15625 253.105469 534.085938 C 258.136719 533.691406 263.644531 533.476562 263.511719 526.390625 Z M 272.503906 552.8125 C 272.371094 552.214844 272.238281 551.617188 272.105469 551.019531 C 271.597656 551.347656 271.089844 551.675781 270.582031 552.003906 C 271.222656 552.273438 271.863281 552.542969 272.503906 552.8125 Z M 277.378906 513.035156 C 276.9375 512.671875 275.875 511.34375 275.46875 511.519531 C 272.867188 512.660156 270.40625 514.128906 267.898438 515.492188 C 269.929688 517.4375 271.957031 519.386719 273.988281 521.332031 C 274.972656 518.921875 275.957031 516.507812 277.378906 513.035156 Z M 294.824219 499.582031 C 294.832031 498.476562 295.601562 497.375 296.195312 496.273438 C 292.226562 497.277344 288.246094 498.234375 284.316406 499.375 C 283.535156 499.601562 282.335938 500.84375 282.464844 501.285156 C 282.816406 502.5 283.570312 504.253906 284.527344 504.519531 C 289.222656 505.84375 294.765625 508.382812 294.824219 499.582031 Z M 283.429688 461.792969 L 283.539062 461.058594 L 282.753906 461.316406 Z M 287.214844 437.421875 C 286.933594 437.09375 286.652344 436.769531 286.371094 436.441406 C 286.042969 436.726562 285.71875 437.007812 285.390625 437.289062 C 285.675781 437.617188 285.957031 437.941406 286.242188 438.269531 C 286.566406 437.984375 286.890625 437.703125 287.214844 437.421875 Z M 286.367188 466.566406 C 286.0625 466.542969 285.71875 467.0625 285.394531 467.34375 C 285.675781 467.667969 285.941406 468.226562 286.246094 468.253906 C 286.546875 468.277344 286.890625 467.757812 287.21875 467.476562 C 286.9375 467.148438 286.671875 466.585938 286.367188 466.566406 Z M 296.886719 495.507812 C 298.777344 494.667969 300.664062 493.832031 302.554688 492.996094 C 299.5625 491.363281 296.488281 489.546875 296.886719 495.507812 Z M 305.179688 488.902344 C 305.222656 488.820312 304.5 488.3125 304.132812 488.003906 C 303.765625 489.296875 303.355469 490.582031 303.050781 491.890625 C 303.015625 492.046875 303.035156 492.21875 303.046875 492.386719 C 303.773438 491.234375 304.515625 490.089844 305.179688 488.902344 Z M 305.222656 516.726562 C 305 515.808594 303.453125 515.210938 302.488281 514.476562 C 301.761719 515.457031 300.539062 516.398438 300.445312 517.4375 C 300.339844 518.609375 301.253906 519.875 302.25 522.464844 C 304.246094 518.792969 305.429688 517.589844 305.222656 516.726562 Z M 310.304688 495.367188 C 310.632812 495.085938 311.191406 494.824219 311.214844 494.515625 C 311.242188 494.214844 310.71875 493.871094 310.4375 493.546875 C 310.113281 493.828125 309.546875 494.09375 309.527344 494.394531 C 309.503906 494.699219 310.023438 495.042969 310.304688 495.367188 Z M 323.464844 502 C 320.96875 500.980469 318.273438 499.195312 316.183594 499.734375 C 313.917969 500.320312 312.199219 503.519531 310.601562 505.820312 C 310.222656 506.363281 311.226562 508.792969 311.679688 508.816406 C 313.207031 508.902344 315.050781 508.699219 316.277344 507.871094 C 318.832031 506.152344 321.09375 503.996094 323.464844 502 Z M 319.320312 471.253906 C 319.628906 471.273438 319.96875 470.757812 320.296875 470.476562 C 320.015625 470.148438 319.734375 469.824219 319.449219 469.496094 C 319.125 469.777344 318.566406 470.042969 318.539062 470.347656 C 318.515625 470.648438 319.019531 471.230469 319.320312 471.253906 Z M 332.265625 494.515625 C 332.292969 494.214844 331.769531 493.871094 331.488281 493.546875 C 331.164062 493.828125 330.839844 494.109375 330.511719 494.390625 C 330.792969 494.714844 331.074219 495.042969 331.355469 495.367188 C 331.683594 495.085938 332.242188 494.824219 332.265625 494.515625 Z M 334.6875 485.757812 C 334.144531 485.273438 333.601562 484.792969 333.058594 484.308594 C 332.382812 484.742188 331.707031 485.179688 331.027344 485.613281 C 331.390625 485.933594 331.785156 486.546875 332.105469 486.511719 C 332.984375 486.40625 333.828125 486.027344 334.6875 485.757812 Z M 340.375 447.207031 C 340.679688 447.226562 341.023438 446.710938 341.347656 446.429688 C 341.066406 446.105469 340.785156 445.777344 340.503906 445.453125 C 340.175781 445.734375 339.617188 445.996094 339.59375 446.304688 C 339.566406 446.605469 340.070312 447.1875 340.375 447.207031 Z M 353.617188 504.878906 C 353.105469 504.324219 352.53125 503.253906 352.085938 503.304688 C 349.757812 503.558594 346.957031 503.449219 345.292969 504.726562 C 343.746094 505.917969 343.199219 508.40625 342.3125 510.457031 C 344.792969 509.703125 347.335938 509.097656 349.691406 508.054688 C 351.175781 507.394531 352.320312 505.964844 353.617188 504.878906 Z M 365.410156 518.570312 C 365.128906 518.246094 364.847656 517.921875 364.566406 517.59375 C 364.238281 517.875 363.910156 518.15625 363.585938 518.4375 C 363.867188 518.765625 364.132812 519.324219 364.4375 519.347656 C 364.738281 519.375 365.082031 518.851562 365.410156 518.570312 Z M 374.558594 477.832031 C 374.597656 477.292969 373.761719 476.6875 373.273438 476.0625 C 372.953125 477.015625 372.5625 477.851562 372.441406 478.722656 C 372.398438 479.046875 372.992188 479.460938 373.296875 479.832031 C 373.75 479.167969 374.503906 478.527344 374.558594 477.832031 Z M 377.492188 518.585938 C 377.207031 518.269531 376.921875 517.949219 376.636719 517.632812 C 376.308594 517.910156 375.984375 518.1875 375.660156 518.464844 C 375.945312 518.785156 376.214844 519.335938 376.523438 519.355469 C 376.828125 519.375 377.167969 518.863281 377.492188 518.585938 Z M 376.460938 513.332031 C 376.769531 513.351562 377.109375 512.835938 377.4375 512.554688 C 377.15625 512.226562 376.871094 511.902344 376.589844 511.574219 C 376.265625 511.859375 375.707031 512.121094 375.679688 512.429688 C 375.65625 512.726562 376.160156 513.3125 376.460938 513.332031 Z M 382.933594 536.3125 C 381.96875 535.988281 381.125 535.585938 380.242188 535.460938 C 379.914062 535.414062 379.496094 536.023438 379.121094 536.335938 C 379.796875 536.796875 380.449219 537.5625 381.164062 537.625 C 381.695312 537.671875 382.308594 536.8125 382.933594 536.3125 Z M 379.476562 507.324219 C 379.777344 507.351562 380.121094 506.832031 380.445312 506.550781 C 380.164062 506.222656 379.882812 505.898438 379.601562 505.570312 C 379.277344 505.851562 378.949219 506.132812 378.621094 506.417969 C 378.90625 506.742188 379.167969 507.300781 379.476562 507.324219 Z M 389.46875 464.472656 C 389.1875 464.144531 388.90625 463.820312 388.625 463.492188 C 388.296875 463.773438 387.96875 464.058594 387.644531 464.339844 C 387.925781 464.664062 388.191406 465.222656 388.496094 465.25 C 388.796875 465.273438 389.144531 464.753906 389.46875 464.472656 Z M 405.253906 377.5625 C 406.664062 376.066406 407.796875 373.03125 407.269531 371.210938 C 404.800781 362.707031 401.757812 354.371094 398.898438 345.984375 C 398.710938 346.550781 398.519531 347.121094 398.332031 347.691406 C 398.441406 346.886719 398.546875 346.078125 398.652344 345.273438 L 399.03125 345.585938 C 397.113281 341.152344 394.84375 336.828125 393.429688 332.238281 C 392.734375 329.984375 393.316406 327.335938 393.460938 324.820312 C 393.34375 324.742188 393.226562 324.660156 393.109375 324.582031 C 388.824219 314.164062 382.351562 304.789062 382.167969 292.570312 C 382.070312 286.203125 377.164062 284.695312 373.449219 288.792969 C 369.210938 293.46875 364.492188 294.472656 358.863281 293.757812 C 357.914062 293.636719 357.0625 292.746094 356.167969 292.210938 C 360.195312 288.5625 354.746094 289.019531 354.082031 287.402344 C 352.566406 288.574219 351.140625 289.898438 349.507812 290.882812 C 347.070312 292.351562 344.5 293.605469 341.980469 294.941406 C 342 295.785156 341.914062 296.617188 341.714844 297.4375 C 337.605469 299.808594 334.582031 297.285156 331.367188 295.136719 C 330.148438 294.320312 327.789062 293.25 327.207031 293.753906 C 323.238281 297.179688 319.101562 295.648438 314.925781 294.757812 C 314.898438 294.757812 314.867188 294.757812 314.839844 294.757812 C 313.683594 296.234375 312.527344 297.707031 311.371094 299.183594 C 311.476562 297.71875 311.585938 296.253906 311.691406 294.792969 C 297.183594 296.550781 295.761719 308.65625 292.988281 319.265625 C 290.765625 327.769531 287.644531 335.632812 282.050781 342.417969 C 282.070312 342.425781 282.089844 342.433594 282.113281 342.441406 C 280.289062 347.042969 278.335938 351.597656 276.667969 356.25 C 271.964844 369.386719 272.15625 370.367188 282.746094 378.898438 C 294.78125 388.59375 306.96875 398.101562 319.125 407.644531 C 325.71875 412.820312 332.253906 418.078125 339.066406 422.949219 C 342.285156 425.253906 345.296875 427.269531 348.316406 421.214844 C 350.527344 416.777344 355.570312 413.429688 359.933594 410.449219 C 369.585938 403.855469 380.648438 399.382812 389.148438 391.046875 C 389.648438 390.554688 389.742188 389.644531 390.023438 388.929688 C 397.859375 395.625 394.757812 386.917969 396.222656 384.644531 C 396.054688 384.429688 395.890625 384.210938 395.71875 384.003906 C 396.007812 384.09375 396.296875 384.183594 396.585938 384.273438 L 396.242188 384.667969 C 399.289062 382.339844 402.65625 380.3125 405.253906 377.5625 Z M 407.027344 545.921875 C 407.371094 544.550781 408.003906 543.167969 407.960938 541.808594 C 407.933594 540.847656 406.992188 539.910156 406.207031 538.511719 C 404.617188 540.332031 403.683594 541.402344 402.75 542.476562 C 404.175781 543.625 405.601562 544.773438 407.027344 545.921875 Z M 416.535156 533.597656 C 416.253906 533.273438 415.988281 532.710938 415.683594 532.6875 C 415.378906 532.667969 415.039062 533.183594 414.710938 533.46875 C 414.992188 533.792969 415.257812 534.351562 415.5625 534.375 C 415.863281 534.402344 416.210938 533.878906 416.535156 533.597656 Z M 416.539062 521.566406 C 416.257812 521.242188 415.992188 520.683594 415.6875 520.65625 C 415.386719 520.632812 414.804688 521.136719 414.78125 521.4375 C 414.761719 521.746094 415.277344 522.085938 415.558594 522.414062 C 415.886719 522.128906 416.214844 521.847656 416.539062 521.566406 Z M 422.957031 565.683594 C 422.160156 566.378906 421.367188 567.078125 420.574219 567.773438 C 421.332031 567.789062 422.089844 567.808594 422.847656 567.824219 C 422.882812 567.109375 422.917969 566.398438 422.957031 565.683594 Z M 424.582031 569.523438 C 424.265625 569.289062 423.949219 569.054688 423.632812 568.820312 C 423.683594 568.929688 423.726562 569.042969 423.792969 569.144531 C 423.9375 569.351562 424.3125 569.402344 424.582031 569.523438 Z M 425.335938 527.265625 C 424.242188 526.21875 423.222656 525.179688 422.085938 524.300781 C 422 524.230469 420.507812 525.628906 420.585938 525.746094 C 421.269531 526.789062 422.054688 527.84375 423.054688 528.546875 C 423.335938 528.746094 424.425781 527.800781 425.335938 527.265625 Z M 442.949219 545.113281 C 441.929688 544.878906 441.0625 544.679688 440.195312 544.480469 C 440.167969 545.144531 440.046875 545.828125 440.171875 546.460938 C 440.199219 546.613281 441.164062 546.816406 441.472656 546.628906 C 442.035156 546.289062 442.429688 545.671875 442.949219 545.113281 Z M 461.117188 600.335938 C 460.546875 599.78125 459.972656 599.222656 459.398438 598.667969 C 459.34375 599.347656 459.285156 600.023438 459.226562 600.703125 C 459.855469 600.578125 460.488281 600.457031 461.117188 600.335938 Z M 467.601562 593.703125 C 467.625 593.402344 467.105469 593.058594 466.820312 592.730469 C 466.496094 593.011719 466.167969 593.296875 465.84375 593.578125 C 466.125 593.902344 466.40625 594.230469 466.6875 594.554688 C 467.015625 594.273438 467.574219 594.007812 467.601562 593.703125 Z M 473.871094 516.867188 C 472.988281 514.914062 472.105469 512.960938 471.222656 511.007812 C 471.230469 510.988281 471.242188 510.964844 471.253906 510.945312 C 459.3125 497.332031 456.085938 479.277344 447.597656 463.894531 C 447.25 463.265625 448.96875 461.492188 450.023438 460.089844 C 449.996094 460.078125 449.96875 460.066406 449.9375 460.050781 C 450.113281 457.210938 450.289062 454.371094 450.460938 451.53125 C 443.515625 453.5625 440.339844 446.988281 435.210938 444.867188 C 435.132812 444.832031 435.050781 444.792969 434.96875 444.757812 C 433.058594 445.621094 431.144531 446.480469 429.234375 447.339844 C 428.792969 443.324219 426.480469 443.710938 423.957031 445.890625 C 422.464844 447.175781 421.46875 449.035156 420.300781 450.695312 C 420.328125 450.695312 420.351562 450.695312 420.378906 450.695312 C 420.296875 450.773438 420.21875 450.851562 420.140625 450.933594 C 420.109375 450.972656 420.085938 451.015625 420.054688 451.054688 C 420.050781 451.050781 420.042969 451.042969 420.035156 451.035156 C 419.121094 451.949219 418.203125 452.863281 417.285156 453.777344 C 417.289062 453.777344 417.289062 453.777344 417.292969 453.78125 C 417.121094 454.8125 416.949219 455.847656 416.777344 456.878906 C 414.1875 457.890625 411.277344 458.492188 409.167969 460.125 C 406.640625 462.082031 401.042969 461.0625 401.757812 465.980469 C 402.285156 469.601562 401.128906 474.027344 407.449219 475.957031 C 413.1875 477.707031 417.371094 484.566406 423.109375 486.285156 C 429.890625 488.316406 433.84375 493.019531 437.941406 497.417969 C 445.929688 505.996094 455.894531 511.730469 465.40625 518.074219 C 467.171875 519.253906 470.886719 517.511719 473.871094 516.867188 Z M 461.335938 485.484375 C 461.367188 485.195312 460.941406 484.851562 460.707031 484.53125 C 460.644531 485.117188 460.585938 485.703125 460.527344 486.289062 C 460.816406 486.023438 461.300781 485.78125 461.335938 485.484375 Z M 467.140625 488.878906 L 466.800781 487.824219 L 466.214844 488.761719 Z M 482.457031 621 C 481.949219 620.785156 481.445312 620.574219 480.9375 620.359375 C 480.894531 620.894531 480.851562 621.429688 480.804688 621.964844 C 481.355469 621.644531 481.90625 621.320312 482.457031 621 Z M 482.65625 515.652344 C 482.378906 515.316406 482.101562 514.976562 481.824219 514.640625 C 481.496094 514.929688 480.933594 515.203125 480.910156 515.515625 C 480.886719 515.828125 481.398438 516.183594 481.675781 516.523438 C 482.003906 516.230469 482.328125 515.941406 482.65625 515.652344 Z M 491.75 627.40625 C 491.664062 627.332031 491.589844 627.234375 491.496094 627.167969 C 491.324219 627.050781 491 627.148438 490.746094 627.152344 C 491.082031 627.238281 491.414062 627.320312 491.75 627.40625 Z M 500.394531 401.355469 L 499.703125 400.878906 L 499.597656 401.621094 Z M 527.34375 305.542969 C 527.578125 304.96875 527.8125 304.394531 528.046875 303.820312 C 527.34375 303.824219 526.644531 303.828125 525.941406 303.828125 C 526.410156 304.402344 526.875 304.972656 527.34375 305.542969 Z M 528.605469 303.140625 C 529.253906 302.765625 529.902344 302.390625 530.550781 302.015625 C 529.898438 301.65625 529.25 301.300781 528.597656 300.941406 C 528.601562 301.675781 528.601562 302.40625 528.605469 303.140625 Z M 530.824219 371.292969 C 530.542969 370.96875 530.261719 370.640625 529.976562 370.316406 C 529.652344 370.597656 529.324219 370.878906 529 371.160156 C 529.28125 371.488281 529.5625 371.8125 529.847656 372.140625 C 530.171875 371.855469 530.496094 371.574219 530.824219 371.292969 Z M 536.769531 368.28125 C 536.792969 367.980469 536.273438 367.636719 535.992188 367.308594 C 535.664062 367.59375 535.101562 367.855469 535.082031 368.160156 C 535.058594 368.464844 535.578125 368.808594 535.859375 369.132812 C 536.183594 368.851562 536.746094 368.585938 536.769531 368.28125 Z M 545.851562 359.265625 C 545.566406 358.9375 545.285156 358.613281 545.003906 358.285156 C 544.679688 358.566406 544.117188 358.832031 544.09375 359.140625 C 544.070312 359.441406 544.589844 359.785156 544.871094 360.109375 C 545.199219 359.828125 545.523438 359.546875 545.851562 359.265625 Z M 554.945312 356.292969 C 554.65625 355.964844 554.382812 355.402344 554.070312 355.378906 C 553.757812 355.359375 553.40625 355.875 553.070312 356.15625 C 553.359375 356.484375 553.636719 357.046875 553.945312 357.070312 C 554.261719 357.09375 554.613281 356.574219 554.945312 356.292969 Z M 570.335938 276.5 C 570.339844 276.5 570.347656 276.5 570.351562 276.496094 C 569.441406 275.582031 568.53125 274.667969 567.617188 273.75 C 567.617188 273.75 567.617188 273.753906 567.617188 273.753906 C 566.589844 272.726562 565.566406 271.703125 564.539062 270.679688 C 564.535156 270.683594 564.53125 270.6875 564.527344 270.691406 C 557.683594 270.449219 550.839844 270.253906 544.007812 269.851562 C 543.652344 269.828125 543.367188 268.648438 543.070312 267.734375 C 541.179688 269.730469 539.292969 271.730469 537.40625 273.726562 C 536.585938 271.734375 535.769531 269.742188 534.953125 267.75 C 533.828125 268.75 532.699219 269.746094 531.574219 270.746094 C 530.519531 270.632812 529.464844 270.523438 528.410156 270.414062 L 528.746094 270.773438 C 528.371094 271.03125 527.996094 271.285156 527.621094 271.542969 C 527.820312 271.257812 528.019531 270.972656 528.222656 270.6875 C 524.363281 270.113281 520.445312 268.972656 516.6875 269.363281 C 513.0625 269.742188 510.300781 273.582031 505.636719 269.976562 C 504.101562 268.789062 499.136719 272.035156 495.53125 273.515625 C 495.582031 273.644531 495.628906 273.773438 495.679688 273.902344 C 495.480469 273.835938 495.285156 273.773438 495.085938 273.707031 L 495.460938 273.328125 C 494.507812 273.144531 493.210938 273.292969 492.664062 272.71875 C 490.613281 270.582031 488.714844 266.28125 486.929688 266.367188 C 483.964844 266.503906 480.421875 268.824219 478.40625 271.277344 C 475.203125 275.1875 472.082031 275.203125 468.183594 273.191406 C 467.257812 272.179688 466.132812 270.628906 465.648438 270.808594 C 460.898438 272.570312 458.285156 278.546875 452.121094 277.667969 C 453.632812 281.636719 455.308594 285.554688 456.597656 289.59375 C 457.464844 292.296875 457.488281 295.273438 458.390625 297.960938 C 461.929688 308.472656 465.207031 319.117188 469.660156 329.238281 C 470.714844 331.628906 478.707031 333.664062 478.867188 333.367188 C 482.921875 325.839844 492.703125 327.015625 497.179688 321.707031 C 504.960938 312.480469 515.472656 308.472656 525.546875 303.347656 C 525.558594 303.363281 525.570312 303.378906 525.582031 303.394531 C 526.460938 302.503906 527.335938 301.617188 528.214844 300.730469 C 528.195312 300.722656 528.175781 300.710938 528.15625 300.699219 C 528.21875 300.667969 528.28125 300.632812 528.339844 300.601562 C 528.425781 300.515625 528.511719 300.429688 528.597656 300.34375 C 528.597656 300.386719 528.597656 300.429688 528.597656 300.46875 C 532.503906 298.445312 536.410156 296.417969 540.316406 294.394531 C 541.390625 294.402344 542.464844 294.414062 543.535156 294.421875 C 547.199219 291.617188 550.722656 288.589844 554.566406 286.054688 C 559.691406 282.671875 565.066406 279.667969 570.335938 276.5 Z M 577.960938 271.058594 C 575.761719 269.167969 573.394531 265.140625 570.667969 270.574219 C 569.675781 270.589844 568.6875 270.605469 567.695312 270.621094 C 567.671875 271.554688 567.648438 272.484375 567.625 273.417969 C 568.636719 273.410156 569.648438 273.40625 570.65625 273.398438 C 570.675781 274.398438 570.695312 275.398438 570.710938 276.398438 C 572.382812 275.929688 574.195312 275.675781 575.5625 274.753906 C 576.738281 273.960938 578.140625 271.214844 577.960938 271.058594 Z M 584.886719 338.226562 C 584.910156 337.925781 584.390625 337.578125 584.109375 337.253906 C 583.785156 337.535156 583.21875 337.800781 583.199219 338.101562 C 583.175781 338.410156 583.695312 338.75 583.976562 339.078125 C 584.300781 338.792969 584.863281 338.53125 584.886719 338.226562 Z M 621.035156 323.207031 C 620.753906 322.878906 620.472656 322.554688 620.191406 322.230469 C 619.863281 322.511719 619.539062 322.792969 619.210938 323.074219 C 619.496094 323.398438 619.757812 323.957031 620.066406 323.984375 C 620.367188 324.007812 620.710938 323.488281 621.035156 323.207031 Z M 636.082031 308.164062 C 635.792969 307.835938 635.5 307.511719 635.210938 307.183594 C 634.875 307.460938 634.542969 307.742188 634.207031 308.023438 C 634.496094 308.347656 634.765625 308.914062 635.078125 308.9375 C 635.390625 308.960938 635.746094 308.445312 636.082031 308.164062 Z M 644.664062 318.441406 C 644.796875 318.46875 644.945312 318.441406 645.085938 318.429688 C 643.933594 317.707031 642.785156 316.976562 641.597656 316.320312 C 641.519531 316.277344 641.011719 317.015625 640.703125 317.390625 C 642.023438 317.746094 643.332031 318.148438 644.664062 318.441406 Z M 657.125 299.160156 C 656.84375 298.835938 656.5625 298.507812 656.28125 298.183594 C 655.953125 298.464844 655.628906 298.746094 655.300781 299.027344 C 655.582031 299.355469 655.847656 299.914062 656.152344 299.9375 C 656.453125 299.960938 656.800781 299.441406 657.125 299.160156 Z M 660.0625 308.113281 C 659.765625 307.773438 659.46875 307.433594 659.171875 307.09375 C 658.816406 307.371094 658.464844 307.648438 658.109375 307.925781 C 658.40625 308.265625 658.679688 308.847656 659.003906 308.878906 C 659.328125 308.910156 659.707031 308.390625 660.0625 308.113281 Z M 690.265625 293.152344 C 689.96875 292.828125 689.675781 292.503906 689.378906 292.175781 C 689.046875 292.460938 688.710938 292.746094 688.375 293.027344 C 688.671875 293.355469 688.949219 293.917969 689.265625 293.9375 C 689.578125 293.960938 689.929688 293.4375 690.265625 293.152344 Z M 702.238281 281.125 C 701.957031 280.796875 701.675781 280.472656 701.394531 280.144531 C 701.066406 280.425781 700.503906 280.691406 700.480469 280.996094 C 700.457031 281.300781 700.976562 281.644531 701.261719 281.96875 C 701.585938 281.6875 701.910156 281.40625 702.238281 281.125 Z M 717.210938 257.074219 C 717.234375 256.773438 716.714844 256.425781 716.433594 256.101562 C 716.109375 256.382812 715.78125 256.664062 715.457031 256.945312 C 715.738281 257.273438 716.019531 257.597656 716.300781 257.925781 C 716.625 257.640625 717.1875 257.378906 717.210938 257.074219 Z M 726.261719 244.980469 C 726.28125 244.664062 725.757812 244.320312 725.46875 243.988281 C 725.148438 244.28125 724.582031 244.5625 724.566406 244.878906 C 724.546875 245.191406 725.070312 245.539062 725.359375 245.871094 C 725.683594 245.574219 726.246094 245.292969 726.261719 244.980469 Z M 693.746094 297.449219 C 693.695312 297.558594 693.640625 297.652344 693.585938 297.773438 C 693.757812 297.773438 693.929688 297.773438 694.101562 297.773438 C 694.039062 297.632812 693.976562 297.53125 693.914062 297.382812 C 693.859375 297.40625 693.800781 297.425781 693.746094 297.449219 Z M 699.625 297.78125 C 697.785156 297.777344 695.941406 297.777344 694.101562 297.773438 C 695.910156 301.824219 697.753906 301.761719 699.625 297.78125 Z M 551.484375 676.714844 C 551.6875 675.636719 551.890625 674.558594 552.097656 673.480469 C 551.335938 673.480469 550.574219 673.480469 549.8125 673.480469 C 550.367188 674.558594 550.925781 675.636719 551.484375 676.714844 Z M 552.097656 673.480469 C 552.292969 673.480469 552.488281 673.480469 552.683594 673.480469 C 552.675781 673.453125 552.664062 673.429688 552.652344 673.40625 C 552.5 673.261719 552.335938 673.125 552.191406 672.976562 C 552.160156 673.144531 552.128906 673.3125 552.097656 673.480469 Z M 77.429688 703.480469 C 77.429688 703.382812 77.425781 703.285156 77.425781 703.1875 C 77.386719 703.207031 77.351562 703.230469 77.3125 703.253906 C 77.238281 703.328125 77.164062 703.402344 77.085938 703.476562 C 77.199219 703.476562 77.316406 703.476562 77.429688 703.480469 Z M 77.464844 706 C 79.128906 705.171875 80.792969 704.34375 82.457031 703.515625 C 80.78125 703.503906 79.105469 703.492188 77.429688 703.480469 C 77.441406 704.320312 77.453125 705.160156 77.464844 706 Z M 77.472656 706.574219 C 77.46875 706.382812 77.46875 706.191406 77.464844 706 C 77.339844 706.0625 77.21875 706.121094 77.09375 706.183594 C 77.09375 706.183594 77.472656 706.574219 77.472656 706.574219 Z M 82.457031 703.515625 C 82.8125 703.519531 83.167969 703.519531 83.523438 703.523438 C 83.523438 703.523438 83.449219 703.4375 83.375 703.347656 L 83.523438 703.523438 C 83.488281 703.433594 83.453125 703.367188 83.417969 703.28125 C 83.34375 703.234375 83.273438 703.191406 83.203125 703.144531 C 82.953125 703.269531 82.703125 703.390625 82.457031 703.515625 Z M 116.207031 339.902344 C 116.5625 339.890625 116.914062 339.878906 117.269531 339.871094 C 117.039062 339.746094 116.804688 339.625 116.574219 339.5 C 116.570312 339.503906 116.207031 339.902344 116.207031 339.902344 Z M 326.796875 108.113281 C 326.769531 106.253906 326.742188 104.390625 326.714844 102.527344 C 322.644531 104.289062 322.722656 106.152344 326.796875 108.113281 Z M 143.015625 362.328125 C 142.71875 361.996094 142.4375 361.429688 142.113281 361.402344 C 141.792969 361.375 141.421875 361.886719 141.074219 362.164062 C 141.371094 362.492188 141.648438 363.058594 141.972656 363.085938 C 142.296875 363.113281 142.667969 362.601562 143.015625 362.328125 Z M 157.929688 377.289062 C 157.949219 376.957031 157.371094 376.585938 157.054688 376.230469 C 156.699219 376.546875 156.078125 376.847656 156.058594 377.183594 C 156.042969 377.519531 156.621094 377.890625 156.9375 378.246094 C 157.292969 377.929688 157.90625 377.628906 157.929688 377.289062 Z M 525.683594 382.027344 C 525.660156 381.863281 525.636719 381.703125 525.613281 381.542969 C 525.59375 381.558594 525.574219 381.574219 525.554688 381.589844 C 525.46875 381.671875 525.378906 381.738281 525.292969 381.820312 C 525.421875 381.890625 525.550781 381.957031 525.683594 382.027344 Z M 527.527344 383 C 526.910156 382.675781 526.296875 382.351562 525.679688 382.027344 C 525.769531 382.652344 525.855469 383.28125 525.945312 383.90625 C 526.472656 383.605469 527 383.300781 527.527344 383 Z M 177.554688 448.609375 C 178.160156 449.195312 178.761719 449.78125 179.367188 450.367188 C 179.371094 449.644531 179.371094 448.921875 179.375 448.199219 C 178.765625 448.335938 178.160156 448.472656 177.554688 448.609375 Z M 522.050781 450.683594 C 521.226562 449.925781 520.398438 449.167969 519.574219 448.410156 C 519.546875 449.191406 519.523438 449.96875 519.496094 450.746094 C 520.347656 450.726562 521.199219 450.703125 522.050781 450.683594 Z M 519.574219 448.410156 C 519.582031 448.152344 519.589844 447.894531 519.597656 447.636719 C 519.453125 447.707031 519.308594 447.777344 519.164062 447.847656 C 519.164062 447.910156 519.164062 447.972656 519.164062 448.035156 C 519.300781 448.160156 519.4375 448.285156 519.574219 448.410156 Z M 522.285156 450.894531 C 522.386719 450.9375 522.464844 450.976562 522.558594 451.015625 C 522.5625 450.898438 522.5625 450.785156 522.566406 450.667969 C 522.394531 450.671875 522.222656 450.675781 522.050781 450.683594 C 522.128906 450.753906 522.207031 450.824219 522.285156 450.894531 Z M 522.558594 451.015625 C 522.539062 451.9375 522.519531 452.859375 522.5 453.78125 C 525.175781 452.878906 524.839844 451.957031 522.558594 451.015625 Z M 161.691406 465.867188 L 162.085938 465.117188 L 161.257812 465.472656 C 161.257812 466.753906 161.253906 468.03125 161.253906 469.308594 C 161.382812 469.296875 161.507812 469.285156 161.636719 469.269531 C 161.640625 469.164062 161.644531 469.058594 161.652344 468.953125 C 161.664062 467.925781 161.679688 466.894531 161.691406 465.867188 Z M 287.621094 195.191406 C 287.621094 195.441406 287.621094 195.691406 287.617188 195.941406 C 287.746094 195.808594 287.875 195.675781 288.007812 195.546875 C 288.007812 195.546875 287.621094 195.191406 287.621094 195.191406 Z M 285.390625 198.191406 C 285.128906 198.195312 284.863281 198.195312 284.597656 198.195312 C 284.675781 198.425781 284.75 198.65625 284.828125 198.890625 C 284.875 198.796875 284.929688 198.707031 284.976562 198.613281 C 285.113281 198.472656 285.253906 198.332031 285.390625 198.191406 Z M 287.617188 195.941406 C 286.875 196.691406 286.132812 197.441406 285.390625 198.191406 C 286.128906 198.191406 286.863281 198.1875 287.597656 198.1875 C 287.605469 197.4375 287.609375 196.6875 287.617188 195.941406 Z M 287.597656 198.1875 C 287.597656 198.328125 287.597656 198.464844 287.597656 198.605469 C 287.667969 198.585938 287.742188 198.5625 287.8125 198.542969 C 287.882812 198.421875 287.949219 198.304688 288.015625 198.1875 C 287.878906 198.1875 287.738281 198.1875 287.597656 198.1875 Z M 481.109375 197.277344 C 481.703125 197.578125 482.296875 197.878906 482.886719 198.175781 C 482.777344 197.582031 482.667969 196.984375 482.558594 196.390625 C 482.074219 196.6875 481.589844 196.980469 481.109375 197.277344 Z M 347.800781 522.773438 C 347.800781 522.964844 347.796875 523.15625 347.796875 523.351562 C 347.929688 523.230469 348.0625 523.113281 348.167969 523 C 348.167969 522.996094 347.800781 522.773438 347.800781 522.773438 Z M 347.28125 524.035156 C 347.367188 524.460938 347.570312 524.863281 347.789062 525.261719 C 347.792969 524.625 347.796875 523.988281 347.796875 523.351562 C 347.519531 523.601562 347.246094 523.847656 347.28125 524.035156 Z M 347.789062 525.261719 C 347.789062 525.589844 347.785156 525.917969 347.785156 526.246094 C 348.078125 526.242188 348.371094 526.238281 348.667969 526.234375 C 348.507812 526.15625 348.347656 526.078125 348.1875 526 C 348.0625 525.75 347.925781 525.507812 347.789062 525.261719 Z M 63.179688 250.5 C 63.816406 251.019531 64.453125 251.539062 65.089844 252.054688 C 65.089844 251.296875 65.089844 250.535156 65.089844 249.777344 C 64.453125 250.019531 63.816406 250.261719 63.179688 250.5 Z M 65.089844 252.054688 C 65.089844 252.277344 65.089844 252.503906 65.089844 252.726562 C 65.195312 252.664062 65.300781 252.601562 65.40625 252.542969 C 65.429688 252.484375 65.453125 252.425781 65.472656 252.367188 C 65.34375 252.265625 65.21875 252.160156 65.089844 252.054688 Z M 285.421875 548.582031 C 285.394531 548.902344 285.90625 549.265625 286.179688 549.613281 C 286.511719 549.320312 287.078125 549.050781 287.105469 548.734375 C 287.132812 548.414062 286.625 548.050781 286.347656 547.703125 C 286.019531 547.996094 285.449219 548.265625 285.421875 548.582031 Z M 391.296875 557.976562 L 392.222656 557.648438 L 391.402344 557.105469 Z M 114.46875 560.910156 L 115.304688 561.042969 L 115.027344 560.082031 Z M 244.546875 573.414062 C 243.988281 572.816406 243.429688 572.222656 242.871094 571.625 C 242.859375 572.34375 242.851562 573.058594 242.84375 573.777344 C 243.410156 573.65625 243.976562 573.535156 244.546875 573.414062 Z M 116.21875 574.613281 C 115.464844 575.371094 114.710938 576.125 113.957031 576.882812 C 114.714844 576.902344 115.476562 576.921875 116.234375 576.941406 C 116.230469 576.164062 116.222656 575.390625 116.21875 574.613281 Z M 197.953125 607.535156 C 197.878906 607.339844 197.800781 607.140625 197.722656 606.945312 C 197.707031 606.960938 197.683594 606.972656 197.664062 606.988281 C 197.554688 607.109375 197.445312 607.226562 197.34375 607.328125 C 197.546875 607.398438 197.75 607.46875 197.953125 607.535156 Z M 199.613281 608.105469 C 199.0625 607.914062 198.507812 607.726562 197.953125 607.535156 C 198.167969 608.078125 198.378906 608.625 198.589844 609.167969 C 198.933594 608.8125 199.273438 608.457031 199.613281 608.105469 Z M 160.734375 641.46875 C 160.03125 640.980469 159.328125 640.488281 158.628906 640 C 158.5 640.125 158.371094 640.25 158.246094 640.375 C 158.246094 640.378906 158.242188 640.378906 158.242188 640.382812 C 159.074219 640.746094 159.90625 641.105469 160.734375 641.46875 Z M 567.195312 679.507812 C 567.375 679.511719 567.550781 679.511719 567.726562 679.515625 C 567.660156 679.34375 567.589844 679.167969 567.523438 678.996094 C 567.484375 679.011719 567.441406 679.023438 567.398438 679.039062 C 567.332031 679.21875 567.265625 679.355469 567.195312 679.507812 Z M 567.195312 679.507812 C 566.371094 679.5 565.542969 679.488281 564.71875 679.476562 C 565.550781 681.410156 566.378906 681.371094 567.195312 679.507812 Z M 35.761719 689.765625 C 35.742188 690.101562 36.320312 690.476562 36.640625 690.832031 C 36.996094 690.515625 37.351562 690.199219 37.707031 689.878906 C 37.390625 689.523438 37.074219 689.167969 36.757812 688.808594 C 36.398438 689.128906 35.78125 689.429688 35.761719 689.765625 Z M 41.007812 697.066406 C 41.015625 696.230469 41.023438 695.394531 41.03125 694.558594 C 39.144531 695.394531 39.257812 696.230469 41.007812 697.066406 Z M 41.007812 697.066406 C 41.003906 697.242188 41.003906 697.417969 41 697.59375 C 41.164062 697.515625 41.332031 697.433594 41.496094 697.351562 C 41.484375 697.324219 41.46875 697.304688 41.457031 697.277344 C 41.289062 697.207031 41.152344 697.136719 41.007812 697.066406 Z M 81.859375 709.921875 C 81.527344 709.902344 80.890625 710.46875 80.871094 710.800781 C 80.855469 711.140625 81.433594 711.507812 81.75 711.863281 C 82.105469 711.546875 82.460938 711.230469 82.816406 710.914062 C 82.5 710.558594 82.199219 709.945312 81.859375 709.921875 Z M 93 710.027344 C 92.976562 710.011719 92.957031 710 92.9375 709.984375 C 92.941406 709.996094 92.949219 710.007812 92.953125 710.019531 C 92.957031 710.027344 92.984375 710.023438 93 710.027344 Z M 92.9375 709.984375 C 92.773438 709.65625 92.609375 709.328125 92.449219 709 C 92.34375 708.933594 92.242188 708.867188 92.136719 708.800781 C 92.117188 708.992188 92.097656 709.179688 92.078125 709.371094 C 92.363281 709.574219 92.648438 709.777344 92.9375 709.984375 Z M 81.914062 717.59375 L 82.503906 716.699219 L 81.46875 716.621094 Z M 721.355469 276.859375 C 721.601562 275.972656 721.851562 275.085938 722.097656 274.195312 C 721.738281 274.964844 721.378906 275.730469 721.023438 276.496094 C 719.929688 276.484375 718.839844 276.46875 717.746094 276.453125 C 717.609375 276.476562 717.46875 276.496094 717.328125 276.515625 C 717.34375 276.628906 717.363281 276.742188 717.378906 276.855469 C 718.703125 276.855469 720.03125 276.859375 721.355469 276.859375 Z M 626.597656 331.761719 C 625.980469 331.308594 625.359375 330.855469 624.742188 330.402344 C 624.664062 330.457031 624.589844 330.511719 624.511719 330.5625 C 624.460938 330.636719 624.410156 330.71875 624.355469 330.789062 C 625.105469 331.113281 625.851562 331.4375 626.597656 331.761719 Z M 605.617188 334.609375 C 605.066406 334.421875 604.515625 334.234375 603.964844 334.046875 C 604.160156 334.597656 604.351562 335.144531 604.546875 335.691406 C 604.902344 335.332031 605.257812 334.96875 605.617188 334.609375 Z M 116.207031 339.902344 C 116.207031 339.902344 116.570312 339.503906 116.574219 339.503906 C 116.34375 339.503906 116.109375 339.507812 115.878906 339.507812 C 115.988281 339.640625 116.097656 339.769531 116.207031 339.902344 Z M 113.835938 339.527344 C 114.515625 339.523438 115.199219 339.515625 115.878906 339.507812 C 115.351562 338.875 114.820312 338.238281 114.292969 337.605469 C 114.140625 338.246094 113.988281 338.886719 113.835938 339.527344 Z M 112.878906 340.035156 C 113.164062 339.984375 113.457031 339.953125 113.746094 339.90625 C 113.773438 339.78125 113.804688 339.652344 113.835938 339.527344 C 113.683594 339.53125 113.53125 339.53125 113.378906 339.53125 C 113.214844 339.699219 113.046875 339.867188 112.878906 340.035156 Z M 111.894531 341.019531 C 112.222656 340.691406 112.550781 340.363281 112.878906 340.035156 C 112.703125 340.066406 112.527344 340.097656 112.371094 340.171875 C 112.132812 340.285156 112.050781 340.726562 111.894531 341.019531 Z M 589.105469 346.429688 C 588.917969 346.113281 588.765625 345.765625 588.605469 345.429688 C 588.476562 345.417969 588.382812 345.417969 588.261719 345.410156 C 588.253906 345.542969 588.234375 345.660156 588.234375 345.800781 C 588.523438 346.011719 588.816406 346.21875 589.105469 346.429688 Z M 589.886719 346.992188 C 589.625 346.804688 589.367188 346.617188 589.105469 346.429688 C 589.140625 346.488281 589.160156 346.558594 589.199219 346.613281 C 589.335938 346.804688 589.652344 346.871094 589.886719 346.992188 Z M 394.574219 383.648438 C 394.957031 383.765625 395.335938 383.886719 395.71875 384.003906 C 395.601562 383.863281 395.488281 383.722656 395.351562 383.613281 C 395.203125 383.488281 394.839844 383.628906 394.574219 383.648438 Z M 342.382812 298.023438 L 341.945312 297.324219 C 341.867188 297.375 341.792969 297.390625 341.714844 297.4375 C 341.703125 297.484375 341.699219 297.535156 341.6875 297.582031 Z M 485.027344 272.605469 L 485.617188 271.714844 L 484.589844 271.628906 Z M 467.585938 274.242188 C 467.890625 274.003906 468.195312 273.761719 468.496094 273.523438 C 468.398438 273.425781 468.292969 273.308594 468.183594 273.191406 C 468.179688 273.191406 468.175781 273.1875 468.167969 273.1875 C 467.976562 273.539062 467.78125 273.890625 467.585938 274.242188 Z M 497.449219 274.496094 C 496.859375 274.296875 496.269531 274.101562 495.679688 273.902344 C 495.902344 274.480469 496.121094 275.0625 496.339844 275.640625 C 496.710938 275.257812 497.082031 274.875 497.449219 274.496094 Z M 428.886719 448.101562 C 429.03125 448.039062 429.1875 447.976562 429.308594 447.910156 C 429.296875 447.691406 429.257812 447.539062 429.234375 447.339844 C 429.113281 447.394531 428.992188 447.453125 428.867188 447.507812 C 428.867188 447.703125 428.878906 447.902344 428.886719 448.101562 Z M 427.03125 449.171875 C 427.007812 450.910156 427.433594 452.65625 427.695312 454.398438 C 428.082031 453.058594 428.558594 451.730469 428.820312 450.367188 C 428.957031 449.632812 428.910156 448.867188 428.886719 448.101562 C 428.074219 448.457031 427.035156 448.808594 427.03125 449.171875 Z M 417.648438 457.429688 L 417.007812 456.796875 C 416.933594 456.828125 416.855469 456.851562 416.777344 456.878906 C 416.777344 456.894531 416.773438 456.914062 416.769531 456.929688 Z M 202.425781 302.738281 C 201.882812 302.171875 201.34375 301.605469 200.804688 301.039062 C 200.753906 301.730469 200.707031 302.421875 200.65625 303.113281 C 201.246094 302.988281 201.835938 302.863281 202.425781 302.738281 Z M 200.804688 301.039062 C 200.824219 300.789062 200.839844 300.539062 200.859375 300.289062 C 200.769531 300.347656 200.695312 300.394531 200.609375 300.453125 C 200.554688 300.519531 200.492188 300.601562 200.445312 300.660156 C 200.5625 300.789062 200.683594 300.914062 200.804688 301.039062 Z M 199.613281 305.714844 C 199.949219 304.996094 200.289062 304.28125 200.625 303.5625 C 200.636719 303.414062 200.648438 303.261719 200.65625 303.113281 C 200.515625 303.140625 200.375 303.171875 200.230469 303.203125 C 200.027344 304.039062 199.820312 304.875 199.613281 305.714844 Z M 199.613281 305.714844 " fill-opacity="1" fill-rule="nonzero"/></g></svg>