<svg xmlns="http://www.w3.org/2000/svg" xmlns:xlink="http://www.w3.org/1999/xlink" width="1024" zoomAndPan="magnify" viewBox="0 0 768 767.999994" height="1024" preserveAspectRatio="xMidYMid meet" version="1.0"><defs><clipPath id="cfd5fb1f95"><path d="M 76.800781 76.800781 L 691.050781 76.800781 L 691.050781 691.050781 L 76.800781 691.050781 Z M 76.800781 76.800781 " clip-rule="nonzero"/></clipPath><clipPath id="46babb68d1"><path d="M 159.320312 268.800781 L 617 268.800781 L 617 499.199219 L 159.320312 499.199219 Z M 159.320312 268.800781 " clip-rule="nonzero"/></clipPath><clipPath id="7d50d38473"><path d="M 195.320312 268.800781 L 580.972656 268.800781 C 590.523438 268.800781 599.679688 272.59375 606.429688 279.34375 C 613.183594 286.09375 616.972656 295.253906 616.972656 304.800781 L 616.972656 463.199219 C 616.972656 483.082031 600.855469 499.199219 580.972656 499.199219 L 195.320312 499.199219 C 185.773438 499.199219 176.613281 495.40625 169.863281 488.65625 C 163.113281 481.90625 159.320312 472.746094 159.320312 463.199219 L 159.320312 304.800781 C 159.320312 284.917969 175.4375 268.800781 195.320312 268.800781 Z M 195.320312 268.800781 " clip-rule="nonzero"/></clipPath></defs><g clip-path="url(#cfd5fb1f95)"><path fill="#374151" d="M 575.992188 76.800781 L 192 76.800781 C 128.363281 76.800781 76.800781 128.363281 76.800781 192 L 76.800781 575.992188 C 76.800781 639.628906 128.363281 691.191406 192 691.191406 L 575.992188 691.191406 C 639.628906 691.191406 691.191406 639.628906 691.191406 575.992188 L 691.191406 192 C 691.191406 128.363281 639.628906 76.800781 575.992188 76.800781 Z M 276.902344 436.476562 C 287.132812 436.476562 297.71875 434.421875 304.527344 431.136719 C 305.992188 430.40625 307.976562 430.359375 309.582031 431.066406 C 311.144531 431.777344 312.324219 433.195312 312.796875 434.894531 L 316.648438 449.617188 C 317.359375 452.335938 316.035156 455.171875 313.53125 456.375 C 306.417969 459.96875 292.003906 463.820312 273.050781 463.820312 C 226.425781 463.820312 196.300781 433.003906 196.300781 385.367188 C 196.300781 337.539062 229.523438 304.125 277.089844 304.125 C 298.570312 304.125 310.671875 309.535156 313.859375 311.191406 C 316.363281 312.511719 317.59375 315.417969 316.789062 318.136719 L 312.324219 333.214844 C 311.828125 334.890625 310.597656 336.308594 308.992188 336.945312 C 307.644531 337.5625 305.566406 337.585938 304.007812 336.78125 C 296.964844 333.378906 287.605469 331.488281 277.730469 331.488281 C 246.394531 331.488281 227.679688 351.386719 227.679688 384.703125 C 227.703125 417.125 246.113281 436.476562 276.902344 436.476562 Z M 387.066406 463.84375 C 372.558594 463.84375 356.160156 459.660156 347.179688 453.703125 C 344.980469 452.214844 344.035156 449.523438 344.792969 447.066406 L 349.472656 431.5625 C 349.992188 429.792969 351.339844 428.347656 353.015625 427.710938 C 355.070312 427.027344 356.75 427.285156 358.261719 428.253906 C 366.839844 433.546875 378.085938 436.691406 388.296875 436.691406 C 403.371094 436.691406 412.375 429.742188 412.375 418.140625 C 412.375 409.042969 408.6875 402.6875 389.148438 395.125 C 360.742188 385.082031 347.484375 370.40625 347.484375 349 C 347.484375 322.578125 368.988281 304.148438 399.78125 304.148438 C 417.859375 304.148438 429.222656 309.039062 434.375 311.96875 C 436.832031 313.339844 437.96875 316.292969 437.070312 318.988281 L 431.964844 334.089844 C 431.398438 335.742188 430.121094 337.042969 428.515625 337.679688 C 426.90625 338.292969 425.019531 338.175781 423.527344 337.371094 C 418.449219 334.609375 410.128906 331.277344 399.140625 331.277344 C 383.546875 331.277344 378.015625 339.664062 378.015625 346.871094 C 378.015625 355.355469 381.726562 360.859375 402.734375 369.011719 C 431.042969 379.953125 443.09375 394.179688 443.09375 416.675781 C 443.191406 438.441406 428.492188 463.84375 387.066406 463.84375 Z M 515.546875 463.84375 C 501.035156 463.84375 484.636719 459.660156 475.65625 453.703125 C 473.460938 452.214844 472.515625 449.523438 473.269531 447.066406 L 477.949219 431.5625 C 478.46875 429.792969 479.816406 428.347656 481.496094 427.710938 C 483.597656 427.003906 485.273438 427.308594 486.742188 428.277344 C 495.316406 433.546875 506.542969 436.691406 516.773438 436.691406 C 531.875 436.691406 540.878906 429.742188 540.878906 418.140625 C 540.878906 409.042969 537.191406 402.6875 517.648438 395.125 C 489.269531 385.082031 475.988281 370.40625 475.988281 349 C 475.988281 322.578125 497.492188 304.148438 528.28125 304.148438 C 546.359375 304.148438 557.726562 309.039062 562.902344 311.96875 C 565.359375 313.339844 566.492188 316.292969 565.570312 318.988281 L 560.492188 334.089844 C 559.898438 335.742188 558.648438 337.042969 557.039062 337.679688 C 555.457031 338.316406 553.566406 338.222656 552.054688 337.371094 C 546.972656 334.609375 538.632812 331.277344 527.644531 331.277344 C 512.070312 331.277344 506.542969 339.664062 506.542969 346.871094 C 506.542969 355.355469 510.230469 360.859375 531.261719 369.011719 C 559.570312 379.953125 571.621094 394.179688 571.621094 416.675781 C 571.644531 438.441406 556.96875 463.84375 515.546875 463.84375 Z M 515.546875 463.84375 " fill-opacity="1" fill-rule="nonzero"/></g><g clip-path="url(#46babb68d1)"><g clip-path="url(#7d50d38473)"><path fill="#374151" d="M 159.320312 268.800781 L 617.417969 268.800781 L 617.417969 499.199219 L 159.320312 499.199219 Z M 159.320312 268.800781 " fill-opacity="1" fill-rule="nonzero"/></g></g><path fill="#f9fbf2" d="M 391.527344 531.222656 C 334.222656 531.222656 306.660156 503.777344 286.535156 483.734375 C 282.886719 479.183594 278.726562 475.164062 274.050781 471.675781 C 269.378906 468.1875 264.339844 465.34375 258.941406 463.144531 C 246.878906 460.1875 230.621094 459.988281 211.953125 484.394531 C 211.222656 485.351562 210.417969 486.238281 209.535156 487.058594 C 208.652344 487.875 207.707031 488.613281 206.699219 489.269531 C 205.691406 489.925781 204.632812 490.488281 203.527344 490.964844 C 202.421875 491.4375 201.285156 491.816406 200.113281 492.09375 C 198.945312 492.375 197.757812 492.550781 196.558594 492.625 C 195.355469 492.703125 194.160156 492.675781 192.964844 492.542969 C 191.765625 492.414062 190.589844 492.183594 189.433594 491.851562 C 188.277344 491.519531 187.15625 491.09375 186.074219 490.566406 C 184.992188 490.042969 183.960938 489.433594 182.984375 488.730469 C 182.003906 488.03125 181.09375 487.25 180.25 486.394531 C 179.40625 485.535156 178.640625 484.613281 177.957031 483.625 C 177.269531 482.636719 176.671875 481.597656 176.164062 480.507812 C 175.65625 479.414062 175.246094 478.289062 174.933594 477.128906 C 174.617188 475.964844 174.40625 474.785156 174.292969 473.589844 C 174.183594 472.390625 174.171875 471.191406 174.265625 469.992188 C 174.363281 468.792969 174.558594 467.609375 174.855469 466.445312 C 190.355469 405.628906 231.347656 373.484375 293.390625 373.484375 C 350.691406 373.484375 378.253906 400.929688 398.382812 420.972656 C 402.03125 425.523438 406.191406 429.542969 410.867188 433.03125 C 415.539062 436.519531 420.578125 439.363281 425.976562 441.5625 C 438.050781 444.507812 454.296875 444.71875 472.960938 420.3125 C 473.691406 419.355469 474.5 418.46875 475.382812 417.648438 C 476.261719 416.832031 477.207031 416.09375 478.21875 415.4375 C 479.226562 414.78125 480.28125 414.21875 481.386719 413.742188 C 482.496094 413.269531 483.632812 412.890625 484.800781 412.613281 C 485.972656 412.332031 487.160156 412.15625 488.359375 412.082031 C 489.558594 412.003906 490.757812 412.03125 491.953125 412.160156 C 493.152344 412.292969 494.328125 412.523438 495.484375 412.855469 C 496.640625 413.1875 497.757812 413.613281 498.84375 414.136719 C 499.925781 414.664062 500.957031 415.273438 501.933594 415.976562 C 502.910156 416.675781 503.824219 417.457031 504.667969 418.3125 C 505.511719 419.171875 506.277344 420.09375 506.960938 421.082031 C 507.648438 422.070312 508.246094 423.109375 508.753906 424.199219 C 509.257812 425.292969 509.671875 426.417969 509.984375 427.578125 C 510.296875 428.742188 510.511719 429.921875 510.625 431.117188 C 510.734375 432.316406 510.742188 433.515625 510.648438 434.714844 C 510.554688 435.914062 510.359375 437.097656 510.0625 438.261719 C 494.5625 499.078125 453.570312 531.222656 391.527344 531.222656 Z M 260.171875 420.59375 C 263.125 421.015625 266.054688 421.582031 268.953125 422.296875 C 273.535156 423.746094 277.996094 425.507812 282.328125 427.589844 C 286.664062 429.671875 290.828125 432.050781 294.820312 434.726562 C 298.816406 437.398438 302.601562 440.34375 306.179688 443.558594 C 309.753906 446.769531 313.085938 450.222656 316.167969 453.910156 C 334.402344 472.050781 351.597656 489.160156 391.527344 489.160156 C 402.890625 489.398438 413.964844 487.714844 424.746094 484.113281 C 421.792969 483.691406 418.863281 483.125 415.964844 482.410156 C 411.382812 480.960938 406.921875 479.199219 402.589844 477.117188 C 398.253906 475.035156 394.089844 472.65625 390.09375 469.980469 C 386.101562 467.308594 382.316406 464.363281 378.738281 461.148438 C 375.164062 457.933594 371.832031 454.484375 368.75 450.796875 C 350.515625 432.65625 333.320312 415.546875 293.390625 415.546875 C 282.027344 415.308594 270.953125 416.992188 260.171875 420.59375 Z M 475.65625 394.515625 C 418.351562 394.515625 390.769531 367.046875 370.632812 346.992188 C 366.988281 342.449219 362.832031 338.4375 358.164062 334.953125 C 353.492188 331.472656 348.460938 328.632812 343.070312 326.433594 C 331.007812 323.480469 314.75 323.28125 296.082031 347.6875 C 295.351562 348.644531 294.546875 349.53125 293.664062 350.347656 C 292.78125 351.167969 291.835938 351.902344 290.828125 352.558594 C 289.820312 353.214844 288.761719 353.78125 287.65625 354.253906 C 286.550781 354.730469 285.414062 355.105469 284.242188 355.386719 C 283.074219 355.664062 281.886719 355.84375 280.6875 355.917969 C 279.484375 355.992188 278.289062 355.964844 277.089844 355.835938 C 275.894531 355.707031 274.71875 355.476562 273.5625 355.144531 C 272.40625 354.8125 271.285156 354.382812 270.203125 353.859375 C 269.121094 353.335938 268.089844 352.722656 267.113281 352.023438 C 266.132812 351.320312 265.222656 350.542969 264.378906 349.683594 C 263.535156 348.828125 262.769531 347.90625 262.082031 346.917969 C 261.398438 345.929688 260.800781 344.886719 260.292969 343.796875 C 259.785156 342.707031 259.375 341.582031 259.0625 340.417969 C 258.746094 339.257812 258.535156 338.078125 258.421875 336.878906 C 258.3125 335.683594 258.300781 334.484375 258.394531 333.285156 C 258.488281 332.085938 258.683594 330.902344 258.980469 329.734375 C 274.484375 268.921875 315.472656 236.773438 377.519531 236.773438 C 434.820312 236.773438 462.382812 264.222656 482.511719 284.265625 C 486.160156 288.816406 490.320312 292.832031 494.996094 296.320312 C 499.667969 299.808594 504.707031 302.652344 510.105469 304.855469 C 522.179688 307.800781 538.425781 308.011719 557.089844 283.601562 C 557.820312 282.644531 558.628906 281.757812 559.507812 280.941406 C 560.390625 280.121094 561.335938 279.386719 562.34375 278.730469 C 563.355469 278.074219 564.410156 277.507812 565.515625 277.035156 C 566.621094 276.558594 567.761719 276.183594 568.929688 275.902344 C 570.101562 275.625 571.285156 275.449219 572.488281 275.371094 C 573.6875 275.296875 574.886719 275.324219 576.082031 275.453125 C 577.277344 275.582031 578.457031 275.8125 579.613281 276.144531 C 580.769531 276.476562 581.886719 276.90625 582.972656 277.429688 C 584.054688 277.953125 585.085938 278.566406 586.0625 279.265625 C 587.039062 279.96875 587.949219 280.746094 588.796875 281.605469 C 589.640625 282.460938 590.40625 283.382812 591.089844 284.371094 C 591.777344 285.359375 592.371094 286.402344 592.878906 287.492188 C 593.386719 288.582031 593.796875 289.707031 594.113281 290.871094 C 594.425781 292.03125 594.640625 293.210938 594.75 294.410156 C 594.863281 295.605469 594.871094 296.804688 594.777344 298.003906 C 594.683594 299.203125 594.488281 300.386719 594.191406 301.554688 C 578.691406 362.367188 537.699219 394.515625 475.65625 394.515625 Z M 344.300781 283.886719 C 347.253906 284.308594 350.179688 284.875 353.078125 285.589844 C 357.664062 287.035156 362.125 288.800781 366.457031 290.882812 C 370.792969 292.964844 374.957031 295.34375 378.949219 298.015625 C 382.945312 300.691406 386.730469 303.636719 390.304688 306.847656 C 393.882812 310.0625 397.210938 313.511719 400.296875 317.199219 C 417.722656 334.574219 435.726562 352.449219 475.65625 352.449219 C 487.019531 352.6875 498.09375 351.007812 508.875 347.402344 C 505.917969 346.984375 502.992188 346.414062 500.09375 345.699219 C 495.507812 344.253906 491.050781 342.488281 486.714844 340.40625 C 482.382812 338.324219 478.21875 335.949219 474.222656 333.273438 C 470.230469 330.597656 466.441406 327.652344 462.867188 324.441406 C 459.292969 321.226562 455.960938 317.777344 452.878906 314.089844 C 434.640625 295.949219 417.449219 278.839844 377.519531 278.839844 C 366.152344 278.601562 355.082031 280.28125 344.300781 283.886719 Z M 344.300781 283.886719 " fill-opacity="1" fill-rule="nonzero"/></svg>