<svg xmlns="http://www.w3.org/2000/svg" xmlns:xlink="http://www.w3.org/1999/xlink" width="1024" zoomAndPan="magnify" viewBox="0 0 768 767.999994" height="1024" preserveAspectRatio="xMidYMid meet" version="1.0"><defs><clipPath id="c06b2859dd"><path d="M 106 122 L 446 122 L 446 446 L 106 446 Z M 106 122 " clip-rule="nonzero"/></clipPath><clipPath id="778e9c297c"><path d="M -38.871094 385.789062 L 513.679688 -18.644531 L 806.929688 382.003906 L 254.375 786.4375 Z M -38.871094 385.789062 " clip-rule="nonzero"/></clipPath><clipPath id="f23223983e"><path d="M -38.871094 385.789062 L 513.679688 -18.644531 L 806.929688 382.003906 L 254.375 786.4375 Z M -38.871094 385.789062 " clip-rule="nonzero"/></clipPath><clipPath id="fad7cabfbc"><path d="M 291 438 L 626 438 L 626 649 L 291 649 Z M 291 438 " clip-rule="nonzero"/></clipPath><clipPath id="a61964adea"><path d="M -38.871094 385.789062 L 513.679688 -18.644531 L 806.929688 382.003906 L 254.375 786.4375 Z M -38.871094 385.789062 " clip-rule="nonzero"/></clipPath><clipPath id="8a9f3a4ae1"><path d="M -38.871094 385.789062 L 513.679688 -18.644531 L 806.929688 382.003906 L 254.375 786.4375 Z M -38.871094 385.789062 " clip-rule="nonzero"/></clipPath><clipPath id="0814f86820"><path d="M 372 428 L 493 428 L 493 533 L 372 533 Z M 372 428 " clip-rule="nonzero"/></clipPath><clipPath id="fb5b5d9364"><path d="M -38.871094 385.789062 L 513.679688 -18.644531 L 806.929688 382.003906 L 254.375 786.4375 Z M -38.871094 385.789062 " clip-rule="nonzero"/></clipPath><clipPath id="2adb029d30"><path d="M -38.871094 385.789062 L 513.679688 -18.644531 L 806.929688 382.003906 L 254.375 786.4375 Z M -38.871094 385.789062 " clip-rule="nonzero"/></clipPath><clipPath id="57c068b287"><path d="M 91 494 L 241 494 L 241 575 L 91 575 Z M 91 494 " clip-rule="nonzero"/></clipPath><clipPath id="da021d8b8e"><path d="M -38.871094 385.789062 L 513.679688 -18.644531 L 806.929688 382.003906 L 254.375 786.4375 Z M -38.871094 385.789062 " clip-rule="nonzero"/></clipPath><clipPath id="f3739af02f"><path d="M -38.871094 385.789062 L 513.679688 -18.644531 L 806.929688 382.003906 L 254.375 786.4375 Z M -38.871094 385.789062 " clip-rule="nonzero"/></clipPath><clipPath id="8172d75862"><path d="M 544 176 L 661 176 L 661 298 L 544 298 Z M 544 176 " clip-rule="nonzero"/></clipPath><clipPath id="2667885733"><path d="M -38.871094 385.789062 L 513.679688 -18.644531 L 806.929688 382.003906 L 254.375 786.4375 Z M -38.871094 385.789062 " clip-rule="nonzero"/></clipPath><clipPath id="57ac7b38d5"><path d="M -38.871094 385.789062 L 513.679688 -18.644531 L 806.929688 382.003906 L 254.375 786.4375 Z M -38.871094 385.789062 " clip-rule="nonzero"/></clipPath><clipPath id="e48dea178e"><path d="M 574 264 L 695 264 L 695 334 L 574 334 Z M 574 264 " clip-rule="nonzero"/></clipPath><clipPath id="33fe877258"><path d="M -38.871094 385.789062 L 513.679688 -18.644531 L 806.929688 382.003906 L 254.375 786.4375 Z M -38.871094 385.789062 " clip-rule="nonzero"/></clipPath><clipPath id="9502550816"><path d="M -38.871094 385.789062 L 513.679688 -18.644531 L 806.929688 382.003906 L 254.375 786.4375 Z M -38.871094 385.789062 " clip-rule="nonzero"/></clipPath><clipPath id="2c47902796"><path d="M 184 538 L 280 538 L 280 629 L 184 629 Z M 184 538 " clip-rule="nonzero"/></clipPath><clipPath id="74df9c1be3"><path d="M -38.871094 385.789062 L 513.679688 -18.644531 L 806.929688 382.003906 L 254.375 786.4375 Z M -38.871094 385.789062 " clip-rule="nonzero"/></clipPath><clipPath id="254f3e0875"><path d="M -38.871094 385.789062 L 513.679688 -18.644531 L 806.929688 382.003906 L 254.375 786.4375 Z M -38.871094 385.789062 " clip-rule="nonzero"/></clipPath><clipPath id="9ab8398553"><path d="M 410 310 L 466 310 L 466 365 L 410 365 Z M 410 310 " clip-rule="nonzero"/></clipPath><clipPath id="61e4b8608d"><path d="M -38.871094 385.789062 L 513.679688 -18.644531 L 806.929688 382.003906 L 254.375 786.4375 Z M -38.871094 385.789062 " clip-rule="nonzero"/></clipPath><clipPath id="4365c6fede"><path d="M -38.871094 385.789062 L 513.679688 -18.644531 L 806.929688 382.003906 L 254.375 786.4375 Z M -38.871094 385.789062 " clip-rule="nonzero"/></clipPath><clipPath id="dbee54568a"><path d="M 276 392 L 329 392 L 329 445 L 276 445 Z M 276 392 " clip-rule="nonzero"/></clipPath><clipPath id="dcefe8d007"><path d="M -38.871094 385.789062 L 513.679688 -18.644531 L 806.929688 382.003906 L 254.375 786.4375 Z M -38.871094 385.789062 " clip-rule="nonzero"/></clipPath><clipPath id="a3a86ab51d"><path d="M -38.871094 385.789062 L 513.679688 -18.644531 L 806.929688 382.003906 L 254.375 786.4375 Z M -38.871094 385.789062 " clip-rule="nonzero"/></clipPath></defs><g clip-path="url(#c06b2859dd)"><g clip-path="url(#778e9c297c)"><g clip-path="url(#f23223983e)"><path fill="#afcbff" d="M 352.316406 169.257812 C 351.828125 178.710938 350.875 188.230469 350.933594 197.632812 C 351.039062 209.984375 352.585938 222.222656 352.230469 234.59375 C 351.972656 243.292969 350.179688 252.25 347.875 260.835938 C 345.554688 269.550781 339.152344 274.945312 329.648438 275.351562 C 321.128906 275.707031 313.773438 278.621094 306.53125 283.726562 C 301.683594 287.117188 295.460938 288.417969 290.039062 291.132812 C 274.089844 299.121094 259.367188 308.683594 247.507812 322.421875 C 243.34375 327.230469 237.917969 331.4375 232.347656 334.652344 C 229.1875 336.492188 224.042969 337.125 220.796875 336.011719 C 200.007812 328.921875 177.125 327.28125 157.429688 317.351562 C 154.449219 315.847656 150.757812 315.570312 147.207031 314.683594 C 142.042969 320.109375 144.554688 325.089844 144.96875 330.160156 C 146.144531 344.941406 147.019531 359.746094 147.925781 374.53125 C 148.128906 377.59375 148.035156 380.679688 148.058594 383.761719 C 148.105469 396.898438 148.496094 410.019531 148.066406 423.195312 C 147.921875 427.496094 146.035156 431.9375 144.492188 436.203125 C 142.789062 440.894531 141.054688 445.96875 134.367188 445.882812 C 127.679688 445.800781 122.957031 442.828125 122.121094 436.382812 C 120.597656 424.71875 117.128906 412.636719 119.277344 401.21875 C 122.113281 386.128906 119.484375 372.097656 118.988281 357.757812 C 118.40625 342.074219 114.851562 326.71875 112.191406 311.300781 C 111.308594 306.183594 109.128906 301.386719 107.542969 296.433594 C 103.976562 285.402344 111.828125 275.613281 123.90625 276.261719 C 125.675781 276.378906 127.519531 276.753906 129.085938 277.449219 C 143.433594 283.765625 157.675781 290.316406 172.132812 296.515625 C 177.226562 298.707031 182.628906 300.515625 188.117188 301.75 C 194.175781 303.121094 200.835938 302.792969 206.609375 304.683594 C 213.570312 306.957031 218.460938 304.320312 224.25 300.394531 C 244.035156 287.089844 264.058594 274.121094 284.238281 261.464844 C 289.28125 258.285156 295.21875 256.488281 300.882812 254.421875 C 314.90625 249.371094 319.8125 242.953125 319.082031 229.101562 C 317.820312 205.367188 316.390625 181.714844 321.25 157.613281 C 322.449219 151.640625 320.382812 145.390625 320.367188 139.210938 C 320.28125 126.453125 326.894531 120.4375 339.46875 122.992188 C 345.28125 124.1875 350.726562 127.613281 355.457031 131.128906 C 374.183594 144.980469 392.402344 159.480469 411.101562 173.355469 C 419.0625 179.25 427.832031 184.160156 436.070312 189.738281 C 438.894531 191.667969 441.84375 193.820312 443.652344 196.613281 C 447.710938 202.855469 444.898438 209.617188 437.527344 212.9375 C 430.660156 216.039062 423.996094 216.410156 418.164062 212.25 C 402.765625 201.175781 387.5625 189.878906 372.1875 178.785156 C 366.773438 174.867188 361.125 171.277344 355.59375 167.523438 C 354.460938 168.117188 353.398438 168.703125 352.316406 169.257812 Z M 352.316406 169.257812 " fill-opacity="1" fill-rule="nonzero"/></g></g></g><g clip-path="url(#fad7cabfbc)"><g clip-path="url(#a61964adea)"><g clip-path="url(#8a9f3a4ae1)"><path fill="#afcbff" d="M 538.4375 576.199219 C 532.082031 581.597656 525.714844 587.039062 519.273438 592.382812 C 517.484375 593.847656 515.539062 595.3125 513.425781 596.230469 C 494.21875 604.371094 474.925781 612.296875 455.753906 620.488281 C 446.789062 624.304688 438.273438 629.597656 429.121094 632.414062 C 411.035156 637.96875 392.664062 642.59375 374.304688 646.859375 C 367.679688 648.414062 360.679688 648.441406 353.917969 648.253906 C 340.800781 647.898438 327.695312 647.296875 314.746094 645.992188 C 309.53125 645.457031 304.496094 643.183594 299.796875 640.941406 C 293.8125 638.066406 290.542969 630.816406 292.125 625.855469 C 293.683594 620.914062 300.394531 617.175781 308.167969 617.132812 C 310.886719 617.101562 313.652344 617.234375 316.257812 617.796875 C 338.101562 622.625 360.164062 621.492188 382.195312 614.148438 C 401.503906 607.699219 420.605469 600.425781 439.855469 593.625 C 465.421875 584.632812 487.746094 568.804688 511.578125 556.261719 C 521.019531 551.273438 529.28125 542.207031 535.855469 533.515625 C 551.246094 513.191406 565.597656 492.144531 579.6875 471.007812 C 583.429688 465.410156 584.878906 458.390625 587.070312 451.960938 C 591.042969 440.351562 595.332031 437.484375 607.550781 438.699219 C 619.140625 439.859375 626.824219 446.976562 625.523438 456.984375 C 624.332031 466.285156 621.5625 475.410156 613.816406 482.605469 C 611.167969 485.09375 608.550781 487.949219 606.824219 491.054688 C 600.839844 501.785156 595.945312 513.09375 589.339844 523.457031 C 576.105469 544.15625 559.074219 561.917969 538.4375 576.199219 Z M 538.4375 576.199219 " fill-opacity="1" fill-rule="nonzero"/></g></g></g><g clip-path="url(#0814f86820)"><g clip-path="url(#fb5b5d9364)"><g clip-path="url(#2adb029d30)"><path fill="#afcbff" d="M 444.214844 503.757812 C 440.359375 509.363281 436.734375 514.640625 433.109375 519.921875 C 427.761719 527.714844 420.683594 532.507812 411.160156 532.886719 C 404.78125 533.167969 398.417969 528.925781 396.671875 523.695312 C 394.78125 518.0625 398.523438 514.65625 402.300781 510.871094 C 405.859375 507.328125 409.863281 503.53125 411.808594 499.171875 C 416.964844 487.632812 410.628906 478.277344 398.394531 477.3125 C 392.648438 476.851562 386.703125 476.066406 381.5625 474.027344 C 373.136719 470.707031 370.90625 465.089844 372.6875 456.0625 C 375.132812 443.761719 390.78125 429.84375 403.261719 428.898438 C 414.414062 428.066406 423.304688 434.535156 424.574219 445.644531 C 426.042969 458.683594 432.539062 468.472656 442.5 475.921875 C 450.617188 481.976562 456.347656 480.484375 463.320312 472.011719 C 471.074219 462.574219 476.09375 461.132812 483.820312 466.222656 C 493.640625 472.675781 495.238281 478.71875 489.394531 488.40625 C 482.230469 500.316406 471.46875 505.800781 458.097656 505.746094 C 454.09375 505.738281 450.164062 504.65625 444.214844 503.757812 Z M 444.214844 503.757812 " fill-opacity="1" fill-rule="nonzero"/></g></g></g><g clip-path="url(#57c068b287)"><g clip-path="url(#da021d8b8e)"><g clip-path="url(#f3739af02f)"><path fill="#afcbff" d="M 230.957031 519.734375 C 218.726562 525.46875 206.523438 531.183594 194.316406 536.945312 C 169.042969 548.855469 143.753906 560.742188 118.476562 572.699219 C 108.996094 577.207031 101.605469 574.773438 95.492188 568.078125 C 90.1875 562.277344 90.839844 557.171875 98 552.597656 C 102.671875 549.609375 107.949219 547.550781 112.949219 545.066406 C 143.023438 530.070312 173.015625 514.863281 203.242188 500.1875 C 212.839844 495.515625 222.765625 491.347656 233.117188 497.566406 C 242.914062 503.453125 243.699219 509.347656 234.273438 516.875 C 233.1875 517.746094 231.90625 518.410156 230.730469 519.152344 C 230.789062 519.34375 230.894531 519.542969 230.957031 519.734375 Z M 230.957031 519.734375 " fill-opacity="1" fill-rule="nonzero"/></g></g></g><g clip-path="url(#8172d75862)"><g clip-path="url(#2667885733)"><g clip-path="url(#57ac7b38d5)"><path fill="#afcbff" d="M 567.132812 289.746094 C 564.121094 291.949219 561.339844 295.003906 558.015625 296.144531 C 554.433594 297.355469 549.109375 298.273438 546.839844 296.5625 C 544.707031 294.988281 544.140625 289.289062 545.410156 286.203125 C 547.796875 280.414062 551.277344 274.613281 555.539062 269.886719 C 573.328125 250.320312 591.675781 231.207031 609.644531 211.78125 C 618.503906 202.242188 627.101562 192.457031 635.65625 182.667969 C 640.0625 177.601562 645.042969 175.40625 651.511719 176.746094 C 657.125 177.933594 659.679688 181.746094 660.171875 186.757812 C 660.425781 189.511719 659.617188 192.964844 658.039062 195.414062 C 655.0625 200.023438 651.460938 204.421875 647.625 208.445312 C 629.613281 227.277344 611.5 246.019531 593.285156 264.683594 C 584.890625 273.296875 576.230469 281.714844 567.71875 290.21875 C 567.535156 290.078125 567.335938 289.914062 567.132812 289.746094 Z M 567.132812 289.746094 " fill-opacity="1" fill-rule="nonzero"/></g></g></g><g clip-path="url(#e48dea178e)"><g clip-path="url(#33fe877258)"><g clip-path="url(#9502550816)"><path fill="#afcbff" d="M 582.375 310.894531 C 606.367188 297.605469 630.269531 284.148438 654.417969 271.179688 C 660.070312 268.140625 666.507812 266.488281 672.703125 264.773438 C 680.128906 262.710938 692.835938 270.855469 694.125 278.027344 C 695.105469 283.386719 691.4375 289.089844 684.378906 291.121094 C 661.835938 297.542969 642.207031 309.988281 622.105469 321.839844 C 613.511719 326.917969 603.253906 329.132812 593.722656 332.5 C 592.019531 333.121094 590.082031 333.363281 588.328125 333.273438 C 582.828125 332.988281 577.191406 332.410156 575.453125 326.390625 C 573.578125 319.921875 577.105469 315.261719 582.375 310.894531 Z M 582.375 310.894531 " fill-opacity="1" fill-rule="nonzero"/></g></g></g><g clip-path="url(#2c47902796)"><g clip-path="url(#74df9c1be3)"><g clip-path="url(#254f3e0875)"><path fill="#afcbff" d="M 249.089844 540.917969 C 252.484375 540.199219 258.207031 538.167969 263.816406 538.0625 C 270.152344 537.933594 276.902344 539.496094 279.1875 545.941406 C 281.375 552.140625 276.292969 556.605469 272.046875 561.085938 C 253.429688 580.59375 235.035156 600.289062 216.320312 619.714844 C 213.191406 622.941406 209.117188 625.730469 204.996094 627.492188 C 198.503906 630.242188 190.769531 627.710938 187.019531 622.695312 C 183.363281 617.804688 183.78125 612.910156 189.878906 605.976562 C 207.398438 586.097656 225.234375 566.496094 242.972656 546.808594 C 244.230469 545.417969 245.660156 544.214844 249.089844 540.917969 Z M 249.089844 540.917969 " fill-opacity="1" fill-rule="nonzero"/></g></g></g><g clip-path="url(#9ab8398553)"><g clip-path="url(#61e4b8608d)"><g clip-path="url(#4365c6fede)"><path fill="#afcbff" d="M 459.398438 320.96875 C 460.707031 323.183594 462.214844 325.296875 463.308594 327.59375 C 469.429688 340.246094 464.574219 353.480469 451.46875 360.054688 C 434.757812 368.445312 421.636719 365.464844 414.191406 352.882812 C 408.824219 343.835938 410.691406 334.390625 412.5625 324.789062 C 413.101562 322.042969 415.472656 319.011719 417.761719 316.945312 C 429.074219 306.746094 451.886719 309.097656 459.398438 320.96875 Z M 459.398438 320.96875 " fill-opacity="1" fill-rule="nonzero"/></g></g></g><g clip-path="url(#dbee54568a)"><g clip-path="url(#dcefe8d007)"><g clip-path="url(#a3a86ab51d)"><path fill="#afcbff" d="M 323.550781 400.015625 C 332.039062 412.578125 329.476562 431.039062 318.230469 438.328125 C 304.421875 447.261719 288.210938 445.679688 280.886719 434.652344 C 272.738281 422.347656 276.335938 408.03125 289.902344 398.925781 C 303.507812 389.828125 316.957031 390.257812 323.550781 400.015625 Z M 323.550781 400.015625 " fill-opacity="1" fill-rule="nonzero"/></g></g></g></svg>