<svg xmlns="http://www.w3.org/2000/svg" xmlns:xlink="http://www.w3.org/1999/xlink" width="1024" zoomAndPan="magnify" viewBox="0 0 768 767.999994" height="1024" preserveAspectRatio="xMidYMid meet" version="1.0"><defs><clipPath id="20df1b68b8"><path d="M 13.195312 298.632812 L 695 298.632812 L 695 469.632812 L 13.195312 469.632812 Z M 13.195312 298.632812 " clip-rule="nonzero"/></clipPath><clipPath id="5aed812af9"><path d="M 752 348 L 754.945312 348 L 754.945312 351 L 752 351 Z M 752 348 " clip-rule="nonzero"/></clipPath></defs><path fill="#afcbff" d="M 546.21875 451.074219 C 546.199219 451.042969 546.167969 451.011719 546.167969 451.011719 C 546.199219 451.066406 546.21875 451.128906 546.25 451.179688 C 546.261719 451.160156 546.261719 451.148438 546.273438 451.128906 C 546.25 451.097656 546.242188 451.054688 546.230469 451.011719 C 546.210938 451.011719 546.199219 451.011719 546.175781 451.011719 C 546.167969 451.011719 546.199219 451.042969 546.21875 451.074219 Z M 546.21875 451.074219 " fill-opacity="1" fill-rule="nonzero"/><path fill="#afcbff" d="M 306.800781 415.945312 C 306.800781 415.957031 306.808594 415.957031 306.808594 415.964844 C 306.839844 415.925781 306.871094 415.894531 306.914062 415.851562 Z M 306.800781 415.945312 " fill-opacity="1" fill-rule="nonzero"/><path fill="#afcbff" d="M 317.429688 357.894531 C 317.429688 357.9375 317.429688 357.980469 317.417969 358.019531 C 317.460938 358.019531 317.492188 358.019531 317.53125 358.011719 Z M 317.429688 357.894531 " fill-opacity="1" fill-rule="nonzero"/><g clip-path="url(#20df1b68b8)"><path fill="#afcbff" d="M 692.878906 325.191406 C 691.601562 324.511719 690.261719 323.957031 688.902344 323.332031 C 689.195312 322.765625 689.46875 322.335938 689.644531 321.875 C 689.917969 321.15625 689.75 320.308594 689.257812 320.085938 C 687.625 319.355469 686.195312 318.101562 684.226562 318.195312 C 683.789062 318.214844 683.234375 318.027344 682.898438 317.746094 C 680.542969 315.746094 677.65625 314.878906 674.800781 314.03125 C 671.433594 313.035156 668.167969 311.875 665.15625 310.054688 C 664.320312 309.554688 663.417969 309.007812 662.46875 309.886719 C 660.488281 309.761719 658.523438 309.6875 656.640625 308.9375 C 654.964844 308.277344 653.742188 308.988281 652.914062 310.484375 C 653.082031 309.625 652.976562 308.832031 652.152344 307.992188 C 650.183594 308.128906 648.1875 306.957031 645.957031 307.367188 C 645.519531 307.449219 644.914062 307.28125 644.558594 307.011719 C 643.4375 306.152344 642.160156 305.902344 640.820312 305.714844 C 639.660156 305.554688 638.511719 305.390625 637.359375 305.179688 C 634.085938 304.574219 630.84375 303.800781 627.722656 302.597656 L 627.820312 302.722656 C 625.328125 302.511719 622.847656 302.292969 620.117188 302.0625 C 619.167969 301.519531 618.039062 300.785156 616.835938 300.230469 C 616.101562 299.886719 615.210938 299.574219 614.449219 299.667969 C 612.253906 299.929688 610.160156 299.804688 608.066406 298.996094 C 607.15625 298.652344 606.078125 298.859375 605.273438 299.65625 C 604.929688 300 604.386719 300.210938 604.144531 300.609375 C 603.546875 301.625 602.898438 301.339844 602.0625 300.964844 C 600.921875 300.453125 600.441406 300.554688 600.160156 301.625 C 599.761719 303.085938 598.933594 303.933594 597.53125 304.355469 C 596.894531 304.542969 596.277344 304.835938 595.640625 305.023438 C 594.050781 305.503906 592.511719 305.976562 591.121094 307.050781 C 590.28125 307.691406 588.933594 307.722656 587.78125 307.878906 C 586.808594 308.015625 585.890625 307.21875 585.710938 306.132812 C 585.605469 305.492188 585.765625 304.804688 585.125 304.300781 C 584.371094 304.542969 583.523438 305.097656 582.8125 304.972656 C 580.53125 304.5625 579.027344 305.777344 577.476562 307.074219 C 576.976562 307.492188 576.378906 307.816406 575.785156 308.121094 C 574.382812 308.832031 573.691406 310.222656 572.667969 311.289062 C 572.5 311.46875 572.613281 311.90625 572.582031 312.230469 C 572.519531 312.878906 572.667969 313.675781 572.339844 314.15625 C 571.128906 315.957031 570.8125 318.234375 569.191406 319.824219 C 568.742188 320.265625 568.480469 320.945312 568.273438 321.5625 C 567.6875 323.289062 567.183594 325.046875 566.640625 326.792969 C 564.695312 327.808594 563.050781 329.179688 561.515625 330.832031 C 561.367188 331.761719 561.273438 332.757812 561.042969 333.71875 C 560.574219 335.652344 560.289062 337.695312 559.410156 339.441406 C 558.699219 340.875 557.289062 341.972656 556.117188 343.15625 C 555.4375 343.835938 554.609375 344.367188 553.554688 345.207031 C 554.535156 346.847656 554.035156 348.585938 553.554688 350.382812 C 552.925781 352.75 553.625 354.996094 554.589844 357.183594 C 555.207031 358.605469 556.648438 358.742188 557.757812 359.421875 C 558.386719 359.808594 558.886719 360.40625 559.433594 360.929688 C 559.339844 361.230469 559.339844 361.640625 559.140625 361.808594 C 558.480469 362.351562 557.863281 362.886719 557.851562 363.816406 C 557.832031 364.820312 557.714844 365.867188 558.46875 366.671875 C 560.28125 368.609375 560.929688 371.023438 561.167969 373.515625 C 561.378906 375.699219 561.953125 377.742188 562.757812 379.757812 C 563.09375 380.585938 562.988281 380.878906 561.972656 381.078125 C 561.222656 381.234375 560.707031 381.433594 560.769531 382.25 C 560.875 383.566406 561.023438 384.886719 561.222656 386.191406 C 561.292969 386.664062 561.503906 387.167969 561.785156 387.554688 C 562.464844 388.453125 563.21875 389.28125 563.921875 390.105469 C 564.671875 389.792969 565.28125 389.53125 565.886719 389.28125 C 566.097656 389.53125 566.367188 389.730469 566.472656 390 C 567.65625 392.941406 568.753906 395.910156 571.035156 398.265625 C 571.453125 398.707031 571.683594 399.457031 571.753906 400.085938 C 571.902344 401.4375 572.246094 402.671875 572.886719 403.894531 C 573.335938 404.761719 573.617188 405.796875 573.660156 406.78125 C 573.753906 408.664062 574.257812 410.410156 575.101562 412.042969 C 575.824219 413.445312 575.824219 414.929688 575.910156 416.40625 C 575.949219 417.066406 575.667969 417.777344 575.816406 418.394531 C 576.464844 421.050781 575.980469 423.65625 575.542969 426.261719 C 575.355469 427.410156 575.101562 428.476562 575.46875 429.671875 C 576.433594 432.820312 575.460938 435.519531 573.167969 437.925781 C 573.574219 438.425781 573.972656 438.960938 574.421875 439.429688 C 575.824219 440.90625 575.898438 441.828125 574.621094 443.175781 C 574.289062 443.53125 573.835938 443.773438 573.503906 444.023438 C 573.25 444.023438 573.074219 444.066406 572.949219 444.011719 C 570.574219 443.070312 568.929688 441.148438 567.058594 439.535156 C 566.703125 439.234375 566.597656 438.5625 566.011719 438.5625 C 563.660156 438.574219 562.476562 437.128906 561.492188 435.214844 C 560.875 434.023438 559.703125 433.238281 558.5 432.632812 C 558.082031 432.421875 557.550781 432.390625 557.058594 432.378906 C 556.167969 432.359375 555.65625 433.058594 555.800781 434.042969 C 555.84375 434.347656 555.9375 434.652344 556.03125 435.015625 C 554.722656 435.632812 553.394531 436.25 552.015625 436.898438 C 551.785156 436.503906 551.566406 436.074219 551.304688 435.664062 C 550.027344 433.71875 549.023438 431.566406 546.554688 430.71875 C 545.988281 430.527344 545.589844 429.816406 545.164062 429.324219 C 544.503906 428.574219 543.898438 427.765625 543.21875 427.035156 C 542.359375 426.113281 541.09375 426.15625 540.003906 425.789062 C 538.6875 425.339844 538.550781 423.582031 537.054688 423.257812 C 535.601562 422.945312 534.15625 422.589844 532.765625 421.929688 C 531.289062 421.230469 529.648438 420.851562 528.046875 420.453125 C 524.429688 419.554688 521.246094 417.785156 518.257812 415.640625 C 517.042969 414.773438 515.882812 413.8125 514.75 412.839844 C 514.585938 412.691406 514.550781 412.191406 514.667969 411.960938 C 514.792969 411.730469 515.167969 411.605469 515.453125 411.488281 C 515.589844 411.4375 515.785156 411.488281 515.933594 411.5625 C 517.21875 412.148438 518.191406 411.667969 518.925781 410.609375 C 519.300781 410.066406 519.5625 409.4375 519.910156 408.8125 C 519.039062 407.597656 518.257812 406.332031 517.3125 405.210938 C 516.308594 404.03125 514.605469 404.070312 513.382812 403.191406 C 512.574219 402.617188 511.65625 402.210938 510.808594 401.6875 C 509.644531 400.976562 508.402344 400.503906 507.042969 400.441406 C 505.710938 400.378906 504.363281 400.222656 503.046875 400.367188 C 501.160156 400.578125 499.332031 400.296875 497.617188 399.699219 C 495.585938 398.988281 493.660156 397.960938 491.714844 397.019531 C 490.207031 396.300781 488.777344 395.441406 487.25 394.761719 C 486.671875 394.5 485.867188 394.3125 485.34375 394.519531 C 484.121094 395.023438 483.085938 394.582031 481.964844 394.289062 C 480.375 393.871094 479.089844 392.53125 477.238281 392.855469 C 476.589844 392.972656 476.085938 392.3125 475.625 391.8125 C 475.28125 391.433594 474.851562 391.289062 474.285156 391.445312 C 473.660156 391.621094 472.96875 391.800781 472.339844 391.71875 C 470.257812 391.414062 468.1875 390.996094 466.09375 390.617188 C 466.753906 388.976562 466.691406 388.179688 465.699219 387.679688 C 464.222656 386.9375 462.925781 385.773438 461.210938 385.535156 C 459.484375 385.28125 458.082031 384.332031 456.773438 383.328125 C 455.445312 382.3125 454.285156 381.097656 452.539062 380.835938 C 449.859375 379.164062 447.011719 377.761719 444.691406 375.355469 C 443.792969 375.273438 442.796875 375.105469 441.804688 375.09375 C 440.652344 375.082031 439.511719 374.632812 438.214844 375.125 C 438.078125 375.273438 437.902344 375.574219 437.628906 375.761719 C 435.609375 377.207031 435.371094 378.914062 436.78125 380.910156 C 436.835938 380.992188 436.699219 381.214844 436.582031 381.558594 C 435.894531 381.664062 434.984375 382.101562 434.34375 381.851562 C 432.566406 381.160156 430.789062 381.089844 428.9375 381.183594 C 428.289062 381.214844 427.554688 381.140625 426.980469 380.867188 C 425.496094 380.148438 424.0625 379.300781 422.636719 378.453125 C 422.449219 378.335938 422.449219 377.875 422.429688 377.5625 C 422.429688 377.46875 422.667969 377.34375 422.816406 377.269531 C 423.613281 376.894531 424.449219 376.863281 425.242188 377.15625 C 426.339844 377.5625 427.398438 378.054688 428.359375 378.472656 C 429.46875 378.316406 430.464844 378.199219 431.445312 378.035156 C 432.136719 377.90625 432.460938 376.996094 432.023438 376.496094 C 431.476562 375.878906 430.609375 375.34375 430.441406 374.644531 C 430.097656 373.242188 429.25 372.226562 428.265625 371.390625 C 426.246094 369.664062 424.09375 368.09375 421.949219 366.515625 C 419.773438 364.90625 417.21875 365.113281 414.730469 365.261719 C 414.175781 365.292969 413.546875 365.910156 413.191406 366.421875 C 413.035156 366.640625 413.410156 367.308594 413.640625 367.730469 C 414.34375 368.941406 414.175781 369.570312 412.941406 369.882812 C 411.507812 370.238281 410.054688 370.5 408.859375 370.753906 C 407.648438 370 406.695312 369.328125 405.671875 368.785156 C 404.046875 367.925781 402.457031 366.777344 400.722656 366.421875 C 398.714844 366.011719 397.605469 364.707031 396.277344 363.492188 C 395.921875 363.167969 395.398438 363.019531 394.925781 362.855469 C 393.355469 362.277344 391.796875 361.703125 390.207031 361.179688 C 389.746094 361.023438 389.226562 360.992188 388.734375 361.011719 C 387.582031 361.074219 386.597656 362.183594 385.375 361.714844 C 384.066406 361.210938 383.136719 362.078125 382.078125 362.457031 C 379.839844 363.25 377.800781 362.863281 375.898438 361.589844 C 374.664062 360.761719 373.4375 359.871094 372.339844 358.867188 C 371.316406 357.9375 370.175781 357.464844 368.886719 357.015625 C 366.28125 356.105469 363.355469 355.71875 361.492188 353.300781 C 359.160156 352.140625 357.117188 350.195312 354.148438 350.800781 C 353.382812 350.960938 352.515625 350.625 351.699219 350.488281 C 349.890625 350.195312 348.089844 349.882812 346.28125 349.578125 C 345.054688 350.183594 344.03125 349.589844 342.984375 349.042969 C 342.847656 348.972656 342.660156 348.992188 342.492188 348.960938 C 341.8125 348.824219 341.15625 349.078125 340.777344 349.652344 C 340.285156 350.414062 340.777344 350.78125 341.3125 351.273438 C 341.917969 351.828125 341.144531 351.996094 340.746094 352.382812 C 342.210938 352.683594 343.601562 352.96875 344.910156 353.238281 C 345.160156 354.035156 344.960938 354.589844 344.535156 355.070312 C 343.613281 355.414062 342.640625 355.949219 341.675781 355.488281 C 340.347656 354.863281 339.136719 355.050781 337.859375 355.53125 C 336.78125 355.9375 335.714844 356.515625 334.605469 356.648438 C 333.003906 356.839844 331.949219 357.894531 330.628906 358.523438 C 329.332031 359.140625 327.597656 358.953125 326.433594 359.703125 C 324.804688 360.773438 323.148438 361.179688 321.320312 361.167969 C 319.738281 361.148438 318.433594 361.621094 317.28125 362.707031 C 316.789062 363.167969 316.121094 363.261719 315.460938 362.917969 C 314.875 362.613281 314.9375 361.671875 315.660156 360.742188 C 316.164062 360.09375 316.757812 359.507812 317.238281 358.847656 C 317.386719 358.648438 317.355469 358.335938 317.363281 358.042969 C 316.078125 358.113281 314.800781 358.1875 313.515625 358.261719 C 312.3125 359.316406 310.710938 359.234375 309.308594 359.703125 C 308.839844 359.863281 308.347656 360.019531 307.960938 360.289062 C 307.019531 360.949219 306.121094 361.683594 305.199219 362.394531 C 304.289062 363.09375 303.242188 363.554688 302.46875 364.515625 C 301.777344 365.375 300.585938 365.824219 299.644531 366.496094 C 298.785156 367.101562 298.179688 367.980469 298.085938 368.972656 C 297.824219 371.609375 297.699219 374.257812 297.605469 376.902344 C 297.59375 377.3125 297.960938 377.78125 298.253906 378.148438 C 298.671875 378.660156 299.203125 379.058594 299.632812 379.5625 C 300.4375 380.511719 300.554688 381.589844 300.398438 382.835938 C 300.261719 383.933594 299.894531 384.625 298.910156 385.199219 C 297.875 385.804688 297.238281 386.769531 297.382812 388.117188 C 297.507812 389.300781 297.425781 390.449219 296.390625 391.308594 C 296.160156 391.496094 295.855469 391.988281 295.941406 392.105469 C 296.871094 393.441406 296.316406 395.460938 297.929688 396.476562 C 298.273438 397.730469 299.675781 397.921875 300.3125 398.871094 C 299.433594 401.144531 299.402344 401.183594 301.015625 402.574219 C 301.820312 403.265625 302.1875 404.09375 302.550781 405.054688 C 302.886719 405.921875 303.921875 406.53125 304.203125 407.398438 C 304.800781 409.1875 305.753906 410.726562 306.902344 412.148438 C 308.085938 413.601562 308.660156 415.347656 309.476562 416.980469 C 309.65625 417.335938 309.320312 418.289062 309.039062 418.238281 C 308.578125 418.152344 308.035156 418.007812 307.75 417.691406 C 307.320312 417.222656 307.0625 416.574219 306.738281 415.996094 C 306.015625 416.84375 305.292969 417.640625 303.984375 417.671875 C 303.347656 417.691406 303.128906 419.261719 303.734375 419.722656 C 304.394531 420.214844 305.167969 420.539062 305.898438 420.925781 C 305.753906 421.207031 305.660156 421.554688 305.460938 421.792969 C 304.007812 423.539062 303.472656 423.667969 301.632812 422.953125 C 299.78125 422.234375 298.074219 421.132812 295.980469 421.0625 C 295.417969 421.039062 294.800781 420.507812 294.339844 420.078125 C 292.226562 418.046875 289.746094 416.78125 286.871094 416.269531 C 285.113281 415.957031 283.542969 416.28125 282.289062 417.765625 C 282.550781 418.308594 282.851562 418.863281 283.082031 419.449219 C 283.304688 419.996094 282.914062 420.675781 282.488281 420.570312 C 280.238281 420.035156 277.800781 419.953125 276.085938 418.027344 C 275.886719 417.796875 275.507812 417.703125 275.195312 417.597656 C 272.882812 416.886719 271.148438 415.339844 269.335938 413.832031 C 269.378906 410.902344 267.832031 409.15625 265.265625 408.140625 C 264.648438 407.902344 264 407.378906 263.414062 407.441406 C 260.8125 407.765625 258.582031 406.300781 256.082031 406.050781 C 253.84375 405.828125 251.511719 405.285156 249.691406 403.515625 C 248.738281 402.585938 247.292969 402.449219 245.933594 402.324219 C 244.105469 402.15625 242.285156 401.925781 240.472656 401.625 C 239.492188 401.457031 238.558594 400.921875 237.574219 400.859375 C 236.425781 400.777344 235.234375 400.914062 234.09375 401.144531 C 232.511719 401.46875 231.195312 400.421875 229.675781 400.484375 C 228.179688 400.546875 226.707031 401.078125 225.191406 400.558594 C 224.730469 400.398438 224.082031 400.558594 223.734375 400.296875 C 222.207031 399.113281 220.117188 399.867188 218.578125 398.652344 C 218.117188 398.285156 217.292969 398.347656 216.632812 398.277344 C 215.929688 398.191406 215.28125 398.421875 214.925781 399.0625 C 214.5625 399.71875 214.007812 400.011719 213.328125 400.085938 C 212.5 400.167969 211.664062 400.148438 210.835938 400.203125 C 209.394531 400.285156 207.769531 399.742188 206.695312 401.277344 C 205.230469 401.332031 203.835938 402.019531 202.308594 401.550781 C 199.121094 400.558594 195.929688 399.5625 192.695312 398.757812 C 190.445312 398.191406 188.355469 396.957031 185.917969 397.113281 C 184.148438 397.230469 183.261719 396.152344 182.695312 394.550781 C 185.039062 393.601562 187.277344 394.613281 189.496094 394.625 C 189.609375 395.167969 189.433594 395.746094 190.101562 395.910156 C 190.257812 395.953125 190.4375 395.964844 190.59375 395.945312 C 191.691406 395.765625 192.988281 396.058594 193.585938 394.636719 C 193.667969 394.449219 194.183594 394.300781 194.464844 394.34375 C 195.78125 394.550781 197.089844 394.875 198.410156 395.054688 C 199.390625 395.191406 200.394531 395.179688 201.390625 395.179688 C 201.691406 395.179688 202.007812 395 202.289062 394.855469 C 202.414062 394.792969 202.550781 394.53125 202.507812 394.425781 C 202.007812 393.109375 204.265625 392.816406 203.597656 391.457031 C 200.867188 390.398438 198.125 390.199219 195.28125 391.101562 C 192.246094 392.050781 188.949219 391.675781 185.9375 392.804688 C 183.804688 392.460938 181.710938 393.378906 179.640625 393.160156 C 178.519531 393.046875 177.757812 393.652344 176.785156 393.703125 C 175.464844 393.777344 175.332031 394.78125 175.203125 395.753906 C 173.886719 395.714844 172.558594 395.722656 171.25 395.617188 C 169.921875 395.515625 168.59375 395.316406 167.285156 395.085938 C 167.035156 395.042969 166.753906 394.667969 166.667969 394.394531 C 166.59375 394.125 166.679688 393.726562 166.835938 393.484375 C 167.703125 392.238281 169.117188 391.71875 170.738281 391.003906 C 169.285156 390.230469 168.132812 389.625 166.980469 389.019531 C 166.6875 388.859375 166.394531 388.664062 166.070312 388.597656 C 165.421875 388.472656 164.765625 388.328125 164.117188 388.347656 C 160.382812 388.472656 158.246094 388.035156 154.53125 386.414062 C 154.144531 386.246094 153.433594 386.203125 153.195312 386.433594 C 152.640625 386.96875 153.296875 387.207031 153.675781 387.492188 C 154.335938 387.972656 155.078125 388.378906 154.53125 389.476562 C 154.355469 389.832031 154.667969 390.429688 154.742188 390.910156 C 154.878906 391.875 155.507812 392.386719 156.394531 392.511719 C 157.042969 392.605469 157.714844 392.542969 158.371094 392.5625 C 158.949219 392.585938 159.28125 392.898438 159.398438 393.441406 C 159.511719 393.964844 159.15625 394.4375 158.613281 394.4375 C 157.117188 394.425781 155.578125 394.667969 154.1875 393.894531 C 153.195312 393.339844 152 393.570312 151.007812 392.753906 C 150.160156 392.0625 148.789062 392.074219 147.765625 391.550781 C 146.375 390.839844 145.003906 390.546875 143.433594 390.808594 C 142.472656 390.964844 141.351562 391.027344 140.492188 390.679688 C 138.851562 390.023438 137.199219 390.03125 135.554688 390.222656 C 132.40625 390.585938 129.269531 391.058594 126.152344 391.632812 C 123.683594 392.09375 121.277344 392.5625 118.796875 391.664062 C 118.03125 391.382812 117.164062 391.320312 116.347656 391.296875 C 112.84375 391.226562 109.328125 391.214844 105.824219 391.164062 C 105.164062 391.152344 104.453125 391.214844 103.847656 391.003906 C 100.605469 389.84375 97.644531 390.703125 94.671875 392.050781 C 91.03125 393.726562 87.152344 394.039062 83.269531 392.847656 C 83.007812 392.269531 83.980469 391.519531 82.800781 391.339844 C 81.972656 391.214844 81.167969 390.984375 80.351562 390.828125 C 79.691406 390.703125 79.054688 391.214844 78.742188 392.261719 C 78.636719 392.617188 78.5625 392.972656 78.164062 392.921875 C 77.347656 392.816406 76.542969 392.542969 75.726562 392.460938 C 74.261719 392.3125 72.777344 391.78125 71.34375 392.53125 C 71.28125 392.898438 71.207031 393.222656 71.175781 393.546875 C 71.113281 394.027344 71.238281 394.605469 70.621094 394.8125 C 70.320312 394.917969 69.964844 395.011719 69.671875 394.949219 C 69.1875 394.84375 68.75 394.550781 68.257812 394.449219 C 67.085938 394.1875 66.175781 393.796875 65.558594 392.5625 C 64.867188 391.164062 63.238281 390.765625 61.867188 390.148438 C 59.429688 390.460938 56.792969 389.90625 54.625 391.488281 C 53.195312 392.53125 51.84375 392.449219 50.421875 391.683594 C 49.605469 391.246094 48.808594 391.644531 48.027344 391.601562 C 47.09375 391.558594 46.195312 390.910156 45.273438 390.535156 C 45.117188 390.472656 44.898438 390.367188 44.792969 390.417969 C 43.109375 391.382812 41.164062 390.242188 39.4375 391.164062 C 38.421875 391.707031 37.21875 391.882812 36.109375 392.28125 C 35.953125 392.34375 35.878906 392.667969 35.710938 392.992188 C 38.988281 393.066406 42.125 393.410156 45.222656 394.144531 C 45.722656 394.257812 46.039062 394.898438 45.765625 395.261719 C 44.480469 397 43.296875 398.820312 41.015625 399.480469 C 40.816406 399.53125 40.839844 400.347656 40.746094 400.851562 C 39.855469 401.007812 38.796875 400.976562 37.949219 401.371094 C 36.433594 402.09375 34.929688 402.628906 33.234375 402.796875 C 31.601562 402.953125 30.148438 404.039062 28.378906 403.707031 C 27.972656 403.632812 27.425781 403.925781 27.019531 404.175781 C 26.453125 404.53125 26.023438 405.242188 25.4375 405.378906 C 22.917969 405.945312 21.503906 407.648438 20.324219 409.761719 C 19.851562 410.601562 18.964844 411.207031 18.304688 411.960938 C 18.117188 412.179688 18.074219 412.523438 17.960938 412.847656 C 18.441406 413.476562 18.933594 414.113281 19.582031 414.953125 C 18.460938 415.191406 17.53125 415.402344 16.402344 415.640625 C 16.191406 416.125 15.917969 416.71875 15.667969 417.304688 C 15.144531 418.519531 14.421875 419.691406 14.171875 420.957031 C 13.898438 422.390625 13.984375 423.917969 14.058594 425.390625 C 14.109375 426.386719 14.433594 427.402344 15.363281 427.933594 C 15.898438 428.238281 16.703125 427.925781 17.121094 428.625 C 17.132812 428.78125 17.175781 428.949219 17.164062 429.117188 C 16.988281 431.398438 17.46875 433.835938 15.679688 435.757812 C 16.054688 437.902344 14.320312 439.859375 15.136719 442.046875 C 15.300781 442.507812 15.28125 443.03125 15.394531 443.523438 C 15.6875 444.820312 15.980469 446.117188 16.347656 447.394531 C 16.410156 447.621094 16.820312 447.894531 17.058594 447.894531 C 17.3125 447.882812 17.574219 447.582031 17.78125 447.371094 C 17.886719 447.265625 17.855469 447.035156 17.9375 446.902344 C 18.640625 445.761719 18.679688 445.71875 19.894531 446.011719 C 20.523438 446.167969 21.128906 446.441406 21.851562 446.691406 C 23 445.855469 23.160156 444.210938 24.039062 443.007812 C 23.683594 442.109375 23.484375 441.179688 23.347656 440.214844 C 23.222656 439.359375 23.191406 438.542969 23.609375 437.789062 C 23.921875 437.214844 24.320312 436.636719 25.15625 436.878906 C 25.742188 437.046875 25.984375 436.796875 26.109375 436.230469 C 26.402344 434.902344 25.125 434.179688 24.875 432.765625 C 25.09375 432.054688 25.480469 431.125 25.636719 430.152344 C 25.828125 429.023438 25.691406 427.839844 25.910156 426.722656 C 26.066406 425.875 26.171875 425.078125 25.898438 424.261719 C 25.660156 423.519531 26.003906 422.921875 26.390625 422.410156 C 26.894531 421.75 27.425781 420.976562 28.128906 420.644531 C 31.015625 419.242188 33.210938 416.875 35.941406 415.253906 C 36.9375 414.660156 37.710938 413.65625 38.734375 413.152344 C 39.90625 412.578125 41.265625 412.429688 42.492188 411.960938 C 43.328125 411.644531 44.007812 411.542969 44.8125 412.097656 C 45.167969 412.347656 45.765625 412.304688 46.257812 412.285156 C 48.464844 412.199219 50.484375 411.40625 52.355469 410.339844 C 52.964844 409.992188 53.488281 409.855469 54.136719 409.753906 C 55.640625 409.492188 56.949219 408.875 57.285156 407.148438 C 56.457031 406.507812 55.484375 406.277344 54.492188 406.113281 C 55.796875 404.792969 57.292969 404.03125 59.25 404.164062 C 60.402344 404.238281 61.582031 404.09375 62.734375 403.90625 C 64.367188 403.644531 65.988281 403.058594 67.597656 403.976562 C 68.875 403.140625 70.171875 404.15625 71.449219 403.925781 C 72.757812 403.683594 74.042969 403.371094 75.339844 403.128906 C 76.785156 402.867188 78.25 402.628906 79.703125 402.429688 C 80.183594 402.367188 80.71875 402.355469 81.167969 402.492188 C 82.839844 403.027344 84.453125 402.828125 86.085938 402.3125 C 87.414062 401.894531 88.761719 401.9375 89.921875 402.722656 C 90.699219 403.246094 91.480469 403.351562 92.277344 403.097656 C 94.515625 402.378906 96.859375 402.523438 99.140625 402.199219 C 100.644531 401.988281 102.152344 401.96875 103.574219 402.542969 C 104.558594 402.941406 105.480469 402.867188 106.496094 402.671875 C 108.609375 402.25 110.742188 401.800781 112.886719 401.695312 C 115.855469 401.550781 118.796875 401.4375 121.738281 400.859375 C 123.671875 400.484375 125.765625 400.621094 127.136719 402.574219 C 127.3125 402.828125 127.648438 403.035156 127.949219 403.121094 C 130.839844 403.90625 133.539062 405.367188 136.59375 405.597656 C 136.90625 405.621094 137.3125 405.808594 137.511719 405.671875 C 138.851562 404.742188 140.566406 405.628906 141.84375 404.773438 C 142.648438 404.230469 143.234375 403.390625 143.96875 402.734375 C 144.5625 402.1875 144.992188 401.382812 146.277344 401.308594 C 148.035156 402.210938 150.117188 402.304688 152.210938 401.277344 C 154.785156 400.011719 157.429688 400.429688 160.058594 401.058594 C 161.480469 401.402344 162.222656 403.003906 161.792969 404.667969 C 161.710938 404.980469 161.585938 405.273438 161.46875 405.578125 C 163.132812 406.863281 164.691406 408.320312 167.066406 408.109375 C 167.703125 408.058594 168.40625 408.277344 169.011719 408.527344 C 170.476562 409.136719 171.960938 409.15625 173.4375 408.757812 C 174.765625 408.402344 176.03125 408.359375 177.371094 408.714844 C 178.3125 408.96875 179.335938 409 180.332031 409.007812 C 181.15625 409.019531 182.046875 409.039062 182.789062 408.75 C 183.835938 408.320312 185.207031 408.664062 185.949219 407.523438 C 186.191406 407.15625 186.410156 407.023438 186.691406 407.222656 C 186.816406 407.316406 186.921875 407.441406 187.015625 407.566406 C 188.375 409.230469 189.976562 409.785156 192.234375 409.554688 C 197.027344 409.074219 201.871094 409.28125 206.671875 408.695312 C 207.144531 408.644531 207.667969 408.820312 208.128906 408.988281 C 209.539062 409.492188 210.953125 409.949219 212.175781 410.914062 C 212.78125 411.394531 213.703125 411.480469 214.476562 411.738281 C 215.710938 412.136719 215.105469 413.507812 215.785156 414.199219 C 216.589844 415.023438 217.269531 415.945312 218.453125 416.386719 C 221.589844 417.523438 224.667969 418.695312 228.117188 417.671875 C 229.550781 417.253906 231.109375 416.898438 232.566406 417.035156 C 234.1875 417.179688 235.335938 416.007812 236.5625 415.996094 C 238.109375 416.824219 239.417969 417.523438 240.765625 418.238281 C 242 417.472656 243.132812 416.773438 244.3125 416.050781 C 246.582031 416.761719 248.894531 416.792969 251.21875 416.574219 C 251.875 416.511719 252.546875 416.375 253.195312 416.417969 C 253.875 416.457031 254.492188 416.773438 254.796875 417.441406 C 255.066406 418.046875 255.296875 418.675781 255.507812 419.3125 C 255.675781 419.828125 254.910156 420.652344 254.304688 420.578125 C 253.320312 420.464844 252.335938 420.265625 251.355469 420.121094 C 250.863281 420.046875 250.496094 420.402344 250.484375 421.0625 C 250.476562 421.363281 250.664062 421.667969 250.757812 421.949219 C 252.253906 422.148438 253.761719 422.597656 255.222656 422.496094 C 257.085938 422.359375 258.363281 423.339844 259.796875 424.136719 C 260.078125 424.292969 260.445312 424.292969 260.769531 424.347656 C 262.246094 424.566406 263.707031 424.847656 265.234375 424.585938 C 266.375 424.398438 267.589844 424.347656 268.730469 424.523438 C 270.257812 424.753906 271.605469 425.421875 272.046875 427.140625 C 272.171875 427.621094 272.320312 428.101562 272.507812 428.5625 C 272.789062 429.261719 273.5 429.367188 274.503906 428.886719 C 275.4375 428.445312 275.699219 428.425781 276.179688 429.179688 C 277.527344 431.304688 279.609375 432.253906 281.902344 432.832031 C 283.15625 433.144531 284.601562 433.644531 285.238281 431.792969 C 287.300781 430.851562 289.160156 429.191406 291.734375 430.265625 C 292.289062 430.496094 293.085938 430.382812 293.703125 430.226562 C 295.792969 429.671875 297.644531 430.246094 299.433594 431.238281 C 299.957031 431.53125 300.03125 431.972656 299.652344 432.421875 C 299.328125 432.820312 298.964844 433.375 299.488281 433.644531 C 301.976562 434.953125 304.394531 436.472656 307.375 436.449219 C 308.203125 436.441406 309.015625 436.722656 309.84375 436.742188 C 310.3125 436.753906 310.835938 436.597656 311.234375 436.34375 C 311.800781 436 312.125 436.292969 312.542969 436.566406 C 313.023438 436.867188 313.453125 436.628906 313.859375 436.3125 C 314.246094 436.03125 314.675781 435.800781 315.042969 435.582031 C 316.621094 436.386719 318.078125 437.183594 319.574219 437.894531 C 320.367188 438.269531 320.996094 438.792969 321.257812 439.628906 C 321.726562 441.09375 322.34375 442.589844 323.757812 443.230469 C 325.347656 443.960938 325.285156 445.8125 326.53125 446.648438 C 327.210938 447.109375 327.972656 447.464844 328.746094 447.769531 C 330.597656 448.5 332.492188 449.148438 334.050781 450.480469 C 334.59375 450.949219 335.265625 450.867188 335.914062 450.542969 C 336.605469 450.195312 337.222656 450.4375 337.703125 450.960938 C 337.910156 451.191406 338.140625 451.535156 338.121094 451.816406 C 338.109375 452.039062 337.765625 452.300781 337.515625 452.433594 C 336.867188 452.789062 335.933594 452.164062 335.347656 453.0625 C 336.082031 453.503906 336.886719 453.828125 337.492188 454.371094 C 338.757812 455.511719 340.171875 455.511719 341.78125 455.101562 C 342.191406 455.8125 342.578125 456.527344 343.007812 457.214844 C 343.394531 457.832031 344.199219 457.988281 344.710938 457.507812 C 345.171875 457.089844 345.558594 456.597656 345.96875 456.128906 C 347.316406 457.917969 349.054688 459.046875 351.3125 459.414062 C 352.273438 459.570312 353.25 459.925781 354.117188 460.375 C 357.652344 462.238281 361.25 464.035156 363.929688 467.152344 C 364.734375 468.097656 365.792969 468.648438 366.890625 468.902344 C 368.300781 469.226562 369.820312 469.402344 371.253906 469.257812 C 372.164062 469.164062 373 468.378906 373.855469 467.875 C 374.285156 467.625 374.671875 467.3125 375.070312 467.019531 C 375.550781 465.269531 374.796875 463.410156 375.53125 461.683594 C 375.59375 461.535156 375.605469 461.328125 375.542969 461.191406 C 374.621094 459.078125 373.972656 456.882812 371.902344 455.394531 C 369.890625 453.953125 367.988281 452.269531 366.410156 450.375 C 364.984375 448.679688 363.519531 447.164062 361.542969 446.191406 C 359.304688 445.089844 357.796875 442.84375 355.289062 442.171875 C 354.839844 440.445312 353.121094 440.339844 351.972656 439.496094 C 350.382812 438.324219 348.59375 437.402344 347.359375 435.71875 C 346.488281 434.546875 345.328125 433.488281 344.09375 432.703125 C 343.152344 432.109375 341.90625 432.003906 340.789062 431.691406 C 340.308594 431.554688 339.804688 431.460938 339.34375 431.28125 C 338.394531 430.9375 337.472656 430.519531 336.980469 429.554688 C 336.195312 428.007812 334.867188 427.035156 333.519531 426.03125 C 330.984375 424.136719 328.621094 422.023438 325.640625 420.777344 C 324.929688 420.476562 324.269531 419.765625 323.863281 419.074219 C 323.570312 418.59375 323.914062 417.746094 323.664062 417.210938 C 322.667969 415.109375 321.84375 412.921875 320.535156 410.964844 C 320.179688 410.441406 320.023438 409.761719 319.824219 409.144531 C 319.644531 408.558594 320.167969 407.972656 320.902344 407.859375 C 321.320312 407.796875 321.726562 407.722656 322.136719 407.660156 C 322.082031 407.15625 321.96875 406.8125 322.019531 406.5 C 322.25 405.203125 320.847656 404.492188 320.921875 403.265625 C 321.007812 401.863281 320.578125 400.640625 319.59375 399.625 C 319.101562 396.769531 317.753906 394.332031 316.078125 392 C 315.734375 391.527344 315.679688 390.691406 315.785156 390.085938 C 315.984375 388.953125 316.214844 387.753906 316.78125 386.769531 C 317.375 385.722656 317.761719 384.695312 317.855469 383.503906 C 317.929688 382.53125 318.097656 381.558594 318.203125 380.773438 C 319.425781 379.75 320.453125 378.902344 321.464844 378.042969 C 323.152344 376.632812 324.949219 375.480469 327.242188 375.398438 C 327.554688 375.386719 327.859375 375.136719 328.171875 375.042969 C 328.871094 374.820312 329.25 374.351562 329.386719 373.628906 C 329.59375 372.574219 330.273438 372.363281 331.214844 372.65625 C 331.375 372.707031 331.550781 372.699219 331.71875 372.699219 C 332.480469 372.65625 332.996094 371.976562 332.578125 371.378906 C 332.148438 370.773438 331.832031 370.207031 332.492188 369.707031 C 334.617188 368.0625 336.886719 366.722656 339.710938 366.640625 C 341.730469 366.578125 343.675781 366.140625 345.476562 365.175781 C 345.914062 364.945312 346.417969 364.851562 346.898438 364.707031 C 348.101562 364.359375 349.210938 364.632812 350.214844 365.324219 C 350.433594 365.46875 350.601562 365.867188 350.589844 366.140625 C 350.570312 366.421875 350.371094 366.796875 350.128906 366.945312 C 349.566406 367.277344 348.957031 367.632812 348.332031 367.71875 C 346.6875 367.925781 345.027344 368.117188 343.351562 367.8125 C 342.921875 367.738281 342.421875 368.285156 342.429688 368.796875 C 342.453125 369.757812 342.230469 370.910156 343.570312 371.210938 C 344.816406 371.496094 345.402344 372.40625 345.96875 373.386719 C 346.386719 373.179688 346.804688 372.832031 347.203125 372.855469 C 347.851562 372.886719 348.5 373.136719 349.117188 373.386719 C 351.753906 374.496094 354.515625 374.519531 357.265625 374.695312 C 357.421875 373.703125 357.539062 372.886719 357.726562 371.683594 C 359.367188 372.195312 360.84375 371.210938 362.539062 371.734375 C 363.617188 372.070312 364.851562 371.820312 365.988281 371.976562 C 368.101562 372.257812 370.300781 372.121094 372.308594 372.980469 C 374.046875 373.722656 375.511719 372.9375 376.777344 372.289062 C 378.398438 372.84375 379.800781 373.398438 381.230469 373.785156 C 382.414062 374.109375 383.324219 374.707031 384.140625 375.597656 C 385.480469 377.050781 386.851562 378.503906 388.367188 379.769531 C 389.234375 380.503906 390.429688 380.847656 391.441406 381.402344 C 391.882812 381.640625 392.269531 381.96875 392.675781 382.25 C 393.273438 382.65625 393.597656 383.191406 393.472656 383.933594 C 393.210938 385.410156 394.234375 386.339844 394.949219 387.386719 C 395.113281 387.636719 395.480469 387.867188 395.773438 387.910156 C 396.410156 387.980469 397.082031 387.867188 397.71875 387.941406 C 398.210938 388.003906 398.660156 388.273438 399.140625 388.402344 C 399.78125 388.566406 400.523438 388.945312 401.066406 388.765625 C 402.332031 388.371094 403.347656 389.019531 404.4375 389.28125 C 405.710938 389.582031 406.9375 390.09375 408.191406 390.480469 C 408.285156 390.515625 408.515625 390.335938 408.589844 390.210938 C 408.664062 390.085938 408.671875 389.8125 408.589844 389.738281 C 406.851562 388.210938 405.492188 386.246094 403.273438 385.292969 C 403.066406 385.199219 403.003906 384.761719 402.867188 384.476562 C 403.683594 383.703125 404.769531 383.996094 405.722656 383.777344 C 406.769531 383.535156 407.175781 382.40625 406.539062 381.414062 C 406.277344 380.992188 405.878906 380.667969 405.574219 380.273438 C 405 379.53125 405.378906 378.683594 406.339844 378.523438 C 406.664062 378.472656 407.0625 378.285156 407.3125 378.398438 C 408.578125 378.996094 409.832031 378.964844 411.203125 378.753906 C 411.925781 378.640625 412.804688 379.152344 413.515625 379.550781 C 414.125 379.894531 414.269531 380.554688 414.101562 381.285156 C 414.039062 381.546875 414.175781 381.945312 414.363281 382.175781 C 416.769531 385.210938 419.773438 387.46875 423.476562 388.664062 C 424.730469 389.070312 426.070312 389.574219 427.347656 389.507812 C 428.84375 389.4375 429.648438 390.785156 431.050781 390.796875 C 433.152344 390.816406 434.21875 392.375 435.097656 393.996094 C 435.402344 394.550781 435.476562 395.304688 435.003906 395.902344 C 434.535156 396.507812 433.570312 397.082031 432.828125 396.613281 C 430.996094 395.460938 428.988281 396.277344 427.074219 396.046875 C 426.898438 396.027344 426.425781 396.644531 426.476562 396.726562 C 426.84375 397.335938 426.949219 397.890625 426.824219 398.609375 C 426.769531 398.894531 427.367188 399.582031 427.691406 399.605469 C 429.511719 399.710938 431.289062 399.855469 432.796875 401.039062 C 434.566406 400.628906 436.007812 401.425781 437.484375 402.21875 C 438.246094 402.628906 439.0625 402.585938 439.921875 402.480469 C 442.242188 402.179688 444.566406 401.925781 446.910156 402.3125 C 447.933594 402.480469 448.867188 402.273438 449.796875 401.78125 C 451.273438 400.996094 452.664062 401.183594 453.90625 402.34375 C 454.273438 402.679688 454.703125 402.878906 455.257812 402.636719 C 455.550781 402.503906 455.90625 402.492188 456.242188 402.460938 C 457.453125 402.335938 458.574219 402.304688 459.011719 403.839844 C 459.128906 404.25 459.660156 404.59375 460.070312 404.855469 C 461.742188 405.921875 463.4375 406.9375 465.425781 408.164062 C 465.550781 408.457031 465.730469 409.113281 466.085938 409.660156 C 467.289062 411.511719 468.730469 413.070312 471.097656 413.402344 C 472.246094 413.570312 473.4375 414.1875 474.496094 413.980469 C 475.742188 413.738281 476.753906 414.449219 477.90625 414.261719 C 478.703125 414.136719 479.046875 414.722656 479.402344 415.308594 C 479.652344 415.726562 480.019531 416.0625 480.363281 416.480469 C 484.789062 415.976562 489.015625 416.394531 492.917969 418.757812 C 494.84375 419.921875 496.777344 419.242188 498.578125 418.214844 C 498.683594 418.164062 498.652344 417.578125 498.503906 417.453125 C 498.023438 417.011719 497.480469 416.71875 496.726562 416.8125 C 495.386719 416.972656 494.863281 416.449219 495.042969 415.285156 C 495.085938 415.003906 495.355469 414.542969 495.566406 414.511719 C 496.546875 414.40625 497.542969 414.5 498.515625 414.375 C 499.960938 414.1875 501.128906 414.636719 502.1875 415.570312 C 503.441406 416.679688 504.804688 417.609375 506.558594 417.746094 C 506.707031 417.753906 506.851562 417.902344 507 417.976562 C 507.429688 418.214844 508.023438 419.375 507.773438 419.667969 C 507.46875 420.015625 507.011719 420.246094 506.582031 420.464844 C 506.246094 420.644531 505.859375 420.726562 505.304688 420.925781 C 506.875 421.65625 508.191406 422.273438 509.488281 422.871094 C 509.742188 424.230469 507.898438 423.949219 507.878906 425.195312 C 508.683594 425.644531 509.550781 426.136719 510.421875 426.617188 C 510.253906 427.035156 509.898438 427.496094 509.96875 427.871094 C 510.042969 428.289062 510.472656 428.675781 510.816406 429 C 511.183594 429.347656 511.625 429.597656 512.042969 429.878906 C 512.859375 430.433594 513.777344 430.882812 514.480469 431.5625 C 515.546875 432.609375 516.332031 433.960938 517.449219 434.910156 C 518.707031 435.980469 520.234375 436.730469 521.605469 437.675781 C 521.855469 437.839844 522.042969 438.195312 522.125 438.5 C 522.398438 439.441406 523.140625 439.820312 523.96875 439.984375 C 525.601562 440.308594 527.242188 440.582031 528.886719 440.78125 C 529.34375 440.832031 529.859375 440.570312 530.328125 440.425781 C 531.082031 440.207031 531.34375 439.503906 530.933594 438.910156 C 529.679688 437.109375 528.171875 435.59375 526.363281 434.347656 C 525.734375 433.917969 525.640625 433.488281 526.039062 433.269531 C 526.320312 433.113281 526.667969 432.871094 526.949219 432.914062 C 529.199219 433.269531 531.03125 434.328125 532.191406 436.355469 C 532.683594 437.222656 533.300781 438.050781 533.644531 438.972656 C 533.925781 439.714844 534.417969 439.984375 535.058594 440.195312 C 535.214844 440.246094 535.371094 440.320312 535.515625 440.394531 C 535.808594 440.550781 536.101562 440.695312 536.386719 440.863281 C 537.191406 441.347656 537.203125 441.867188 536.425781 443.007812 C 537.285156 443.480469 538.238281 443.835938 538.992188 444.433594 C 541.21875 446.179688 543.394531 448 545.539062 449.851562 C 545.851562 450.121094 545.96875 450.625 546.15625 451.042969 C 546.636719 451.074219 547.152344 451.023438 547.601562 451.160156 C 548.972656 451.585938 550.007812 452.246094 549.578125 454.015625 C 549.492188 454.371094 549.839844 454.976562 550.164062 455.257812 C 551.273438 456.199219 552.515625 456.359375 553.886719 455.53125 C 554.851562 456.097656 555.917969 456.566406 556.804688 457.257812 C 557.851562 458.0625 559.390625 458 560.300781 459.390625 C 559.902344 460.511719 559.464844 461.734375 559.046875 462.949219 C 560.898438 464.234375 563.292969 464.234375 564.839844 465.960938 C 565.125 466.277344 565.761719 466.347656 566.242188 466.390625 C 567.738281 466.503906 569.246094 466.566406 570.75 466.632812 C 571.796875 466.671875 572.75 466.402344 573.492188 465.636719 C 574.308594 464.800781 575.144531 464.015625 576.441406 464.109375 C 577.121094 463.179688 577.707031 462.152344 578.503906 461.335938 C 579.183594 460.636719 580.0625 460.101562 580.929688 459.632812 C 581.800781 459.160156 582.761719 458.847656 583.691406 458.472656 C 586.371094 457.382812 587.949219 455.363281 588.621094 452.601562 C 588.691406 452.277344 588.734375 451.941406 588.808594 451.617188 C 588.976562 450.90625 589.570312 450.59375 590.085938 450.164062 C 590.492188 449.828125 590.410156 449.179688 589.980469 448.929688 C 588.996094 448.355469 588.035156 447.726562 586.800781 447.8125 C 586.652344 447.820312 586.277344 447.226562 586.351562 447.078125 C 587.5625 444.683594 588.148438 442.097656 588.660156 439.503906 C 588.953125 438.0625 590.15625 437.339844 590.859375 436.230469 C 591.214844 435.664062 592.207031 436.835938 592.4375 435.855469 C 592.648438 434.984375 593.265625 434.429688 593.652344 433.71875 C 594.121094 432.839844 594.445312 431.929688 595.304688 431.28125 C 595.839844 430.875 595.910156 430.121094 595.535156 429.453125 C 595.042969 428.582031 594.613281 427.664062 594.027344 426.855469 C 593.371094 425.9375 592.230469 425.246094 592.980469 423.84375 C 592.394531 422.671875 591.496094 421.710938 591.035156 420.421875 C 590.167969 417.984375 590.054688 418.015625 588.703125 416.929688 C 588.160156 416.488281 587.300781 416.679688 587.09375 417.328125 C 586.800781 418.214844 586.558594 419.117188 586.265625 420.121094 C 584.238281 417.964844 584.246094 417.964844 583.847656 416.28125 C 583.589844 415.140625 583.253906 414.011719 583.074219 412.859375 C 582.898438 411.707031 582.636719 410.496094 582.824219 409.386719 C 583.359375 406.300781 583.097656 403.453125 581.402344 400.734375 C 580.699219 399.605469 580.617188 398.246094 580.722656 396.851562 C 581.023438 392.910156 580.730469 391.863281 578.566406 388.566406 C 578.292969 388.148438 577.96875 387.824219 577.949219 387.3125 C 577.9375 386.976562 578.085938 386.589844 577.960938 386.320312 C 576.703125 383.621094 576.871094 380.417969 574.914062 377.9375 C 574.339844 377.195312 574.109375 376.097656 573.953125 375.125 C 573.480469 372.164062 572.949219 369.183594 572.78125 366.203125 C 572.601562 363.136719 571.859375 360.238281 570.605469 357.527344 C 569.820312 355.824219 569.558594 354.023438 569.046875 352.277344 C 568.679688 351.03125 568.617188 349.597656 568.785156 348.3125 C 569.109375 345.84375 569.707031 343.417969 570.199219 340.980469 C 571.410156 340.9375 572.507812 340.75 573.15625 339.546875 C 573.554688 338.8125 574.066406 338.226562 574.945312 337.914062 C 575.617188 337.671875 575.742188 336.917969 575.667969 336.21875 C 575.617188 335.71875 575.5625 335.226562 575.511719 334.722656 C 578.871094 332.757812 579.132812 332.453125 581.214844 328.300781 C 581.035156 327.628906 580.984375 326.929688 580.667969 326.355469 C 580.199219 325.484375 580.511719 324.722656 580.835938 323.980469 C 581.160156 323.257812 581.902344 322.628906 581.964844 321.90625 C 582.027344 321.15625 581.496094 320.347656 581.253906 319.554688 C 581.160156 319.238281 581.183594 318.894531 581.160156 318.558594 C 582.742188 316.050781 584.824219 314.300781 587.941406 314.167969 C 589.40625 313.265625 591.015625 312.984375 592.699219 312.902344 C 593.359375 312.867188 594.089844 312.828125 594.644531 312.535156 C 596.589844 311.519531 598.695312 311.300781 600.734375 311.226562 C 601.789062 308.800781 601.78125 308.96875 604 309.082031 C 605.535156 309.164062 606.894531 309.710938 608.339844 309.992188 C 609.3125 310.179688 610.328125 310.421875 611.289062 310.304688 C 612.503906 310.160156 614.019531 310.652344 614.792969 309.125 C 615.957031 309.070312 617.136719 308.832031 618.257812 309.007812 C 619.953125 309.292969 621.5625 309.292969 623.121094 308.558594 C 624.117188 308.089844 625.109375 308.222656 626.019531 308.664062 C 627.683594 309.449219 629.410156 310.035156 631.21875 310.390625 C 633.644531 310.882812 636.105469 311.289062 638.4375 312.1875 C 638.742188 312.304688 639.105469 312.242188 639.429688 312.324219 C 642.339844 313.078125 645.238281 313.820312 648.136719 314.59375 C 649.578125 314.980469 651 315.433594 652.433594 315.839844 C 652.863281 315.964844 653.460938 315.402344 653.238281 314.992188 C 652.539062 313.726562 653.835938 312.828125 653.730469 311.699219 C 653.992188 311.894531 654.296875 312.0625 654.527344 312.304688 C 655.730469 313.539062 657.5625 313.414062 658.898438 314.417969 C 660.355469 315.503906 661.984375 316.351562 663.574219 317.253906 C 663.828125 317.398438 664.320312 317.449219 664.515625 317.304688 C 665.949219 316.25 667.457031 316.917969 668.859375 317.191406 C 670.46875 317.492188 671.925781 318.433594 673.671875 318.296875 C 674.109375 318.265625 674.59375 318.652344 675.03125 318.882812 C 676.914062 319.910156 678.945312 320.746094 680.636719 322.023438 C 682.554688 323.464844 684.917969 323.789062 686.882812 325.035156 C 687.34375 325.328125 688.148438 325.054688 688.808594 325.046875 C 689.707031 325.023438 690.421875 325.402344 690.890625 326.15625 C 691.152344 326.574219 691.277344 327.074219 691.507812 327.503906 C 691.664062 327.785156 691.882812 328.046875 692.125 328.257812 C 692.597656 328.6875 693.066406 328.414062 693.476562 328.144531 C 694.125 327.714844 694.59375 326.773438 694.3125 326.5 C 693.894531 326.039062 693.453125 325.496094 692.878906 325.191406 Z M 559.664062 360.867188 C 559.859375 360.15625 560.050781 359.453125 560.269531 358.753906 C 560.289062 358.691406 560.574219 358.660156 560.707031 358.699219 C 560.855469 358.753906 561.042969 358.890625 561.0625 359.015625 C 561.210938 360.101562 560.96875 360.4375 559.664062 360.867188 Z M 427.773438 375.230469 C 428.035156 375.238281 428.296875 375.523438 428.558594 375.691406 C 428.289062 375.835938 428.003906 375.984375 427.734375 376.128906 C 427.480469 375.960938 427.230469 375.792969 426.96875 375.628906 C 427.242188 375.480469 427.515625 375.21875 427.773438 375.230469 Z M 54.4375 406.53125 C 54.21875 406.71875 53.945312 406.875 53.675781 406.960938 C 53.582031 406.992188 53.414062 406.800781 53.277344 406.71875 C 53.496094 406.539062 53.695312 406.332031 53.9375 406.195312 C 54.039062 406.132812 54.199219 406.164062 54.34375 406.183594 C 54.40625 406.332031 54.480469 406.5 54.4375 406.53125 Z M 310.972656 383.589844 C 310.753906 383.964844 310.324219 384.320312 309.917969 384.46875 C 309.46875 384.625 308.902344 383.746094 309.039062 382.929688 C 309.101562 382.542969 309.539062 382.21875 309.71875 381.976562 C 310.941406 381.945312 311.484375 382.730469 310.972656 383.589844 Z M 345.097656 455.867188 C 345.382812 455.898438 345.652344 455.980469 345.925781 456.042969 C 345.558594 456.160156 345.203125 456.421875 344.816406 456.066406 C 344.910156 456.003906 345.015625 455.855469 345.097656 455.867188 Z M 347.777344 356.839844 C 346.78125 356.839844 345.820312 356.765625 345.191406 355.824219 C 345.035156 355.582031 344.835938 355.363281 344.660156 355.132812 C 345.390625 354.945312 346.113281 354.746094 346.84375 354.589844 C 347.597656 354.421875 348.027344 354.851562 348.371094 355.46875 C 348.78125 356.199219 348.507812 356.839844 347.777344 356.839844 Z M 353.183594 367.164062 C 353.132812 367.257812 352.902344 367.320312 352.789062 367.289062 C 352.378906 367.175781 352.234375 366.902344 352.390625 366.589844 C 352.441406 366.496094 352.671875 366.496094 352.820312 366.453125 C 353.25 366.558594 353.394531 366.808594 353.183594 367.164062 Z M 386.683594 373.691406 C 385.929688 373.878906 385.1875 374.265625 384.414062 373.839844 C 384.320312 373.785156 384.285156 373.617188 384.222656 373.515625 C 384.265625 373.367188 384.265625 373.191406 384.351562 373.085938 C 385.007812 372.363281 386.398438 372.53125 386.703125 373.367188 C 386.746094 373.460938 386.726562 373.679688 386.683594 373.691406 Z M 398.984375 384.957031 C 398.847656 384.90625 398.640625 384.90625 398.578125 384.800781 C 398.421875 384.539062 398.609375 384.382812 399.027344 384.445312 C 399.152344 384.46875 399.257812 384.632812 399.371094 384.730469 C 399.246094 384.800781 399.121094 384.875 398.984375 384.957031 Z M 441.292969 394.238281 C 439.859375 394.300781 438.863281 393.695312 437.566406 392.042969 C 438.363281 392.042969 439 392.03125 439.648438 392.042969 C 440.140625 392.050781 440.644531 392.113281 441.132812 392.09375 C 441.792969 392.0625 442.453125 391.894531 443.101562 391.925781 C 443.570312 391.945312 444.03125 392.207031 444.523438 392.375 C 443.863281 393.808594 442.640625 394.175781 441.292969 394.238281 Z M 452.148438 394.8125 C 452.023438 394.8125 451.898438 394.742188 451.785156 394.699219 C 451.824219 394.605469 451.867188 394.425781 451.910156 394.425781 C 452.035156 394.425781 452.160156 394.5 452.285156 394.542969 C 452.234375 394.636719 452.191406 394.824219 452.148438 394.8125 Z M 455.171875 396.886719 C 454.734375 396.863281 454.621094 396.675781 454.878906 396.457031 C 454.976562 396.382812 455.171875 396.382812 455.308594 396.425781 C 455.414062 396.457031 455.476562 396.601562 455.550781 396.695312 C 455.425781 396.769531 455.300781 396.894531 455.171875 396.886719 Z M 480.324219 408.976562 C 480.039062 409.324219 479.621094 409.625 479.203125 409.761719 C 478.742188 409.910156 478.210938 409.835938 477.320312 409.878906 C 477.046875 409.835938 476.398438 409.753906 475.761719 409.625 C 475.625 409.59375 475.511719 409.40625 475.425781 409.269531 C 475.207031 408.894531 475.269531 408.589844 475.617188 408.464844 C 476.714844 408.066406 477.824219 407.773438 479.027344 407.902344 C 479.875 407.984375 480.65625 408.589844 480.324219 408.976562 Z M 552.507812 449.117188 C 552.402344 449.160156 552.234375 449.117188 552.128906 449.054688 C 552.066406 449.015625 552.078125 448.867188 552.058594 448.761719 C 552.183594 448.730469 552.320312 448.636719 552.421875 448.667969 C 552.820312 448.792969 552.851562 448.984375 552.507812 449.117188 Z M 558.1875 448.660156 C 556.933594 449.171875 556.386719 449.046875 555.6875 448.105469 C 555.40625 447.71875 555.101562 447.320312 554.933594 446.878906 C 554.851562 446.660156 555.027344 446.316406 555.144531 446.054688 C 555.175781 445.980469 555.4375 445.917969 555.53125 445.96875 C 556.671875 446.554688 557.789062 447.152344 559.160156 447.882812 C 558.679688 448.269531 558.460938 448.542969 558.1875 448.660156 Z M 564.601562 462.039062 C 564.308594 461.535156 564.140625 460.960938 563.929688 460.417969 C 564.484375 460.574219 565.050781 460.699219 565.550781 460.949219 C 565.742188 461.042969 565.824219 461.515625 565.8125 461.808594 C 565.792969 462.238281 564.839844 462.445312 564.601562 462.039062 Z M 577.78125 454.714844 C 578.0625 453.828125 578.796875 453.574219 579.652344 453.605469 C 579.800781 453.617188 579.980469 453.699219 580.082031 453.804688 C 580.15625 453.878906 580.113281 454.054688 580.125 454.203125 C 579.789062 454.976562 579.152344 455.425781 578.386719 455.699219 C 578.292969 455.730469 578.0625 455.65625 578.03125 455.582031 C 577.90625 455.3125 577.699219 454.957031 577.78125 454.714844 Z M 658.796875 311.488281 C 658.542969 311.300781 658.648438 311.175781 659.046875 311.183594 C 659.078125 311.269531 659.121094 311.339844 659.152344 311.425781 C 659.035156 311.4375 658.859375 311.53125 658.796875 311.488281 Z M 658.796875 311.488281 " fill-opacity="1" fill-rule="nonzero"/></g><path fill="#afcbff" d="M 733.949219 338.511719 C 731.09375 337.246094 728.574219 335.277344 725.476562 334.503906 C 725.351562 334.472656 725.183594 334.316406 725.171875 334.191406 C 724.921875 332.683594 723.636719 332.210938 722.589844 332.441406 C 720.453125 332.921875 718.675781 331.855469 716.730469 331.605469 C 714.910156 330.183594 712.167969 330.359375 710.789062 328.175781 C 710.003906 327.945312 709.082031 327.347656 708.457031 327.558594 C 706.667969 328.164062 705.664062 326.8125 704.460938 326.324219 C 702.535156 326.605469 700.722656 326.84375 698.914062 327.148438 C 698.632812 327.203125 698.277344 327.460938 698.171875 327.722656 C 697.734375 328.8125 697.335938 328.015625 696.8125 327.828125 C 696.433594 327.691406 695.746094 327.851562 695.472656 328.144531 C 694.867188 328.800781 695.460938 330.445312 696.289062 330.558594 C 698.246094 330.84375 700.210938 331.101562 702.167969 331.375 C 703.128906 330.140625 703.359375 330.078125 704.207031 331.113281 C 704.847656 331.898438 705.453125 332.714844 706.445312 333.050781 C 708.171875 333.625 709.929688 334.125 711.667969 334.660156 C 714.367188 334.253906 716.8125 336.082031 719.535156 335.570312 C 719.828125 335.519531 720.222656 335.632812 720.484375 335.8125 C 722.296875 336.992188 724.1875 338.007812 726.28125 338.605469 C 727.191406 339.714844 728.929688 339.535156 729.722656 340.488281 C 730.882812 341.878906 732.453125 341.355469 733.75 341.929688 C 735.257812 342.601562 736.773438 343.257812 738.25 343.90625 C 739.097656 343.488281 739.851562 343.132812 740.570312 342.746094 C 741.03125 342.496094 741.136719 341.730469 740.78125 341.523438 C 738.59375 340.246094 736.210938 339.523438 733.949219 338.511719 Z M 725.402344 336.554688 L 724.996094 336.398438 L 725.402344 336.238281 Z M 725.402344 336.554688 " fill-opacity="1" fill-rule="nonzero"/><path fill="#afcbff" d="M 72.140625 406.226562 C 70.644531 405.921875 69.785156 407.230469 68.601562 407.597656 C 66.917969 408.121094 66.488281 409.5625 65.308594 411.101562 C 67.460938 411.625 69.21875 412.054688 71.0625 412.503906 C 71.492188 412.230469 71.761719 411.605469 72.558594 411.574219 C 75.683594 411.4375 78.8125 411.207031 81.992188 411.007812 C 82.285156 409.792969 82.570312 408.589844 82.894531 407.242188 C 81.554688 406.246094 80.257812 405.273438 78.898438 404.25 C 76.574219 404.929688 74.355469 405.578125 72.140625 406.226562 Z M 72.140625 406.226562 " fill-opacity="1" fill-rule="nonzero"/><path fill="#afcbff" d="M 584.464844 400.367188 C 584.527344 400.472656 584.769531 400.566406 584.894531 400.546875 C 586.484375 400.179688 587.511719 401.039062 588.074219 402.304688 C 588.621094 403.496094 588.828125 404.835938 589.175781 406.121094 C 589.277344 406.519531 589.53125 406.667969 589.9375 406.507812 C 590.0625 406.457031 590.230469 406.300781 590.242188 406.164062 C 590.378906 405.023438 590.441406 403.875 590.628906 402.734375 C 590.734375 402.085938 590.964844 401.507812 590.804688 400.808594 C 590.585938 399.867188 590.828125 398.777344 590.449219 397.941406 C 589.613281 396.070312 589.65625 394.101562 589.445312 392.15625 C 589.414062 391.851562 589.339844 391.550781 589.257812 391.132812 C 588.546875 390.578125 587.773438 389.960938 586.726562 389.121094 C 586.066406 389.699219 585.503906 389.960938 585.367188 390.355469 C 585.050781 391.289062 584.769531 392.292969 584.800781 393.253906 C 584.832031 394.363281 585.628906 395.304688 585.648438 396.550781 C 585.679688 397.972656 584.121094 398.296875 584.089844 399.488281 C 584.109375 399.78125 584.308594 400.097656 584.464844 400.367188 Z M 584.464844 400.367188 " fill-opacity="1" fill-rule="nonzero"/><path fill="#afcbff" d="M 93.972656 389.320312 C 94.828125 388.347656 95.824219 388.210938 97.109375 388.410156 C 98.011719 388.546875 99.023438 388.078125 99.964844 387.785156 C 100.175781 387.71875 100.375 387.238281 100.355469 386.96875 C 100.332031 386.726562 100.027344 386.382812 99.789062 386.320312 C 98.660156 386.027344 97.507812 385.773438 96.304688 386.308594 C 95.867188 386.226562 95.375 386.097656 94.882812 386.046875 C 92.097656 385.773438 89.609375 386.589844 87.453125 388.304688 C 86.964844 388.695312 86.660156 389.351562 86.367188 389.949219 C 86.273438 390.148438 86.441406 390.710938 86.585938 390.753906 C 89.265625 391.464844 91.878906 391.675781 93.972656 389.320312 Z M 93.972656 389.320312 " fill-opacity="1" fill-rule="nonzero"/><path fill="#afcbff" d="M 572.730469 413.71875 C 572.625 413.078125 572.382812 412.390625 571.984375 411.886719 C 571.148438 410.828125 570.394531 409.785156 570.261719 408.382812 C 570.238281 408.164062 569.777344 407.921875 569.484375 407.804688 C 569.203125 407.703125 568.804688 407.628906 568.574219 407.753906 C 568.34375 407.878906 568.15625 408.257812 568.125 408.550781 C 568.03125 409.53125 568.667969 410.410156 568.441406 411.480469 C 568.28125 412.199219 569.128906 412.878906 569.089844 413.78125 C 569.058594 414.398438 569.644531 415.078125 569.515625 415.640625 C 569.285156 416.761719 569.789062 417.097656 570.679688 417.410156 C 571.566406 417.722656 572.40625 418.183594 573.355469 418.625 C 573.148438 416.992188 573 415.339844 572.730469 413.71875 Z M 572.730469 413.71875 " fill-opacity="1" fill-rule="nonzero"/><path fill="#afcbff" d="M 523.96875 417.265625 C 524.375 417.003906 524.792969 416.75 525.179688 416.457031 C 526.019531 415.839844 526.101562 415.066406 525.371094 414.554688 C 524.699219 414.082031 523.980469 413.707031 523.265625 413.277344 C 522.191406 413.78125 521.183594 414.25 520.191406 414.722656 C 520.273438 415.085938 520.253906 415.515625 520.441406 415.683594 C 521.445312 416.53125 522.617188 417.074219 523.96875 417.265625 Z M 523.96875 417.265625 " fill-opacity="1" fill-rule="nonzero"/><path fill="#afcbff" d="M 591.757812 416.007812 C 592.324219 415.832031 593.003906 414.804688 592.929688 414.074219 C 592.847656 413.339844 592.207031 413.039062 591.589844 412.859375 C 591.382812 412.796875 590.910156 413.027344 590.828125 413.226562 C 590.417969 414.199219 590.828125 415.078125 591.289062 415.914062 C 591.339844 416.007812 591.601562 415.988281 591.757812 416.007812 Z M 591.757812 416.007812 " fill-opacity="1" fill-rule="nonzero"/><path fill="#afcbff" d="M 210.628906 397.210938 C 211.046875 397.3125 211.578125 396.089844 211.265625 395.765625 C 211.097656 395.597656 210.679688 395.523438 210.4375 395.609375 C 210.199219 395.691406 210.042969 396.015625 209.75 396.339844 C 210.042969 396.632812 210.28125 397.125 210.628906 397.210938 Z M 210.628906 397.210938 " fill-opacity="1" fill-rule="nonzero"/><g clip-path="url(#5aed812af9)"><path fill="#afcbff" d="M 752.59375 348.300781 C 752.457031 348.34375 752.277344 348.480469 752.246094 348.605469 C 752.078125 349.191406 752.519531 350.019531 753.082031 350.082031 C 753.335938 350.113281 753.636719 349.859375 753.890625 349.683594 C 753.984375 349.609375 753.984375 349.402344 754.023438 349.253906 C 753.859375 348.65625 753.136719 348.132812 752.59375 348.300781 Z M 752.59375 348.300781 " fill-opacity="1" fill-rule="nonzero"/></g><path fill="#afcbff" d="M 40.429688 394.742188 C 40.460938 394.742188 40.453125 394.519531 40.460938 394.257812 C 40.042969 394.257812 39.625 394.1875 39.238281 394.28125 C 38.777344 394.382812 38.734375 394.761719 39.1875 394.875 C 39.574219 394.96875 40.023438 394.804688 40.429688 394.742188 Z M 40.429688 394.742188 " fill-opacity="1" fill-rule="nonzero"/><path fill="#afcbff" d="M 570.605469 418.433594 C 570.457031 418.488281 570.269531 418.59375 570.207031 418.71875 C 570.039062 419.105469 570.59375 419.847656 571.003906 419.734375 C 571.222656 419.667969 571.359375 419.3125 571.535156 419.09375 C 571.566406 418.550781 571.171875 418.257812 570.605469 418.433594 Z M 570.605469 418.433594 " fill-opacity="1" fill-rule="nonzero"/><path fill="#afcbff" d="M 594.625 443.816406 C 594.769531 443.867188 594.917969 443.972656 595.042969 443.949219 C 595.167969 443.929688 595.261719 443.761719 595.355469 443.667969 C 595.304688 443.5 595.253906 443.355469 595.210938 443.207031 C 595.023438 443.40625 594.824219 443.617188 594.625 443.816406 Z M 594.625 443.816406 " fill-opacity="1" fill-rule="nonzero"/><path fill="#afcbff" d="M 18.578125 449.570312 C 18.503906 449.570312 18.410156 449.726562 18.324219 449.808594 C 18.441406 449.894531 18.546875 450.027344 18.660156 450.039062 C 18.933594 450.050781 19.203125 449.996094 19.488281 449.976562 C 19.457031 449.882812 19.445312 449.726562 19.402344 449.714844 C 19.132812 449.640625 18.847656 449.578125 18.578125 449.570312 Z M 18.578125 449.570312 " fill-opacity="1" fill-rule="nonzero"/><path fill="#afcbff" d="M 546.417969 453.125 C 546.492188 453.1875 546.730469 453.144531 546.847656 453.074219 C 547.222656 452.832031 547.152344 452.601562 546.867188 452.269531 C 546.605469 451.953125 546.4375 451.554688 546.25 451.179688 C 546.113281 451.617188 545.925781 452.046875 545.90625 452.488281 C 545.882812 452.695312 546.210938 452.949219 546.417969 453.125 Z M 546.417969 453.125 " fill-opacity="1" fill-rule="nonzero"/><path fill="#afcbff" d="M 743.40625 344.199219 C 743.269531 344.160156 743.050781 344.148438 742.96875 344.234375 C 742.695312 344.492188 742.8125 344.703125 743.269531 344.714844 C 743.398438 344.722656 743.53125 344.578125 743.65625 344.503906 C 743.574219 344.390625 743.511719 344.234375 743.40625 344.199219 Z M 743.40625 344.199219 " fill-opacity="1" fill-rule="nonzero"/><path fill="#afcbff" d="M 345.882812 373.378906 C 345.957031 373.398438 346.019531 373.417969 346.09375 373.441406 C 346.070312 373.398438 346.050781 373.367188 346.03125 373.324219 C 346.007812 373.335938 345.988281 373.347656 345.976562 373.355469 C 345.945312 373.367188 345.914062 373.367188 345.882812 373.378906 Z M 345.882812 373.378906 " fill-opacity="1" fill-rule="nonzero"/><path fill="#afcbff" d="M 344.765625 373.503906 C 344.773438 373.535156 345.015625 373.523438 345.152344 373.503906 C 345.402344 373.472656 345.644531 373.417969 345.894531 373.378906 C 345.683594 373.316406 345.476562 373.253906 345.277344 373.191406 C 344.859375 373.0625 344.679688 373.167969 344.765625 373.503906 Z M 344.765625 373.503906 " fill-opacity="1" fill-rule="nonzero"/><path fill="#afcbff" d="M 57.515625 407.09375 C 57.453125 407.09375 57.398438 407.09375 57.335938 407.09375 C 57.335938 407.117188 57.324219 407.125 57.324219 407.136719 C 57.367188 407.167969 57.410156 407.1875 57.453125 407.222656 C 57.472656 407.1875 57.492188 407.136719 57.515625 407.09375 Z M 57.515625 407.09375 " fill-opacity="1" fill-rule="nonzero"/><path fill="#afcbff" d="M 58.558594 406.800781 C 58.488281 406.4375 58.195312 406.269531 57.878906 406.488281 C 57.703125 406.613281 57.617188 406.863281 57.515625 407.09375 C 57.753906 407.09375 57.984375 407.105469 58.226562 407.0625 C 58.351562 407.042969 58.570312 406.875 58.558594 406.800781 Z M 58.558594 406.800781 " fill-opacity="1" fill-rule="nonzero"/><path fill="#afcbff" d="M 730.257812 407.839844 L 730.613281 407.796875 L 730.308594 407.628906 Z M 730.257812 407.839844 " fill-opacity="1" fill-rule="nonzero"/><path fill="#afcbff" d="M 736.796875 410.441406 L 736.941406 410.171875 L 736.742188 410.117188 Z M 736.796875 410.441406 " fill-opacity="1" fill-rule="nonzero"/><path fill="#afcbff" d="M 519.554688 411.90625 C 519.679688 412.398438 519.929688 412.441406 520.179688 412.011719 C 520.234375 411.917969 520.179688 411.6875 520.085938 411.59375 C 520.011719 411.511719 519.824219 411.542969 519.699219 411.519531 C 519.636719 411.644531 519.523438 411.792969 519.554688 411.90625 Z M 519.554688 411.90625 " fill-opacity="1" fill-rule="nonzero"/><path fill="#afcbff" d="M 305.691406 416.070312 C 305.742188 416.144531 305.960938 416.15625 306.097656 416.125 C 306.316406 416.070312 306.515625 415.988281 306.726562 415.914062 C 306.484375 415.832031 306.253906 415.738281 306.003906 415.671875 C 305.585938 415.578125 305.460938 415.746094 305.691406 416.070312 Z M 305.691406 416.070312 " fill-opacity="1" fill-rule="nonzero"/><path fill="#afcbff" d="M 306.800781 415.945312 C 306.800781 415.945312 306.914062 415.851562 306.914062 415.851562 C 306.851562 415.871094 306.789062 415.894531 306.726562 415.925781 C 306.757812 415.925781 306.777344 415.933594 306.800781 415.945312 Z M 306.800781 415.945312 " fill-opacity="1" fill-rule="nonzero"/></svg>