<svg xmlns="http://www.w3.org/2000/svg" xmlns:xlink="http://www.w3.org/1999/xlink" width="1024" zoomAndPan="magnify" viewBox="0 0 768 767.999994" height="1024" preserveAspectRatio="xMidYMid meet" version="1.0"><defs><clipPath id="8c02d214cf"><path d="M 17 325.59375 L 753.503906 325.59375 L 753.503906 442.59375 L 17 442.59375 Z M 17 325.59375 " clip-rule="nonzero"/></clipPath></defs><path fill="#afcbff" d="M 622.109375 397.972656 C 621.683594 398.03125 621.5625 397.972656 621.519531 397.894531 C 621.183594 397.988281 620.863281 398.09375 620.515625 398.183594 C 621.046875 398.109375 621.578125 398.0625 622.109375 397.972656 Z M 622.109375 397.972656 " fill-opacity="1" fill-rule="nonzero"/><path fill="#afcbff" d="M 709.386719 358.773438 C 709.429688 358.742188 709.460938 358.726562 709.523438 358.683594 C 709.324219 358.699219 709.097656 358.726562 709.003906 358.667969 C 708.945312 358.910156 708.945312 358.910156 709.386719 358.773438 Z M 709.386719 358.773438 " fill-opacity="1" fill-rule="nonzero"/><path fill="#afcbff" d="M 688.980469 370.816406 C 688.570312 370.90625 688.160156 371 687.777344 371.042969 C 687.824219 371.152344 688.328125 371.011719 688.980469 370.816406 Z M 688.980469 370.816406 " fill-opacity="1" fill-rule="nonzero"/><path fill="#afcbff" d="M 635.21875 395.234375 C 634.136719 395.371094 633.027344 395.507812 631.886719 395.644531 C 632.296875 395.796875 633.589844 395.734375 635.21875 395.234375 Z M 635.21875 395.234375 " fill-opacity="1" fill-rule="nonzero"/><path fill="#afcbff" d="M 692.050781 369.859375 C 691.230469 370.085938 689.9375 370.527344 688.964844 370.816406 C 689.9375 370.601562 690.972656 370.269531 692.050781 369.859375 Z M 692.050781 369.859375 " fill-opacity="1" fill-rule="nonzero"/><path fill="#afcbff" d="M 744.839844 333.535156 C 744.308594 333.882812 743.746094 334.265625 743.140625 334.707031 C 743.140625 334.78125 743.078125 334.886719 743.152344 334.949219 Z M 744.839844 333.535156 " fill-opacity="1" fill-rule="nonzero"/><path fill="#afcbff" d="M 24.652344 382.917969 C 26.507812 382.035156 26.765625 381.761719 26.386719 381.625 C 26.128906 381.929688 25.59375 382.28125 24.652344 382.917969 Z M 24.652344 382.917969 " fill-opacity="1" fill-rule="nonzero"/><path fill="#afcbff" d="M 73.65625 372.867188 C 73.277344 372.929688 72.910156 373.003906 72.578125 373.097656 C 73.351562 373.003906 73.882812 372.898438 73.65625 372.867188 Z M 73.65625 372.867188 " fill-opacity="1" fill-rule="nonzero"/><path fill="#afcbff" d="M 44.039062 372.367188 C 43.945312 372.261719 43.792969 372.199219 43.582031 372.167969 C 43.414062 372.304688 43.519531 372.382812 44.039062 372.367188 Z M 44.039062 372.367188 " fill-opacity="1" fill-rule="nonzero"/><path fill="#afcbff" d="M 211.242188 376.230469 L 209.949219 375.816406 C 210.160156 375.96875 210.648438 376.105469 211.242188 376.230469 Z M 211.242188 376.230469 " fill-opacity="1" fill-rule="nonzero"/><path fill="#afcbff" d="M 281.941406 386.964844 C 282.15625 387.007812 282.351562 387.039062 282.566406 387.085938 C 282.351562 387.054688 282.15625 387.007812 281.941406 386.964844 Z M 281.941406 386.964844 " fill-opacity="1" fill-rule="nonzero"/><path fill="#afcbff" d="M 283.996094 387.375 C 283.492188 387.28125 283.035156 387.191406 282.550781 387.101562 C 283.171875 387.222656 283.722656 387.34375 283.996094 387.375 Z M 283.996094 387.375 " fill-opacity="1" fill-rule="nonzero"/><path fill="#afcbff" d="M 747.441406 333.214844 C 748.246094 331.726562 750.96875 328.820312 750.605469 328.335938 C 748.671875 330.066406 746.863281 331.90625 744.839844 333.535156 C 747.214844 332.042969 748.597656 331.421875 747.441406 333.214844 Z M 747.441406 333.214844 " fill-opacity="1" fill-rule="nonzero"/><path fill="#afcbff" d="M 88.359375 420.777344 C 88.191406 420.671875 88.101562 420.59375 87.949219 420.582031 C 88.023438 420.703125 88.191406 420.777344 88.328125 420.792969 Z M 88.359375 420.777344 " fill-opacity="1" fill-rule="nonzero"/><path fill="#afcbff" d="M 118.371094 397.878906 C 118.3125 397.925781 118.234375 397.972656 118.175781 398 C 118.296875 397.957031 118.386719 397.910156 118.507812 397.847656 Z M 118.371094 397.878906 " fill-opacity="1" fill-rule="nonzero"/><path fill="#afcbff" d="M 88.953125 420.488281 C 89.011719 420.414062 89.074219 420.335938 89.132812 420.230469 C 88.980469 420.457031 88.996094 420.429688 88.953125 420.488281 Z M 88.953125 420.488281 " fill-opacity="1" fill-rule="nonzero"/><path fill="#afcbff" d="M 609.050781 403.125 C 608.6875 403.246094 608.382812 403.339844 607.910156 403.492188 C 608.425781 403.355469 608.761719 403.230469 609.050781 403.125 Z M 609.050781 403.125 " fill-opacity="1" fill-rule="nonzero"/><path fill="#afcbff" d="M 114.375 398.320312 L 118.386719 397.894531 C 118.84375 397.589844 119.300781 397.285156 119.921875 396.90625 C 120.410156 396.011719 116.105469 397.515625 114.375 398.320312 Z M 114.375 398.320312 " fill-opacity="1" fill-rule="nonzero"/><path fill="#afcbff" d="M 88.953125 420.488281 C 88.753906 420.730469 88.527344 420.839844 88.328125 420.808594 C 88.222656 420.945312 88.144531 421.097656 88.085938 421.25 C 88.617188 421.523438 88.691406 420.792969 88.953125 420.488281 Z M 88.953125 420.488281 " fill-opacity="1" fill-rule="nonzero"/><g clip-path="url(#8c02d214cf)"><path fill="#afcbff" d="M 19.605469 382.402344 C 22.007812 381.871094 14.679688 385.988281 19.347656 384.136719 L 23.4375 381.109375 C 23.164062 381.519531 23.726562 381.566406 24.4375 381.535156 C 25.167969 381.535156 26.050781 381.488281 26.402344 381.609375 C 27.144531 380.789062 25.503906 380.957031 24.289062 380.925781 C 23.117188 380.972656 22.28125 380.683594 24.773438 378.949219 C 25.304688 378.417969 26.644531 377.78125 28.117188 377.1875 C 29.59375 376.578125 31.207031 376.0625 32.34375 375.816406 C 27.417969 377.203125 32.148438 374.859375 34.035156 373.902344 C 37.148438 373.25 42.03125 371.894531 43.597656 372.167969 C 43.808594 372.003906 44.492188 371.714844 45.34375 371.46875 C 46.195312 371.257812 47.214844 371.042969 48.050781 370.9375 L 48.28125 371.242188 C 51.929688 370.222656 46.957031 371.164062 47.839844 370.632812 C 49.175781 370.3125 50.925781 370.117188 52.886719 369.917969 C 54.863281 369.8125 57.054688 369.675781 59.242188 369.339844 C 57.039062 369.675781 55.046875 370.085938 53.207031 370.511719 C 51.382812 371 49.753906 371.578125 48.234375 372.046875 C 56.230469 371.105469 47.15625 374.007812 45.664062 375.242188 C 48.722656 374.390625 50.847656 373.734375 52.8125 373.050781 C 54.800781 372.441406 56.65625 371.910156 59.226562 371.257812 C 65.628906 371.257812 59 373.75 57.492188 374.144531 C 60.292969 373.429688 63.179688 372.824219 65.765625 372.230469 C 68.351562 371.5625 70.628906 371.226562 72.195312 370.96875 C 67.925781 372.425781 68.699219 372.792969 64.960938 374.207031 C 69.566406 374.542969 70.433594 373.734375 72.621094 373.113281 C 71.34375 373.277344 69.367188 373.414062 68.898438 373.171875 C 74.355469 373.140625 73.367188 371.058594 76.269531 370.148438 C 78.324219 370.496094 81.320312 370.726562 83.691406 371.121094 C 86.0625 371.589844 87.84375 372.109375 87.539062 372.6875 L 87.597656 371.394531 C 92.417969 371.453125 90.015625 372.246094 90.714844 372.730469 C 92.585938 372.09375 90.488281 370.511719 98.636719 371.289062 C 97.070312 373.113281 105.753906 372.824219 105.128906 374.632812 C 106.96875 374.996094 108.367188 375.058594 109.78125 375.148438 C 111.195312 375.253906 112.640625 375.316406 114.480469 376.046875 C 116.410156 377.203125 114.785156 377.367188 112.472656 377.140625 C 110.117188 377.035156 107.03125 376.578125 105.933594 376.136719 C 100.644531 375.105469 106.816406 375.390625 104.703125 374.996094 L 99.519531 374.601562 C 100.902344 375.074219 102.941406 375.667969 104.535156 376.242188 C 106.117188 376.867188 107.210938 377.519531 106.785156 377.839844 C 111.925781 378.691406 102.925781 375.957031 108.582031 376.851562 L 111.820312 378.144531 C 117.429688 379.332031 111.058594 376.378906 118.3125 378.34375 C 115.757812 378.054688 117.734375 378.601562 120.167969 379.496094 C 122.585938 380.457031 125.519531 381.671875 125.046875 382.234375 C 125.519531 381.414062 128.621094 382.722656 131.84375 384.121094 C 135.097656 385.472656 137.726562 387.128906 138.699219 386.949219 C 137.773438 386.21875 136.800781 385.488281 135.765625 384.804688 L 136.117188 385.851562 C 135.25 385.398438 134.382812 385 133.515625 384.621094 C 132.574219 384.257812 131.644531 383.90625 130.71875 383.542969 C 129.789062 383.175781 128.863281 382.8125 127.921875 382.402344 C 127.449219 382.1875 126.976562 381.976562 126.492188 381.746094 C 126.003906 381.535156 125.503906 381.324219 124.988281 381.109375 C 128.515625 381.761719 124.410156 379.269531 128.4375 380.320312 C 135.996094 382.507812 129.957031 381.992188 130.976562 382.433594 L 133.988281 383.253906 C 134.929688 383.542969 135.859375 383.832031 136.769531 384.148438 C 135.722656 383.3125 134.703125 382.507812 133.46875 381.734375 C 135.75 382.554688 138.167969 383.710938 140.585938 385.246094 C 142.972656 386.765625 145.269531 388.695312 146.820312 390.824219 C 147.277344 391.675781 147.550781 392.300781 147.65625 392.757812 C 147.808594 393.195312 147.824219 393.484375 147.808594 393.652344 C 147.777344 393.988281 147.609375 393.882812 147.429688 393.746094 C 147.261719 393.609375 147.03125 393.410156 146.925781 393.546875 C 146.878906 393.609375 146.851562 393.746094 146.851562 394.003906 C 146.835938 394.246094 146.941406 394.609375 146.910156 395.097656 C 147.15625 395.460938 147.261719 395.734375 147.398438 395.949219 C 147.535156 396.160156 147.65625 396.34375 147.71875 396.542969 C 147.867188 396.96875 148.050781 397.453125 147.730469 398.761719 C 148.507812 397.378906 147.671875 396.296875 147.566406 395.417969 C 147.882812 394.6875 148.460938 395.765625 148.554688 397.148438 C 148.707031 398.457031 148.265625 400.144531 148.796875 400.160156 C 147.945312 401.332031 147.65625 400.84375 147.550781 399.78125 C 147.003906 402.257812 145.132812 405.027344 143.15625 407.09375 C 142.089844 408.113281 141.132812 409.039062 140.207031 409.695312 C 139.261719 410.332031 138.425781 410.789062 137.726562 411 C 137.300781 412.019531 136.800781 412.992188 136.3125 414.011719 C 131.371094 417.644531 132.832031 416.066406 134.445312 414.390625 C 135.265625 413.570312 136.007812 412.597656 136.117188 412.277344 C 136.175781 411.914062 135.644531 412.261719 133.546875 413.632812 C 130.261719 416.109375 126.796875 418.222656 125.457031 419.546875 C 126.550781 419.03125 127.539062 418.34375 128.589844 417.753906 C 126.597656 419.804688 127.070312 420.199219 123.238281 422.664062 C 120.242188 423.894531 121.503906 422.421875 118.175781 424.535156 C 113.429688 425.855469 112.578125 425.414062 113.050781 424.714844 C 113.539062 424.046875 115.242188 422.738281 115.742188 421.949219 C 112.414062 422.695312 113.066406 421.8125 113.964844 421.007812 C 114.859375 420.199219 116.03125 419.46875 114.023438 420.441406 L 115.253906 420.351562 C 113.292969 421.660156 111.257812 422.875 109.097656 423.957031 C 112.488281 423.910156 113.035156 423.316406 113.082031 422.984375 C 113.125 422.601562 112.703125 422.40625 114.160156 422.695312 C 115.421875 422.3125 116.683594 421.949219 117.902344 421.460938 C 117.476562 422.070312 115.042969 423.027344 112.609375 423.804688 C 110.175781 424.609375 107.730469 425.125 107.394531 425.660156 C 107.320312 425.445312 107.472656 425.050781 108.140625 424.578125 C 108.808594 424.109375 109.996094 423.621094 111.941406 423.027344 C 111.011719 422.707031 110.101562 422.417969 109.203125 422.054688 C 108.0625 422.207031 107.195312 422.648438 106.40625 422.96875 C 105.617188 423.242188 104.945312 423.4375 104.261719 423.179688 C 102.515625 422.921875 103.683594 422.3125 104.230469 421.871094 C 104.507812 421.660156 104.644531 421.476562 104.1875 421.417969 C 103.957031 421.386719 103.59375 421.371094 103.046875 421.402344 C 102.484375 421.386719 101.722656 421.402344 100.71875 421.445312 C 99.640625 421.539062 98.726562 421.492188 97.90625 421.570312 C 97.085938 421.644531 96.386719 421.675781 95.777344 421.71875 C 95.15625 421.765625 94.609375 421.855469 94.121094 421.933594 C 93.605469 422.023438 93.300781 422.085938 92.921875 422.175781 C 92.207031 422.3125 91.550781 422.464844 90.820312 422.480469 C 90.105469 422.511719 89.210938 422.375 88.417969 422.039062 C 88.570312 422.480469 89.621094 422.785156 91.09375 423.058594 C 89.453125 423.316406 92.113281 424.289062 89.40625 424.183594 C 89.105469 423.832031 88.570312 423.484375 88.054688 423.164062 C 88.007812 423.011719 87.691406 422.769531 87.492188 422.585938 C 87.050781 422.207031 86.535156 421.734375 86.398438 421.15625 C 86.730469 421.203125 87.019531 420.976562 87.265625 420.824219 C 87.507812 420.671875 87.71875 420.59375 87.949219 420.609375 C 87.675781 420.429688 87.554688 420.140625 87.097656 419.867188 C 86.761719 420.246094 86.625 420.441406 86.472656 420.367188 C 86.320312 420.304688 86.214844 420.003906 86.183594 419.652344 C 86.152344 419.304688 86.199219 418.90625 86.152344 418.664062 C 86.09375 418.453125 85.867188 418.328125 85.289062 418.832031 C 85.441406 418.527344 85.636719 418.285156 85.820312 418.070312 C 85.867188 418.011719 85.910156 417.980469 85.957031 417.933594 L 86.015625 417.875 L 86.152344 417.722656 C 86.304688 417.523438 86.519531 417.339844 86.714844 417.175781 C 87.082031 416.824219 87.460938 416.519531 87.84375 416.246094 C 88.207031 415.972656 88.570312 415.730469 88.953125 415.515625 C 90.425781 414.664062 91.78125 414.085938 93.742188 413.207031 C 93.695312 413.402344 92.160156 414.652344 91.382812 415.488281 C 90.65625 416.351562 90.441406 416.6875 92.90625 415.152344 C 95.351562 412.824219 95.125 412.628906 94.347656 412.535156 C 94.03125 412.492188 93.648438 412.460938 93.605469 412.1875 C 93.589844 412.050781 93.648438 411.851562 93.847656 411.5625 C 94.089844 411.261719 94.546875 410.835938 95.199219 410.273438 C 93.390625 411.078125 92.160156 411.6875 90.761719 412.507812 C 90.441406 412.308594 90.667969 411.882812 91.246094 411.367188 C 91.535156 411.109375 91.902344 410.820312 92.34375 410.546875 C 92.554688 410.410156 92.785156 410.273438 93.027344 410.121094 C 93.316406 409.96875 93.605469 409.816406 93.894531 409.648438 C 96.28125 408.402344 98.941406 407.125 99.535156 406.714844 C 101.160156 406.121094 100.128906 406.730469 99.125 407.414062 C 98.105469 408.097656 97.191406 408.933594 98.863281 408.539062 C 101.222656 407.566406 102.878906 406.578125 104.355469 405.742188 C 105.859375 404.964844 107.167969 404.296875 108.761719 403.886719 C 106.222656 406.03125 107.925781 404.890625 104.976562 407.09375 C 110.421875 404.722656 110.390625 405.042969 110.054688 405.574219 C 109.75 406.136719 109.097656 406.757812 113.402344 405.453125 C 116.015625 404.296875 113.976562 404.039062 118.464844 402.777344 C 115.558594 402.667969 115.726562 402.152344 108.703125 404.933594 C 109.597656 403.671875 112 402.929688 114.691406 402.046875 C 117.429688 401.285156 120.46875 400.449219 122.917969 399.324219 C 118.78125 400.402344 121.535156 399.402344 117.230469 401.058594 C 116.242188 400.070312 114.511719 400.449219 118.191406 397.988281 C 115.847656 398.945312 114.265625 399.886719 112.488281 400.964844 C 111.589844 401.484375 110.617188 402.015625 109.449219 402.546875 C 108.292969 403.109375 106.96875 403.71875 105.296875 404.34375 C 104.140625 404.144531 106.042969 403.066406 108.183594 401.800781 C 110.34375 400.601562 112.792969 399.339844 112.550781 398.535156 C 114.085938 397.46875 117.050781 396.496094 120.105469 395.644531 C 123.191406 394.882812 126.371094 394.308594 128.40625 394.171875 C 135.019531 391.417969 143.671875 389.929688 148.964844 387.785156 C 151.578125 387.722656 156.078125 386.992188 161.203125 386.402344 C 166.328125 385.867188 172.074219 385.414062 177.03125 385.6875 C 178.535156 386.355469 189.148438 386.460938 183.066406 387.070312 C 183.917969 386.796875 192.128906 387.070312 190.015625 386.308594 C 189.164062 386.507812 188.238281 386.25 186.457031 386.203125 L 188.085938 385.367188 C 192.84375 385.988281 198.289062 385.167969 202.832031 386.1875 C 203.546875 386.628906 201.390625 386.539062 199.425781 386.492188 C 197.464844 386.476562 195.703125 386.507812 197.207031 387.039062 C 199.457031 386.507812 205.097656 386.523438 210.875 386.949219 C 216.652344 387.375 222.582031 388.210938 225.382812 388.925781 C 229.183594 389.699219 229.457031 390.886719 231.023438 391.265625 L 237.4375 392.222656 C 238.121094 392.710938 238.152344 393.167969 239.261719 393.835938 C 242.363281 394.625 244.585938 394.640625 246.578125 394.792969 C 254.800781 397.058594 250.148438 397.136719 245.753906 397.121094 L 241.117188 395.902344 C 237.589844 395.8125 232.726562 394.777344 235.429688 396.285156 C 237.832031 396.585938 237.820312 396.148438 238.699219 396.054688 L 241.359375 397.121094 C 244.21875 397.148438 251.957031 398.335938 251.273438 397.410156 C 256.808594 399.019531 263.4375 399.597656 268.347656 401.210938 C 265.003906 400.023438 269.445312 400.554688 268.546875 399.734375 L 262.554688 398.335938 C 267.4375 399.050781 274.539062 399.8125 279.007812 401.238281 C 278.355469 401.636719 278.140625 401.757812 280.359375 402.699219 C 277.230469 401.390625 289.042969 403.414062 282.109375 401.210938 C 279.449219 400.996094 277 400.632812 273.640625 399.902344 C 271.632812 398.382812 276.96875 399.292969 280.070312 399.261719 C 283.84375 399.75 291.214844 400.738281 296.324219 401.253906 C 299.457031 402.078125 300.171875 403.476562 305.738281 403.71875 C 299 401.453125 312.578125 403.171875 314.554688 402.320312 C 319.726562 403.640625 323.207031 402.792969 327.28125 404.355469 C 325.078125 404.386719 317.019531 403.050781 314.828125 403.519531 C 314.402344 404.234375 316.273438 405.847656 308.230469 404.933594 C 317.761719 406.894531 313.976562 405.191406 318.449219 405.605469 L 315.148438 405.179688 C 316.699219 405.117188 313.976562 404.066406 316.882812 404.523438 C 328.085938 406.621094 329.910156 407.824219 337.40625 409.847656 C 335.796875 409.039062 339.355469 409.023438 341.148438 409.238281 C 348.386719 410.984375 340.8125 410.863281 345.164062 412.660156 C 347.824219 412.308594 352.792969 413.238281 351.167969 412.429688 C 354.085938 412.824219 352.519531 412.933594 354.589844 413.417969 C 356.566406 413.007812 358.800781 412.902344 362.84375 413.402344 C 362.433594 413.691406 361.8125 414.132812 357.949219 413.464844 C 362.265625 414.285156 363.710938 415.640625 361.75 416.050781 L 354.710938 414.742188 C 351.378906 415.136719 361.292969 415.898438 360.914062 416.628906 C 357.75 416.429688 355.457031 415.640625 353.433594 415.609375 C 355.320312 416.6875 361.582031 416.640625 365.1875 416.992188 C 370.859375 417.828125 368.683594 418.390625 368.714844 418.832031 C 378.535156 418.695312 357.722656 415.972656 366.875 415.820312 C 368.636719 415.546875 371.664062 415.714844 375.007812 416.003906 C 378.351562 416.277344 382.03125 416.566406 385.089844 416.808594 C 379.996094 415.199219 385.835938 415.320312 392.113281 415.578125 C 383.980469 414.726562 390.152344 414.101562 380.527344 413.859375 L 380.4375 412.960938 C 384.496094 413.386719 389.285156 414.253906 393.34375 414.679688 C 392.476562 414.832031 393.40625 415.121094 392.050781 415.136719 L 398.132812 415.546875 L 404.214844 415.835938 L 402.921875 416.324219 C 410.40625 416.976562 419.558594 418.453125 424.058594 418.328125 C 420.4375 418.253906 417.367188 417.082031 421.167969 417.144531 C 423.390625 416.886719 427.386719 416.671875 430.792969 416.929688 C 432.542969 418.027344 445.464844 418.679688 437.242188 419.273438 C 447.808594 419.316406 443.929688 418.878906 454.027344 418.558594 L 447.261719 418.648438 C 446.4375 417.828125 452.078125 416.628906 445.648438 415.941406 C 453.25 415.640625 448.460938 414.074219 458.585938 414.164062 C 462.691406 414.757812 457.324219 415.761719 451.625 415.804688 C 454.480469 415.941406 457.082031 416.460938 460.0625 415.972656 C 462.222656 416.6875 454.632812 417.007812 454.90625 417.28125 C 460.136719 417.464844 454.816406 416.839844 459.757812 416.75 C 468.394531 416.066406 465.230469 418.285156 473.519531 417.691406 C 471.707031 417.738281 468.5 417.480469 470.675781 417.097656 C 481.773438 417.097656 476.847656 416.277344 484.890625 415.867188 C 489.453125 417.023438 487.476562 418.34375 494.789062 418.375 L 490.714844 418.480469 C 493.574219 418.984375 496.8125 419.136719 499.761719 419.03125 C 503.5625 418.664062 507.179688 418.238281 510.722656 417.8125 C 514.265625 417.328125 517.71875 416.71875 521.183594 416.171875 C 524.652344 415.625 528.132812 415.078125 531.707031 414.515625 C 535.292969 413.996094 538.941406 413.265625 542.820312 412.6875 L 537.285156 413.511719 C 535.371094 413.296875 541.878906 412.566406 541.742188 412.140625 L 545.269531 412.339844 C 546.132812 411.398438 537.390625 412.277344 539.382812 411.261719 C 539.855469 411.320312 540.996094 411.230469 541.648438 411.09375 L 538.425781 411.152344 C 545.695312 410.710938 551.273438 408.707031 556.855469 409.464844 C 542.757812 411.046875 554.96875 412.140625 541.148438 413.921875 C 548.460938 412.886719 542.53125 414.695312 543.320312 414.984375 C 547.214844 414.800781 545.160156 414.148438 549.539062 414.011719 C 549.511719 414.636719 540.175781 416.078125 544.386719 416.125 C 544.765625 415.136719 548.671875 414.953125 550.484375 414.117188 C 553.722656 414.058594 550.46875 414.726562 551.914062 414.894531 C 553.707031 414.679688 554.710938 414.164062 556.320312 414.148438 L 555.164062 414.847656 C 564.226562 414.605469 557.796875 413.632812 568 412.566406 C 568.179688 411.761719 565.09375 412.355469 560.882812 413.054688 C 558.542969 411.640625 573.730469 409.511719 572.621094 407.777344 C 582.140625 406.242188 570.1875 408.828125 578.414062 408.21875 C 580.726562 408.386719 579.296875 409.023438 577 409.570312 C 574.71875 410.148438 571.585938 410.773438 570.597656 411.320312 L 579.1875 410.925781 C 576.574219 412.8125 571.207031 413.007812 569.882812 414.558594 C 573.0625 414.179688 574.445312 413.921875 575.828125 413.585938 C 577.210938 413.238281 578.609375 412.871094 581.757812 412.050781 C 579.128906 412.21875 578.09375 412.15625 577.910156 412.003906 C 577.730469 411.851562 578.414062 411.671875 579.234375 411.382812 C 580.875 410.835938 583.050781 410.148438 579.996094 409.921875 C 584.816406 409.496094 583.371094 410.058594 590.304688 408.886719 C 585.953125 409.953125 590.332031 410.121094 584.496094 411.125 C 593.863281 409.433594 591.277344 409.542969 600.628906 407.855469 C 603.332031 406.304688 590.941406 408.144531 602.027344 405.390625 C 604.445312 404.875 604.03125 405.375 602.617188 405.664062 C 610.675781 404.417969 600.734375 404.722656 605.628906 403.140625 C 609.082031 402.289062 610.402344 402.441406 609.019531 402.988281 C 614.113281 401.332031 611.089844 401.238281 614.492188 400.296875 L 612.898438 400.496094 C 614.3125 399.886719 609.964844 399.261719 617.398438 397.636719 C 622.839844 396.511719 621.273438 397.4375 621.472656 397.757812 C 625.59375 396.375 628.878906 395.859375 631.855469 395.507812 C 631.523438 395.386719 631.796875 395.097656 633.058594 394.777344 C 640.097656 392.664062 637.375 394.625 640.082031 394.109375 C 645.253906 393.105469 644.78125 392.648438 644.460938 392.179688 C 644.140625 391.691406 643.960938 391.082031 649.554688 389.488281 L 643.003906 391.144531 L 636.386719 392.621094 C 636.8125 391.996094 636.890625 391.160156 634.078125 391.890625 C 634 392.710938 629.5 394.519531 625.089844 395.492188 C 623.632812 394.929688 636.617188 391.585938 629.015625 392.480469 C 631.691406 391.980469 635.277344 390.824219 638.546875 390.09375 C 637.027344 390.960938 639.65625 390.367188 642 389.835938 C 644.324219 389.289062 646.347656 388.773438 643.6875 390.082031 C 657.765625 385.851562 660.046875 385.851562 672.515625 380.804688 C 672.042969 381.277344 669.898438 382.585938 667.023438 384 C 664.121094 385.351562 660.488281 386.855469 657.050781 387.648438 L 656.335938 387.296875 C 648.082031 390.460938 663.085938 385.898438 661.824219 387.191406 C 671.722656 382.507812 684.90625 380.058594 696.871094 374.070312 C 694.53125 374.554688 696.824219 373.234375 697.128906 372.550781 C 692.308594 374.800781 693.238281 374.617188 689.40625 375.605469 C 689.832031 374.691406 692.828125 373.644531 694.164062 372.535156 C 695.121094 371.289062 690.515625 374.144531 688.628906 374.496094 C 693.085938 372.140625 692.597656 372.214844 695.078125 370.464844 C 697.84375 369.886719 697.632812 370.300781 699.851562 369.996094 C 705.523438 367.441406 707.757812 365.769531 709.824219 364.429688 C 711.863281 363.0625 713.566406 361.722656 717.960938 359.398438 C 713.09375 361.996094 720.605469 358.789062 715.253906 361.527344 L 718.1875 359.960938 C 716.453125 361.253906 714.339844 362.667969 712.199219 364.09375 C 710.023438 365.496094 707.742188 366.800781 705.78125 368.019531 C 701.8125 370.40625 698.925781 372.183594 699.988281 372.6875 C 703.179688 371.089844 705.8125 369.507812 708.5625 367.730469 C 711.347656 366.027344 714.21875 364.09375 717.960938 361.953125 L 717.808594 362.421875 C 723.222656 359.304688 717.519531 362.117188 718.644531 361.101562 C 721.457031 359.015625 723.585938 358.210938 725.457031 357.453125 C 727.3125 356.660156 728.863281 355.902344 730.503906 354.03125 C 728.464844 355.261719 726.503906 356.585938 724.421875 357.738281 C 726.519531 356.023438 726.125 356.160156 725.335938 356.601562 C 724.511719 356.996094 723.234375 357.617188 723.464844 356.78125 C 725.394531 355.382812 727.570312 353.636719 730.09375 351.871094 C 732.570312 350.078125 735.203125 348.007812 737.953125 345.910156 C 740.585938 343.675781 743.425781 341.5 745.953125 339.007812 C 747.230469 337.792969 748.535156 336.605469 749.738281 335.359375 C 750.921875 334.097656 752.0625 332.835938 753.160156 331.589844 C 749.996094 333.808594 749.3125 334.613281 745.527344 337.867188 C 746.132812 335.175781 747.746094 334.035156 745.023438 334.628906 C 743.519531 335.921875 742.058594 337.261719 740.523438 338.523438 L 739.503906 337.441406 C 740.734375 336.394531 741.9375 335.359375 743.109375 334.523438 C 743.078125 333.882812 744.855469 332.515625 746.4375 331.027344 C 748.035156 329.550781 749.601562 328.105469 749.433594 327.652344 L 745.980469 331.253906 C 743.730469 332.425781 747.929688 328.351562 750.222656 325.734375 C 748.703125 326.554688 746.800781 328.457031 744.660156 330.78125 C 743.535156 331.90625 742.332031 333.109375 741.085938 334.339844 C 740.460938 334.949219 739.824219 335.570312 739.183594 336.195312 C 738.5 336.773438 737.832031 337.351562 737.148438 337.929688 C 737.90625 338.003906 733.042969 343.386719 738.53125 339.070312 C 738.820312 339.554688 735.855469 342.550781 733.605469 344.179688 C 734.5625 343.082031 728.285156 346.09375 733.226562 341.898438 C 730.945312 344.011719 730.398438 344.4375 729.742188 344.863281 C 729.089844 345.273438 728.390625 345.773438 725.59375 347.828125 C 725.867188 347.371094 723.386719 349.105469 720.789062 350.671875 C 718.128906 352.175781 715.40625 353.621094 715.421875 352.84375 C 713.824219 354.472656 716.53125 354.441406 709.476562 358.5 C 711.621094 358.332031 719.617188 353.910156 714.78125 357.769531 C 715.847656 356.964844 716.878906 356.097656 717.898438 355.230469 C 722.960938 352.585938 717.0625 356.84375 723.585938 353.222656 C 721.714844 354.347656 718.15625 357.085938 717.003906 357.070312 C 719.664062 357.769531 707.804688 363.394531 708.046875 364.6875 C 706.28125 364.933594 704.367188 365.980469 700.65625 367.882812 C 700.945312 367.183594 698.664062 367.714844 701.417969 366.011719 C 703.894531 365.023438 705.460938 363.882812 708.273438 362.941406 C 707.105469 362.484375 704.703125 363.609375 701.738281 365.113281 C 698.742188 366.574219 695.273438 368.535156 692.019531 369.691406 C 692.964844 369.449219 693.28125 369.492188 691.65625 370.511719 C 690.667969 370.875 689.375 371.347656 688.054688 371.851562 C 686.699219 372.304688 685.300781 372.777344 684.085938 373.140625 C 681.667969 373.871094 680.023438 374.222656 681.089844 373.292969 C 674.519531 375.910156 667.890625 378.417969 661.125 380.636719 C 660.898438 380.242188 663.96875 379.527344 665.15625 378.996094 C 661.367188 380.195312 657.613281 381.445312 653.78125 382.539062 C 650.9375 382.75 657.507812 380.835938 658.464844 379.878906 C 655.757812 380.773438 652.992188 381.566406 650.269531 382.417969 L 651.257812 381.519531 C 649.355469 382.523438 639.855469 385.367188 637.253906 384.972656 C 632.707031 386.25 630.578125 387.34375 628.027344 388.40625 C 626.75 388.941406 625.347656 389.457031 623.480469 389.988281 C 622.550781 390.246094 621.503906 390.519531 620.285156 390.792969 C 619.070312 391.023438 617.671875 391.25 616.089844 391.464844 C 616.226562 390.945312 617.976562 390.503906 620.042969 390.035156 C 622.097656 389.472656 624.453125 388.878906 625.820312 388.226562 C 624.574219 388.363281 622.140625 389.0625 619.832031 389.65625 C 617.503906 390.15625 615.316406 390.550781 614.585938 390.230469 C 605.707031 392.632812 607.027344 394.078125 602.816406 395.902344 C 595.441406 397.515625 601.859375 395.28125 601.507812 395.082031 C 599.335938 395.523438 596.050781 397.820312 593.800781 396.90625 C 590.332031 398.183594 588.433594 399.339844 593.832031 398.746094 C 589.863281 399.402344 584.296875 400.800781 583.355469 401.378906 C 586.351562 399.445312 578.734375 401.589844 578.109375 400.539062 C 575.082031 400.890625 570.203125 401.332031 565.429688 402.046875 C 560.640625 402.714844 555.941406 403.734375 553.175781 404.707031 L 554.695312 403.035156 L 547.640625 403.886719 C 542.257812 403.445312 553.78125 402.394531 557.277344 401.816406 C 547.699219 402.730469 541.300781 403.339844 532.664062 404.21875 C 535.21875 404.328125 533.726562 404.765625 534.972656 405.117188 C 532.054688 406.042969 527.902344 405.753906 524.816406 406.167969 C 524.042969 405.847656 524.40625 405.480469 526.808594 405.222656 L 520.863281 405.785156 C 521.273438 404.8125 518.386719 405.011719 524.226562 404.007812 L 518.75 404.644531 C 512.667969 404.78125 518.980469 403.855469 520.453125 403.445312 L 510.859375 403.886719 C 507.4375 404.507812 512.867188 404.660156 506.238281 405.132812 C 501.78125 404.859375 496.75 404.890625 491.550781 404.996094 C 486.351562 405.117188 481 405.011719 475.964844 404.933594 L 483.066406 405.800781 C 476.984375 405.574219 478.199219 407.078125 476.332031 407.734375 C 473.519531 407.703125 470.21875 407.65625 467.011719 407.609375 C 463.816406 407.503906 460.714844 407.320312 458.34375 407.078125 C 463.785156 406.484375 461.566406 405.332031 456.535156 404.539062 C 445.144531 404.097656 447.882812 405.90625 441.496094 406.136719 C 446.53125 404.523438 433.558594 405.085938 434.730469 404.128906 C 431.113281 403.960938 427.480469 403.824219 423.828125 403.703125 C 420.179688 403.582031 416.53125 403.324219 412.867188 403.140625 C 409.203125 402.929688 405.507812 402.730469 401.8125 402.515625 C 398.105469 402.304688 394.394531 401.894531 390.652344 401.527344 C 390.910156 401.832031 395.183594 402.546875 392.523438 402.5625 C 386.988281 402.304688 384.449219 401.285156 383.734375 400.84375 C 376.621094 400.34375 372.46875 400.34375 370.050781 400.632812 C 373.152344 400.828125 373.410156 401.132812 372.773438 401.558594 C 365.65625 400.859375 367.769531 399.839844 360.945312 399.886719 C 359.300781 398.671875 368.484375 400.296875 367.953125 399.25 C 361.703125 398.398438 357.734375 398.398438 353.113281 398.246094 C 352.171875 397.46875 357.308594 398.6875 353.949219 397.683594 C 344.234375 396.722656 332.464844 395.828125 325.167969 394.882812 L 323.359375 393.746094 C 318.707031 393.046875 315.605469 392.726562 313.414062 392.757812 C 310.953125 392.027344 312.957031 392.132812 315.375 392.421875 C 309.15625 391.386719 301.449219 390.566406 297.90625 390.050781 C 298.558594 389.65625 301.449219 390.597656 302.542969 390.382812 C 294.804688 388.804688 284.664062 388.667969 279.753906 386.566406 C 280.4375 386.566406 281.210938 386.691406 281.910156 386.8125 C 270.371094 384.546875 260.152344 383.117188 247.414062 380.910156 C 235.886719 377.886719 243.429688 381.488281 231.902344 379.46875 C 232.039062 378.359375 228.101562 377.6875 223.511719 377.230469 C 218.917969 376.761719 213.671875 376.546875 211.226562 376.078125 L 212.761719 376.578125 C 206.890625 376.792969 198.984375 375.253906 194.941406 374.390625 C 190.53125 374.023438 184.996094 373.734375 179.433594 373.75 C 176.652344 373.796875 173.867188 373.828125 171.222656 374.039062 C 169.898438 374.144531 168.621094 374.253906 167.390625 374.34375 C 166.160156 374.496094 164.972656 374.648438 163.878906 374.816406 L 165.628906 374.253906 C 158.3125 375.164062 153.644531 374.890625 146.363281 376.382812 C 146.546875 376.183594 149.253906 375.53125 146.378906 375.757812 C 128.636719 377.703125 110.769531 382.597656 94.347656 390.808594 C 86.472656 395.066406 77.441406 398.914062 70.585938 409.375 C 68.820312 412.21875 67.574219 415.351562 67.164062 418.605469 C 66.738281 421.84375 67.164062 425.171875 68.394531 428.167969 C 69.65625 431.164062 71.648438 433.824219 74.203125 435.875 C 76.726562 437.929688 79.796875 439.433594 82.871094 440.40625 C 85.394531 441.210938 87.902344 441.683594 90.378906 441.957031 C 92.933594 442.246094 95.171875 442.230469 97.558594 442.277344 C 102.269531 442.246094 107.015625 441.699219 111.726562 440.757812 C 121.15625 438.871094 130.351562 435.054688 138.671875 429.582031 C 142.835938 426.84375 146.757812 423.667969 150.316406 420.046875 C 151.242188 419.179688 152.066406 418.191406 152.933594 417.265625 C 153.796875 416.339844 154.632812 415.351562 155.472656 414.300781 C 157.128906 412.171875 158.738281 409.800781 160.0625 406.972656 C 161.371094 404.144531 162.34375 400.769531 162.390625 397.148438 C 162.449219 393.59375 161.550781 389.957031 160.03125 386.933594 C 158.527344 383.890625 156.535156 381.398438 154.4375 379.316406 C 152.339844 377.230469 150.117188 375.53125 147.851562 374.039062 C 145.601562 372.550781 143.292969 371.289062 140.980469 370.164062 C 138.699219 369.097656 136.527344 368.199219 134.292969 367.210938 C 132.101562 366.195312 129.773438 365.480469 127.539062 364.613281 C 126.398438 364.21875 125.289062 363.761719 124.132812 363.410156 L 120.683594 362.363281 C 111.5 359.609375 102.148438 357.726562 92.859375 356.828125 C 74.277344 355.0625 56.019531 356.738281 39.765625 361.296875 C 39.765625 361.296875 37.957031 362.363281 35.402344 363.988281 C 34.140625 364.839844 32.710938 365.90625 31.21875 367.015625 C 29.746094 368.140625 28.179688 369.28125 26.765625 370.617188 C 25.335938 371.910156 23.96875 373.21875 22.796875 374.449219 C 21.609375 375.667969 20.667969 376.988281 19.953125 378.054688 C 18.554688 380.394531 18.207031 381.976562 19.605469 382.402344 Z M 19.605469 382.402344 " fill-opacity="1" fill-rule="nonzero"/></g><path fill="#afcbff" d="M 602.632812 405.800781 C 602.332031 405.847656 602.054688 405.894531 601.722656 405.9375 C 602.070312 405.90625 602.359375 405.847656 602.632812 405.800781 Z M 602.632812 405.800781 " fill-opacity="1" fill-rule="nonzero"/><path fill="#afcbff" d="M 449.417969 415.851562 C 450.132812 415.882812 450.863281 415.882812 451.59375 415.882812 C 450.878906 415.835938 450.164062 415.820312 449.417969 415.851562 Z M 449.417969 415.851562 " fill-opacity="1" fill-rule="nonzero"/><path fill="#afcbff" d="M 318.402344 405.617188 L 321.140625 405.96875 C 319.953125 405.785156 319.101562 405.679688 318.402344 405.617188 Z M 318.402344 405.617188 " fill-opacity="1" fill-rule="nonzero"/><path fill="#afcbff" d="M 123.664062 395.828125 C 124.773438 396.160156 120.183594 398.714844 124.5625 398.03125 C 128.253906 397 130.519531 396.375 131.996094 395.734375 C 133.5 395.1875 134.261719 394.703125 135.035156 394.230469 C 136.585938 393.289062 138.199219 392.222656 146.210938 391.128906 C 143.460938 391.21875 140.722656 391.492188 137.972656 391.722656 C 138.289062 392.238281 137.058594 392.90625 135.019531 393.683594 C 134.003906 394.0625 132.753906 394.429688 131.417969 394.824219 C 130.078125 395.25 128.621094 395.675781 127.113281 396.070312 C 126.429688 395.949219 125.730469 395.828125 125.0625 395.75 C 126.019531 395.203125 127.101562 394.777344 128.210938 394.308594 C 125.867188 394.777344 126.460938 395.25 123.664062 395.828125 Z M 123.664062 395.828125 " fill-opacity="1" fill-rule="nonzero"/><path fill="#afcbff" d="M 128.773438 394.171875 C 128.652344 394.183594 128.5 394.199219 128.390625 394.199219 C 128.332031 394.214844 128.269531 394.246094 128.195312 394.277344 C 128.390625 394.246094 128.542969 394.214844 128.773438 394.171875 Z M 128.773438 394.171875 " fill-opacity="1" fill-rule="nonzero"/></svg>