<svg xmlns="http://www.w3.org/2000/svg" xmlns:xlink="http://www.w3.org/1999/xlink" width="1024" zoomAndPan="magnify" viewBox="0 0 768 767.999994" height="1024" preserveAspectRatio="xMidYMid meet" version="1.0"><defs><clipPath id="6b56bfe1f6"><path d="M 468 609 L 470 609 L 470 610 L 468 610 Z M 468 609 " clip-rule="nonzero"/></clipPath><clipPath id="626fd156bb"><path d="M 196.035156 33.699219 L 669.597656 107.3125 L 572.136719 734.285156 L 98.574219 660.667969 Z M 196.035156 33.699219 " clip-rule="nonzero"/></clipPath><clipPath id="d86dfd931a"><path d="M 669.425781 107.285156 L 195.863281 33.671875 L 98.402344 660.644531 L 571.964844 734.257812 Z M 669.425781 107.285156 " clip-rule="nonzero"/></clipPath><clipPath id="57fd325a46"><path d="M 304 300 L 603 300 L 603 712 L 304 712 Z M 304 300 " clip-rule="nonzero"/></clipPath><clipPath id="002d1e00c0"><path d="M 196.035156 33.699219 L 669.597656 107.3125 L 572.136719 734.285156 L 98.574219 660.667969 Z M 196.035156 33.699219 " clip-rule="nonzero"/></clipPath><clipPath id="4ca95aa6ce"><path d="M 669.425781 107.285156 L 195.863281 33.671875 L 98.402344 660.644531 L 571.964844 734.257812 Z M 669.425781 107.285156 " clip-rule="nonzero"/></clipPath><clipPath id="88c027f18d"><path d="M 440 386 L 442 386 L 442 387 L 440 387 Z M 440 386 " clip-rule="nonzero"/></clipPath><clipPath id="26ce5d0c97"><path d="M 196.035156 33.699219 L 669.597656 107.3125 L 572.136719 734.285156 L 98.574219 660.667969 Z M 196.035156 33.699219 " clip-rule="nonzero"/></clipPath><clipPath id="bd7ed3000d"><path d="M 669.425781 107.285156 L 195.863281 33.671875 L 98.402344 660.644531 L 571.964844 734.257812 Z M 669.425781 107.285156 " clip-rule="nonzero"/></clipPath><clipPath id="cb9f972e92"><path d="M 149 168 L 371 168 L 371 520 L 149 520 Z M 149 168 " clip-rule="nonzero"/></clipPath><clipPath id="67dbd4d06c"><path d="M 196.035156 33.699219 L 669.597656 107.3125 L 572.136719 734.285156 L 98.574219 660.667969 Z M 196.035156 33.699219 " clip-rule="nonzero"/></clipPath><clipPath id="0d02cf12af"><path d="M 669.425781 107.285156 L 195.863281 33.671875 L 98.402344 660.644531 L 571.964844 734.257812 Z M 669.425781 107.285156 " clip-rule="nonzero"/></clipPath><clipPath id="ff4ddf3ddf"><path d="M 501 169 L 503 169 L 503 170 L 501 170 Z M 501 169 " clip-rule="nonzero"/></clipPath><clipPath id="0386043c09"><path d="M 196.035156 33.699219 L 669.597656 107.3125 L 572.136719 734.285156 L 98.574219 660.667969 Z M 196.035156 33.699219 " clip-rule="nonzero"/></clipPath><clipPath id="c4f96cb81e"><path d="M 669.425781 107.285156 L 195.863281 33.671875 L 98.402344 660.644531 L 571.964844 734.257812 Z M 669.425781 107.285156 " clip-rule="nonzero"/></clipPath><clipPath id="1e64d2f1cd"><path d="M 377 74 L 514 74 L 514 278 L 377 278 Z M 377 74 " clip-rule="nonzero"/></clipPath><clipPath id="bd22f7cb07"><path d="M 196.035156 33.699219 L 669.597656 107.3125 L 572.136719 734.285156 L 98.574219 660.667969 Z M 196.035156 33.699219 " clip-rule="nonzero"/></clipPath><clipPath id="e884472ac5"><path d="M 669.425781 107.285156 L 195.863281 33.671875 L 98.402344 660.644531 L 571.964844 734.257812 Z M 669.425781 107.285156 " clip-rule="nonzero"/></clipPath><clipPath id="38305a890d"><path d="M 437 245 L 439 245 L 439 247 L 437 247 Z M 437 245 " clip-rule="nonzero"/></clipPath><clipPath id="e5d6d65839"><path d="M 196.035156 33.699219 L 669.597656 107.3125 L 572.136719 734.285156 L 98.574219 660.667969 Z M 196.035156 33.699219 " clip-rule="nonzero"/></clipPath><clipPath id="90ddae3617"><path d="M 669.425781 107.285156 L 195.863281 33.671875 L 98.402344 660.644531 L 571.964844 734.257812 Z M 669.425781 107.285156 " clip-rule="nonzero"/></clipPath><clipPath id="b1994a92d4"><path d="M 384 134 L 387 134 L 387 135 L 384 135 Z M 384 134 " clip-rule="nonzero"/></clipPath><clipPath id="344f25cf73"><path d="M 196.035156 33.699219 L 669.597656 107.3125 L 572.136719 734.285156 L 98.574219 660.667969 Z M 196.035156 33.699219 " clip-rule="nonzero"/></clipPath><clipPath id="a0eb999a1d"><path d="M 669.425781 107.285156 L 195.863281 33.671875 L 98.402344 660.644531 L 571.964844 734.257812 Z M 669.425781 107.285156 " clip-rule="nonzero"/></clipPath></defs><g clip-path="url(#6b56bfe1f6)"><g clip-path="url(#626fd156bb)"><g clip-path="url(#d86dfd931a)"><path fill="#afcbff" d="M 468.917969 609.515625 C 469.054688 609.296875 469.09375 609.230469 468.917969 609.515625 Z M 468.917969 609.515625 " fill-opacity="1" fill-rule="nonzero"/></g></g></g><g clip-path="url(#57fd325a46)"><g clip-path="url(#002d1e00c0)"><g clip-path="url(#4ca95aa6ce)"><path fill="#afcbff" d="M 309.167969 478.835938 C 312.253906 476.582031 316.25 476.011719 319.929688 476.703125 C 321.1875 476.945312 322.449219 477.140625 323.714844 477.308594 C 325.796875 477.585938 327.882812 477.734375 329.964844 477.820312 C 337.003906 477.828125 343.953125 477.199219 350.835938 475.640625 C 357.925781 473.710938 364.757812 470.96875 371.25 467.535156 C 377.136719 464.171875 382.699219 460.296875 387.90625 455.949219 C 389.1875 454.871094 390.457031 453.777344 391.703125 452.664062 C 392.324219 452.105469 392.933594 451.53125 393.554688 450.976562 C 393.625 450.910156 393.65625 450.886719 393.710938 450.835938 C 393.902344 450.644531 394.097656 450.449219 394.289062 450.257812 C 396.832031 447.753906 399.289062 445.152344 401.679688 442.492188 C 411.441406 431.675781 419.949219 419.863281 427.890625 407.667969 C 431.441406 402.21875 434.898438 396.722656 438.367188 391.230469 C 439.09375 390.078125 439.808594 388.941406 440.519531 387.789062 C 440.714844 387.492188 440.886719 387.148438 441.085938 386.824219 C 441.160156 386.746094 441.25 386.625 441.3125 386.515625 C 441.394531 386.378906 441.472656 386.246094 441.550781 386.125 C 441.570312 386.109375 441.570312 386.097656 441.589844 386.085938 C 441.589844 386.085938 441.585938 386.097656 441.570312 386.097656 C 441.75 385.8125 441.925781 385.527344 442.105469 385.230469 C 443.585938 382.796875 445.046875 380.367188 446.484375 377.902344 C 452.347656 367.816406 457.84375 357.394531 462.214844 346.574219 C 464.96875 339.765625 466.957031 332.808594 469.160156 325.902344 C 471.703125 317.945312 473.59375 309.789062 475.195312 301.597656 C 475.355469 300.757812 476.285156 300.414062 476.964844 300.636719 C 477.492188 300.675781 477.960938 301 477.945312 301.695312 C 477.875 304.820312 477.851562 307.9375 477.828125 311.054688 C 477.820312 312.226562 477.816406 313.398438 477.785156 314.570312 C 477.746094 318.648438 477.6875 322.742188 477.542969 326.820312 C 477.269531 334.429688 477.183594 342.050781 477.363281 349.671875 C 477.726562 363.785156 479.042969 377.96875 482.035156 391.792969 C 482.214844 392.636719 482.410156 393.5 482.605469 394.347656 C 482.65625 394.578125 482.960938 395.785156 483.035156 396.152344 C 483.425781 397.667969 483.828125 399.171875 484.25 400.664062 C 485.207031 403.992188 486.28125 407.308594 487.464844 410.570312 C 489.898438 417.292969 492.800781 423.851562 496.113281 430.175781 C 496.46875 430.851562 496.863281 432.132812 497.425781 432.621094 C 497.320312 432.53125 496.4375 430.847656 497.183594 432.167969 C 497.417969 432.574219 497.652344 432.984375 497.871094 433.390625 C 498.863281 435.117188 499.875 436.835938 500.921875 438.527344 C 502.925781 441.765625 505.035156 444.933594 507.277344 448.015625 C 511.703125 454.125 516.292969 460.070312 521.398438 465.648438 C 521.917969 466.21875 524.457031 468.8125 522.183594 466.511719 C 522.917969 467.25 523.628906 468.015625 524.375 468.753906 C 525.917969 470.316406 527.492188 471.839844 529.089844 473.335938 C 532.148438 476.203125 535.316406 478.953125 538.578125 481.585938 C 544.847656 486.648438 551.5 491.261719 558.320312 495.5625 C 564.730469 499.441406 571.378906 502.941406 578.25 505.953125 C 581.824219 507.519531 585.417969 509.058594 589.019531 510.554688 C 590.761719 511.285156 592.621094 511.859375 594.300781 512.714844 C 596.074219 513.613281 597.9375 514.644531 599.289062 516.074219 C 600.171875 517 600.695312 517.835938 601.328125 518.929688 C 604.050781 523.664062 602.644531 528.230469 597.878906 530.785156 C 596.9375 531.292969 595.960938 531.664062 594.96875 531.925781 C 594.363281 532.574219 593.472656 532.953125 592.34375 532.75 C 591.433594 532.578125 590.535156 532.4375 589.648438 532.316406 C 589.429688 532.296875 589.222656 532.277344 589.003906 532.246094 C 583.246094 531.542969 577.679688 531.777344 571.777344 532.285156 C 568.210938 532.59375 564.667969 533.097656 561.179688 533.847656 C 560.6875 533.949219 560.195312 534.066406 559.714844 534.183594 C 559.574219 534.222656 559.25 534.304688 559.035156 534.363281 C 558.367188 534.539062 557.699219 534.71875 557.03125 534.914062 C 555.304688 535.417969 553.585938 535.964844 551.871094 536.5625 C 548.335938 537.808594 544.832031 539.226562 541.398438 540.757812 C 539.804688 541.460938 538.230469 542.210938 536.667969 542.992188 C 535.929688 543.355469 535.203125 543.730469 534.472656 544.125 C 534.019531 544.363281 533.566406 544.605469 533.113281 544.847656 C 533.09375 544.859375 533.082031 544.859375 533.0625 544.871094 C 532.949219 544.925781 532.851562 544.984375 532.738281 545.058594 C 526.464844 548.597656 520.5 552.664062 514.847656 557.117188 C 512.273438 559.140625 509.746094 561.246094 507.285156 563.402344 C 506.117188 564.4375 504.957031 565.476562 503.796875 566.546875 C 503.554688 566.773438 503.308594 567.003906 503.070312 567.21875 C 502.492188 567.78125 501.898438 568.34375 501.320312 568.910156 C 496.53125 573.617188 491.984375 578.585938 487.691406 583.757812 C 483.265625 589.085938 479.089844 594.648438 475.085938 600.3125 C 473.105469 603.125 471.1875 605.992188 469.324219 608.894531 C 468.914062 609.542969 468.515625 610.195312 468.101562 610.84375 C 468.515625 610.179688 468.769531 609.789062 468.910156 609.574219 C 468.691406 609.910156 468.292969 610.5625 468.078125 610.898438 C 467.097656 612.53125 466.125 614.191406 465.183594 615.84375 C 457.878906 628.734375 451.921875 642.382812 447.578125 656.550781 C 445.492188 663.863281 443.832031 671.289062 442.738281 678.8125 C 442.164062 682.691406 441.75 686.59375 441.484375 690.519531 C 441.347656 692.535156 441.082031 694.425781 440.683594 696.414062 C 440.515625 697.308594 440.347656 698.203125 440.136719 699.089844 C 440.058594 702.542969 439.234375 705.832031 436.5625 708.402344 C 433.980469 710.882812 430.535156 712.292969 427.03125 710.648438 C 423.917969 709.183594 421.753906 706.945312 420.34375 703.976562 C 419.601562 703.105469 419 702.210938 418.484375 700.925781 C 417.855469 699.34375 417.691406 697.621094 417.503906 695.945312 C 417.375 694.765625 417.320312 693.597656 417.296875 692.421875 C 416.214844 687.71875 415.1875 683.042969 414.269531 678.324219 C 412.5 669.253906 410.519531 660.226562 408.300781 651.261719 C 401.9375 626.144531 393.867188 601.222656 382.738281 577.800781 C 382.550781 577.398438 382.34375 576.996094 382.140625 576.589844 C 377.671875 567.664062 348.671875 511.734375 319.054688 502.035156 C 317.449219 501.753906 315.855469 501.390625 314.328125 500.898438 C 314.3125 500.894531 314.296875 500.894531 314.269531 500.890625 L 314.285156 500.890625 C 310.082031 499.527344 306.453125 497.164062 304.976562 492.90625 C 304.09375 490.363281 303.695312 487.863281 304.472656 485.238281 C 305.242188 482.683594 307.058594 480.378906 309.167969 478.835938 Z M 390.546875 549.164062 C 395.214844 556.234375 399.203125 563.835938 403.050781 571.386719 C 406.84375 578.828125 410.3125 586.410156 413.511719 594.128906 C 419.738281 609.136719 424.726562 624.546875 428.867188 640.242188 C 434.5 625.410156 441.992188 611.363281 450.667969 598.074219 C 460.511719 583.023438 472.320312 569.660156 485.726562 557.675781 C 499.289062 545.5625 514.652344 535.128906 531.5 528.179688 C 540.390625 524.511719 549.824219 522.023438 559.417969 521.09375 C 552.585938 517.550781 545.984375 513.566406 539.625 509.25 C 531.925781 504.011719 524.785156 497.761719 518.179688 491.222656 C 511.203125 484.300781 504.683594 476.925781 498.871094 469.011719 C 477.335938 439.601562 466.890625 403.375 467.328125 367.113281 C 462.21875 380.777344 455.226562 393.640625 448.339844 406.492188 C 438.214844 425.378906 427.75 444.523438 413.59375 460.746094 C 399.257812 477.179688 381.433594 491.003906 360.566406 498.011719 C 356.789062 499.28125 352.941406 500.332031 349.070312 501.160156 C 353.003906 504.429688 356.773438 507.882812 360.335938 511.558594 C 371.5625 523.152344 381.664062 535.6875 390.546875 549.164062 Z M 390.546875 549.164062 " fill-opacity="1" fill-rule="nonzero"/></g></g></g><g clip-path="url(#88c027f18d)"><g clip-path="url(#26ce5d0c97)"><g clip-path="url(#bd7ed3000d)"><path fill="#afcbff" d="M 441.089844 386.808594 C 440.855469 387.070312 440.753906 387.054688 441.574219 386.066406 C 441.574219 386.082031 441.558594 386.09375 441.558594 386.09375 C 441.386719 386.320312 441.230469 386.5625 441.089844 386.808594 Z M 441.089844 386.808594 " fill-opacity="1" fill-rule="nonzero"/></g></g></g><g clip-path="url(#cb9f972e92)"><g clip-path="url(#67dbd4d06c)"><g clip-path="url(#0d02cf12af)"><path fill="#afcbff" d="M 152.308594 336.183594 C 154.191406 334.871094 155.871094 333.511719 158.042969 332.632812 C 160.390625 331.675781 162.894531 331.453125 165.363281 330.960938 C 166.175781 330.792969 166.980469 330.589844 167.808594 330.421875 C 164.476562 331.105469 167.425781 330.496094 168.160156 330.265625 C 169.839844 329.769531 171.527344 329.335938 173.203125 328.792969 C 176.296875 327.804688 179.941406 326.632812 182.640625 324.761719 C 182.621094 324.773438 180.421875 326.023438 181.714844 325.273438 C 182.121094 325.039062 182.527344 324.804688 182.925781 324.554688 C 183.59375 324.152344 184.253906 323.734375 184.917969 323.304688 C 186.375 322.339844 187.808594 321.332031 189.191406 320.269531 C 190.476562 319.28125 191.734375 318.242188 192.96875 317.1875 C 193.589844 316.644531 194.210938 316.085938 194.816406 315.527344 C 194.746094 315.605469 194.675781 315.667969 194.585938 315.757812 C 194.730469 315.601562 194.886719 315.464844 195.042969 315.324219 C 195.023438 315.335938 195.023438 315.351562 195.007812 315.363281 C 194.9375 315.414062 194.882812 315.476562 194.816406 315.527344 C 196.019531 314.289062 195.640625 314.71875 195.234375 315.144531 C 195.457031 314.941406 195.671875 314.722656 195.878906 314.519531 C 198.601562 311.835938 201.164062 309.011719 203.652344 306.097656 C 207.972656 301.050781 212.253906 295.964844 216.390625 290.769531 C 220.253906 285.886719 224.027344 280.933594 227.585938 275.824219 C 229.285156 273.382812 230.933594 270.921875 232.523438 268.421875 C 232.898438 267.824219 233.261719 267.210938 233.648438 266.632812 C 232.199219 268.875 233.710938 266.511719 234.03125 265.980469 C 234.875 264.582031 235.703125 263.164062 236.503906 261.742188 C 242.863281 250.472656 247.777344 238.550781 251.554688 226.179688 C 251.71875 225.613281 251.878906 225.058594 252.042969 224.488281 C 252.3125 223.503906 252.585938 222.507812 252.84375 221.523438 C 253.382812 219.480469 253.878906 217.449219 254.390625 215.402344 C 255.464844 211.070312 256.425781 206.714844 257.285156 202.332031 C 258.214844 197.574219 259.019531 192.796875 259.71875 188.003906 C 260.507812 182.640625 261.566406 177.367188 262.527344 172.035156 C 262.917969 169.914062 264.742188 168.308594 266.914062 168.378906 C 268.925781 168.453125 271.089844 169.996094 271.164062 172.203125 C 271.320312 177.3125 271.507812 182.421875 271.117188 187.515625 C 270.980469 189.246094 270.832031 190.976562 270.679688 192.707031 C 270.738281 193.386719 270.78125 194.074219 270.839844 194.753906 C 270.964844 196.332031 271.105469 197.914062 271.246094 199.496094 C 271.359375 200.777344 271.460938 201.9375 271.40625 203.25 C 271.410156 203.015625 271.417969 201.738281 271.4375 203.046875 C 271.441406 203.582031 271.429688 204.132812 271.4375 204.667969 C 271.441406 207.800781 271.488281 210.929688 271.566406 214.0625 C 271.828125 225.1875 272.40625 236.464844 274.066406 247.480469 C 274.441406 249.945312 274.878906 252.40625 275.390625 254.847656 C 275.625 256 275.890625 257.152344 276.160156 258.296875 C 276.332031 258.917969 276.488281 259.535156 276.671875 260.15625 C 277.992188 264.863281 279.636719 269.488281 281.566406 273.980469 C 282.554688 276.242188 283.601562 278.46875 284.734375 280.667969 C 285.019531 281.214844 285.304688 281.765625 285.589844 282.316406 C 285.613281 282.363281 285.648438 282.414062 285.671875 282.460938 C 285.742188 282.578125 285.8125 282.707031 285.882812 282.820312 C 286.410156 283.734375 286.933594 284.664062 287.492188 285.566406 C 290.445312 290.453125 293.691406 295.195312 297.246094 299.667969 C 298.476562 301.210938 299.757812 302.71875 301.074219 304.199219 C 301.339844 304.496094 301.605469 304.789062 301.871094 305.082031 C 302.136719 305.375 302.40625 305.65625 302.671875 305.949219 C 302.289062 305.546875 301.90625 305.148438 301.523438 304.746094 C 301.996094 305.519531 302.945312 306.199219 303.574219 306.832031 C 306.5 309.722656 309.542969 312.515625 312.695312 315.160156 C 318.558594 320.066406 324.847656 324.449219 331.316406 328.515625 C 336.953125 331.929688 342.710938 335.128906 348.550781 338.175781 C 351.65625 339.804688 354.78125 341.390625 357.925781 342.960938 C 362.847656 345.421875 368.394531 348.75 369.90625 354.394531 C 370.566406 356.84375 370.941406 359.398438 369.722656 361.792969 C 368.601562 364.027344 366.871094 365.792969 364.523438 366.75 C 363.050781 367.351562 361.535156 367.816406 359.996094 367.976562 C 358.441406 369.371094 356.328125 370.171875 354.480469 371.042969 C 350.917969 372.746094 347.324219 374.460938 343.679688 376.003906 C 336.496094 379.035156 329.097656 381.597656 321.953125 384.738281 C 314.84375 387.851562 307.832031 391.292969 300.894531 394.804688 C 299.121094 395.703125 297.359375 396.617188 295.59375 397.5625 C 294.882812 397.941406 294.152344 398.320312 293.453125 398.714844 C 293.421875 398.726562 293.386719 398.75 293.371094 398.761719 C 292.800781 399.089844 292.214844 399.414062 291.644531 399.742188 C 288.203125 401.703125 284.835938 403.78125 281.539062 405.972656 C 275.367188 410.109375 269.570312 414.628906 264.09375 419.648438 C 263.832031 419.902344 263.570312 420.144531 263.324219 420.40625 C 262.765625 420.941406 262.21875 421.496094 261.671875 422.050781 C 260.3125 423.429688 258.976562 424.839844 257.6875 426.273438 C 255.351562 428.867188 253.109375 431.535156 250.957031 434.289062 C 248.804688 437.046875 246.746094 439.875 244.777344 442.78125 C 243.851562 444.152344 242.9375 445.539062 242.039062 446.929688 C 241.722656 447.429688 240.28125 449.925781 241.511719 447.738281 C 241.039062 448.585938 240.496094 449.410156 239.992188 450.253906 C 236.382812 456.347656 233.132812 462.648438 230.171875 469.082031 C 226.777344 476.472656 223.777344 484.03125 221.097656 491.695312 C 218.445312 499.292969 216.375 507.171875 213.078125 514.535156 C 211.4375 518.1875 207.253906 519.972656 203.488281 518.867188 C 202.847656 518.679688 202.28125 518.398438 201.738281 518.089844 C 199.101562 517.738281 196.628906 516.433594 195.160156 514.125 C 191.199219 507.878906 192.515625 500.476562 193.066406 493.488281 C 193.476562 488.351562 193.933594 483.222656 194.386719 478.09375 C 195.277344 467.980469 196.082031 457.839844 196.335938 447.6875 C 196.460938 439.90625 196.382812 432.09375 195.550781 424.355469 C 195.125 420.410156 194.464844 416.519531 193.628906 412.644531 C 193.429688 411.722656 193.226562 410.816406 193.011719 409.90625 C 192.941406 409.597656 192.867188 409.304688 192.796875 408.996094 C 192.800781 408.980469 192.800781 408.980469 192.789062 408.964844 C 192.253906 406.949219 191.703125 404.949219 191.09375 402.949219 C 188.78125 395.371094 185.792969 388.011719 182.417969 380.847656 C 181.625 379.164062 180.800781 377.488281 179.929688 375.839844 C 179.757812 375.515625 179.585938 375.191406 179.398438 374.851562 C 179.390625 374.820312 179.378906 374.800781 179.351562 374.769531 C 179.316406 374.71875 179.292969 374.667969 179.246094 374.589844 C 178.6875 373.609375 178.125 372.632812 177.546875 371.664062 C 175.527344 368.320312 173.328125 365.066406 170.945312 361.960938 C 168.375 358.605469 165.9375 355.164062 163.148438 351.996094 C 162.667969 351.449219 162.1875 350.898438 161.726562 350.335938 C 161.285156 350.296875 160.847656 350.242188 160.433594 350.148438 C 158.234375 349.675781 156.332031 348.917969 154.425781 347.683594 C 153.601562 347.15625 152.796875 346.601562 152.011719 346.015625 C 148.839844 343.667969 149.175781 338.371094 152.308594 336.183594 Z M 186.914062 359.957031 C 195.003906 369.371094 201.367188 380.0625 206.15625 391.503906 C 211 403.074219 214.515625 415.34375 216.117188 427.789062 C 217.300781 436.980469 217.433594 446.253906 217.199219 455.503906 C 222.109375 445.808594 227.742188 436.445312 234.195312 427.71875 C 242.96875 415.800781 253.53125 405.003906 265.546875 396.339844 C 279.171875 386.496094 294.769531 379.648438 310.097656 372.96875 C 318.035156 369.523438 326.15625 366.59375 334.3125 363.734375 C 336.796875 362.855469 339.296875 362.070312 341.792969 361.285156 C 339.214844 359.902344 336.65625 358.511719 334.113281 357.089844 C 325.667969 352.34375 317.34375 347.292969 309.457031 341.636719 C 295.179688 331.410156 283.082031 318.90625 274.097656 303.78125 C 267.027344 291.910156 261.820312 279.542969 258.679688 266.082031 C 257.789062 262.257812 257.125 258.398438 256.605469 254.496094 C 255.164062 258.019531 253.628906 261.507812 251.949219 264.933594 C 246.183594 276.710938 239.066406 287.800781 231.425781 298.425781 C 222.78125 310.453125 214.058594 322.691406 203.183594 332.816406 C 197.050781 338.53125 189.96875 343.285156 182.199219 346.519531 C 179.976562 347.4375 177.71875 348.1875 175.402344 348.761719 C 179.625 352.078125 183.378906 355.839844 186.914062 359.957031 Z M 186.914062 359.957031 " fill-opacity="1" fill-rule="nonzero"/></g></g></g><g clip-path="url(#ff4ddf3ddf)"><g clip-path="url(#0386043c09)"><g clip-path="url(#c4f96cb81e)"><path fill="#afcbff" d="M 501.785156 169.839844 C 501.9375 169.894531 502.109375 169.933594 502.265625 169.988281 C 502.265625 169.988281 502.238281 169.984375 502.238281 169.984375 C 502.09375 169.949219 501.953125 169.894531 501.808594 169.859375 C 501.796875 169.84375 501.785156 169.839844 501.785156 169.839844 Z M 501.785156 169.839844 " fill-opacity="1" fill-rule="nonzero"/></g></g></g><g clip-path="url(#1e64d2f1cd)"><g clip-path="url(#bd22f7cb07)"><g clip-path="url(#e884472ac5)"><path fill="#afcbff" d="M 509.984375 187.042969 C 509.785156 187.101562 509.5625 187.171875 509.351562 187.210938 C 507.191406 188.570312 504.917969 189.628906 502.277344 189.601562 C 502.261719 189.601562 502.25 189.597656 502.234375 189.597656 C 500.949219 190.109375 499.675781 190.65625 498.472656 191.226562 C 494.578125 193.070312 490.527344 194.550781 486.707031 196.585938 C 486.671875 196.613281 486.640625 196.621094 486.605469 196.648438 C 486.246094 196.859375 485.871094 197.066406 485.511719 197.277344 C 484.515625 197.867188 483.558594 198.488281 482.585938 199.097656 C 480.742188 200.25 478.863281 201.339844 477.070312 202.5625 C 473.417969 205.027344 469.929688 207.769531 466.625 210.6875 C 465.867188 211.355469 465.125 212.027344 464.390625 212.714844 C 463.957031 213.140625 463.519531 213.5625 463.078125 214 C 461.480469 215.578125 459.933594 217.210938 458.429688 218.875 C 455.378906 222.234375 452.503906 225.742188 449.757812 229.355469 C 447.027344 232.957031 444.363281 236.628906 441.816406 240.378906 C 440.5625 242.234375 439.335938 244.109375 438.148438 246.019531 C 437.890625 246.425781 437.648438 246.832031 437.394531 247.238281 C 437.550781 246.980469 437.6875 246.78125 437.804688 246.589844 C 437.730469 246.695312 437.667969 246.804688 437.625 246.890625 C 437.007812 247.890625 436.40625 248.914062 435.816406 249.9375 C 433.425781 254.023438 431.15625 258.199219 429.015625 262.429688 C 426.464844 267.457031 423.933594 273.140625 418.890625 276.023438 C 416.671875 277.300781 414.398438 277.882812 411.976562 277.015625 C 410.238281 277.21875 408.402344 276.980469 406.601562 276.136719 C 402.90625 274.402344 400.253906 270.527344 400.164062 266.425781 C 400.117188 264.429688 400.078125 262.386719 400.207031 260.402344 C 400.511719 256.066406 401.039062 251.722656 401.558594 247.402344 C 402.566406 239.015625 403.765625 230.644531 404.507812 222.230469 C 404.695312 220.152344 404.84375 218.066406 404.960938 215.972656 C 405.015625 215.046875 405.054688 214.117188 405.082031 213.183594 C 405.089844 212.949219 405.09375 212.710938 405.101562 212.472656 C 405.097656 212.308594 405.105469 212.164062 405.113281 212.121094 C 405.144531 208.082031 404.972656 204.03125 404.53125 200.007812 C 404.316406 198.042969 404.027344 196.082031 403.660156 194.136719 C 403.488281 193.234375 403.300781 192.328125 403.101562 191.421875 C 403.046875 191.191406 402.992188 190.972656 402.9375 190.742188 C 402.882812 190.527344 402.824219 190.324219 402.769531 190.105469 C 401.632812 186.039062 400.292969 181.964844 398.636719 178.082031 C 397.777344 176.0625 396.75 174.164062 395.808594 172.191406 C 395.761719 172.109375 395.714844 172.027344 395.671875 171.933594 C 395.425781 171.492188 395.167969 171.066406 394.921875 170.640625 C 394.273438 169.546875 393.59375 168.472656 392.882812 167.398438 C 390.023438 163.058594 386.949219 158.75 383.789062 154.601562 C 382.578125 153.019531 381.519531 151.324219 380.457031 149.644531 C 377.078125 147.125 376.175781 141.160156 379.160156 138.121094 C 381.121094 136.105469 382.660156 135.1875 385.488281 134.496094 C 385.566406 134.480469 385.660156 134.449219 385.753906 134.417969 C 385.828125 134.402344 385.910156 134.371094 386 134.355469 C 387.722656 133.894531 389.4375 133.371094 391.128906 132.804688 C 394.1875 131.777344 397.183594 130.566406 400.113281 129.207031 C 401.492188 128.558594 402.851562 127.851562 404.207031 127.15625 C 404.417969 127.023438 404.644531 126.910156 404.859375 126.78125 C 405.59375 126.359375 406.328125 125.925781 407.050781 125.472656 C 409.796875 123.773438 412.433594 121.925781 414.980469 119.960938 C 416.183594 119.015625 417.371094 118.058594 418.523438 117.0625 C 419.105469 116.558594 419.675781 116.054688 420.242188 115.546875 C 420.554688 115.269531 420.867188 114.976562 421.179688 114.683594 C 421.300781 114.566406 421.425781 114.453125 421.5625 114.339844 C 422.1875 113.753906 422.066406 113.871094 421.195312 114.683594 C 421.429688 114.796875 424.007812 111.882812 424.273438 111.597656 C 425.410156 110.421875 426.519531 109.214844 427.589844 107.96875 C 432.03125 102.910156 435.753906 97.410156 439.648438 91.9375 C 440.691406 90.480469 441.710938 88.992188 442.703125 87.496094 C 443.203125 86.742188 443.695312 85.984375 444.183594 85.214844 C 444.421875 84.835938 444.675781 84.445312 444.914062 84.066406 C 444.992188 83.945312 445.070312 83.824219 445.132812 83.699219 C 446.273438 81.824219 447.367188 79.839844 448.8125 78.195312 C 450.78125 75.957031 453.34375 74.753906 456.308594 74.707031 C 459.492188 74.667969 461.960938 77.058594 462.023438 79.816406 C 462.359375 80.613281 462.476562 81.476562 462.234375 82.269531 C 461.605469 84.402344 461.414062 87.074219 460.4375 89.050781 C 460.414062 89.121094 460.398438 89.207031 460.371094 89.277344 C 460.261719 89.707031 460.136719 90.132812 460.023438 90.574219 C 459.761719 91.589844 459.542969 92.609375 459.339844 93.632812 C 458.941406 95.621094 458.65625 97.640625 458.445312 99.660156 C 458.355469 100.640625 458.273438 101.625 458.226562 102.613281 C 458.199219 103.070312 458.1875 103.527344 458.160156 103.984375 C 458.15625 104.011719 458.148438 104.054688 458.160156 104.085938 C 458.167969 104.132812 458.160156 104.191406 458.160156 104.265625 C 458.203125 108.402344 458.484375 112.519531 459.171875 116.605469 C 459.324219 117.523438 459.496094 118.441406 459.679688 119.34375 C 459.871094 120.3125 460.347656 121.453125 460.386719 122.441406 C 460.40625 122.519531 460.4375 122.597656 460.457031 122.675781 C 460.578125 123.125 460.703125 123.574219 460.828125 124.011719 C 461.125 125.050781 461.457031 126.085938 461.800781 127.117188 C 463.121094 131.039062 464.726562 134.867188 466.605469 138.546875 C 466.835938 138.984375 467.066406 139.40625 467.28125 139.84375 C 467.808594 140.757812 468.335938 141.65625 468.882812 142.542969 C 469.9375 144.253906 471.074219 145.929688 472.261719 147.554688 C 473.5 149.25 474.792969 150.875 476.167969 152.457031 C 476.46875 152.800781 476.769531 153.160156 477.089844 153.503906 C 477.214844 153.644531 477.53125 153.992188 477.746094 154.230469 C 477.761719 154.25 477.785156 154.28125 477.800781 154.285156 C 478.222656 154.722656 478.660156 155.148438 479.101562 155.570312 C 481.992188 158.382812 484.980469 161.046875 488.289062 163.359375 C 488.71875 163.664062 489.164062 163.957031 489.609375 164.246094 C 489.742188 164.34375 490.011719 164.503906 490.269531 164.675781 C 490.445312 164.777344 490.609375 164.878906 490.703125 164.9375 C 491.222656 165.242188 491.753906 165.53125 492.277344 165.804688 C 494.199219 166.832031 496.175781 167.765625 498.207031 168.570312 C 499.257812 168.988281 500.324219 169.375 501.402344 169.722656 C 501.457031 169.746094 501.613281 169.796875 501.78125 169.855469 C 501.371094 169.730469 500.957031 169.605469 500.546875 169.484375 C 500.972656 169.609375 501.398438 169.734375 501.824219 169.859375 C 502.023438 169.921875 502.191406 169.976562 502.25 169.988281 C 502.546875 170.078125 502.847656 170.167969 503.144531 170.257812 C 503.632812 170.46875 504.074219 170.773438 504.539062 171.027344 C 506.660156 172.21875 508.761719 173.226562 510.3125 175.175781 C 510.875 175.875 511.347656 176.660156 511.890625 177.367188 C 512.878906 178.652344 513.230469 180.3125 513.054688 181.917969 C 513.238281 182.363281 513.324219 182.851562 513.304688 183.367188 C 513.230469 185.378906 511.871094 186.578125 509.984375 187.042969 Z M 460.238281 121.972656 C 460.253906 122.050781 460.285156 122.144531 460.304688 122.222656 C 460.195312 121.773438 459.984375 121.011719 460.238281 121.972656 Z M 478.917969 180.546875 C 471.300781 175.441406 464.78125 168.632812 459.710938 161.011719 C 450.023438 146.402344 444.75 129.179688 444.703125 111.699219 C 443.222656 113.683594 441.6875 115.628906 440.117188 117.507812 C 431.203125 128.203125 420.539062 137.078125 408.222656 143.574219 C 405 145.269531 401.660156 146.773438 398.253906 148.054688 C 396.847656 148.582031 395.4375 149.058594 394 149.503906 C 395.164062 150.339844 396.308594 151.199219 397.449219 152.089844 C 401.5 155.277344 405.03125 159.597656 408.171875 163.667969 C 413.742188 170.863281 418.089844 178.921875 420.511719 187.710938 C 424.550781 202.347656 424.589844 217.285156 423.761719 232.269531 C 426.660156 227.769531 429.734375 223.375 433.085938 219.230469 C 439.289062 211.519531 446.191406 204.316406 453.738281 197.910156 C 461.027344 191.734375 469.25 186.042969 478.199219 182.589844 C 479.019531 182.273438 479.851562 181.988281 480.683594 181.699219 C 480.109375 181.296875 479.511719 180.9375 478.917969 180.546875 Z M 478.917969 180.546875 " fill-opacity="1" fill-rule="nonzero"/></g></g></g><g clip-path="url(#38305a890d)"><g clip-path="url(#e5d6d65839)"><g clip-path="url(#90ddae3617)"><path fill="#afcbff" d="M 437.796875 246.558594 C 438.195312 245.90625 438.742188 245.070312 437.796875 246.558594 Z M 437.796875 246.558594 " fill-opacity="1" fill-rule="nonzero"/></g></g></g><g clip-path="url(#b1994a92d4)"><g clip-path="url(#344f25cf73)"><g clip-path="url(#a0eb999a1d)"><path fill="#afcbff" d="M 385.738281 134.402344 C 385.464844 134.464844 385.199219 134.542969 384.933594 134.617188 C 386.621094 134.09375 386.207031 134.265625 385.738281 134.402344 Z M 385.738281 134.402344 " fill-opacity="1" fill-rule="nonzero"/></g></g></g></svg>