<svg xmlns="http://www.w3.org/2000/svg" xmlns:xlink="http://www.w3.org/1999/xlink" width="1024" zoomAndPan="magnify" viewBox="0 0 768 767.999994" height="1024" preserveAspectRatio="xMidYMid meet" version="1.0"><defs><clipPath id="c3eda0c384"><path d="M 96.085938 139 L 234 139 L 234 194 L 96.085938 194 Z M 96.085938 139 " clip-rule="nonzero"/></clipPath></defs><path fill="#afcbff" d="M 304.207031 274.003906 C 304.40625 281.539062 303.027344 287.761719 304.796875 293.984375 C 305.714844 297.128906 302.765625 299.683594 301.652344 302.5 C 297.789062 312.066406 293.070312 321.238281 293.332031 332.308594 C 293.59375 341.808594 287.304688 349.863281 284.03125 358.511719 C 281.28125 365.71875 277.152344 372.269531 275.90625 380.328125 C 274.730469 387.992188 268.503906 391.332031 260.777344 390.414062 C 254.09375 389.628906 248.851562 384.910156 249.375 377.773438 C 250.164062 367.027344 249.640625 356.480469 253.699219 345.605469 C 261.234375 325.234375 270.144531 305.1875 273.8125 283.503906 C 275.121094 275.644531 279.445312 268.894531 284.097656 262.605469 C 289.402344 255.53125 295.234375 256.121094 300.277344 263.589844 C 302.703125 267.125 304.207031 270.925781 304.140625 273.941406 Z M 304.207031 274.003906 " fill-opacity="1" fill-rule="nonzero"/><path fill="#afcbff" d="M 466.734375 221.925781 C 459.203125 223.824219 451.539062 222.910156 443.9375 220.550781 C 441.382812 219.765625 439.222656 219.5 436.535156 220.550781 C 428.542969 223.496094 420.222656 222.777344 411.839844 222.449219 C 407.253906 222.253906 402.863281 220.15625 398.015625 221.53125 C 388.320312 224.21875 380.917969 218.453125 373.910156 213.34375 C 368.601562 209.480469 368.667969 200.4375 373.714844 196.835938 C 379.214844 192.90625 385.375 188.386719 392.1875 189.367188 C 405.945312 191.464844 419.109375 186.945312 432.671875 187.007812 C 438.960938 187.007812 445.25 186.617188 451.210938 188.320312 C 459.136719 190.546875 466.34375 190.941406 473.679688 186.417969 C 477.675781 183.929688 482.71875 182.554688 486.847656 186.289062 C 490.972656 190.023438 492.875 194.738281 490.058594 200.308594 C 489.859375 200.765625 489.925781 201.355469 489.796875 201.878906 C 484.421875 223.105469 483.570312 222.972656 466.671875 222.121094 Z M 466.734375 221.925781 " fill-opacity="1" fill-rule="nonzero"/><path fill="#afcbff" d="M 204.042969 59.59375 C 202.929688 49.308594 205.222656 44.460938 211.121094 41.449219 C 217.34375 38.304688 221.992188 39.484375 225.464844 45.773438 C 231.425781 56.582031 239.945312 66.078125 242.171875 78.789062 C 242.761719 82 245.511719 83.964844 247.347656 86.519531 C 256.78125 99.554688 264.835938 113.378906 268.441406 129.296875 C 269.292969 133.03125 271.585938 135.847656 273.878906 138.730469 C 278.789062 144.953125 278.398438 151.175781 273.878906 157.398438 C 272.960938 158.644531 272.238281 160.085938 271.386719 161.394531 C 268.046875 166.765625 262.871094 168.535156 258.679688 164.082031 C 249.902344 154.777344 238.566406 146.851562 236.601562 132.769531 C 235.882812 127.394531 232.34375 123.203125 230.96875 118.421875 C 225.988281 101.652344 215.378906 87.828125 208.300781 72.238281 C 206.140625 67.519531 204.894531 62.410156 203.914062 59.660156 Z M 204.042969 59.59375 " fill-opacity="1" fill-rule="nonzero"/><g clip-path="url(#c3eda0c384)"><path fill="#afcbff" d="M 111.675781 140.105469 C 115.476562 139.449219 119.667969 140.234375 123.402344 142.070312 C 129.035156 144.886719 135.261719 145.804688 140.960938 147.835938 C 157.074219 153.664062 174.632812 154.320312 190.15625 161.59375 C 199.851562 166.113281 210.921875 164.734375 220.289062 169.78125 C 222.058594 170.761719 224.351562 170.828125 226.253906 171.679688 C 231.230469 173.90625 233.917969 178.691406 233.457031 184.324219 C 233.066406 189.5625 229.132812 190.679688 224.875 191.921875 C 215.96875 194.476562 206.796875 193.296875 198.671875 190.941406 C 187.601562 187.730469 176.074219 188.1875 165.132812 184.914062 C 161.660156 183.863281 157.269531 184.257812 154.652344 182.226562 C 147.183594 176.332031 138.339844 175.21875 129.691406 174.300781 C 120.652344 173.382812 113.316406 168.011719 104.535156 166.175781 C 98.246094 164.867188 95.757812 158.511719 96.9375 152.484375 C 98.3125 145.214844 103.226562 140.957031 111.613281 139.972656 Z M 111.675781 140.105469 " fill-opacity="1" fill-rule="nonzero"/></g><path fill="#afcbff" d="M 152.554688 320.777344 C 146.855469 320.453125 142.074219 321.238281 138.011719 317.894531 C 132.835938 313.636719 131.789062 308.332031 135.71875 302.894531 C 143.1875 292.675781 152.03125 284.421875 163.757812 278.722656 C 177.839844 271.972656 190.679688 263.128906 201.75 251.730469 C 206.011719 247.34375 211.578125 244.003906 216.882812 240.859375 C 221.667969 238.039062 235.097656 241.710938 238.503906 246.097656 C 238.828125 246.492188 239.15625 246.949219 239.289062 247.410156 C 242.300781 255.203125 236.539062 270.074219 228.152344 272.039062 C 221.730469 273.546875 217.867188 278.527344 211.90625 280.492188 C 207.582031 281.933594 204.570312 285.992188 202.277344 290.316406 C 199 296.476562 193.824219 300.796875 187.472656 303.878906 C 184.652344 305.1875 181.574219 306.496094 179.542969 308.660156 C 171.878906 316.914062 159.890625 314.621094 152.488281 320.714844 Z M 152.554688 320.777344 " fill-opacity="1" fill-rule="nonzero"/><path fill="#afcbff" d="M 409.613281 52.976562 C 409.546875 55.597656 410.332031 58.675781 409.21875 60.707031 C 403.714844 70.925781 400.046875 81.933594 392.777344 91.628906 C 386.945312 99.421875 378.5625 104.992188 374.367188 113.96875 C 373.910156 114.882812 373.449219 116.195312 372.664062 116.523438 C 362.773438 120.453125 360.414062 129.820312 356.613281 138.207031 C 354.585938 142.789062 350.523438 145.34375 346.917969 148.226562 C 340.957031 153.074219 334.078125 156.679688 328.839844 162.507812 C 326.613281 165 323.269531 165.324219 320.191406 163.558594 C 316.457031 161.265625 315.738281 157.464844 317.375 153.992188 C 323.269531 141.480469 326.742188 128.117188 337.683594 117.699219 C 347.640625 108.203125 354.976562 95.691406 362.378906 83.832031 C 367.097656 76.300781 371.8125 69.027344 378.035156 62.609375 C 383.082031 57.367188 386.878906 51.078125 391.792969 45.707031 C 394.675781 42.496094 398.738281 41.1875 403.191406 43.21875 C 407.449219 45.183594 409.675781 48.261719 409.546875 53.042969 Z M 409.613281 52.976562 " fill-opacity="1" fill-rule="nonzero"/><path fill="#afcbff" d="M 427.625 354.121094 C 427.625 354.121094 427.167969 356.875 426.710938 359.953125 C 426.121094 364.210938 425.335938 368.796875 420.160156 369.253906 C 415.574219 369.714844 409.613281 369.910156 407.84375 364.867188 C 405.355469 357.855469 399.128906 354.449219 394.675781 349.863281 C 384.261719 339.1875 377.445312 326.675781 371.222656 313.574219 C 369.519531 310.035156 368.015625 306.695312 364.34375 305.777344 C 356.484375 303.746094 356.878906 296.671875 354.386719 291.234375 C 351.441406 284.8125 350.328125 278.199219 352.226562 271.449219 C 354.453125 263.65625 362.25 261.425781 368.078125 266.996094 C 372.597656 271.253906 376.921875 275.839844 380.527344 280.882812 C 390.484375 294.835938 402.734375 306.695312 413.609375 319.796875 C 420.8125 328.507812 425.792969 339.121094 427.5625 354.1875 Z M 427.625 354.121094 " fill-opacity="1" fill-rule="nonzero"/><path fill="#afcbff" d="M 572.402344 396.703125 C 583.996094 398.078125 591.398438 413.277344 584.980469 423.039062 C 580.917969 429.128906 581.703125 437.972656 574.039062 441.96875 C 573.253906 442.363281 573.253906 444.589844 573.253906 445.964844 C 573.253906 456.710938 565 464.769531 563.6875 475.183594 C 563.558594 476.363281 562.3125 477.671875 561.265625 478.457031 C 549.933594 487.039062 544.886719 499.617188 539.515625 512.066406 C 535.128906 522.21875 528.839844 530.734375 518.882812 536.171875 C 516.261719 537.613281 513.96875 538.988281 511.152344 537.089844 C 507.679688 534.796875 505.976562 531.785156 507.023438 527.523438 C 508.269531 522.546875 508.988281 517.304688 510.890625 512.589844 C 513.445312 506.429688 514.296875 500.011719 515.472656 493.589844 C 515.933594 490.90625 516.523438 487.761719 518.226562 485.730469 C 526.808594 475.640625 530.082031 462.605469 537.289062 451.796875 C 545.675781 439.152344 549.472656 424.480469 555.695312 410.917969 C 558.25 405.351562 561.789062 401.550781 566.570312 398.601562 C 568.472656 397.425781 570.960938 397.164062 572.46875 396.703125 Z M 572.402344 396.703125 " fill-opacity="1" fill-rule="nonzero"/><path fill="#afcbff" d="M 370.570312 668.960938 C 371.421875 664.175781 373.582031 659.984375 377.054688 656.707031 C 384.785156 649.304688 392.839844 642.230469 400.769531 635.027344 C 421.664062 627.097656 435.292969 608.035156 455.730469 599.324219 C 458.21875 598.273438 460.316406 596.246094 463.199219 595.65625 C 468.832031 594.539062 472.371094 597.882812 471.320312 603.582031 C 470.207031 609.476562 466.472656 613.734375 462.28125 617.46875 C 459.136719 620.285156 455.074219 622.054688 454.945312 627.097656 C 454.945312 627.949219 454.289062 628.933594 453.632812 629.523438 C 447.34375 635.222656 438.109375 638.300781 436.339844 648.191406 C 429.199219 652.515625 424.089844 659.722656 415.835938 662.605469 C 411.839844 663.980469 409.21875 666.601562 407.058594 670.792969 C 402.011719 680.292969 392.054688 683.175781 382.230469 684.617188 C 374.890625 685.664062 369.128906 677.214844 370.632812 668.960938 Z M 370.570312 668.960938 " fill-opacity="1" fill-rule="nonzero"/><path fill="#afcbff" d="M 468.175781 513.898438 C 466.671875 519.992188 456.976562 524.25 450.6875 520.84375 C 446.230469 518.417969 440.859375 515.601562 438.632812 511.476562 C 434.046875 503.023438 425.859375 497.847656 421.011719 489.660156 C 418.0625 484.746094 413.933594 479.574219 406.925781 479.179688 C 406.007812 479.179688 405.089844 478.722656 404.238281 478.328125 C 399.589844 476.035156 382.558594 452.058594 381.96875 446.949219 C 380.917969 438.171875 389.433594 429.128906 398.214844 429.589844 C 401.292969 429.785156 403.652344 431.292969 405.15625 433.847656 C 410.265625 442.558594 418.519531 447.667969 426.054688 453.957031 C 438.566406 464.441406 450.359375 476.101562 460.445312 489.070312 C 461.558594 490.511719 463.394531 492.542969 463.066406 493.789062 C 461.234375 500.667969 462.414062 506.367188 467.980469 511.082031 C 468.4375 511.476562 468.175781 512.851562 468.242188 513.769531 Z M 468.175781 513.898438 " fill-opacity="1" fill-rule="nonzero"/><path fill="#afcbff" d="M 594.085938 547.765625 C 588.144531 546.457031 583.539062 548.203125 580.261719 553.007812 C 575.675781 559.691406 566.242188 558.640625 562.445312 551.042969 C 559.167969 544.492188 561.070312 535.515625 567.816406 532.832031 C 583.015625 526.804688 596.3125 517.042969 611.902344 512 C 615.835938 510.6875 619.4375 508.265625 623.238281 506.496094 C 631.6875 502.5 640.203125 498.636719 648.71875 494.707031 C 655.597656 491.5625 661.625 494.117188 667.128906 498.046875 C 671.777344 501.386719 670.730469 507.546875 664.835938 509.378906 C 660.578125 510.753906 658.414062 513.308594 657.367188 516.847656 C 656.320312 520.386719 654.679688 522.808594 651.078125 523.527344 C 639.746094 525.625 631.6875 534.140625 621.535156 538.597656 C 617.277344 540.429688 613.28125 543.050781 609.480469 545.671875 C 604.371094 549.144531 599.195312 549.996094 594.214844 547.832031 Z M 594.085938 547.765625 " fill-opacity="1" fill-rule="nonzero"/><path fill="#afcbff" d="M 659.660156 614.128906 C 652.585938 628.738281 642.101562 631.617188 628.609375 629.785156 C 620.550781 628.738281 612.886719 627.296875 605.613281 623.824219 C 594.609375 618.648438 583.277344 615.175781 570.765625 614.519531 C 560.609375 613.996094 552.550781 607.644531 546.132812 599.714844 C 543.839844 596.832031 544.824219 592.835938 548.230469 591.527344 C 556.746094 588.316406 566.046875 587.335938 574.433594 589.5625 C 582.164062 591.660156 589.957031 593.101562 597.753906 594.277344 C 610.265625 596.113281 622.777344 597.488281 635.160156 600.566406 C 644.789062 602.992188 651.667969 608.429688 659.59375 614.0625 Z M 659.660156 614.128906 " fill-opacity="1" fill-rule="nonzero"/><path fill="#afcbff" d="M 389.371094 544.492188 C 402.863281 546.195312 416.425781 544.820312 429.917969 544.6875 C 433.652344 544.6875 437.453125 544.886719 441.1875 545.277344 C 444.332031 545.539062 446.558594 547.441406 447.015625 550.519531 C 447.476562 553.402344 446.691406 556.347656 444.199219 558.050781 C 441.90625 559.625 439.289062 561.132812 436.601562 561.523438 C 430.96875 562.441406 425.726562 564.277344 420.617188 566.765625 C 418.980469 567.550781 416.6875 568.597656 415.3125 568.074219 C 405.484375 564.078125 396.511719 570.105469 386.945312 570.039062 C 378.167969 570.039062 369.390625 572.398438 360.609375 573.578125 C 353.339844 574.5625 346.65625 572.726562 340.566406 568.664062 C 332.964844 563.554688 333.03125 555.039062 341.023438 550.648438 C 346.789062 547.503906 353.273438 545.867188 359.824219 545.277344 C 369.652344 544.425781 379.476562 543.507812 389.371094 544.625 Z M 389.371094 544.492188 " fill-opacity="1" fill-rule="nonzero"/><path fill="#afcbff" d="M 531.851562 682.125 C 531 686.382812 531.261719 690.445312 532.898438 694.507812 C 535.0625 699.878906 535.714844 705.25 532.246094 710.621094 C 531.066406 712.390625 530.804688 715.144531 531 717.371094 C 531.523438 725.035156 526.019531 726.605469 520.585938 728.375 C 516.785156 729.621094 514.296875 728.179688 512.917969 724.445312 C 507.285156 709.574219 504.992188 694.375 504.796875 678.328125 C 504.664062 664.375 503.75 650.355469 503.289062 636.402344 C 503.160156 632.667969 502.898438 628.867188 504.339844 625.332031 C 505.714844 622.121094 510.101562 621.070312 512.332031 623.890625 C 517.046875 629.652344 521.5 635.679688 525.957031 641.707031 C 526.742188 642.820312 527.59375 644.328125 527.460938 645.574219 C 526.347656 654.742188 528.96875 662.996094 532.636719 671.1875 C 534.210938 674.789062 532.636719 678.589844 531.917969 682.257812 Z M 531.851562 682.125 " fill-opacity="1" fill-rule="nonzero"/></svg>